<?xml version="1.0" encoding="utf-8" ?>
<svg baseProfile="full" height="387.46px" version="1.1" width="720.0px" xmlns="http://www.w3.org/2000/svg" xmlns:ev="http://www.w3.org/2001/xml-events" xmlns:xlink="http://www.w3.org/1999/xlink"><defs /><rect fill="white" height="387.46" width="720.0" x="0" y="0" /><text fill="#333" font-family="Arial, sans-serif" font-size="20px" font-weight="bold" text-anchor="middle" x="360.0" y="25">BH1750 Light Sensor Wiring</text><rect fill="#2d8e3a" height="307.46" rx="8" ry="8" stroke="#1a5a23" stroke-width="2" width="205.42" x="40.0" y="40.0" /><rect fill="#1a1a1a" height="100" rx="2" ry="2" stroke="#000" width="35" x="58.715" y="40.156" /><circle cx="214.5" cy="58.0" fill="#FFA500" opacity="0.95" r="4.5" stroke="#333" stroke-width="0.5" /><text fill="#000000" font-family="Arial, sans-serif" font-size="4.5px" font-weight="bold" text-anchor="middle" x="214.5" y="59.5">1</text><circle cx="226.5" cy="58.0" fill="#FF0000" opacity="0.95" r="4.5" stroke="#333" stroke-width="0.5" /><text fill="#000000" font-family="Arial, sans-serif" font-size="4.5px" font-weight="bold" text-anchor="middle" x="226.5" y="59.5">2</text><circle cx="214.5" cy="70.0" fill="#FF00FF" opacity="0.95" r="4.5" stroke="#333" stroke-width="0.5" /><text fill="#000000" font-family="Arial, sans-serif" font-size="4.5px" font-weight="bold" text-anchor="middle" x="214.5" y="71.5">3</text><circle cx="226.5" cy="70.0" fill="#FF0000" opacity="0.95" r="4.5" stroke="#333" stroke-width="0.5" /><text fill="#000000" font-family="Arial, sans-serif" font-size="4.5px" font-weight="bold" text-anchor="middle" x="226.5" y="71.5">4</text><circle cx="214.5" cy="82.0" fill="#FF00FF" opacity="0.95" r="4.5" stroke="#333" stroke-width="0.5" /><text fill="#000000" font-family="Arial, sans-serif" font-size="4.5px" font-weight="bold" text-anchor="middle" x="214.5" y="83.5">5</text><circle cx="226.5" cy="82.0" fill="#D3D3D3" opacity="0.95" r="4.5" stroke="#333" stroke-width="0.5" /><text fill="#000000" font-family="Arial, sans-serif" font-size="4.5px" font-weight="bold" text-anchor="middle" x="226.5" y="83.5">6</text><circle cx="214.5" cy="94.0" fill="#00FF00" opacity="0.95" r="4.5" stroke="#333" stroke-width="0.5" /><text fill="#000000" font-family="Arial, sans-serif" font-size="4.5px" font-weight="bold" text-anchor="middle" x="214.5" y="95.5">7</text><circle cx="226.5" cy="94.0" fill="#0000FF" opacity="0.95" r="4.5" stroke="#333" stroke-width="0.5" /><text fill="#FFFFFF" font-family="Arial, sans-serif" font-size="4.5px" font-weight="bold" text-anchor="middle" x="226.5" y="95.5">8</text><circle cx="214.5" cy="106.0" fill="#D3D3D3" opacity="0.95" r="4.5" stroke="#333" stroke-width="0.5" /><text fill="#000000" font-family="Arial, sans-serif" font-size="4.5px" font-weight="bold" text-anchor="middle" x="214.5" y="107.5">9</text><circle cx="226.5" cy="106.0" fill="#0000FF" opacity="0.95" r="4.5" stroke="#333" stroke-width="0.5" /><text fill="#FFFFFF" font-family="Arial, sans-serif" font-size="4.5px" font-weight="bold" text-anchor="middle" x="226.5" y="107.5">10</text><circle cx="214.5" cy="118.0" fill="#00FF00" opacity="0.95" r="4.5" stroke="#333" stroke-width="0.5" /><text fill="#000000" font-family="Arial, sans-serif" font-size="4.5px" font-weight="bold" text-anchor="middle" x="214.5" y="119.5">11</text><circle cx="226.5" cy="118.0" fill="#00FF00" opacity="0.95" r="4.5" stroke="#333" stroke-width="0.5" /><text fill="#000000" font-family="Arial, sans-serif" font-size="4.5px" font-weight="bold" text-anchor="middle" x="226.5" y="119.5">12</text><circle cx="214.5" cy="130.0" fill="#00FF00" opacity="0.95" r="4.5" stroke="#333" stroke-width="0.5" /><text fill="#000000" font-family="Arial, sans-serif" font-size="4.5px" font-weight="bold" text-anchor="middle" x="214.5" y="131.5">13</text><circle cx="226.5" cy="130.0" fill="#D3D3D3" opacity="0.95" r="4.5" stroke="#333" stroke-width="0.5" /><text fill="#000000" font-family="Arial, sans-serif" font-size="4.5px" font-weight="bold" text-anchor="middle" x="226.5" y="131.5">14</text><circle cx="214.5" cy="142.0" fill="#00FF00" opacity="0.95" r="4.5" stroke="#333" stroke-width="0.5" /><text fill="#000000" font-family="Arial, sans-serif" font-size="4.5px" font-weight="bold" text-anchor="middle" x="214.5" y="143.5">15</text><circle cx="226.5" cy="142.0" fill="#00FF00" opacity="0.95" r="4.5" stroke="#333" stroke-width="0.5" /><text fill="#000000" font-family="Arial, sans-serif" font-size="4.5px" font-weight="bold" text-anchor="middle" x="226.5" y="143.5">16</text><circle cx="214.5" cy="154.0" fill="#FFA500" opacity="0.95" r="4.5" stroke="#333" stroke-width="0.5" /><text fill="#000000" font-family="Arial, sans-serif" font-size="4.5px" font-weight="bold" text-anchor="middle" x="214.5" y="155.5">17</text><circle cx="226.5" cy="154.0" fill="#00FF00" opacity="0.95" r="4.5" stroke="#333" stroke-width="0.5" /><text fill="#000000" font-family="Arial, sans-serif" font-size="4.5px" font-weight="bold" text-anchor="middle" x="226.5" y="155.5">18</text><circle cx="214.5" cy="166.0" fill="#0000FF" opacity="0.95" r="4.5" stroke="#333" stroke-width="0.5" /><text fill="#FFFFFF" font-family="Arial, sans-serif" font-size="4.5px" font-weight="bold" text-anchor="middle" x="214.5" y="167.5">19</text><circle cx="226.5" cy="166.0" fill="#D3D3D3" opacity="0.95" r="4.5" stroke="#333" stroke-width="0.5" /><text fill="#000000" font-family="Arial, sans-serif" font-size="4.5px" font-weight="bold" text-anchor="middle" x="226.5" y="167.5">20</text><circle cx="214.5" cy="178.0" fill="#0000FF" opacity="0.95" r="4.5" stroke="#333" stroke-width="0.5" /><text fill="#FFFFFF" font-family="Arial, sans-serif" font-size="4.5px" font-weight="bold" text-anchor="middle" x="214.5" y="179.5">21</text><circle cx="226.5" cy="178.0" fill="#00FF00" opacity="0.95" r="4.5" stroke="#333" stroke-width="0.5" /><text fill="#000000" font-family="Arial, sans-serif" font-size="4.5px" font-weight="bold" text-anchor="middle" x="226.5" y="179.5">22</text><circle cx="214.5" cy="190.0" fill="#0000FF" opacity="0.95" r="4.5" stroke="#333" stroke-width="0.5" /><text fill="#FFFFFF" font-family="Arial, sans-serif" font-size="4.5px" font-weight="bold" text-anchor="middle" x="214.5" y="191.5">23</text><circle cx="226.5" cy="190.0" fill="#0000FF" opacity="0.95" r="4.5" stroke="#333" stroke-width="0.5" /><text fill="#FFFFFF" font-family="Arial, sans-serif" font-size="4.5px" font-weight="bold" text-anchor="middle" x="226.5" y="191.5">24</text><circle cx="214.5" cy="202.0" fill="#D3D3D3" opacity="0.95" r="4.5" stroke="#333" stroke-width="0.5" /><text fill="#000000" font-family="Arial, sans-serif" font-size="4.5px" font-weight="bold" text-anchor="middle" x="214.5" y="203.5">25</text><circle cx="226.5" cy="202.0" fill="#0000FF" opacity="0.95" r="4.5" stroke="#333" stroke-width="0.5" /><text fill="#FFFFFF" font-family="Arial, sans-serif" font-size="4.5px" font-weight="bold" text-anchor="middle" x="226.5" y="203.5">26</text><circle cx="214.5" cy="214.0" fill="#FFFF00" opacity="0.95" r="4.5" stroke="#333" stroke-width="0.5" /><text fill="#000000" font-family="Arial, sans-serif" font-size="4.5px" font-weight="bold" text-anchor="middle" x="214.5" y="215.5">27</text><circle cx="226.5" cy="214.0" fill="#FFFF00" opacity="0.95" r="4.5" stroke="#333" stroke-width="0.5" /><text fill="#000000" font-family="Arial, sans-serif" font-size="4.5px" font-weight="bold" text-anchor="middle" x="226.5" y="215.5">28</text><circle cx="214.5" cy="226.0" fill="#00FF00" opacity="0.95" r="4.5" stroke="#333" stroke-width="0.5" /><text fill="#000000" font-family="Arial, sans-serif" font-size="4.5px" font-weight="bold" text-anchor="middle" x="214.5" y="227.5">29</text><circle cx="226.5" cy="226.0" fill="#D3D3D3" opacity="0.95" r="4.5" stroke="#333" stroke-width="0.5" /><text fill="#000000" font-family="Arial, sans-serif" font-size="4.5px" font-weight="bold" text-anchor="middle" x="226.5" y="227.5">30</text><circle cx="214.5" cy="238.0" fill="#00FF00" opacity="0.95" r="4.5" stroke="#333" stroke-width="0.5" /><text fill="#000000" font-family="Arial, sans-serif" font-size="4.5px" font-weight="bold" text-anchor="middle" x="214.5" y="239.5">31</text><circle cx="226.5" cy="238.0" fill="#00FF00" opacity="0.95" r="4.5" stroke="#333" stroke-width="0.5" /><text fill="#000000" font-family="Arial, sans-serif" font-size="4.5px" font-weight="bold" text-anchor="middle" x="226.5" y="239.5">32</text><circle cx="214.5" cy="250.0" fill="#00FF00" opacity="0.95" r="4.5" stroke="#333" stroke-width="0.5" /><text fill="#000000" font-family="Arial, sans-serif" font-size="4.5px" font-weight="bold" text-anchor="middle" x="214.5" y="251.5">33</text><circle cx="226.5" cy="250.0" fill="#D3D3D3" opacity="0.95" r="4.5" stroke="#333" stroke-width="0.5" /><text fill="#000000" font-family="Arial, sans-serif" font-size="4.5px" font-weight="bold" text-anchor="middle" x="226.5" y="251.5">34</text><circle cx="214.5" cy="262.0" fill="#00FF00" opacity="0.95" r="4.5" stroke="#333" stroke-width="0.5" /><text fill="#000000" font-family="Arial, sans-serif" font-size="4.5px" font-weight="bold" text-anchor="middle" x="214.5" y="263.5">35</text><circle cx="226.5" cy="262.0" fill="#00FF00" opacity="0.95" r="4.5" stroke="#333" stroke-width="0.5" /><text fill="#000000" font-family="Arial, sans-serif" font-size="4.5px" font-weight="bold" text-anchor="middle" x="226.5" y="263.5">36</text><circle cx="214.5" cy="274.0" fill="#00FF00" opacity="0.95" r="4.5" stroke="#333" stroke-width="0.5" /><text fill="#000000" font-family="Arial, sans-serif" font-size="4.5px" font-weight="bold" text-anchor="middle" x="214.5" y="275.5">37</text><circle cx="226.5" cy="274.0" fill="#00FF00" opacity="0.95" r="4.5" stroke="#333" stroke-width="0.5" /><text fill="#000000" font-family="Arial, sans-serif" font-size="4.5px" font-weight="bold" text-anchor="middle" x="226.5" y="275.5">38</text><circle cx="214.5" cy="286.0" fill="#D3D3D3" opacity="0.95" r="4.5" stroke="#333" stroke-width="0.5" /><text fill="#000000" font-family="Arial, sans-serif" font-size="4.5px" font-weight="bold" text-anchor="middle" x="214.5" y="287.5">39</text><circle cx="226.5" cy="286.0" fill="#00FF00" opacity="0.95" r="4.5" stroke="#333" stroke-width="0.5" /><text fill="#000000" font-family="Arial, sans-serif" font-size="4.5px" font-weight="bold" text-anchor="middle" x="226.5" y="287.5">40</text><text fill="#333" font-family="Arial, sans-serif" font-size="14px" font-weight="bold" text-anchor="middle" x="142.70999999999998" y="367.46">Raspberry Pi</text><path d="M 214.50,58.00 L 249.50,58.00 Q 254.50,58.00 254.50,63.00 L 254.50,65.00 Q 254.50,70.00 259.50,70.00 L 455.00,70.00" fill="none" opacity="1.0" stroke="white" stroke-linecap="round" stroke-linejoin="round" stroke-width="7" /><path d="M 214.50,58.00 L 249.50,58.00 Q 254.50,58.00 254.50,63.00 L 254.50,65.00 Q 254.50,70.00 259.50,70.00 L 455.00,70.00" fill="none" opacity="0.8" stroke="#FF0000" stroke-linecap="round" stroke-linejoin="round" stroke-width="3" /><circle cx="214.5" cy="58.0" fill="white" r="4" /><circle cx="214.5" cy="58.0" fill="#FF0000" r="3" /><circle cx="455.0" cy="70.0" fill="white" r="4" /><circle cx="455.0" cy="70.0" fill="#FF0000" r="3" /><path d="M 226.50,82.00 L 264.50,82.00 Q 266.50,82.00 266.50,80.00 L 266.50,80.00 Q 266.50,78.00 268.50,78.00 L 455.00,78.00" fill="none" opacity="1.0" stroke="white" stroke-linecap="round" stroke-linejoin="round" stroke-width="7" /><path d="M 226.50,82.00 L 264.50,82.00 Q 266.50,82.00 266.50,80.00 L 266.50,80.00 Q 266.50,78.00 268.50,78.00 L 455.00,78.00" fill="none" opacity="0.8" stroke="#000000" stroke-linecap="round" stroke-linejoin="round" stroke-width="3" /><circle cx="226.5" cy="82.0" fill="white" r="4" /><circle cx="226.5" cy="82.0" fill="#000000" r="3" /><circle cx="455.0" cy="78.0" fill="white" r="4" /><circle cx="455.0" cy="78.0" fill="#000000" r="3" /><path d="M 214.50,82.00 L 252.50,82.00 Q 254.50,82.00 254.50,84.00 L 254.50,84.00 Q 254.50,86.00 256.50,86.00 L 455.00,86.00" fill="none" opacity="1.0" stroke="white" stroke-linecap="round" stroke-linejoin="round" stroke-width="7" /><path d="M 214.50,82.00 L 252.50,82.00 Q 254.50,82.00 254.50,84.00 L 254.50,84.00 Q 254.50,86.00 256.50,86.00 L 455.00,86.00" fill="none" opacity="0.8" stroke="#0000FF" stroke-linecap="round" stroke-linejoin="round" stroke-width="3" /><circle cx="214.5" cy="82.0" fill="white" r="4" /><circle cx="214.5" cy="82.0" fill="#0000FF" r="3" /><circle cx="455.0" cy="86.0" fill="white" r="4" /><circle cx="455.0" cy="86.0" fill="#0000FF" r="3" /><path d="M 214.50,70.00 L 249.50,70.00 Q 254.50,70.00 254.50,75.00 L 254.50,89.00 Q 254.50,94.00 259.50,94.00 L 455.00,94.00" fill="none" opacity="1.0" stroke="white" stroke-linecap="round" stroke-linejoin="round" stroke-width="7" /><path d="M 214.50,70.00 L 249.50,70.00 Q 254.50,70.00 254.50,75.00 L 254.50,89.00 Q 254.50,94.00 259.50,94.00 L 455.00,94.00" fill="none" opacity="0.8" stroke="#00FF00" stroke-linecap="round" stroke-linejoin="round" stroke-width="3" /><circle cx="214.5" cy="70.0" fill="white" r="4" /><circle cx="214.5" cy="70.0" fill="#00FF00" r="3" /><circle cx="455.0" cy="94.0" fill="white" r="4" /><circle cx="455.0" cy="94.0" fill="#00FF00" r="3" /><text fill="#333" font-family="Arial, sans-serif" font-size="12px" font-weight="bold" text-anchor="middle" x="485.0" y="55.0">BH1750</text><rect fill="#4A90E2" height="60.0" opacity="0.9" rx="5" ry="5" stroke="#333" stroke-width="2" width="70.0" x="450.0" y="60.0" /><circle cx="455.0" cy="70.0" fill="#FFD700" r="3" stroke="#333" /><rect fill="#000000" height="10" opacity="0.8" rx="2" ry="2" width="20.6" x="461.0" y="65.0" /><text fill="#FFFFFF" font-family="Arial, sans-serif" font-size="7px" text-anchor="start" x="465.0" y="72.5">VCC</text><circle cx="455.0" cy="78.0" fill="#FFD700" r="3" stroke="#333" /><rect fill="#000000" height="10" opacity="0.8" rx="2" ry="2" width="20.6" x="461.0" y="73.0" /><text fill="#FFFFFF" font-family="Arial, sans-serif" font-size="7px" text-anchor="start" x="465.0" y="80.5">GND</text><circle cx="455.0" cy="86.0" fill="#FFD700" r="3" stroke="#333" /><rect fill="#000000" height="10" opacity="0.8" rx="2" ry="2" width="20.6" x="461.0" y="81.0" /><text fill="#FFFFFF" font-family="Arial, sans-serif" font-size="7px" text-anchor="start" x="465.0" y="88.5">SCL</text><circle cx="455.0" cy="94.0" fill="#FFD700" r="3" stroke="#333" /><rect fill="#000000" height="10" opacity="0.8" rx="2" ry="2" width="20.6" x="461.0" y="89.0" /><text fill="#FFFFFF" font-family="Arial, sans-serif" font-size="7px" text-anchor="start" x="465.0" y="96.5">SDA</text><circle cx="455.0" cy="102.0" fill="#FFD700" r="3" stroke="#333" /><rect fill="#000000" height="10" opacity="0.8" rx="2" ry="2" width="24.8" x="461.0" y="97.0" /><text fill="#FFFFFF" font-family="Arial, sans-serif" font-size="7px" text-anchor="start" x="465.0" y="104.5">ADDR</text></svg>