<?xml version="1.0" encoding="UTF-8" standalone="no"?><!DOCTYPE svg PUBLIC "-//W3C//DTD SVG 1.1//EN" "http://www.w3.org/Graphics/SVG/1.1/DTD/svg11.dtd"><svg width="100%" height="100%" viewBox="0 0 206 308" version="1.1" xmlns="http://www.w3.org/2000/svg" xmlns:xlink="http://www.w3.org/1999/xlink" xml:space="preserve" xmlns:serif="http://www.serif.com/" style="fill-rule:evenodd;clip-rule:evenodd;stroke-linejoin:round;"><g id="pi4"><g id="g328"><path id="path324" d="M8.898,10.898c0,-6.658 4.521,-9.988 9.289,-9.988l174.974,0c12.577,0 12.577,9 12.577,18.29l0,272.099c0,8.549 -4.481,9.125 -10.85,8.838l-172.18,0c-9.576,0 -13.81,-0.576 -13.81,-9.002l-0,-280.238Z" style="fill:#00723d;"/><path id="rect326" d="M205.738,300.261l-196.883,0l-0,-299.351l196.883,0l0,299.351Z" style="fill:none;"/></g><path id="Drawing_6_0" d="M18.186,0.91l174.974,0c12.577,0 12.577,9 12.577,18.29l0,272.099c0,8.549 -4.481,9.125 -10.85,8.838l-172.18,0c-9.576,0 -13.81,-0.576 -13.81,-9.002l-0,-280.238c0,-6.658 4.521,-9.988 9.289,-9.988Z" style="fill:none;stroke:#000;stroke-width:0.62px;"/><g id="DrawingGroup_1"><g id="g337"><path id="path333" d="M19.728,305.663l0,-58.283l46.405,0l0,58.283l-46.405,0Z" style="fill:#cfcfcf;"/><path id="rect335" d="M66.133,305.705l-46.445,0l0,-58.325l46.445,0l0,58.325Z" style="fill:none;"/></g><path id="Drawing_8_0" d="M19.728,305.663l0,-58.283l46.405,0l0,58.283l-46.405,0Z" style="fill:none;stroke:#000;stroke-width:0.94px;"/></g><g id="DrawingGroup_2"><g id="g356"><path id="path352" d="M6.308,24.255l20.88,0l0,25.936l-20.88,0l0,-25.936Z" style="fill:#cfcfcf;"/><path id="rect354" d="M27.188,50.232l-20.921,0l0,-25.977l20.921,0l0,25.977Z" style="fill:none;"/></g><path id="Drawing_11_0" d="M6.308,24.255l20.88,0l0,25.936l-20.88,0l0,-25.936Z" style="fill:none;stroke:#000;stroke-width:0.87px;"/></g><g id="DrawingGroup_3"><g id="g393"><path id="path389" d="M95.418,71.401l47.473,0l3.248,3.616l0,47.35l-50.721,0l0,-50.966Z" style="fill:#8c8c8c;"/><path id="rect391" d="M146.18,122.45l-50.803,0l0,-51.049l50.803,0l0,51.049Z" style="fill:none;"/></g><path id="Drawing_16_0" d="M95.418,71.401l47.473,0l3.248,3.616l0,47.35l-50.721,0l0,-50.966Z" style="fill:none;stroke:#000;stroke-width:0.87px;"/></g><g id="DrawingGroup_4"><g id="g439"><path id="path435" d="M10.09,163.553l0,-9.413l79,0l0,9.413l-79,0Z" style="fill:#565656;"/><path id="rect437" d="M89.089,163.594l-79.04,0l0,-9.454l79.04,0l0,9.454Z" style="fill:none;"/></g><path id="Drawing_22_0" d="M10.09,163.553l0,-9.413l79,0l0,9.413l-79,0Z" style="fill:none;stroke:#000;stroke-width:0.87px;"/><path id="Drawing_23_0" d="M19.214,157.758l0,-3.618l61.037,0l0,3.618l-61.037,0Z" style="fill:none;stroke:#000;stroke-width:0.87px;"/></g><g id="DrawingGroup_5"><g id="g506"><path id="path502" d="M127.067,192.936l23.444,0l1.075,0.941l0,23.343l-24.518,0l0,-24.284Z" style="fill:#8c8c8c;"/><path id="rect504" d="M151.585,217.253l-24.552,0l0,-24.317l24.552,0l0,24.317Z" style="fill:none;"/></g><path id="Drawing_34_0" d="M127.067,192.936l23.444,0l1.075,0.941l0,23.343l-24.518,0l0,-24.284Z" style="fill:none;stroke:#000;stroke-width:0.71px;"/></g><g id="DrawingGroup_51" serif:id="DrawingGroup_5"><g id="g5061" serif:id="g506"><path id="path5021" serif:id="path502" d="M111.117,228.128l23.444,-0l1.075,0.589l0,14.615l-24.518,0l0,-15.204Z" style="fill:#8c8c8c;"/><path id="rect5041" serif:id="rect504" d="M135.635,243.354l-24.552,0l0,-15.225l24.552,-0l0,15.225Z" style="fill:none;"/></g><path id="Drawing_34_01" serif:id="Drawing_34_0" d="M111.117,228.128l23.444,-0l1.075,0.589l0,14.615l-24.518,0l0,-15.204Z" style="fill:none;stroke:#000;stroke-width:0.59px;"/></g><g id="DrawingGroup_52" serif:id="DrawingGroup_5"><g id="g5062" serif:id="g506"><path id="path5022" serif:id="path502" d="M69.478,192.603l28.69,0l1.315,1.151l0,28.567l-30.005,0l0,-29.718Z" style="fill:#8c8c8c;"/><path id="rect5042" serif:id="rect504" d="M99.483,222.362l-30.046,0l0,-29.759l30.046,0l0,29.759Z" style="fill:none;"/></g><path id="Drawing_34_02" serif:id="Drawing_34_0" d="M69.478,192.603l28.69,0l1.315,1.151l0,28.567l-30.005,0l0,-29.718Z" style="fill:none;stroke:#000;stroke-width:0.87px;"/></g><g id="DrawingGroup_7"><g id="g982"><path id="path978" d="M79.507,305.663l0,-58.119l46.076,0l0,58.119l-46.076,0Z" style="fill:#4869de;"/><path id="rect980" d="M125.583,305.704l-46.158,0l0,-58.16l46.158,0l0,58.16Z" style="fill:#4869de;"/></g><path id="Drawing_154_0" d="M79.507,305.663l0,-58.119l46.076,0l0,58.119l-46.076,0Z" style="fill:none;stroke:#000;stroke-width:0.94px;"/></g><g id="DrawingGroup_8"><g id="g1001"><path id="path997" d="M139.366,305.675l0,-51.708l55.818,0l0,51.708l-55.818,0Z" style="fill:#cfcfcf;"/><path id="rect999" d="M195.184,305.704l-55.859,0l0,-51.766l55.859,0l0,51.766Z" style="fill:none;"/></g><path id="Drawing_157_0" d="M139.366,305.675l0,-51.708l55.818,0l0,51.708l-55.818,0Z" style="fill:none;stroke:#000;stroke-width:0.81px;"/></g><g id="DrawingGroup_11"><g id="g1872"><path id="path1868" d="M5.291,93.985l0,-21.589l28.811,0l0,21.589l-28.811,0Z" style="fill:#cfcfcf;"/><path id="rect1870" d="M34.102,94.002l-28.87,0l0,-21.606l28.87,0l0,21.606Z" style="fill:none;"/></g><path id="Drawing_379_0" d="M5.291,93.985l0,-21.589l28.811,0l0,21.589l-28.811,0Z" style="fill:none;stroke:#000;stroke-width:0.89px;"/><g id="Drawing_380"><path id="rect1877" d="M22.771,89.608l-5.791,0l0,-13.623l5.791,0l0,13.623Z" style="fill:none;"/></g></g><g id="DrawingGroup_111" serif:id="DrawingGroup_11"><g id="g18721" serif:id="g1872"><path id="path18681" serif:id="path1868" d="M5.292,141.835l0,-21.733l28.941,0l0,21.733l-28.941,0Z" style="fill:#cfcfcf;"/><path id="rect18701" serif:id="rect1870" d="M34.232,141.852l-29,0l0,-21.75l29,0l0,21.75Z" style="fill:none;"/></g><path id="Drawing_379_01" serif:id="Drawing_379_0" d="M5.292,141.835l0,-21.733l28.941,0l0,21.733l-28.941,0Z" style="fill:none;stroke:#000;stroke-width:0.9px;"/><g id="Drawing_3801" serif:id="Drawing_380"><path id="rect18771" serif:id="rect1877" d="M22.85,137.429l-5.818,0l0,-13.713l5.818,0l0,13.713Z" style="fill:none;"/></g></g><g id="DrawingGroup_12"><g id="g1891"><path id="path1887" d="M12.074,174.468l0,20.181l-9.988,0l0,-20.181l9.988,0Z" style="fill:#868686;"/><path id="rect1889" d="M12.074,194.69l-10.03,0l0,-20.264l10.03,0l0,20.264Z" style="fill:none;"/></g><path id="Drawing_382_0" d="M12.074,174.468l0,20.181l-9.988,0l0,-20.181l9.988,0Z" style="fill:none;stroke:#000;stroke-width:0.41px;"/><g id="g1900"><path id="path1896" d="M54.533,173.194l0,23.757l-43.487,0l0,-23.757l43.487,0Z" style="fill:#cfcfcf;"/><path id="rect1898" d="M54.533,196.993l-43.528,0l0,-23.799l43.528,0l0,23.799Z" style="fill:none;"/></g><path id="Drawing_384_0" d="M54.533,173.194l0,23.757l-43.487,0l0,-23.757l43.487,0Z" style="fill:none;stroke:#000;stroke-width:0.78px;"/></g><g id="DrawingGroup_13"><g id="g2096"><path id="path2092" d="M180.586,227.977l-7.974,0l0,-18.537l7.974,0l0,18.537Z" style="fill:#3b3b3b;"/><path id="rect2094" d="M180.586,228.019l-8.016,0l0,-18.579l8.016,0l0,18.579Z" style="fill:none;"/></g><path id="Drawing_416_0" d="M180.586,227.977l-7.974,0l0,-18.537l7.974,0l0,18.537Z" style="fill:none;stroke:#000;stroke-width:0.25px;"/><g id="g2105"><path id="path2101" d="M178.244,221.606l0,3.329l-3.329,0l0,-3.329l3.329,0Z" style="fill:#ff9;"/><path id="rect2103" d="M178.244,224.976l-3.37,0l0,-3.37l3.37,0l0,3.37Z" style="fill:none;"/></g><path id="Drawing_418_0" d="M178.244,221.606l0,3.329l-3.329,0l0,-3.329l3.329,0Z" style="fill:none;stroke:#373435;stroke-width:0.13px;"/><g id="g2114"><path id="path2110" d="M177.503,222.347l0,1.849l-1.849,0l0,-1.849l1.849,0Z" style="fill:#ff9;"/><path id="rect2112" d="M177.503,224.237l-1.891,0l0,-1.891l1.891,0l0,1.891Z" style="fill:none;"/></g><path id="Drawing_420_0" d="M177.503,222.347l0,1.849l-1.849,0l0,-1.849l1.849,0Z" style="fill:none;stroke:#373435;stroke-width:0.13px;"/><path id="Drawing_421_0" d="M175.655,222.47l-0.74,-0.864" style="fill:none;stroke:#373435;stroke-width:0.09px;"/><path id="Drawing_422_0" d="M175.655,224.195l-0.74,0.74" style="fill:none;stroke:#373435;stroke-width:0.09px;"/><path id="Drawing_423_0" d="M177.503,224.195l0.741,0.74" style="fill:none;stroke:#373435;stroke-width:0.09px;"/><path id="Drawing_424_0" d="M177.503,222.47l0.741,-0.864" style="fill:none;stroke:#373435;stroke-width:0.09px;"/><g id="g2135"><path id="path2131" d="M178.244,212.605l0,3.329l-3.329,0l0,-3.329l3.329,0Z" style="fill:#ff9;"/><path id="rect2133" d="M178.244,215.975l-3.37,0l0,-3.37l3.37,0l0,3.37Z" style="fill:none;"/></g><path id="Drawing_426_0" d="M178.244,212.605l0,3.329l-3.329,0l0,-3.329l3.329,0Z" style="fill:none;stroke:#373435;stroke-width:0.13px;"/><g id="g2144"><path id="path2140" d="M177.503,213.468l0,1.768l-1.849,0l0,-1.768l1.849,0Z" style="fill:#ff9;"/><path id="rect2142" d="M177.503,215.276l-1.891,0l0,-1.85l1.891,0l0,1.85Z" style="fill:none;"/></g><path id="Drawing_428_0" d="M177.503,213.468l0,1.768l-1.849,0l0,-1.768l1.849,0Z" style="fill:none;stroke:#373435;stroke-width:0.13px;"/><path id="Drawing_429_0" d="M175.655,213.468l-0.74,-0.863" style="fill:none;stroke:#373435;stroke-width:0.09px;"/><path id="Drawing_430_0" d="M175.655,215.236l-0.74,0.699" style="fill:none;stroke:#373435;stroke-width:0.09px;"/><path id="Drawing_431_0" d="M177.503,215.236l0.741,0.699" style="fill:none;stroke:#373435;stroke-width:0.09px;"/><path id="Drawing_432_0" d="M177.503,213.468l0.741,-0.863" style="fill:none;stroke:#373435;stroke-width:0.09px;"/></g><g id="DrawingGroup_131" serif:id="DrawingGroup_13"><g id="g20961" serif:id="g2096"><path id="path20921" serif:id="path2092" d="M171.981,227.993l-7.974,0l0,-18.537l7.974,0l0,18.537Z" style="fill:#3b3b3b;"/><path id="rect20941" serif:id="rect2094" d="M171.981,228.035l-8.016,0l0,-18.579l8.016,0l0,18.579Z" style="fill:none;"/></g><path id="Drawing_416_01" serif:id="Drawing_416_0" d="M171.981,227.993l-7.974,0l0,-18.537l7.974,0l0,18.537Z" style="fill:none;stroke:#000;stroke-width:0.25px;"/><g id="g21051" serif:id="g2105"><path id="path21011" serif:id="path2101" d="M169.639,221.621l0,3.329l-3.329,0l0,-3.329l3.329,0Z" style="fill:#ff9;"/><path id="rect21031" serif:id="rect2103" d="M169.639,224.991l-3.37,0l0,-3.37l3.37,0l0,3.37Z" style="fill:none;"/></g><path id="Drawing_418_01" serif:id="Drawing_418_0" d="M169.639,221.621l0,3.329l-3.329,0l0,-3.329l3.329,0Z" style="fill:none;stroke:#373435;stroke-width:0.13px;"/><g id="g21141" serif:id="g2114"><path id="path21101" serif:id="path2110" d="M168.898,222.362l0,1.849l-1.849,0l0,-1.849l1.849,0Z" style="fill:#ff9;"/><path id="rect21121" serif:id="rect2112" d="M168.898,224.253l-1.891,0l0,-1.891l1.891,0l0,1.891Z" style="fill:none;"/></g><path id="Drawing_420_01" serif:id="Drawing_420_0" d="M168.898,222.362l0,1.849l-1.849,0l0,-1.849l1.849,0Z" style="fill:none;stroke:#373435;stroke-width:0.13px;"/><path id="Drawing_421_01" serif:id="Drawing_421_0" d="M167.05,222.486l-0.74,-0.864" style="fill:none;stroke:#373435;stroke-width:0.09px;"/><path id="Drawing_422_01" serif:id="Drawing_422_0" d="M167.05,224.211l-0.74,0.74" style="fill:none;stroke:#373435;stroke-width:0.09px;"/><path id="Drawing_423_01" serif:id="Drawing_423_0" d="M168.898,224.211l0.741,0.74" style="fill:none;stroke:#373435;stroke-width:0.09px;"/><path id="Drawing_424_01" serif:id="Drawing_424_0" d="M168.898,222.486l0.741,-0.864" style="fill:none;stroke:#373435;stroke-width:0.09px;"/><g id="g21351" serif:id="g2135"><path id="path21311" serif:id="path2131" d="M169.639,212.621l0,3.329l-3.329,0l0,-3.329l3.329,0Z" style="fill:#ff9;"/><path id="rect21331" serif:id="rect2133" d="M169.639,215.991l-3.37,0l0,-3.37l3.37,0l0,3.37Z" style="fill:none;"/></g><path id="Drawing_426_01" serif:id="Drawing_426_0" d="M169.639,212.621l0,3.329l-3.329,0l0,-3.329l3.329,0Z" style="fill:none;stroke:#373435;stroke-width:0.13px;"/><g id="g21441" serif:id="g2144"><path id="path21401" serif:id="path2140" d="M168.898,213.484l0,1.768l-1.849,0l0,-1.768l1.849,0Z" style="fill:#ff9;"/><path id="rect21421" serif:id="rect2142" d="M168.898,215.292l-1.891,0l0,-1.85l1.891,0l0,1.85Z" style="fill:none;"/></g><path id="Drawing_428_01" serif:id="Drawing_428_0" d="M168.898,213.484l0,1.768l-1.849,0l0,-1.768l1.849,0Z" style="fill:none;stroke:#373435;stroke-width:0.13px;"/><path id="Drawing_429_01" serif:id="Drawing_429_0" d="M167.05,213.484l-0.74,-0.863" style="fill:none;stroke:#373435;stroke-width:0.09px;"/><path id="Drawing_430_01" serif:id="Drawing_430_0" d="M167.05,215.252l-0.74,0.699" style="fill:none;stroke:#373435;stroke-width:0.09px;"/><path id="Drawing_431_01" serif:id="Drawing_431_0" d="M168.898,215.252l0.741,0.699" style="fill:none;stroke:#373435;stroke-width:0.09px;"/><path id="Drawing_432_01" serif:id="Drawing_432_0" d="M168.898,213.484l0.741,-0.863" style="fill:none;stroke:#373435;stroke-width:0.09px;"/></g><g id="DrawingGroup_14"><g id="g2184"><path id="path2180" d="M67.88,20.063l0,-10.604l79.287,0l0,10.604l-79.287,0Z" style="fill:#565656;"/><path id="rect2182" d="M147.166,20.105l-79.329,0l0,-10.646l79.329,0l0,10.646Z" style="fill:none;"/></g><path id="Drawing_437_0" d="M67.88,20.063l0,-10.604l79.287,0l0,10.604l-79.287,0Z" style="fill:none;stroke:#000;stroke-width:0.9px;"/><path id="Drawing_438_0" d="M79.924,20.063l0,-4.644l59.886,0l0,4.644l-59.886,0Z" style="fill:none;stroke:#000;stroke-width:0.9px;"/></g><g id="DrawingGroup_15"><g id="g2395"><path id="path2391" d="M52.179,6.663l-9.002,0l0,-2.917c0.123,-0.042 0.247,-0.083 0.41,-0.125l8.509,0c0.041,0 0.041,0 0.083,0.042l0,3Z" style="fill:#004d05;"/><path id="rect2393" d="M52.179,6.745l-9.042,0l0,-3.123l9.042,0l0,3.123Z" style="fill:none;"/></g><g id="g2401"><path id="path2397" d="M52.179,6.253c-0.247,0.164 -0.576,0.287 -0.987,0.41l-6.658,0c-0.37,-0.123 -0.616,-0.247 -0.903,-0.41c-0.206,-0.083 -0.329,-0.206 -0.452,-0.289l0,-1.315c0.123,-0.123 0.247,-0.206 0.452,-0.287c0.451,-0.289 0.863,-0.576 1.685,-0.741l5.014,0c0.822,0.165 1.398,0.452 1.85,0.741l0,1.891Z" style="fill:#004d05;"/><path id="rect2399" d="M52.179,6.745l-9.042,0l0,-3.123l9.042,0l0,3.123Z" style="fill:none;"/></g><g id="g2407"><path id="path2403" d="M52.179,5.965c-0.042,0.042 -0.083,0.083 -0.123,0.123c-0.452,0.206 -0.782,0.412 -1.275,0.576l-5.836,0c-0.452,-0.164 -0.864,-0.37 -1.151,-0.576c-0.37,-0.247 -0.534,-0.493 -0.616,-0.699l0,-0.328c0.083,-0.247 0.247,-0.452 0.616,-0.699c0.41,-0.289 0.986,-0.452 1.727,-0.576c0.287,-0.041 0.574,-0.123 0.863,-0.165l2.959,0c0.287,0.042 0.534,0.083 0.822,0.165c0.863,0.123 1.273,0.287 1.891,0.576c0.041,0.041 0.081,0.081 0.123,0.123l0,1.479Z" style="fill:#0b540e;"/><path id="rect2405" d="M52.179,6.745l-9.042,0l0,-3.123l9.042,0l0,3.123Z" style="fill:none;"/></g><g id="g2413"><path id="path2409" d="M52.179,5.677c-0.083,0.123 -0.247,0.287 -0.412,0.41c-0.452,0.289 -0.903,0.452 -1.602,0.576l-4.521,0c-0.864,-0.123 -1.275,-0.287 -1.727,-0.576c-0.452,-0.287 -0.576,-0.576 -0.576,-0.863c0,-0.287 0.123,-0.576 0.576,-0.74c0.452,-0.289 0.863,-0.576 1.727,-0.699c0.41,-0.123 0.945,-0.165 1.479,-0.165l1.315,0c0.616,0 1.192,0.042 1.727,0.165c0.699,0.123 1.15,0.41 1.602,0.699c0.165,0.081 0.329,0.164 0.412,0.287l0,0.905Z" style="fill:#165a18;"/><path id="rect2411" d="M52.179,6.745l-8.878,0l0,-3.123l8.878,0l0,3.123Z" style="fill:none;"/></g><g id="g2419"><path id="path2415" d="M50,6.663l-4.356,0c-0.576,-0.123 -1.151,-0.287 -1.563,-0.576c-0.287,-0.287 -0.616,-0.576 -0.616,-0.863c0,-0.287 0.329,-0.452 0.616,-0.74c0.412,-0.289 0.987,-0.412 1.563,-0.576c0.534,-0.206 1.069,-0.289 1.602,-0.289l1.234,0c0.534,0 1.027,0.083 1.52,0.289c0.741,0.164 1.151,0.287 1.604,0.576c0.452,0.287 0.576,0.452 0.576,0.74c0,0.287 -0.123,0.576 -0.576,0.863c-0.452,0.289 -0.863,0.412 -1.604,0.576Z" style="fill:#216121;"/><path id="rect2417" d="M52.179,6.745l-8.755,0l0,-3.123l8.755,0l0,3.123Z" style="fill:none;"/></g><g id="g2425"><path id="path2421" d="M49.876,6.663l-4.069,0c-0.74,-0.287 -1.151,-0.41 -1.438,-0.576c-0.452,-0.287 -0.576,-0.576 -0.576,-0.863c0,-0.287 0.123,-0.452 0.576,-0.74c0.287,-0.289 0.699,-0.412 1.438,-0.576c0.74,-0.123 1.315,-0.123 2.014,-0.123c0.74,0 1.479,0 2.055,0.123c0.699,0.164 1.151,0.287 1.562,0.576c0.329,0.287 0.452,0.452 0.452,0.74c0,0.287 -0.123,0.576 -0.452,0.863c-0.41,0.165 -0.863,0.289 -1.562,0.576Z" style="fill:#2c672b;"/><path id="rect2423" d="M51.933,6.706l-8.18,0l0,-2.919l8.18,0l0,2.919Z" style="fill:none;"/></g><g id="g2431"><path id="path2427" d="M47.822,6.663c-0.699,0 -1.275,0 -1.891,-0.123c-0.576,-0.164 -1.151,-0.287 -1.438,-0.576c-0.289,-0.164 -0.412,-0.452 -0.412,-0.74c0,-0.164 0.123,-0.452 0.412,-0.74c0.287,-0.123 0.863,-0.289 1.438,-0.412c0.616,-0.164 1.192,-0.287 1.891,-0.287c0.74,0 1.315,0.123 1.891,0.287c0.74,0.123 1.151,0.289 1.438,0.412c0.452,0.287 0.616,0.576 0.616,0.74c0,0.287 -0.164,0.576 -0.616,0.74c-0.287,0.289 -0.699,0.412 -1.438,0.576c-0.576,0.123 -1.151,0.123 -1.891,0.123Z" style="fill:#376e34;"/><path id="rect2429" d="M51.809,6.706l-7.768,0l0,-2.919l7.768,0l0,2.919Z" style="fill:none;"/></g><g id="g2437"><path id="path2433" d="M47.822,6.663c-0.699,0 -1.151,0 -1.891,-0.287c-0.576,0 -0.863,-0.289 -1.275,-0.412c-0.287,-0.164 -0.452,-0.452 -0.452,-0.74c0,-0.164 0.165,-0.452 0.452,-0.576c0.412,-0.287 0.699,-0.452 1.275,-0.576c0.74,-0.164 1.192,-0.164 1.891,-0.164c0.74,0 1.315,0 1.891,0.164c0.576,0.123 1.028,0.289 1.315,0.576c0.287,0.123 0.41,0.412 0.41,0.576c0,0.287 -0.123,0.576 -0.41,0.74c-0.287,0.123 -0.74,0.412 -1.315,0.412c-0.576,0.287 -1.151,0.287 -1.891,0.287Z" style="fill:#43753d;"/><path id="rect2435" d="M51.438,6.706l-7.275,0l0,-2.836l7.275,0l0,2.836Z" style="fill:none;"/></g><g id="g2443"><path id="path2439" d="M47.822,6.54c-0.576,0 -1.151,0 -1.727,-0.164c-0.451,-0.123 -0.863,-0.289 -1.315,-0.412c-0.287,-0.287 -0.41,-0.452 -0.41,-0.74c0,-0.164 0.123,-0.452 0.41,-0.576c0.452,-0.287 0.864,-0.452 1.315,-0.452c0.576,-0.123 1.151,-0.287 1.727,-0.287c0.576,0 1.192,0.164 1.768,0.287c0.576,0 0.986,0.165 1.275,0.452c0.287,0.123 0.451,0.412 0.451,0.576c0,0.287 -0.164,0.452 -0.451,0.74c-0.289,0.123 -0.699,0.289 -1.275,0.412c-0.576,0.164 -1.192,0.164 -1.768,0.164Z" style="fill:#4e7b47;"/><path id="rect2441" d="M51.315,6.582l-6.988,0l0,-2.672l6.988,0l0,2.672Z" style="fill:none;"/></g><g id="g2449"><path id="path2445" d="M47.822,6.54c-0.576,0 -0.986,-0.164 -1.562,-0.164c-0.616,-0.123 -0.905,-0.289 -1.192,-0.576c-0.289,-0.123 -0.412,-0.289 -0.412,-0.576c0,-0.164 0.123,-0.41 0.412,-0.576c0.287,-0.164 0.576,-0.287 1.192,-0.452c0.576,-0.123 0.986,-0.123 1.562,-0.123c0.576,0 1.192,0 1.602,0.123c0.576,0.165 0.864,0.289 1.151,0.452c0.289,0.123 0.452,0.412 0.452,0.576c0,0.287 -0.164,0.452 -0.452,0.576c-0.287,0.287 -0.576,0.452 -1.151,0.576c-0.41,0 -1.027,0.164 -1.602,0.164Z" style="fill:#598250;"/><path id="rect2447" d="M51.028,6.581l-6.412,0l0,-2.507l6.412,0l0,2.507Z" style="fill:none;"/></g><g id="g2455"><path id="path2451" d="M47.822,6.376c-0.576,0 -0.986,0 -1.438,-0.123c-0.452,-0.165 -0.863,-0.165 -1.151,-0.452c-0.287,-0.123 -0.452,-0.289 -0.452,-0.576c0,-0.164 0.165,-0.287 0.452,-0.576c0.289,-0.164 0.699,-0.287 1.151,-0.452l3.041,0c0.452,0.165 0.741,0.289 1.028,0.452c0.289,0.289 0.412,0.412 0.412,0.576c0,0.287 -0.123,0.452 -0.412,0.576c-0.287,0.287 -0.576,0.287 -1.028,0.452c-0.574,0.123 -1.027,0.123 -1.602,0.123Z" style="fill:#64885a;"/><path id="rect2453" d="M50.864,6.417l-6.165,0l0,-2.261l6.165,0l0,2.261Z" style="fill:none;"/></g><g id="g2461"><path id="path2457" d="M47.822,6.376c-0.576,0 -0.863,-0.123 -1.275,-0.123c-0.616,-0.165 -0.903,-0.289 -1.192,-0.452c-0.123,-0.123 -0.287,-0.289 -0.287,-0.576c0,-0.164 0.164,-0.287 0.287,-0.452c0.289,-0.287 0.576,-0.287 1.192,-0.41c0.412,-0.165 0.699,-0.165 1.275,-0.165c0.576,0 1.069,0 1.479,0.165c0.452,0.164 0.699,0.123 0.987,0.41c0.287,0.165 0.287,0.289 0.287,0.452c0,0.287 0,0.41 -0.287,0.576c-0.289,0.164 -0.576,0.287 -0.987,0.452c-0.451,0 -0.903,0.123 -1.479,0.123Z" style="fill:#6f8f63;"/><path id="rect2459" d="M50.575,6.417l-5.549,0l0,-2.261l5.549,0l0,2.261Z" style="fill:none;"/></g><g id="g2467"><path id="path2463" d="M47.822,6.253c-0.41,0 -0.863,0 -1.275,-0.165c-0.452,0 -0.74,-0.123 -0.903,-0.287c-0.289,-0.289 -0.412,-0.289 -0.412,-0.576c0,-0.164 0.123,-0.287 0.412,-0.452c0.164,-0.123 0.451,-0.287 0.903,-0.287c0.412,-0.123 0.864,-0.123 1.275,-0.123c0.452,0 0.863,0 1.315,0.123c0.452,0 0.74,0.164 0.863,0.287c0.289,0.165 0.452,0.289 0.452,0.452c0,0.287 -0.164,0.287 -0.452,0.576c-0.123,0.164 -0.41,0.287 -0.863,0.287c-0.452,0.165 -0.863,0.165 -1.315,0.165Z" style="fill:#7a966c;"/><path id="rect2465" d="M50.452,6.294l-5.261,0l0,-1.931l5.261,0l0,1.931Z" style="fill:none;"/></g><g id="g2473"><path id="path2469" d="M49.014,6.088l-2.343,0c-0.41,-0.123 -0.74,-0.287 -0.863,-0.41c-0.164,-0.165 -0.287,-0.329 -0.287,-0.452c0,-0.164 0.123,-0.287 0.287,-0.452c0.123,-0.123 0.452,-0.287 0.863,-0.287c0.452,-0.123 0.741,-0.123 1.151,-0.123c0.452,0 0.863,0 1.192,0.123c0.41,0 0.699,0.164 0.863,0.287c0.289,0.165 0.289,0.289 0.289,0.452c0,0.123 0,0.287 -0.289,0.452c-0.164,0.123 -0.452,0.287 -0.863,0.41Z" style="fill:#859c76;"/><path id="rect2471" d="M50.165,6.13l-4.685,0l0,-1.768l4.685,0l0,1.768Z" style="fill:none;"/></g><g id="g2479"><path id="path2475" d="M47.822,6.088c-0.41,0 -0.699,0 -0.986,-0.123c-0.452,0 -0.576,-0.164 -0.905,-0.287c-0.123,-0.165 -0.287,-0.329 -0.287,-0.452c0,-0.164 0.164,-0.164 0.287,-0.452c0.329,0 0.452,-0.123 0.905,-0.287l2.178,0c0.287,0.164 0.576,0.287 0.699,0.287c0.164,0.289 0.287,0.289 0.287,0.452c0,0.123 -0.123,0.287 -0.287,0.452c-0.123,0.123 -0.412,0.287 -0.699,0.287c-0.452,0.123 -0.74,0.123 -1.192,0.123Z" style="fill:#90a37f;"/><path id="rect2477" d="M50,6.13l-4.398,0l0,-1.644l4.398,0l0,1.644Z" style="fill:none;"/></g><g id="g2485"><path id="path2481" d="M48.85,5.965l-2.014,0c-0.289,-0.164 -0.452,-0.164 -0.576,-0.287c-0.329,-0.165 -0.329,-0.329 -0.329,-0.452c0,-0.164 0,-0.164 0.329,-0.287c0.123,-0.165 0.287,-0.165 0.576,-0.289c0.41,-0.164 0.699,-0.164 0.986,-0.164c0.452,0 0.74,0 1.028,0.164c0.287,0.165 0.451,0.123 0.74,0.289c0.123,0.123 0.123,0.123 0.123,0.287c0,0.123 0,0.287 -0.123,0.452c-0.289,0.123 -0.452,0.123 -0.74,0.287Z" style="fill:#9baa88;"/><path id="rect2483" d="M49.713,6.007l-3.822,0l0,-1.521l3.822,0l0,1.521Z" style="fill:none;"/></g><g id="g2491"><path id="path2487" d="M47.822,5.965c-0.287,0 -0.576,-0.164 -0.863,-0.164c-0.289,0 -0.412,-0.123 -0.576,-0.289c-0.123,0 -0.289,-0.164 -0.289,-0.287c0,-0.164 0.165,-0.164 0.289,-0.287c0.164,-0.165 0.287,-0.165 0.576,-0.165c0.287,-0.123 0.576,-0.123 0.863,-0.123c0.287,0 0.576,0 0.863,0.123c0.329,0 0.452,0 0.616,0.165c0.289,0.123 0.289,0.123 0.289,0.287c0,0.123 0,0.287 -0.289,0.287c-0.164,0.165 -0.287,0.289 -0.616,0.289c-0.287,0 -0.576,0.164 -0.863,0.164Z" style="fill:#a6b092;"/><path id="rect2489" d="M49.589,6.005l-3.535,0l0,-1.356l3.535,0l0,1.356Z" style="fill:none;"/></g><g id="g2497"><path id="path2493" d="M48.561,5.801l-1.438,0c-0.287,-0.123 -0.452,-0.123 -0.576,-0.289c-0.164,0 -0.164,-0.164 -0.164,-0.287c0,0 0,-0.164 0.164,-0.287c0.123,0 0.289,-0.165 0.576,-0.165c0.123,0 0.412,-0.123 0.699,-0.123c0.287,0 0.576,0.123 0.74,0.123c0.289,0 0.452,0.165 0.576,0.165c0.164,0.123 0.287,0.287 0.287,0.287c0,0.123 -0.123,0.287 -0.287,0.287c-0.123,0.165 -0.287,0.165 -0.576,0.289Z" style="fill:#b1b79b;"/><path id="rect2495" d="M49.424,5.841l-3.083,0l0,-1.192l3.083,0l0,1.192Z" style="fill:none;"/></g><g id="g2503"><path id="path2499" d="M47.822,5.801c-0.287,0 -0.41,0 -0.576,-0.123c-0.287,0 -0.41,-0.165 -0.41,-0.165c-0.165,-0.164 -0.289,-0.164 -0.289,-0.287c0,0 0.123,-0.164 0.289,-0.164c0,-0.123 0.123,-0.123 0.41,-0.289l1.315,0c0.123,0.165 0.289,0.165 0.452,0.289c0.123,0 0.123,0.164 0.123,0.164c0,0.123 0,0.123 -0.123,0.287c-0.164,0 -0.329,0.165 -0.452,0.165c-0.287,0.123 -0.452,0.123 -0.74,0.123Z" style="fill:#bcbda5;"/><path id="rect2501" d="M49.178,5.841l-2.672,0l0,-1.069l2.672,0l0,1.069Z" style="fill:none;"/></g><g id="g2509"><path id="path2505" d="M48.397,5.677l-1.151,0c-0.123,-0.165 -0.123,-0.165 -0.287,-0.165c-0.123,-0.164 -0.123,-0.164 -0.123,-0.287c0,0 0,-0.164 0.123,-0.164c0.164,0 0.164,-0.123 0.287,-0.123c0.289,0 0.452,-0.165 0.576,-0.165c0.287,0 0.452,0.165 0.576,0.165c0.164,0 0.287,0.123 0.452,0.123l0.164,0.164c0,0.123 -0.164,0.123 -0.164,0.287c-0.165,0 -0.289,0 -0.452,0.165Z" style="fill:#c8c4ae;"/><path id="rect2507" d="M49.014,5.718l-2.22,0l0,-0.945l2.22,0l0,0.945Z" style="fill:none;"/></g><g id="g2515"><path id="path2511" d="M48.274,5.512l-0.863,0c-0.125,0 -0.165,0 -0.289,-0.164c0,0 -0.164,0 -0.164,-0.123c0,0 0.164,0 0.164,-0.164c0.123,0 0.123,0 0.289,-0.123l0.863,0c0.123,0.123 0.287,0.123 0.287,0.123l0.123,0.164c0,0.123 0,0.123 -0.123,0.123c0,0.164 -0.164,0.164 -0.287,0.164Z" style="fill:#d3cbb7;"/><path id="rect2513" d="M48.685,5.554l-1.768,0l0,-0.616l1.768,0l0,0.616Z" style="fill:none;"/></g><g id="g2521"><path id="path2517" d="M48.109,5.512l-0.574,0c-0.123,0 -0.123,-0.164 -0.289,-0.164l0,-0.287l1.151,0c0,0.164 0.164,0.164 0.164,0.164c0,0.123 -0.164,0.123 -0.164,0.123c0,0 -0.123,0.164 -0.289,0.164Z" style="fill:#ded1c1;"/><path id="rect2519" d="M48.561,5.596l-1.356,0l0,-0.535l1.356,0l0,0.535Z" style="fill:none;"/></g><g id="g2527"><path id="path2523" d="M48.274,5.348l-0.74,0c-0.123,0 -0.123,0 -0.123,-0.123l0.123,0c0,0 0,-0.164 0.164,-0.164l0.41,0c0,0 0,0.164 0.165,0.164l0,0.123Z" style="fill:#e9d8ca;"/><path id="rect2525" d="M48.315,5.39l-0.945,0l0,-0.329l0.945,0l0,0.329Z" style="fill:none;"/></g><g id="g2533"><path id="path2529" d="M47.986,5.348l-0.287,0l0,-0.123l0.41,0c0,0.123 0,0.123 -0.123,0.123Z" style="fill:#f4ded4;"/><path id="rect2531" d="M48.109,5.389l-0.493,0l0,-0.164l0.493,0l0,0.164Z" style="fill:none;"/></g><path id="Drawing_496_0" d="M43.341,6.827l0,-3.041l9.125,0l0,3.041l-9.125,0Z" style="fill:none;stroke:#000;stroke-width:0.7px;"/><g id="g2646"><path id="path2642" d="M39.889,6.663l-9.002,0l0,-2.917c0.123,-0.042 0.206,-0.083 0.329,-0.125l8.59,0c0,0 0.042,0.042 0.083,0.042l0,3Z" style="fill:#004d05;"/><path id="rect2644" d="M39.889,6.745l-9.042,0l0,-3.123l9.042,0l0,3.123Z" style="fill:none;"/></g><g id="g2652"><path id="path2648" d="M39.889,5.965c-0.041,0.042 -0.083,0.083 -0.123,0.123c-0.329,0.289 -0.699,0.452 -1.109,0.576l-6.331,0c-0.493,-0.123 -0.822,-0.287 -1.109,-0.576c-0.123,-0.081 -0.247,-0.164 -0.329,-0.247l0,-1.233c0.083,-0.083 0.206,-0.165 0.329,-0.247c0.41,-0.289 0.945,-0.576 1.85,-0.741l4.931,0c0.74,0.165 1.315,0.452 1.768,0.741c0.041,0.041 0.083,0.041 0.123,0.081l0,1.521Z" style="fill:#004d05;"/><path id="rect2650" d="M39.889,6.745l-9.042,0l0,-3.123l9.042,0l0,3.123Z" style="fill:none;"/></g><g id="g2658"><path id="path2654" d="M39.889,5.841c-0.083,0.083 -0.164,0.165 -0.287,0.247c-0.329,0.206 -0.699,0.412 -1.151,0.576l-5.919,0c-0.493,-0.164 -0.863,-0.37 -1.192,-0.576c-0.206,-0.123 -0.329,-0.287 -0.452,-0.41l0,-0.905c0.123,-0.164 0.247,-0.287 0.452,-0.41c0.412,-0.289 1.028,-0.452 1.727,-0.741l4.808,0c0.74,0.289 1.315,0.452 1.727,0.741c0.123,0.081 0.204,0.164 0.287,0.247l0,1.233Z" style="fill:#0b540e;"/><path id="rect2656" d="M39.889,6.745l-9.042,0l0,-3.123l9.042,0l0,3.123Z" style="fill:none;"/></g><g id="g2664"><path id="path2660" d="M39.889,5.635c-0.123,0.165 -0.287,0.289 -0.576,0.452c-0.287,0.289 -0.903,0.412 -1.602,0.576l-4.481,0c-0.74,-0.164 -1.315,-0.287 -1.604,-0.576c-0.41,-0.287 -0.697,-0.576 -0.697,-0.863c0,-0.287 0.287,-0.576 0.697,-0.863c0.289,-0.289 0.864,-0.452 1.604,-0.576c0.287,-0.041 0.576,-0.123 0.863,-0.165l2.754,0c0.289,0.042 0.576,0.125 0.864,0.165c0.699,0.123 1.315,0.287 1.602,0.576c0.289,0.123 0.452,0.287 0.576,0.41l0,0.863Z" style="fill:#165a18;"/><path id="rect2662" d="M39.889,6.745l-9.002,0l0,-3.123l9.002,0l0,3.123Z" style="fill:none;"/></g><g id="g2670"><path id="path2666" d="M37.669,6.663l-4.315,0c-0.699,-0.164 -1.192,-0.287 -1.602,-0.576c-0.452,-0.287 -0.576,-0.576 -0.576,-0.863c0,-0.287 0.123,-0.576 0.576,-0.74c0.41,-0.289 0.903,-0.576 1.602,-0.699c0.535,-0.123 0.986,-0.165 1.562,-0.165l1.275,0c0.493,0 0.986,0.042 1.479,0.165c0.618,0.123 1.192,0.41 1.48,0.699c0.41,0.164 0.576,0.452 0.576,0.74c0,0.287 -0.165,0.576 -0.576,0.863c-0.289,0.289 -0.863,0.452 -1.48,0.576Z" style="fill:#216121;"/><path id="rect2668" d="M39.725,6.745l-8.59,0l0,-3.123l8.59,0l0,3.123Z" style="fill:none;"/></g><g id="g2676"><path id="path2672" d="M34.052,6.663c-0.247,-0.041 -0.452,-0.083 -0.699,-0.123c-0.616,-0.164 -1.028,-0.287 -1.479,-0.452c-0.289,-0.287 -0.412,-0.576 -0.412,-0.863c0,-0.287 0.123,-0.452 0.412,-0.74c0.451,-0.289 0.863,-0.412 1.479,-0.576c0.616,-0.123 1.151,-0.247 1.85,-0.289l0.534,0c0.616,0.042 1.151,0.165 1.808,0.289c0.576,0.164 1.028,0.287 1.438,0.576c0.289,0.287 0.576,0.452 0.576,0.74c0,0.287 -0.287,0.576 -0.576,0.863c-0.41,0.165 -0.863,0.289 -1.438,0.452c-0.247,0.041 -0.493,0.083 -0.699,0.123l-2.794,0Z" style="fill:#2c672b;"/><path id="rect2674" d="M39.56,6.745l-8.139,0l0,-3.123l8.139,0l0,3.123Z" style="fill:none;"/></g><g id="g2682"><path id="path2678" d="M35.491,6.663c-0.699,0 -1.438,0 -2.014,-0.123c-0.576,-0.164 -1.028,-0.287 -1.315,-0.576c-0.41,-0.164 -0.576,-0.452 -0.576,-0.74c0,-0.287 0.165,-0.452 0.576,-0.74c0.287,-0.289 0.74,-0.412 1.315,-0.576c0.576,0 1.315,-0.123 2.014,-0.123c0.74,0 1.315,0.123 1.891,0.123c0.576,0.164 1.028,0.287 1.479,0.576c0.289,0.287 0.412,0.452 0.412,0.74c0,0.287 -0.123,0.576 -0.412,0.74c-0.451,0.289 -0.903,0.412 -1.479,0.576c-0.576,0.123 -1.151,0.123 -1.891,0.123Z" style="fill:#376e34;"/><path id="rect2680" d="M39.272,6.706l-7.727,0l0,-2.919l7.727,0l0,2.919Z" style="fill:none;"/></g><g id="g2688"><path id="path2684" d="M35.491,6.663c-0.699,0 -1.275,-0.123 -1.85,-0.287c-0.574,0 -1.027,-0.289 -1.315,-0.412c-0.451,-0.287 -0.574,-0.452 -0.574,-0.74c0,-0.164 0.123,-0.452 0.574,-0.74c0.289,-0.123 0.741,-0.289 1.315,-0.412c0.576,-0.164 1.151,-0.164 1.85,-0.164c0.616,0 1.192,0 1.768,0.164c0.576,0.123 1.028,0.289 1.315,0.412c0.41,0.287 0.576,0.576 0.576,0.74c0,0.287 -0.165,0.452 -0.576,0.74c-0.287,0.123 -0.74,0.412 -1.315,0.412c-0.576,0.164 -1.151,0.287 -1.768,0.287Z" style="fill:#43753d;"/><path id="rect2686" d="M39.149,6.706l-7.44,0l0,-2.836l7.44,0l0,2.836Z" style="fill:none;"/></g><g id="g2694"><path id="path2690" d="M35.491,6.54c-0.699,0 -1.151,0 -1.727,-0.164c-0.574,-0.123 -1.027,-0.289 -1.315,-0.412c-0.287,-0.287 -0.41,-0.452 -0.41,-0.74c0,-0.164 0.123,-0.452 0.41,-0.576c0.289,-0.287 0.741,-0.41 1.315,-0.576c0.576,-0.164 1.028,-0.164 1.727,-0.164c0.616,0 1.192,0 1.604,0.164c0.574,0.123 1.027,0.289 1.315,0.576c0.287,0.123 0.451,0.412 0.451,0.576c0,0.287 -0.164,0.452 -0.451,0.74c-0.289,0.123 -0.741,0.289 -1.315,0.412c-0.412,0.164 -0.987,0.164 -1.604,0.164Z" style="fill:#4e7b47;"/><path id="rect2692" d="M38.861,6.582l-6.905,0l0,-2.672l6.905,0l0,2.672Z" style="fill:none;"/></g><g id="g2700"><path id="path2696" d="M35.491,6.376c-0.576,0 -1.151,0 -1.562,-0.123c-0.576,0 -1.028,-0.165 -1.315,-0.452c-0.289,-0.123 -0.452,-0.289 -0.452,-0.576c0,-0.164 0.164,-0.452 0.452,-0.576c0.287,-0.164 0.74,-0.287 1.315,-0.452c0.41,-0.123 0.986,-0.123 1.562,-0.123c0.616,0 1.028,0 1.604,0.123c0.451,0.165 0.863,0.289 1.192,0.452c0.287,0.123 0.41,0.412 0.41,0.576c0,0.287 -0.123,0.452 -0.41,0.576c-0.329,0.287 -0.741,0.452 -1.192,0.452c-0.576,0.123 -0.987,0.123 -1.604,0.123Z" style="fill:#598250;"/><path id="rect2698" d="M38.697,6.417l-6.576,0l0,-2.343l6.576,0l0,2.343Z" style="fill:none;"/></g><g id="g2706"><path id="path2702" d="M35.491,6.376c-0.576,0 -1.151,0 -1.562,-0.123c-0.452,-0.165 -0.863,-0.289 -1.028,-0.452c-0.287,-0.123 -0.452,-0.289 -0.452,-0.576c0,-0.164 0.165,-0.452 0.452,-0.576c0.165,-0.164 0.576,-0.287 1.028,-0.452c0.41,0 0.986,-0.123 1.562,-0.123c0.616,0 1.028,0.123 1.48,0.123c0.41,0.165 0.863,0.289 1.15,0.452c0.165,0.123 0.289,0.412 0.289,0.576c0,0.287 -0.123,0.452 -0.289,0.576c-0.287,0.164 -0.74,0.287 -1.15,0.452c-0.452,0.123 -0.864,0.123 -1.48,0.123Z" style="fill:#64885a;"/><path id="rect2704" d="M38.41,6.417l-6.002,0l0,-2.343l6.002,0l0,2.343Z" style="fill:none;"/></g><g id="g2712"><path id="path2708" d="M35.491,6.253c-0.576,0 -0.986,0 -1.438,-0.165c-0.412,0 -0.699,-0.123 -0.986,-0.287c-0.329,-0.289 -0.452,-0.452 -0.452,-0.576c0,-0.164 0.123,-0.287 0.452,-0.452c0.287,-0.287 0.574,-0.287 0.986,-0.41c0.452,-0.165 0.863,-0.165 1.438,-0.165c0.452,0 0.863,0 1.315,0.165c0.452,0.164 0.863,0.123 1.028,0.41c0.287,0.165 0.452,0.289 0.452,0.452c0,0.123 -0.165,0.287 -0.452,0.576c-0.165,0.164 -0.576,0.287 -1.028,0.287c-0.41,0.165 -0.863,0.165 -1.315,0.165Z" style="fill:#6f8f63;"/><path id="rect2710" d="M38.286,6.294l-5.713,0l0,-2.097l5.713,0l0,2.097Z" style="fill:none;"/></g><g id="g2718"><path id="path2714" d="M35.491,6.253c-0.576,0 -0.863,-0.165 -1.275,-0.165c-0.452,-0.123 -0.74,-0.287 -1.027,-0.287c-0.123,-0.289 -0.289,-0.452 -0.289,-0.576c0,-0.164 0.165,-0.287 0.289,-0.452c0.287,-0.123 0.574,-0.287 1.027,-0.41c0.412,0 0.699,-0.165 1.275,-0.165c0.452,0 0.905,0.165 1.315,0.165c0.289,0.123 0.576,0.287 0.863,0.41c0.289,0.165 0.289,0.289 0.289,0.452c0,0.123 0,0.287 -0.289,0.576c-0.287,0 -0.574,0.164 -0.863,0.287c-0.41,0 -0.863,0.165 -1.315,0.165Z" style="fill:#7a966c;"/><path id="rect2716" d="M37.957,6.294l-5.137,0l0,-2.097l5.137,0l0,2.097Z" style="fill:none;"/></g><g id="g2724"><path id="path2720" d="M36.683,6.088l-2.466,0c-0.287,-0.123 -0.576,-0.287 -0.863,-0.41c-0.164,-0.165 -0.287,-0.329 -0.287,-0.452c0,-0.164 0.123,-0.287 0.287,-0.452c0.287,-0.123 0.576,-0.287 0.863,-0.287c0.412,-0.123 0.864,-0.123 1.275,-0.123c0.452,0 0.74,0 1.192,0.123c0.289,0 0.576,0.164 0.863,0.287c0.123,0.165 0.289,0.289 0.289,0.452c0,0.123 -0.165,0.287 -0.289,0.452c-0.287,0.123 -0.574,0.287 -0.863,0.41Z" style="fill:#859c76;"/><path id="rect2722" d="M37.834,6.13l-4.81,0l0,-1.768l4.81,0l0,1.768Z" style="fill:none;"/></g><g id="g2730"><path id="path2726" d="M35.491,6.088c-0.41,0 -0.863,0 -1.151,-0.123c-0.287,-0.164 -0.576,-0.164 -0.699,-0.287c-0.287,-0.165 -0.287,-0.329 -0.287,-0.452c0,-0.164 0,-0.287 0.287,-0.452c0.123,0 0.412,-0.123 0.699,-0.287l2.179,0c0.287,0.164 0.576,0.287 0.863,0.287c0.164,0.165 0.287,0.289 0.287,0.452c0,0.123 -0.123,0.287 -0.287,0.452c-0.287,0.123 -0.576,0.123 -0.863,0.287c-0.289,0.165 -0.699,0.123 -1.028,0.123Z" style="fill:#90a37f;"/><path id="rect2728" d="M37.669,6.17l-4.357,0l0,-1.727l4.357,0l0,1.727Z" style="fill:none;"/></g><g id="g2736"><path id="path2732" d="M35.491,5.965c-0.41,0 -0.699,0 -0.986,-0.164c-0.289,0 -0.576,-0.123 -0.741,-0.123c-0.123,-0.165 -0.287,-0.329 -0.287,-0.452c0,-0.164 0.164,-0.164 0.287,-0.287c0.165,-0.165 0.452,-0.289 0.741,-0.289c0.287,-0.164 0.576,-0.164 0.986,-0.164c0.329,0 0.616,0 0.905,0.164c0.287,0 0.534,0.123 0.699,0.289c0.164,0.164 0.287,0.123 0.287,0.287c0,0.123 -0.123,0.287 -0.287,0.452c-0.123,0 -0.412,0.123 -0.699,0.123c-0.289,0.164 -0.576,0.164 -0.905,0.164Z" style="fill:#9baa88;"/><path id="rect2734" d="M37.422,6.007l-3.988,0l0,-1.521l3.988,0l0,1.521Z" style="fill:none;"/></g><g id="g2742"><path id="path2738" d="M35.491,5.965c-0.41,0 -0.576,-0.164 -0.863,-0.164c-0.289,0 -0.576,-0.123 -0.699,-0.289c-0.165,0 -0.165,-0.164 -0.165,-0.287c0,-0.164 0,-0.123 0.165,-0.287c0.164,-0.165 0.41,-0.165 0.699,-0.289l1.768,0c0.287,0.123 0.41,0.123 0.576,0.289c0.123,0.123 0.123,0.123 0.123,0.287c0,0.123 0,0.287 -0.123,0.287c-0.165,0.165 -0.289,0.289 -0.576,0.289c-0.289,0 -0.576,0.164 -0.905,0.164Z" style="fill:#a6b092;"/><path id="rect2740" d="M37.095,6.005l-3.37,0l0,-1.356l3.37,0l0,1.356Z" style="fill:none;"/></g><g id="g2748"><path id="path2744" d="M36.23,5.801l-1.602,0c-0.123,-0.123 -0.289,-0.123 -0.576,-0.289c0,-0.164 -0.123,-0.164 -0.123,-0.287c0,-0.164 0.123,-0.164 0.123,-0.287c0.287,0 0.452,-0.165 0.576,-0.165c0.287,-0.123 0.576,-0.123 0.863,-0.123c0.329,0 0.452,0 0.74,0.123c0.165,0 0.452,0.165 0.576,0.165c0,0.123 0.165,0.123 0.165,0.287c0,0.123 -0.165,0.123 -0.165,0.287c-0.123,0.165 -0.41,0.165 -0.576,0.289Z" style="fill:#b1b79b;"/><path id="rect2746" d="M36.971,5.841l-3.083,0l0,-1.192l3.083,0l0,1.192Z" style="fill:none;"/></g><g id="g2754"><path id="path2750" d="M35.491,5.801c-0.287,0 -0.534,-0.123 -0.699,-0.123c-0.123,0 -0.287,-0.165 -0.452,-0.165c-0.123,-0.164 -0.123,-0.164 -0.123,-0.287c0,0 0,-0.164 0.123,-0.164c0.165,-0.123 0.289,-0.123 0.452,-0.289l1.315,0c0.289,0.165 0.289,0.165 0.412,0.289c0.164,0 0.287,0.164 0.287,0.164c0,0.123 -0.123,0.123 -0.287,0.287c-0.123,0 -0.123,0.165 -0.412,0.165c-0.164,0 -0.452,0.123 -0.616,0.123Z" style="fill:#bcbda5;"/><path id="rect2752" d="M36.847,5.841l-2.672,0l0,-1.069l2.672,0l0,1.069Z" style="fill:none;"/></g><g id="g2760"><path id="path2756" d="M35.491,5.677c-0.287,0 -0.41,0 -0.576,-0.165l-0.41,0c-0.165,-0.164 -0.165,-0.164 -0.165,-0.287c0,0 0,-0.164 0.165,-0.164c0.123,-0.123 0.287,-0.123 0.41,-0.123c0.165,-0.165 0.289,-0.165 0.576,-0.165c0.164,0 0.329,0 0.452,0.165c0.164,0 0.287,0 0.452,0.123c0.123,0 0.123,0.164 0.123,0.164c0,0.123 0,0.123 -0.123,0.287l-0.452,0c-0.123,0.165 -0.289,0.165 -0.452,0.165Z" style="fill:#c8c4ae;"/><path id="rect2758" d="M36.519,5.718l-2.22,0l0,-0.945l2.22,0l0,0.945Z" style="fill:none;"/></g><g id="g2766"><path id="path2762" d="M35.943,5.512l-0.863,0c-0.165,0 -0.289,0 -0.452,-0.164l0,-0.287c0.164,0 0.287,0 0.452,-0.123l0.863,0c0.164,0.123 0.164,0.123 0.287,0.123l0.165,0.164c0,0.123 -0.165,0.123 -0.165,0.123c-0.123,0.164 -0.123,0.164 -0.287,0.164Z" style="fill:#d3cbb7;"/><path id="rect2764" d="M36.436,5.554l-1.85,0l0,-0.616l1.85,0l0,0.616Z" style="fill:none;"/></g><g id="g2772"><path id="path2768" d="M35.82,5.512l-0.74,0c0,-0.164 -0.165,-0.164 -0.165,-0.164c-0.123,0 -0.123,0 -0.123,-0.123l0.123,-0.164l1.192,0l0,0.287c-0.164,0 -0.164,0 -0.287,0.164Z" style="fill:#ded1c1;"/><path id="rect2770" d="M36.107,5.596l-1.356,0l0,-0.535l1.356,0l0,0.535Z" style="fill:none;"/></g><g id="g2778"><path id="path2774" d="M35.82,5.348l-0.74,0l0,-0.123c0,-0.164 0.123,-0.164 0.123,-0.164l0.451,0c0.165,0 0.165,0 0.165,0.164l0.123,0l-0.123,0.123Z" style="fill:#e9d8ca;"/><path id="rect2776" d="M35.943,5.39l-0.905,0l0,-0.329l0.905,0l0,0.329Z" style="fill:none;"/></g><g id="g2784"><path id="path2780" d="M35.655,5.348l-0.451,0l0,-0.123l0.451,0l0,0.123Z" style="fill:#f4ded4;"/><path id="rect2782" d="M35.655,5.389l-0.493,0l0,-0.164l0.493,0l0,0.164Z" style="fill:none;"/></g><path id="Drawing_538_0" d="M30.887,6.827l0,-3.206l9.125,0l0,3.206l-9.125,0Z" style="fill:none;stroke:#000;stroke-width:0.7px;"/></g><g id="DrawingGroup_18"><g id="Drawing_547"><path id="rect2828" d="M57.852,56.028l-4.685,0l0,-19.935l4.685,0l0,19.935Z" style="fill:none;"/><g><g id="text2832"><g transform="matrix(0,1,-1,0,90.286047,-18.1002)"><text x="54.193px" y="36.093px" style="font-family:'LucidaGrande', 'Lucida Grande', sans-serif;font-weight:500;font-size:4.069px;">Regulator</text></g></g></g></g><g id="DrawingGroup_21"><g id="g2841"><path id="path2837" d="M43.453,38.518l0,-16.44l15.29,0l0,16.44l-15.29,0Z" style="fill:#7e7e7e;"/><path id="rect2839" d="M58.742,38.654l-15.359,0l0,-16.576l15.359,0l0,16.576Z" style="fill:none;"/></g><path id="Drawing_549_0" d="M43.453,38.518l0,-16.44l15.29,0l0,16.44l-15.29,0Z" style="fill:none;stroke:#000;stroke-width:1.36px;"/><g id="g2850"><path id="path2846" d="M59.215,24.718l0,-1.692l5.21,0l0,1.692l-5.21,0Z" style="fill:#868686;"/><path id="rect2848" d="M64.425,24.785l-5.344,0l0,-1.759l5.344,0l0,1.759Z" style="fill:none;"/></g><path id="Drawing_551_0" d="M59.215,24.718l0,-1.692l5.21,0l0,1.692l-5.21,0Z" style="fill:none;stroke:#000;stroke-width:0.26px;"/><g id="g2859"><path id="path2855" d="M59.215,29.723l0,-1.69l5.21,0l0,1.69l-5.21,0Z" style="fill:#868686;"/><path id="rect2857" d="M64.425,29.792l-5.344,0l0,-1.759l5.344,0l0,1.759Z" style="fill:none;"/></g><path id="Drawing_553_0" d="M59.215,29.723l0,-1.69l5.21,0l0,1.69l-5.21,0Z" style="fill:none;stroke:#000;stroke-width:0.33px;"/><g id="g2868"><path id="path2864" d="M59.215,27.355l0,-1.692l5.007,0l0,1.692l-5.007,0Z" style="fill:#868686;"/><path id="rect2866" d="M64.222,27.422l-5.141,0l0,-1.759l5.141,0l0,1.759Z" style="fill:none;"/></g><path id="Drawing_555_0" d="M59.215,27.355l0,-1.692l5.007,0l0,1.692l-5.007,0Z" style="fill:none;stroke:#000;stroke-width:0.26px;"/><g id="g2877"><path id="path2873" d="M59.418,32.363l0,-1.692l5.007,0l0,1.692l-5.007,0Z" style="fill:#868686;"/><path id="rect2875" d="M64.425,32.43l-5.074,0l0,-1.759l5.074,0l0,1.759Z" style="fill:none;"/></g><path id="Drawing_557_0" d="M59.418,32.363l0,-1.692l5.007,0l0,1.692l-5.007,0Z" style="fill:none;stroke:#000;stroke-width:0.26px;"/><g id="g2886"><path id="path2882" d="M59.418,37.368l0,-1.69l5.007,0l0,1.69l-5.007,0Z" style="fill:#868686;"/><path id="rect2884" d="M64.425,37.437l-5.074,0l0,-1.759l5.074,0l0,1.759Z" style="fill:none;"/></g><path id="Drawing_559_0" d="M59.418,37.368l0,-1.69l5.007,0l0,1.69l-5.007,0Z" style="fill:none;stroke:#000;stroke-width:0.33px;"/><g id="g2895"><path id="path2891" d="M59.215,35l0,-1.69l5.21,0l0,1.69l-5.21,0Z" style="fill:#868686;"/><path id="rect2893" d="M64.425,35.069l-5.344,0l0,-1.759l5.344,0l0,1.759Z" style="fill:none;"/></g><path id="Drawing_561_0" d="M59.215,35l0,-1.69l5.21,0l0,1.69l-5.21,0Z" style="fill:none;stroke:#000;stroke-width:0.26px;"/><g id="g2904"><path id="path2900" d="M38.648,24.718l0,-1.692l4.33,0l0,1.692l-4.33,0Z" style="fill:#868686;"/><path id="rect2902" d="M42.978,24.785l-4.399,0l0,-1.759l4.399,0l0,1.759Z" style="fill:none;"/></g><path id="Drawing_563_0" d="M38.648,24.718l0,-1.692l4.33,0l0,1.692l-4.33,0Z" style="fill:none;stroke:#000;stroke-width:0.26px;"/><g id="g2913"><path id="path2909" d="M38.648,29.723l0,-1.69l4.33,0l0,1.69l-4.33,0Z" style="fill:#868686;"/><path id="rect2911" d="M42.978,29.792l-4.399,0l0,-1.759l4.399,0l0,1.759Z" style="fill:none;"/></g><path id="Drawing_565_0" d="M38.648,29.723l0,-1.69l4.33,0l0,1.69l-4.33,0Z" style="fill:none;stroke:#000;stroke-width:0.26px;"/><g id="g2922"><path id="path2918" d="M38.648,27.355l0,-1.692l4.33,0l0,1.692l-4.33,0Z" style="fill:#868686;"/><path id="rect2920" d="M42.978,27.422l-4.399,0l0,-1.759l4.399,0l0,1.759Z" style="fill:none;"/></g><path id="Drawing_567_0" d="M38.648,27.355l0,-1.692l4.33,0l0,1.692l-4.33,0Z" style="fill:none;stroke:#000;stroke-width:0.26px;"/><g id="g2931"><path id="path2927" d="M38.918,32.091l0,-1.623l4.06,0l0,1.623l-4.06,0Z" style="fill:#868686;"/><path id="rect2929" d="M42.978,32.16l-4.127,0l0,-1.692l4.127,0l0,1.692Z" style="fill:none;"/></g><path id="Drawing_569_0" d="M38.918,32.091l0,-1.623l4.06,0l0,1.623l-4.06,0Z" style="fill:none;stroke:#000;stroke-width:0.26px;"/><g id="g2940"><path id="path2936" d="M38.648,37.098l0,-1.42l4.33,0l0,1.42l-4.33,0Z" style="fill:#868686;"/><path id="rect2938" d="M42.978,37.165l-4.399,0l0,-1.556l4.399,0l0,1.556Z" style="fill:none;"/></g><path id="Drawing_571_0" d="M38.648,37.098l0,-1.42l4.33,0l0,1.42l-4.33,0Z" style="fill:none;stroke:#000;stroke-width:0.26px;"/><g id="g2949"><path id="path2945" d="M38.648,34.73l0,-1.692l4.33,0l0,1.692l-4.33,0Z" style="fill:#868686;"/><path id="rect2947" d="M42.978,34.797l-4.399,0l0,-1.759l4.399,0l0,1.759Z" style="fill:none;"/></g><path id="Drawing_573_0" d="M38.648,34.73l0,-1.692l4.33,0l0,1.692l-4.33,0Z" style="fill:none;stroke:#000;stroke-width:0.26px;"/></g><g id="DrawingGroup_23"><g id="g2996"><rect id="path2992" x="25.574" y="59.972" width="22.359" height="7.563" style="fill:#868686;"/><rect id="rect2994" x="25.533" y="59.931" width="22.442" height="7.604" style="fill:none;"/></g><rect id="Drawing_583_0" x="25.574" y="59.972" width="22.359" height="7.563" style="fill:none;stroke:#000;stroke-width:1.52px;"/><g id="g3005"><rect id="path3001" x="29.643" y="57.794" width="14.634" height="11.467" style="fill:#7e7e7e;"/><rect id="rect3003" x="29.602" y="57.752" width="14.674" height="11.509" style="fill:none;"/></g><rect id="Drawing_585_0" x="29.643" y="57.794" width="14.634" height="11.467" style="fill:none;stroke:#000;stroke-width:1.15px;"/></g><g id="DrawingGroup_25"><g id="g3052"><path id="path3048" d="M20.774,19.969c-5.343,0 -9.701,-4.356 -9.701,-9.741c0,-5.507 4.357,-9.864 9.701,-9.864c5.384,0 9.741,4.357 9.741,9.864c0,5.385 -4.357,9.741 -9.741,9.741Z" style="fill:#f2d592;"/><path id="rect3050" d="M30.516,20.052l-19.482,0l0,-19.688l19.482,0l0,19.688Z" style="fill:none;"/></g><path id="Drawing_595_0" d="M20.774,19.969c-5.343,0 -9.701,-4.356 -9.701,-9.741c0,-5.507 4.357,-9.864 9.701,-9.864c5.384,0 9.741,4.357 9.741,9.864c0,5.385 -4.357,9.741 -9.741,9.741Z" style="fill:none;stroke:#000;stroke-width:0.33px;"/><g id="g3061"><path id="path3057" d="M20.774,14.749c-2.466,0 -4.481,-2.055 -4.481,-4.356c0,-2.466 2.014,-4.481 4.481,-4.481c2.342,0 4.356,2.014 4.356,4.481c0,2.301 -2.014,4.356 -4.356,4.356Z" style="fill:#fff;"/><path id="rect3059" d="M25.172,14.791l-8.919,0l0,-8.878l8.919,0l0,8.878Z" style="fill:none;"/></g><path id="Drawing_597_0" d="M20.774,14.749c-2.466,0 -4.481,-2.055 -4.481,-4.356c0,-2.466 2.014,-4.481 4.481,-4.481c2.342,0 4.356,2.014 4.356,4.481c0,2.301 -2.014,4.356 -4.356,4.356Z" style="fill:none;stroke:#000;stroke-width:0.33px;"/></g></g><g id="DrawingGroup_27"><g id="g3091"><path id="path3087" d="M21.681,226.768c-5.385,0 -9.701,-4.356 -9.701,-9.864c0,-5.343 4.357,-9.701 9.701,-9.701c5.384,0 9.699,4.357 9.699,9.701c0,5.509 -4.356,9.864 -9.699,9.864Z" style="fill:#f2d592;"/><path id="rect3089" d="M31.38,226.81l-19.442,0l0,-19.648l19.442,0l0,19.648Z" style="fill:none;"/></g><path id="Drawing_603_0" d="M21.681,226.768c-5.385,0 -9.701,-4.356 -9.701,-9.864c0,-5.343 4.357,-9.701 9.701,-9.701c5.384,0 9.699,4.357 9.699,9.701c0,5.509 -4.356,9.864 -9.699,9.864Z" style="fill:none;stroke:#000;stroke-width:0.33px;"/><g id="g3100"><path id="path3096" d="M21.681,221.548c-2.466,0 -4.521,-1.891 -4.521,-4.356c0,-2.466 2.055,-4.481 4.521,-4.481c2.465,0 4.356,2.014 4.356,4.481c0,2.465 -1.891,4.356 -4.356,4.356Z" style="fill:#fff;"/><path id="rect3098" d="M26.037,221.59l-8.919,0l0,-8.878l8.919,0l0,8.878Z" style="fill:none;"/></g><path id="Drawing_605_0" d="M21.681,221.548c-2.466,0 -4.521,-1.891 -4.521,-4.356c0,-2.466 2.055,-4.481 4.521,-4.481c2.465,0 4.356,2.014 4.356,4.481c0,2.465 -1.891,4.356 -4.356,4.356Z" style="fill:none;stroke:#000;stroke-width:0.33px;"/></g><g id="DrawingGroup_28"><g id="g3110"><path id="path3106" d="M125.254,42.924c0,0.287 -0.123,0.41 -0.164,0.697c0.164,0.576 -0.083,0.699 -0.164,0.905c0.081,0.658 -0.206,0.863 -0.494,1.151l0,0.329c-0.534,0.903 -1.602,1.396 -2.178,1.562c0.576,0.123 1.644,0.616 2.178,1.521l0,0.37c0.289,0.287 0.576,0.41 0.494,1.069c0.081,0.247 0.328,0.41 0.164,0.945c0.123,0.37 0.41,0.657 0,1.15c0.164,0.329 0.164,0.782 -0.083,1.111c0.083,0.493 -0.081,0.657 -0.204,0.78c0,0.123 0.041,0.822 -0.452,1.192c0.164,0.905 -0.452,1.151 -1.028,0.822c-0.287,0.247 -0.576,0.37 -1.069,-0.041c-0.247,0.123 -0.616,0.041 -0.986,-0.289c-0.412,0.083 -0.699,-0.081 -0.905,-0.41c-0.576,0.041 -0.863,-0.493 -0.986,-0.658c-0.37,-0.041 -0.616,-0.204 -0.782,-0.821c-0.493,-0.165 -0.534,-0.494 -0.699,-0.905c-0.697,1.233 -1.602,2.301 -3.986,2.301l-0.289,0.206c-0.903,1.398 -3.657,2.672 -5.919,0.699c-0.74,-0.123 -1.233,-0.329 -1.808,-0.535c-2.261,-0.287 -3.329,-2.219 -3.452,-2.754c-0.534,-0.699 -1.151,-1.479 -1.479,-2.548c-1.028,-1.028 -1.398,-2.097 -1.398,-3.206l0,-0.083c0,-1.069 0.37,-2.178 1.398,-3.165c0.328,-1.027 0.945,-1.808 1.479,-2.59c0.123,-0.493 1.192,-2.384 3.452,-2.671c0.576,-0.206 1.069,-0.41 1.808,-0.576c2.262,-2.014 5.016,-0.699 5.919,0.699l0.289,0.247c2.384,-0.083 3.289,1.028 3.986,2.22c0.165,-0.329 0.206,-0.699 0.699,-0.822c0.165,-0.658 0.412,-0.782 0.782,-0.863c0.123,-0.206 0.41,-0.782 0.986,-0.699c0.206,-0.289 0.493,-0.493 0.905,-0.37c0.37,-0.329 0.74,-0.494 0.986,-0.329c0.493,-0.329 0.782,-0.206 1.069,0c0.576,-0.329 1.192,-0.083 1.028,0.78c0.493,0.329 0.452,1.111 0.452,1.192c0.123,0.123 0.287,0.329 0.204,0.822c0.247,0.37 0.247,0.741 0.083,1.151c0.123,0.123 0.164,0.287 0.164,0.412Z" style="fill:#fff;"/><path id="rect3108" d="M125.296,57.678l-25.813,0l0,-20.222l25.813,0l0,20.222Z" style="fill:none;"/></g><path id="Drawing_607_0" d="M125.254,42.924c0,0.287 -0.123,0.41 -0.164,0.697c0.164,0.576 -0.083,0.699 -0.164,0.905c0.081,0.658 -0.206,0.863 -0.494,1.151l0,0.329c-0.534,0.903 -1.602,1.396 -2.178,1.562c0.576,0.123 1.644,0.616 2.178,1.521l0,0.37c0.289,0.287 0.576,0.41 0.494,1.069c0.081,0.247 0.328,0.41 0.164,0.945c0.123,0.37 0.41,0.657 0,1.15c0.164,0.329 0.164,0.782 -0.083,1.111c0.083,0.493 -0.081,0.657 -0.204,0.78c0,0.123 0.041,0.822 -0.452,1.192c0.164,0.905 -0.452,1.151 -1.028,0.822c-0.287,0.247 -0.576,0.37 -1.069,-0.041c-0.247,0.123 -0.616,0.041 -0.986,-0.289c-0.412,0.083 -0.699,-0.081 -0.905,-0.41c-0.576,0.041 -0.863,-0.493 -0.986,-0.658c-0.37,-0.041 -0.616,-0.204 -0.782,-0.821c-0.493,-0.165 -0.534,-0.494 -0.699,-0.905c-0.697,1.233 -1.602,2.301 -3.986,2.301l-0.289,0.206c-0.903,1.398 -3.657,2.672 -5.919,0.699c-0.74,-0.123 -1.233,-0.329 -1.808,-0.535c-2.261,-0.287 -3.329,-2.219 -3.452,-2.754c-0.534,-0.699 -1.151,-1.479 -1.479,-2.548c-1.028,-1.028 -1.398,-2.097 -1.398,-3.206l0,-0.083c0,-1.069 0.37,-2.178 1.398,-3.165c0.328,-1.027 0.945,-1.808 1.479,-2.59c0.123,-0.493 1.192,-2.384 3.452,-2.671c0.576,-0.206 1.069,-0.41 1.808,-0.576c2.262,-2.014 5.016,-0.699 5.919,0.699l0.289,0.247c2.384,-0.083 3.289,1.028 3.986,2.22c0.165,-0.329 0.206,-0.699 0.699,-0.822c0.165,-0.658 0.412,-0.782 0.782,-0.863c0.123,-0.206 0.41,-0.782 0.986,-0.699c0.206,-0.289 0.493,-0.493 0.905,-0.37c0.37,-0.329 0.74,-0.494 0.986,-0.329c0.493,-0.329 0.782,-0.206 1.069,0c0.576,-0.329 1.192,-0.083 1.028,0.78c0.493,0.329 0.452,1.111 0.452,1.192c0.123,0.123 0.287,0.329 0.204,0.822c0.247,0.37 0.247,0.741 0.083,1.151c0.123,0.123 0.164,0.287 0.164,0.412Z" style="fill:none;stroke:#fff;stroke-width:0.29px;"/><g id="g3119"><path id="path3115" d="M119.747,45.719c-1.604,-0.41 -1.685,-2.424 -1.604,-3.206c0.042,0.123 0.125,0.287 0.289,0.287c0.123,-0.164 0,-0.863 0.287,-1.356c0.042,0.206 0.042,0.287 0.165,0.412c0.164,-0.494 0.287,-0.945 0.534,-1.234c0,0.206 0,0.329 0.123,0.452c0.206,-0.329 0.37,-0.822 0.699,-1.109c0,0.204 0,0.41 0.083,0.493c0.206,-0.329 0.493,-0.699 0.78,-0.905c-0.081,0.289 0,0.329 0,0.493c0.289,-0.287 0.535,-0.699 0.905,-0.863c-0.083,0.247 -0.164,0.452 0,0.576c0.206,-0.041 0.329,-0.493 0.822,-0.699c-0.083,0.206 -0.083,0.41 0,0.493c0.452,-0.083 0.658,-0.287 0.945,-0.493l0,1.192l0.329,-0.287c0.123,0.493 -0.083,0.986 -0.123,1.356c0.123,0.123 0.247,0 0.41,-0.247c-0.083,0.37 -0.164,0.782 -0.287,1.069c0.123,0.206 0.37,-0.041 0.493,-0.206c-0.123,0.616 -0.289,0.863 -0.412,1.111c0.123,0.247 0.289,0 0.494,-0.123c-0.206,0.493 -0.452,0.78 -0.658,0.986c0.083,0.083 0.206,0.206 0.493,0.083c-0.206,0.328 -0.41,0.534 -0.699,0.78c0.165,0.165 0.289,0.123 0.493,0.123l-0.821,0.822c0,0 0.123,0.083 0.328,0.164c-0.78,0.782 -2.794,1.973 -3.576,0.289c1.192,-1.48 2.055,-3.165 2.672,-5.097c-1.275,2.507 -2.261,3.864 -3.165,4.644Z" style="fill:#00723e;"/><path id="rect3117" d="M124.72,47.076l-6.658,0l0,-8.016l6.658,0l0,8.016Z" style="fill:none;"/></g><path id="Drawing_609_0" d="M122.912,41.074c-1.275,2.507 -2.261,3.864 -3.165,4.644c-1.604,-0.41 -1.685,-2.424 -1.604,-3.206c0.042,0.123 0.125,0.287 0.289,0.287c0.123,-0.164 0,-0.863 0.287,-1.356c0.042,0.206 0.042,0.287 0.165,0.412c0.164,-0.494 0.287,-0.945 0.534,-1.234c0,0.206 0,0.329 0.123,0.452c0.206,-0.329 0.37,-0.822 0.699,-1.109c0,0.204 0,0.41 0.083,0.493c0.206,-0.329 0.493,-0.699 0.78,-0.905c-0.081,0.289 0,0.329 0,0.493c0.289,-0.287 0.535,-0.699 0.905,-0.863c-0.083,0.247 -0.164,0.452 0,0.576c0.206,-0.041 0.329,-0.493 0.822,-0.699c-0.083,0.206 -0.083,0.41 0,0.493c0.452,-0.083 0.658,-0.287 0.945,-0.493l0,1.192l0.329,-0.287c0.123,0.493 -0.083,0.986 -0.123,1.356c0.123,0.123 0.247,0 0.41,-0.247c-0.083,0.37 -0.164,0.782 -0.287,1.069c0.123,0.206 0.37,-0.041 0.493,-0.206c-0.123,0.616 -0.289,0.863 -0.412,1.111c0.123,0.247 0.289,0 0.494,-0.123c-0.206,0.493 -0.452,0.78 -0.658,0.986c0.083,0.083 0.206,0.206 0.493,0.083c-0.206,0.328 -0.41,0.534 -0.699,0.78c0.165,0.165 0.289,0.123 0.493,0.123l-0.821,0.822c0,0 0.123,0.083 0.328,0.164c-0.78,0.782 -2.794,1.973 -3.576,0.289c1.192,-1.48 2.055,-3.165 2.672,-5.097Z" style="fill:none;stroke:#fff;stroke-width:0.29px;"/><g id="g3128"><path id="path3124" d="M119.747,49.46c0.905,0.74 1.891,2.137 3.165,4.602c-0.618,-1.972 -1.48,-3.616 -2.672,-5.055c0.782,-1.685 2.796,-0.535 3.576,0.287c-0.204,0 -0.328,0.083 -0.328,0.165c0.287,0.247 0.534,0.493 0.821,0.822c-0.204,0 -0.328,-0.083 -0.493,0.081c0.289,0.206 0.493,0.493 0.699,0.822c-0.287,-0.206 -0.41,-0.041 -0.493,0c0.206,0.289 0.452,0.493 0.658,0.986c-0.206,-0.123 -0.371,-0.247 -0.494,-0.123c0.123,0.289 0.289,0.576 0.412,1.192c-0.123,-0.123 -0.37,-0.493 -0.493,-0.287c0.123,0.37 0.204,0.699 0.287,1.109c-0.164,-0.204 -0.287,-0.328 -0.41,-0.204c0.041,0.37 0.247,0.863 0.123,1.356l-0.329,-0.37l0,1.192c-0.287,-0.206 -0.493,-0.329 -0.945,-0.493c-0.083,0.083 -0.083,0.37 0,0.576c-0.493,-0.289 -0.616,-0.658 -0.822,-0.782c-0.164,0.123 -0.083,0.37 0,0.576c-0.37,-0.123 -0.616,-0.493 -0.905,-0.782c0,0.083 -0.081,0.206 0,0.494c-0.287,-0.289 -0.574,-0.576 -0.78,-0.905c-0.083,0.041 -0.083,0.287 -0.083,0.493c-0.329,-0.37 -0.493,-0.78 -0.699,-1.233c-0.123,0.247 -0.123,0.37 -0.123,0.534c-0.247,-0.287 -0.37,-0.78 -0.534,-1.192c-0.123,0.042 -0.123,0.123 -0.165,0.329c-0.287,-0.493 -0.164,-1.109 -0.287,-1.315c-0.164,0.041 -0.247,0.206 -0.289,0.329c-0.081,-0.741 0,-2.878 1.604,-3.206Z" style="fill:#00723e;"/><path id="rect3126" d="M124.72,56.201l-6.658,0l0,-8.056l6.658,0l0,8.056Z" style="fill:none;"/></g><path id="Drawing_611_0" d="M122.912,54.062c-0.618,-1.972 -1.48,-3.616 -2.672,-5.055c0.782,-1.685 2.796,-0.535 3.576,0.287c-0.204,0 -0.328,0.083 -0.328,0.165c0.287,0.247 0.534,0.493 0.821,0.822c-0.204,0 -0.328,-0.083 -0.493,0.081c0.289,0.206 0.493,0.493 0.699,0.822c-0.287,-0.206 -0.41,-0.041 -0.493,0c0.206,0.289 0.452,0.493 0.658,0.986c-0.206,-0.123 -0.371,-0.247 -0.494,-0.123c0.123,0.289 0.289,0.576 0.412,1.192c-0.123,-0.123 -0.37,-0.493 -0.493,-0.287c0.123,0.37 0.204,0.699 0.287,1.109c-0.164,-0.204 -0.287,-0.328 -0.41,-0.204c0.041,0.37 0.247,0.863 0.123,1.356l-0.329,-0.37l0,1.192c-0.287,-0.206 -0.493,-0.329 -0.945,-0.493c-0.083,0.083 -0.083,0.37 0,0.576c-0.493,-0.289 -0.616,-0.658 -0.822,-0.782c-0.164,0.123 -0.083,0.37 0,0.576c-0.37,-0.123 -0.616,-0.493 -0.905,-0.782c0,0.083 -0.081,0.206 0,0.494c-0.287,-0.289 -0.574,-0.576 -0.78,-0.905c-0.083,0.041 -0.083,0.287 -0.083,0.493c-0.329,-0.37 -0.493,-0.78 -0.699,-1.233c-0.123,0.247 -0.123,0.37 -0.123,0.534c-0.247,-0.287 -0.37,-0.78 -0.534,-1.192c-0.123,0.042 -0.123,0.123 -0.165,0.329c-0.287,-0.493 -0.164,-1.109 -0.287,-1.315c-0.164,0.041 -0.247,0.206 -0.289,0.329c-0.081,-0.741 0,-2.878 1.604,-3.206c0.905,0.74 1.891,2.137 3.165,4.602Z" style="fill:none;stroke:#fff;stroke-width:0.29px;"/><g id="g3137"><path id="path3133" d="M106.676,50.486c-1.562,0 -2.754,-1.273 -2.754,-2.877c0,-1.644 1.192,-2.959 2.671,-2.959l0.083,0c1.479,0 2.671,1.315 2.671,2.959c0,1.562 -1.192,2.877 -2.671,2.877Z" style="fill:#00723e;"/><path id="rect3135" d="M109.347,50.528l-5.507,0l0,-5.878l5.507,0l0,5.878Z" style="fill:none;"/></g><path id="Drawing_613_0" d="M106.676,50.486c-1.562,0 -2.754,-1.273 -2.754,-2.877c0,-1.644 1.192,-2.959 2.671,-2.959l0.083,0c1.479,0 2.671,1.315 2.671,2.959c0,1.562 -1.192,2.877 -2.671,2.877Z" style="fill:none;stroke:#fff;stroke-width:0.29px;"/><g id="g3146"><path id="path3142" d="M110.335,46.377c-1.398,-0.905 -1.973,-2.672 -1.111,-3.864c0.741,-1.192 2.59,-1.438 3.988,-0.493c1.398,0.905 1.973,2.671 1.109,3.945c-0.78,1.192 -2.59,1.398 -3.986,0.412Z" style="fill:#00723e;"/><path id="rect3144" d="M114.773,47.074l-6.002,0l0,-5.63l6.002,0l0,5.63Z" style="fill:none;"/></g><path id="Drawing_615_0" d="M114.321,45.965c-0.78,1.192 -2.59,1.398 -3.986,0.412c-1.398,-0.905 -1.973,-2.672 -1.111,-3.864c0.741,-1.192 2.59,-1.438 3.988,-0.493c1.398,0.905 1.973,2.671 1.109,3.945Z" style="fill:none;stroke:#fff;stroke-width:0.29px;"/><g id="g3155"><path id="path3151" d="M114.444,49.171c0.864,1.192 0.289,2.959 -1.109,3.945c-1.398,0.905 -3.247,0.699 -3.988,-0.493c-0.78,-1.192 -0.287,-2.959 1.111,-3.945c1.396,-0.945 3.247,-0.699 3.986,0.493Z" style="fill:#00723e;"/><path id="rect3153" d="M114.856,53.733l-5.919,0l0,-5.63l5.919,0l0,5.63Z" style="fill:none;"/></g><path id="Drawing_617_0" d="M114.444,49.171c0.864,1.192 0.289,2.959 -1.109,3.945c-1.398,0.905 -3.247,0.699 -3.988,-0.493c-0.78,-1.192 -0.287,-2.959 1.111,-3.945c1.396,-0.945 3.247,-0.699 3.986,0.493Z" style="fill:none;stroke:#fff;stroke-width:0.29px;"/><g id="g3164"><path id="path3160" d="M113.088,39.842c0.329,1.315 -5.426,0.41 -5.014,-0.658c0.986,-1.109 3.74,-1.521 5.014,0.658Z" style="fill:#00723e;"/><path id="rect3162" d="M113.088,40.539l-5.097,0l0,-2.261l5.097,0l0,2.261Z" style="fill:none;"/></g><path id="Drawing_619_0" d="M113.088,39.842c0.329,1.315 -5.426,0.41 -5.014,-0.658c0.986,-1.109 3.74,-1.521 5.014,0.658Z" style="fill:none;stroke:#fff;stroke-width:0.29px;"/><g id="g3173"><path id="path3169" d="M113.129,55.007c-1.275,2.137 -4.028,1.727 -5.014,0.618c-0.412,-1.111 5.343,-1.973 5.014,-0.618Z" style="fill:#00723e;"/><path id="rect3171" d="M113.129,56.611l-5.097,0l0,-2.301l5.097,0l0,2.301Z" style="fill:none;"/></g><path id="Drawing_621_0" d="M113.129,55.007c-1.275,2.137 -4.028,1.727 -5.014,0.618c-0.412,-1.111 5.343,-1.973 5.014,-0.618Z" style="fill:none;stroke:#fff;stroke-width:0.29px;"/><g id="g3182"><path id="path3178" d="M117.446,50.486c0.328,2.303 -0.987,4.151 -3.454,4.07c-0.903,-0.083 3.289,-4.85 3.454,-4.07Z" style="fill:#00723e;"/><path id="rect3180" d="M117.527,54.638l-3.741,0l0,-4.275l3.741,0l0,4.275Z" style="fill:none;"/></g><path id="Drawing_623_0" d="M117.446,50.486c0.328,2.303 -0.987,4.151 -3.454,4.07c-0.903,-0.083 3.289,-4.85 3.454,-4.07Z" style="fill:none;stroke:#fff;stroke-width:0.29px;"/><g id="g3191"><path id="path3187" d="M117.486,44.28c-0.164,0.822 -4.357,-4.028 -3.452,-4.028c2.466,-0.123 3.782,1.768 3.452,4.028Z" style="fill:#00723e;"/><path id="rect3189" d="M117.569,44.444l-3.741,0l0,-4.192l3.741,0l0,4.192Z" style="fill:none;"/></g><path id="Drawing_625_0" d="M117.486,44.28c-0.164,0.822 -4.357,-4.028 -3.452,-4.028c2.466,-0.123 3.782,1.768 3.452,4.028Z" style="fill:none;stroke:#fff;stroke-width:0.29px;"/><g id="g3200"><path id="path3196" d="M118.062,47.569c0,1.192 -0.905,2.671 -1.768,2.671c-0.699,0 -1.315,-1.069 -1.315,-2.671c0,-1.604 0.78,-2.672 1.479,-2.672c0.616,0 1.685,1.275 1.604,2.672Z" style="fill:#00723e;"/><path id="rect3198" d="M118.062,50.322l-3.165,0l0,-5.426l3.165,0l0,5.426Z" style="fill:none;"/></g><path id="Drawing_627_0" d="M118.062,47.569c0,1.192 -0.905,2.671 -1.768,2.671c-0.699,0 -1.315,-1.069 -1.315,-2.671c0,-1.604 0.78,-2.672 1.479,-2.672c0.616,0 1.685,1.275 1.604,2.672Z" style="fill:none;stroke:#fff;stroke-width:0.29px;"/><g id="g3209"><path id="path3205" d="M103.101,47.609c0.041,1.192 -0.452,2.754 -0.905,2.754c-0.576,0 -1.85,-1.438 -1.85,-2.836c-0.041,-1.479 1.193,-2.877 1.604,-2.877c0.658,0 1.151,1.768 1.151,2.959Z" style="fill:#00723e;"/><path id="rect3207" d="M103.141,50.405l-2.877,0l0,-5.755l2.877,0l0,5.755Z" style="fill:none;"/></g><path id="Drawing_629_0" d="M103.101,47.609c0.041,1.192 -0.452,2.754 -0.905,2.754c-0.576,0 -1.85,-1.438 -1.85,-2.836c-0.041,-1.479 1.193,-2.877 1.604,-2.877c0.658,0 1.151,1.768 1.151,2.959Z" style="fill:none;stroke:#fff;stroke-width:0.29px;"/><g id="g3218"><path id="path3214" d="M103.141,43.745c-0.41,-0.616 -0.206,-2.219 1.398,-3.37c1.398,-0.782 2.836,-0.699 3.164,-0.164c0.576,0.863 -0.123,2.055 -1.273,3.041c-0.945,0.864 -2.713,1.192 -3.289,0.493Z" style="fill:#00723e;"/><path id="rect3216" d="M107.951,44.197l-5.056,0l0,-4.398l5.056,0l0,4.398Z" style="fill:none;"/></g><path id="Drawing_631_0" d="M106.43,43.252c-0.945,0.864 -2.713,1.192 -3.289,0.493c-0.41,-0.616 -0.206,-2.219 1.398,-3.37c1.398,-0.782 2.836,-0.699 3.164,-0.164c0.576,0.863 -0.123,2.055 -1.273,3.041Z" style="fill:none;stroke:#fff;stroke-width:0.29px;"/><g id="g3227"><path id="path3223" d="M106.8,51.761c1.109,1.028 1.891,2.178 1.315,2.959c-0.576,0.452 -2.466,0.822 -3.658,-0.083c-1.726,-1.273 -1.808,-2.959 -1.315,-3.576c0.616,-0.699 2.59,-0.164 3.658,0.699Z" style="fill:#00723e;"/><path id="rect3225" d="M108.361,55.254l-5.549,0l0,-4.521l5.549,0l0,4.521Z" style="fill:none;"/></g><path id="Drawing_633_0" d="M106.8,51.761c1.109,1.028 1.891,2.178 1.315,2.959c-0.576,0.452 -2.466,0.822 -3.658,-0.083c-1.726,-1.273 -1.808,-2.959 -1.315,-3.576c0.616,-0.699 2.59,-0.164 3.658,0.699Z" style="fill:none;stroke:#fff;stroke-width:0.29px;"/></g><g id="Memory"><g id="path3246"><path d="M96.583,178.554l0,-39.601l50.749,0l0,39.601l-50.749,0Z" style="fill:#858585;"/></g><g id="Drawing_635_0"><path d="M96.583,178.164l0,-39.212l50.073,0l0,39.212l-50.073,0Z" style="fill:none;stroke:#000;stroke-width:1.63px;"/></g></g><g id="Drawing_634"><path id="rect3233" d="M181.406,193.721l-24.004,0l0,-103.743l24.004,0l0,103.743Z" style="fill:none;"/><g id="g3243"><g><g id="text3237"><g transform="matrix(0,1,-1,0,274.056276,-67.300573)"><g transform="matrix(5.7957,0,0,5.7957,212.878363,103.377852)"></g><text x="170.678px" y="103.378px" style="font-family:'Arial-BoldMT', 'Arial', sans-serif;font-weight:700;font-size:5.796px;fill:#fff;">Raspberry Pi 4</text></g></g></g></g></g><g id="DrawingGroup_29"><g id="g3249"><g id="path32461" serif:id="path3246"><path d="M147.334,47.831l0,-23.431l28.999,0l0,23.431l-28.999,0Z" style="fill:#eee;"/></g><g id="Drawing_635_01" serif:id="Drawing_635_0"><path d="M147.333,47.601l0,-23.2l28.613,0l0,23.2l-28.613,0Z" style="fill:none;stroke:#000;stroke-width:0.96px;"/></g></g></g></g><g id="connectors-4"><g id="g23183"><path id="connector0pin-0" d="M190.728,16.113c0,1.92 -1.559,3.478 -3.478,3.478c-1.92,0 -3.478,-1.559 -3.478,-3.478c0,-1.92 1.559,-3.478 3.478,-3.478c1.92,0 3.478,1.559 3.478,3.478Z" style="fill:none;stroke:#ffbf00;stroke-width:1.67px;stroke-linejoin:miter;"/><path id="connector1pin-1" d="M190.728,28.107c0,1.92 -1.559,3.478 -3.478,3.478c-1.92,0 -3.478,-1.559 -3.478,-3.478c0,-1.92 1.559,-3.478 3.478,-3.478c1.92,0 3.478,1.559 3.478,3.478Z" style="fill:none;stroke:#ffbf00;stroke-width:1.67px;stroke-linejoin:miter;"/><path id="connector2pin-3" d="M190.728,40.101c0,1.92 -1.559,3.478 -3.478,3.478c-1.92,0 -3.478,-1.559 -3.478,-3.478c0,-1.92 1.559,-3.478 3.478,-3.478c1.92,0 3.478,1.559 3.478,3.478Z" style="fill:none;stroke:#ffbf00;stroke-width:1.67px;stroke-linejoin:miter;"/><path id="connector3pin-7" d="M190.728,52.096c0,1.92 -1.559,3.478 -3.478,3.478c-1.92,0 -3.478,-1.559 -3.478,-3.478c0,-1.92 1.559,-3.478 3.478,-3.478c1.92,0 3.478,1.559 3.478,3.478Z" style="fill:none;stroke:#ffbf00;stroke-width:1.67px;stroke-linejoin:miter;"/><path id="connector4pin-4" d="M190.728,64.09c0,1.92 -1.559,3.478 -3.478,3.478c-1.92,0 -3.478,-1.559 -3.478,-3.478c0,-1.92 1.559,-3.478 3.478,-3.478c1.92,0 3.478,1.559 3.478,3.478Z" style="fill:none;stroke:#ffbf00;stroke-width:1.67px;stroke-linejoin:miter;"/><path id="connector5pin-1" d="M190.728,76.084c0,1.92 -1.559,3.478 -3.478,3.478c-1.92,0 -3.478,-1.559 -3.478,-3.478c0,-1.92 1.559,-3.478 3.478,-3.478c1.92,0 3.478,1.559 3.478,3.478Z" style="fill:none;stroke:#ffbf00;stroke-width:1.67px;stroke-linejoin:miter;"/><path id="connector6pin-1" d="M190.728,88.079c0,1.92 -1.559,3.478 -3.478,3.478c-1.92,0 -3.478,-1.559 -3.478,-3.478c0,-1.92 1.559,-3.478 3.478,-3.478c1.92,0 3.478,1.559 3.478,3.478Z" style="fill:none;stroke:#ffbf00;stroke-width:1.67px;stroke-linejoin:miter;"/><path id="connector7pin-3" d="M190.728,100.073c0,1.92 -1.559,3.478 -3.478,3.478c-1.92,0 -3.478,-1.559 -3.478,-3.478c0,-1.92 1.559,-3.478 3.478,-3.478c1.92,0 3.478,1.559 3.478,3.478Z" style="fill:none;stroke:#ffbf00;stroke-width:1.67px;stroke-linejoin:miter;"/><path id="connector8pin-0" d="M190.728,112.069c0,1.92 -1.559,3.478 -3.478,3.478c-1.92,0 -3.478,-1.559 -3.478,-3.478c0,-1.92 1.559,-3.478 3.478,-3.478c1.92,0 3.478,1.559 3.478,3.478Z" style="fill:none;stroke:#ffbf00;stroke-width:1.67px;stroke-linejoin:miter;"/><path id="connector9pin-3" d="M190.728,124.062c0,1.92 -1.559,3.478 -3.478,3.478c-1.92,0 -3.478,-1.559 -3.478,-3.478c0,-1.92 1.559,-3.478 3.478,-3.478c1.92,0 3.478,1.559 3.478,3.478Z" style="fill:none;stroke:#ffbf00;stroke-width:1.67px;stroke-linejoin:miter;"/><path id="connector10pin-2" d="M190.728,136.056c0,1.92 -1.559,3.478 -3.478,3.478c-1.92,0 -3.478,-1.559 -3.478,-3.478c0,-1.92 1.559,-3.478 3.478,-3.478c1.92,0 3.478,1.559 3.478,3.478Z" style="fill:none;stroke:#ffbf00;stroke-width:1.67px;stroke-linejoin:miter;"/><path id="connector11pin-1" d="M190.73,148.05c0,1.921 -1.559,3.48 -3.48,3.48c-1.921,0 -3.48,-1.559 -3.48,-3.48c0,-1.921 1.559,-3.48 3.48,-3.48c1.921,0 3.48,1.559 3.48,3.48Z" style="fill:none;stroke:#ffbf00;stroke-width:1.67px;stroke-linejoin:miter;"/><path id="connector12pin-7" d="M190.728,160.044c0,1.92 -1.559,3.478 -3.478,3.478c-1.92,0 -3.478,-1.559 -3.478,-3.478c0,-1.92 1.559,-3.478 3.478,-3.478c1.92,0 3.478,1.559 3.478,3.478Z" style="fill:none;stroke:#ffbf00;stroke-width:1.67px;stroke-linejoin:miter;"/><path id="connector13pin-5" d="M190.728,172.039c0,1.92 -1.559,3.478 -3.478,3.478c-1.92,0 -3.478,-1.559 -3.478,-3.478c0,-1.92 1.559,-3.478 3.478,-3.478c1.92,0 3.478,1.559 3.478,3.478Z" style="fill:none;stroke:#ffbf00;stroke-width:1.67px;stroke-linejoin:miter;"/><path id="connector14pin-6" d="M190.728,184.035c0,1.92 -1.559,3.478 -3.478,3.478c-1.92,0 -3.478,-1.559 -3.478,-3.478c0,-1.92 1.559,-3.478 3.478,-3.478c1.92,0 3.478,1.559 3.478,3.478Z" style="fill:none;stroke:#ffbf00;stroke-width:1.67px;stroke-linejoin:miter;"/><path id="connector15pin-5" d="M190.728,196.027c0,1.92 -1.559,3.478 -3.478,3.478c-1.92,0 -3.478,-1.559 -3.478,-3.478c0,-1.92 1.559,-3.478 3.478,-3.478c1.92,0 3.478,1.559 3.478,3.478Z" style="fill:none;stroke:#ffbf00;stroke-width:1.67px;stroke-linejoin:miter;"/><path id="connector16pin-4" d="M190.73,208.022c0,1.921 -1.559,3.48 -3.48,3.48c-1.921,0 -3.48,-1.559 -3.48,-3.48c0,-1.921 1.559,-3.48 3.48,-3.48c1.921,0 3.48,1.559 3.48,3.48Z" style="fill:none;stroke:#ffbf00;stroke-width:1.67px;stroke-linejoin:miter;"/><path id="connector17pin-2" d="M190.728,220.016c0,1.92 -1.559,3.478 -3.478,3.478c-1.92,0 -3.478,-1.559 -3.478,-3.478c0,-1.92 1.559,-3.478 3.478,-3.478c1.92,0 3.478,1.559 3.478,3.478Z" style="fill:none;stroke:#ffbf00;stroke-width:1.67px;stroke-linejoin:miter;"/><path id="connector18pin-2" d="M190.728,232.009c0,1.92 -1.559,3.478 -3.478,3.478c-1.92,0 -3.478,-1.559 -3.478,-3.478c0,-1.92 1.559,-3.478 3.478,-3.478c1.92,0 3.478,1.559 3.478,3.478Z" style="fill:none;stroke:#ffbf00;stroke-width:1.67px;stroke-linejoin:miter;"/><path id="connector19pin-1" d="M190.728,244.005c0,1.92 -1.559,3.478 -3.478,3.478c-1.92,0 -3.478,-1.559 -3.478,-3.478c0,-1.92 1.559,-3.478 3.478,-3.478c1.92,0 3.478,1.559 3.478,3.478Z" style="fill:none;stroke:#ffbf00;stroke-width:1.67px;stroke-linejoin:miter;"/><path id="connector20pin-7" d="M202.72,244.005c0,1.92 -1.559,3.478 -3.478,3.478c-1.92,0 -3.478,-1.559 -3.478,-3.478c0,-1.92 1.559,-3.478 3.478,-3.478c1.92,0 3.478,1.559 3.478,3.478Z" style="fill:none;stroke:#ffbf00;stroke-width:1.67px;stroke-linejoin:miter;"/><path id="connector21pin-2" d="M202.72,232.009c0,1.92 -1.559,3.478 -3.478,3.478c-1.92,0 -3.478,-1.559 -3.478,-3.478c0,-1.92 1.559,-3.478 3.478,-3.478c1.92,0 3.478,1.559 3.478,3.478Z" style="fill:none;stroke:#ffbf00;stroke-width:1.67px;stroke-linejoin:miter;"/><path id="connector22pin-4" d="M202.72,220.016c0,1.92 -1.559,3.478 -3.478,3.478c-1.92,0 -3.478,-1.559 -3.478,-3.478c0,-1.92 1.559,-3.478 3.478,-3.478c1.92,0 3.478,1.559 3.478,3.478Z" style="fill:none;stroke:#ffbf00;stroke-width:1.67px;stroke-linejoin:miter;"/><path id="connector23pin-1" d="M202.722,208.022c0,1.921 -1.559,3.48 -3.48,3.48c-1.921,0 -3.48,-1.559 -3.48,-3.48c0,-1.921 1.559,-3.48 3.48,-3.48c1.921,0 3.48,1.559 3.48,3.48Z" style="fill:none;stroke:#ffbf00;stroke-width:1.67px;stroke-linejoin:miter;"/><path id="connector24pin-6" d="M202.72,196.027c0,1.92 -1.559,3.478 -3.478,3.478c-1.92,0 -3.478,-1.559 -3.478,-3.478c0,-1.92 1.559,-3.478 3.478,-3.478c1.92,0 3.478,1.559 3.478,3.478Z" style="fill:none;stroke:#ffbf00;stroke-width:1.67px;stroke-linejoin:miter;"/><path id="connector25pin-5" d="M202.72,184.035c0,1.92 -1.559,3.478 -3.478,3.478c-1.92,0 -3.478,-1.559 -3.478,-3.478c0,-1.92 1.559,-3.478 3.478,-3.478c1.92,0 3.478,1.559 3.478,3.478Z" style="fill:none;stroke:#ffbf00;stroke-width:1.67px;stroke-linejoin:miter;"/><path id="connector26pin-7" d="M202.72,172.039c0,1.92 -1.559,3.478 -3.478,3.478c-1.92,0 -3.478,-1.559 -3.478,-3.478c0,-1.92 1.559,-3.478 3.478,-3.478c1.92,0 3.478,1.559 3.478,3.478Z" style="fill:none;stroke:#ffbf00;stroke-width:1.67px;stroke-linejoin:miter;"/><path id="connector27pin-8" d="M202.72,160.044c0,1.92 -1.559,3.478 -3.478,3.478c-1.92,0 -3.478,-1.559 -3.478,-3.478c0,-1.92 1.559,-3.478 3.478,-3.478c1.92,0 3.478,1.559 3.478,3.478Z" style="fill:none;stroke:#ffbf00;stroke-width:1.67px;stroke-linejoin:miter;"/><path id="connector28pin-5" d="M202.722,148.05c0,1.921 -1.559,3.48 -3.48,3.48c-1.921,0 -3.48,-1.559 -3.48,-3.48c0,-1.921 1.559,-3.48 3.48,-3.48c1.921,0 3.48,1.559 3.48,3.48Z" style="fill:none;stroke:#ffbf00;stroke-width:1.67px;stroke-linejoin:miter;"/><path id="connector29pin-9" d="M202.72,136.056c0,1.92 -1.559,3.478 -3.478,3.478c-1.92,0 -3.478,-1.559 -3.478,-3.478c0,-1.92 1.559,-3.478 3.478,-3.478c1.92,0 3.478,1.559 3.478,3.478Z" style="fill:none;stroke:#ffbf00;stroke-width:1.67px;stroke-linejoin:miter;"/><path id="connector30pin-2" d="M202.72,124.062c0,1.92 -1.559,3.478 -3.478,3.478c-1.92,0 -3.478,-1.559 -3.478,-3.478c0,-1.92 1.559,-3.478 3.478,-3.478c1.92,0 3.478,1.559 3.478,3.478Z" style="fill:none;stroke:#ffbf00;stroke-width:1.67px;stroke-linejoin:miter;"/><path id="connector31pin-7" d="M202.72,112.069c0,1.92 -1.559,3.478 -3.478,3.478c-1.92,0 -3.478,-1.559 -3.478,-3.478c0,-1.92 1.559,-3.478 3.478,-3.478c1.92,0 3.478,1.559 3.478,3.478Z" style="fill:none;stroke:#ffbf00;stroke-width:1.67px;stroke-linejoin:miter;"/><path id="connector32pin-3" d="M202.72,100.073c0,1.92 -1.559,3.478 -3.478,3.478c-1.92,0 -3.478,-1.559 -3.478,-3.478c0,-1.92 1.559,-3.478 3.478,-3.478c1.92,0 3.478,1.559 3.478,3.478Z" style="fill:none;stroke:#ffbf00;stroke-width:1.67px;stroke-linejoin:miter;"/><path id="connector33pin-6" d="M202.72,88.079c0,1.92 -1.559,3.478 -3.478,3.478c-1.92,0 -3.478,-1.559 -3.478,-3.478c0,-1.92 1.559,-3.478 3.478,-3.478c1.92,0 3.478,1.559 3.478,3.478Z" style="fill:none;stroke:#ffbf00;stroke-width:1.67px;stroke-linejoin:miter;"/><path id="connector34pin-4" d="M202.72,76.084c0,1.92 -1.559,3.478 -3.478,3.478c-1.92,0 -3.478,-1.559 -3.478,-3.478c0,-1.92 1.559,-3.478 3.478,-3.478c1.92,0 3.478,1.559 3.478,3.478Z" style="fill:none;stroke:#ffbf00;stroke-width:1.67px;stroke-linejoin:miter;"/><path id="connector35pin-7" d="M202.72,64.09c0,1.92 -1.559,3.478 -3.478,3.478c-1.92,0 -3.478,-1.559 -3.478,-3.478c0,-1.92 1.559,-3.478 3.478,-3.478c1.92,0 3.478,1.559 3.478,3.478Z" style="fill:none;stroke:#ffbf00;stroke-width:1.67px;stroke-linejoin:miter;"/><path id="connector36pin-9" d="M202.72,52.096c0,1.92 -1.559,3.478 -3.478,3.478c-1.92,0 -3.478,-1.559 -3.478,-3.478c0,-1.92 1.559,-3.478 3.478,-3.478c1.92,0 3.478,1.559 3.478,3.478Z" style="fill:none;stroke:#ffbf00;stroke-width:1.67px;stroke-linejoin:miter;"/><path id="connector37pin-7" d="M202.72,40.101c0,1.92 -1.559,3.478 -3.478,3.478c-1.92,0 -3.478,-1.559 -3.478,-3.478c0,-1.92 1.559,-3.478 3.478,-3.478c1.92,0 3.478,1.559 3.478,3.478Z" style="fill:none;stroke:#ffbf00;stroke-width:1.67px;stroke-linejoin:miter;"/><path id="connector38pin-2" d="M202.72,28.107c0,1.92 -1.559,3.478 -3.478,3.478c-1.92,0 -3.478,-1.559 -3.478,-3.478c0,-1.92 1.559,-3.478 3.478,-3.478c1.92,0 3.478,1.559 3.478,3.478Z" style="fill:none;stroke:#ffbf00;stroke-width:1.67px;stroke-linejoin:miter;"/><path id="connector39pin-2" d="M202.72,16.113c0,1.92 -1.559,3.478 -3.478,3.478c-1.92,0 -3.478,-1.559 -3.478,-3.478c0,-1.92 1.559,-3.478 3.478,-3.478c1.92,0 3.478,1.559 3.478,3.478Z" style="fill:none;stroke:#ffbf00;stroke-width:1.67px;stroke-linejoin:miter;"/></g></g></svg>