<?xml version="1.0" encoding="UTF-8" standalone="no"?><!DOCTYPE svg PUBLIC "-//W3C//DTD SVG 1.1//EN" "http://www.w3.org/Graphics/SVG/1.1/DTD/svg11.dtd"><svg width="100%" height="100%" viewBox="0 0 206 308" version="1.1" xmlns="http://www.w3.org/2000/svg" xmlns:xlink="http://www.w3.org/1999/xlink" xml:space="preserve" xmlns:serif="http://www.serif.com/" style="fill-rule:evenodd;clip-rule:evenodd;stroke-linejoin:round;"><g><g id="g477"><path id="rect475" d="M205.808,299.99l-197.208,0l-0,-299.105l197.208,-0l0,299.105Z" style="fill:none;"/></g><g id="g482"><path id="path479" d="M17.934,0.885l175.23,-0c12.609,0 12.609,8.982 12.609,18.28l0,271.914c0,8.524 -4.508,9.123 -10.848,8.806l-172.447,0c-9.616,0 -13.842,-0.564 -13.842,-8.982l-0,-280.015c0,-6.692 4.544,-10.003 9.299,-10.003Z" style="fill:#007826;"/><path id="Drawing_8_0" d="M17.934,0.885l175.23,-0c12.609,0 12.609,8.982 12.609,18.28l0,271.914c0,8.524 -4.508,9.123 -10.848,8.806l-172.447,0c-9.616,0 -13.842,-0.564 -13.842,-8.982l-0,-280.015c0,-6.692 4.544,-10.003 9.299,-10.003Z" style="fill:none;stroke:#000;stroke-width:0.53px;"/></g><g id="DrawingGroup_2"><g id="g488"><path id="path484" d="M86.123,305.344l-0,-54.347l47.198,0l0,54.347l-47.198,0Z" style="fill:#06c;"/><path id="rect486" d="M133.321,305.375l-47.233,0l-0,-54.378l47.233,0l0,54.378Z" style="fill:none;"/></g><g id="g491"><path id="Drawing_10_0" d="M86.123,305.344l-0,-54.347l47.198,0l0,54.347l-47.198,0Z" style="fill:none;stroke:#000;stroke-width:0.76px;"/></g></g><g id="DrawingGroup_3"><g id="g507"><path id="path503" d="M58.65,86.51l56.003,0l3.874,4.297l0,56.285l-59.877,0l0,-60.582Z" style="fill:#ddd;"/><path id="rect505" d="M118.563,147.127l-59.948,0l0,-60.617l59.948,0l0,60.617Z" style="fill:none;"/></g><g id="g541"><path id="Drawing_16_0" d="M108.313,86.862l0,59.877" style="fill:none;stroke:#999;stroke-width:1.76px;"/></g><g id="g544"><path id="Drawing_17_0" d="M68.512,86.862l0,59.877" style="fill:none;stroke:#999;stroke-width:1.76px;"/></g><g id="g547"><path id="Drawing_18_0" d="M58.65,86.615l56.003,0l3.874,4.297l0,56.109l-59.877,0l0,-60.406Z" style="fill:none;stroke:#000;stroke-width:0.74px;"/></g></g><g id="DrawingGroup_4"><g id="g554"><path id="path550" d="M8.811,189.006l0,9.686l57.94,0l0,-9.686l-57.94,0Z" style="fill:#565656;"/><path id="rect552" d="M66.751,198.727l-58.011,0l0,-9.721l58.011,0l0,9.721Z" style="fill:none;"/></g><g id="g557"><path id="Drawing_20_0" d="M8.811,189.006l0,9.686l57.94,0l0,-9.686l-57.94,0Z" style="fill:none;stroke:#000;stroke-width:0.74px;"/></g><g id="g560"><path id="Drawing_21_0" d="M15.503,194.994l0,3.698l44.767,0l0,-3.698l-44.767,0Z" style="fill:none;stroke:#000;stroke-width:0.74px;"/></g></g><g id="DrawingGroup_5"><g id="g567"><path id="path563" d="M110.074,185.484l41.421,0l1.902,1.655l0,41.668l-43.323,0l-0,-43.323Z" style="fill:#8c8c8c;"/><path id="rect565" d="M153.397,228.842l-43.358,0l-0,-43.358l43.358,0l0,43.358Z" style="fill:none;"/></g><g id="g570"><path id="Drawing_23_0" d="M110.074,185.484l41.421,0l1.902,1.655l0,41.668l-43.323,0l-0,-43.323Z" style="fill:none;stroke:#000;stroke-width:0.74px;"/></g></g><g id="DrawingGroup_6"><g id="g606"><path id="path602" d="M151.636,305.639l0,-54.995l46.845,0l0,54.995l-46.845,0Z" style="fill:#cfcfcf;"/><path id="rect604" d="M198.482,305.67l-46.881,0l0,-55.026l46.881,0l0,55.026Z" style="fill:none;"/></g><g id="g609"><path id="Drawing_26_0" d="M151.636,305.639l0,-54.995l46.845,0l0,54.995l-46.845,0Z" style="fill:none;stroke:#000;stroke-width:0.77px;"/></g></g><g id="DrawingGroup_7"><g id="g625"><path id="path621" d="M14.975,304.991l-0,-68.083l55.299,0l0,68.083l-55.299,0Z" style="fill:#cfcfcf;"/><path id="rect623" d="M70.274,305.023l-55.334,0l-0,-68.115l55.334,0l0,68.115Z" style="fill:none;"/></g><g id="g628"><path id="Drawing_29_0" d="M14.975,304.991l-0,-68.083l55.299,0l0,68.083l-55.299,0Z" style="fill:none;stroke:#000;stroke-width:0.77px;"/></g></g><g id="DrawingGroup_11"><g id="g1944"><path id="path1940" d="M4.127,101.303l0,-21.133l29.516,0l0,21.133l-29.516,0Z" style="fill:#cfcfcf;"/><path id="rect1942" d="M33.643,101.373l-29.551,0l0,-21.204l29.551,0l0,21.204Z" style="fill:none;"/></g><g id="g1947"><path id="Drawing_369_0" d="M4.127,101.303l0,-21.133l29.516,0l0,21.133l-29.516,0Z" style="fill:none;stroke:#000;stroke-width:1.3px;"/></g></g><g id="DrawingGroup_12"><g id="g1969"><path id="path1965" d="M49.95,226.94l-8.066,0l-0,-18.668l8.066,0l0,18.668Z" style="fill:#3b3b3b;"/><path id="rect1967" d="M49.95,226.975l-8.101,0l-0,-18.703l8.101,0l0,18.703Z" style="fill:none;"/></g><g id="g1972"><path id="Drawing_372_0" d="M49.95,226.94l-8.066,0l-0,-18.668l8.066,0l0,18.668Z" style="fill:none;stroke:#000;stroke-width:0.21px;"/></g><g id="g1978"><path id="path1974" d="M47.591,220.53l0,3.346l-3.381,0l0,-3.346l3.381,0Z" style="fill:#ff9;"/><path id="rect1976" d="M47.591,223.911l-3.417,0l0,-3.381l3.417,0l0,3.381Z" style="fill:none;"/></g><g id="g1981"><path id="Drawing_374_0" d="M47.591,220.53l0,3.346l-3.381,0l0,-3.346l3.381,0Z" style="fill:none;stroke:#373435;stroke-width:0.11px;"/></g><g id="g1987"><path id="path1983" d="M46.851,221.269l0,1.867l-1.867,0l0,-1.867l1.867,0Z" style="fill:#ff9;"/><path id="rect1985" d="M46.886,223.171l-1.937,0l0,-1.902l1.937,0l0,1.902Z" style="fill:none;"/></g><g id="g1990"><path id="Drawing_376_0" d="M46.851,221.269l0,1.867l-1.867,0l0,-1.867l1.867,0Z" style="fill:none;stroke:#373435;stroke-width:0.11px;"/></g><g id="g1993"><path id="Drawing_377_0" d="M44.984,221.41l-0.74,-0.881" style="fill:none;stroke:#373435;stroke-width:0.07px;"/></g><g id="g1996"><path id="Drawing_378_0" d="M44.984,223.136l-0.74,0.74" style="fill:none;stroke:#373435;stroke-width:0.07px;"/></g><g id="g1999"><path id="Drawing_379_0" d="M46.851,223.136l0.74,0.74" style="fill:none;stroke:#373435;stroke-width:0.07px;"/></g><g id="g2002"><path id="Drawing_380_0" d="M46.851,221.41l0.74,-0.881" style="fill:none;stroke:#373435;stroke-width:0.07px;"/></g><g id="g2008"><path id="path2004" d="M47.591,211.442l0,3.346l-3.381,0l0,-3.346l3.381,0Z" style="fill:#ff9;"/><path id="rect2006" d="M47.591,214.824l-3.417,0l0,-3.381l3.417,0l0,3.381Z" style="fill:none;"/></g><g id="g2011"><path id="Drawing_382_0" d="M47.591,211.442l0,3.346l-3.381,0l0,-3.346l3.381,0Z" style="fill:none;stroke:#373435;stroke-width:0.11px;"/></g><g id="g2017"><path id="path2013" d="M46.851,212.323l0,1.796l-1.867,0l0,-1.796l1.867,0Z" style="fill:#ff9;"/><path id="rect2015" d="M46.886,214.154l-1.937,0l0,-1.832l1.937,0l0,1.832Z" style="fill:none;"/></g><g id="g2020"><path id="Drawing_384_0" d="M46.851,212.323l0,1.796l-1.867,0l0,-1.796l1.867,0Z" style="fill:none;stroke:#373435;stroke-width:0.11px;"/></g><g id="g2023"><path id="Drawing_385_0" d="M44.984,212.323l-0.74,-0.881" style="fill:none;stroke:#373435;stroke-width:0.07px;"/></g><g id="g2026"><path id="Drawing_386_0" d="M44.984,214.119l-0.74,0.704" style="fill:none;stroke:#373435;stroke-width:0.07px;"/></g><g id="g2029"><path id="Drawing_387_0" d="M46.851,214.119l0.74,0.704" style="fill:none;stroke:#373435;stroke-width:0.07px;"/></g><g id="g2032"><path id="Drawing_388_0" d="M46.851,212.323l0.74,-0.881" style="fill:none;stroke:#373435;stroke-width:0.07px;"/></g></g><g id="DrawingGroup_13"><g id="g2039"><path id="path2035" d="M91.055,14.657l0,-9.51l47.198,0l0,9.51l-47.198,0Z" style="fill:#565656;"/><path id="rect2037" d="M138.252,14.692l-47.233,0l0,-9.545l47.233,0l0,9.545Z" style="fill:none;"/></g><g id="g2042"><path id="Drawing_390_0" d="M91.055,14.657l0,-9.51l47.198,0l0,9.51l-47.198,0Z" style="fill:none;stroke:#000;stroke-width:0.77px;"/></g><g id="g2045"><path id="Drawing_391_0" d="M98.275,14.657l0,-4.191l35.609,0l0,4.191l-35.609,0Z" style="fill:none;stroke:#000;stroke-width:0.77px;"/></g></g><g id="DrawingGroup_14"><g id="g2190"><path id="path2186" d="M52.064,50.83l0,-21.239l20.394,0l0,21.239l-20.394,0Z" style="fill:#7e7e7e;"/><path id="rect2188" d="M72.457,50.865l-20.429,0l0,-21.274l20.429,0l0,21.274Z" style="fill:none;"/></g><g id="g2193"><path id="Drawing_416_0" d="M52.064,50.83l0,-21.239l20.394,0l0,21.239l-20.394,0Z" style="fill:none;stroke:#000;stroke-width:0.7px;"/></g></g><g id="g2200"><path id="path2196" d="M20.012,22.969c-5.424,0 -9.827,-4.403 -9.827,-9.827c0,-5.53 4.368,-9.933 9.827,-9.933c5.389,0 9.827,4.403 9.827,9.933c0,5.424 -4.403,9.827 -9.827,9.827Z" style="fill:#f2d592;"/><path id="rect2198" d="M29.839,23.004l-19.689,0l0,-19.83l19.689,0l0,19.83Z" style="fill:none;"/></g><g id="g2203"><path id="Drawing_418_0" d="M20.012,22.969c-5.424,0 -9.827,-4.403 -9.827,-9.827c0,-5.53 4.368,-9.933 9.827,-9.933c5.389,0 9.827,4.403 9.827,9.933c0,5.424 -4.403,9.827 -9.827,9.827Z" style="fill:none;stroke:#000;stroke-width:0.28px;"/></g><g id="g2209"><path id="path2205" d="M20.012,17.721c-2.501,0 -4.508,-2.078 -4.508,-4.403c0,-2.466 2.008,-4.508 4.508,-4.508c2.36,0 4.403,2.043 4.403,4.508c0,2.325 -2.043,4.403 -4.403,4.403Z" style="fill:#fff;"/><path id="rect2207" d="M24.414,17.756l-8.946,0l0,-8.946l8.946,0l0,8.946Z" style="fill:none;"/></g><g id="g2212"><path id="Drawing_420_0" d="M20.012,17.721c-2.501,0 -4.508,-2.078 -4.508,-4.403c0,-2.466 2.008,-4.508 4.508,-4.508c2.36,0 4.403,2.043 4.403,4.508c0,2.325 -2.043,4.403 -4.403,4.403Z" style="fill:none;stroke:#000;stroke-width:0.28px;"/></g><g id="g2237"><path id="path2233" d="M19.906,228.384c-5.459,0 -9.792,-4.403 -9.792,-9.968c0,-5.354 4.332,-9.756 9.792,-9.756c5.389,0 9.792,4.403 9.792,9.756c0,5.565 -4.403,9.968 -9.792,9.968Z" style="fill:#f2d592;"/><path id="rect2235" d="M29.698,228.419l-19.619,0l-0,-19.795l19.619,0l0,19.795Z" style="fill:none;"/></g><g id="g2240"><path id="Drawing_426_0" d="M19.906,228.384c-5.459,0 -9.792,-4.403 -9.792,-9.968c0,-5.354 4.332,-9.756 9.792,-9.756c5.389,0 9.792,4.403 9.792,9.756c0,5.565 -4.403,9.968 -9.792,9.968Z" style="fill:none;stroke:#000;stroke-width:0.28px;"/></g><g id="g2246"><path id="path2242" d="M19.871,223.101c-2.501,0 -4.579,-1.902 -4.579,-4.403c0,-2.466 2.078,-4.508 4.579,-4.508c2.501,0 4.403,2.043 4.403,4.508c0,2.501 -1.902,4.403 -4.403,4.403Z" style="fill:#fff;"/><path id="rect2244" d="M24.274,223.136l-9.017,0l0,-8.982l9.017,0l0,8.982Z" style="fill:none;"/></g><g id="g2249"><path id="Drawing_428_0" d="M19.871,223.101c-2.501,0 -4.579,-1.902 -4.579,-4.403c0,-2.466 2.078,-4.508 4.579,-4.508c2.501,0 4.403,2.043 4.403,4.508c0,2.501 -1.902,4.403 -4.403,4.403Z" style="fill:none;stroke:#000;stroke-width:0.28px;"/></g><g id="DrawingGroup_16"><g id="g2255"><path id="path2251" d="M126.981,38.608c0,0.317 -0.211,0.493 -0.282,0.881c0.282,0.669 -0.07,0.775 -0.211,1.057c0.141,0.775 -0.282,1.092 -0.564,1.409l0,0.387c-0.669,1.127 -2.008,1.726 -2.642,1.937c0.634,0.176 1.972,0.775 2.642,1.832l0,0.493c0.282,0.317 0.704,0.528 0.564,1.233c0.141,0.352 0.493,0.564 0.211,1.198c0.141,0.458 0.528,0.81 0,1.444c0.282,0.352 0.282,0.916 -0.07,1.338c0.07,0.599 -0.141,0.704 -0.282,0.951c0,0.106 0.106,0.986 -0.528,1.444c0.211,1.127 -0.564,1.338 -1.233,0.986c-0.423,0.317 -0.704,0.493 -1.303,-0.035c-0.352,0.176 -0.74,0.035 -1.233,-0.352c-0.493,0.07 -0.845,-0.07 -1.127,-0.528c-0.669,0.07 -0.986,-0.564 -1.198,-0.775c-0.352,-0.106 -0.704,-0.211 -0.916,-1.021c-0.564,-0.176 -0.634,-0.564 -0.845,-1.092c-0.845,1.479 -1.972,2.818 -4.896,2.818l-0.352,0.247c-1.127,1.691 -4.473,3.276 -7.185,0.881c-0.881,-0.176 -1.55,-0.458 -2.219,-0.704c-2.747,-0.352 -4.051,-2.677 -4.156,-3.346c-0.74,-0.81 -1.374,-1.796 -1.867,-3.1c-1.268,-1.268 -1.655,-2.571 -1.655,-3.91l0,-0.106c0,-1.303 0.387,-2.642 1.655,-3.91c0.493,-1.268 1.127,-2.149 1.867,-3.1c0.106,-0.634 1.409,-2.959 4.156,-3.276c0.669,-0.282 1.338,-0.528 2.219,-0.74c2.712,-2.43 6.058,-0.845 7.185,0.881l0.352,0.282c2.923,-0.106 4.051,1.268 4.896,2.712c0.211,-0.458 0.282,-0.81 0.845,-1.021c0.211,-0.775 0.564,-0.951 0.916,-1.057c0.211,-0.176 0.528,-0.916 1.198,-0.775c0.282,-0.387 0.634,-0.669 1.127,-0.493c0.493,-0.387 0.881,-0.599 1.233,-0.387c0.599,-0.458 0.881,-0.282 1.303,0c0.669,-0.458 1.444,-0.141 1.233,0.916c0.634,0.458 0.528,1.374 0.528,1.479c0.141,0.141 0.352,0.423 0.282,0.986c0.352,0.493 0.352,0.881 0.07,1.444c0.141,0.176 0.282,0.282 0.282,0.493Z" style="fill:#fff;"/><path id="rect2253" d="M126.981,56.606l-31.418,0l0,-24.691l31.418,0l0,24.691Z" style="fill:none;"/></g><g id="g2258"><path id="Drawing_430_0" d="M126.981,38.608c0,0.317 -0.211,0.493 -0.282,0.881c0.282,0.669 -0.07,0.775 -0.211,1.057c0.141,0.775 -0.282,1.092 -0.564,1.409l0,0.387c-0.669,1.127 -2.008,1.726 -2.642,1.937c0.634,0.176 1.972,0.775 2.642,1.832l0,0.493c0.282,0.317 0.704,0.528 0.564,1.233c0.141,0.352 0.493,0.564 0.211,1.198c0.141,0.458 0.528,0.81 0,1.444c0.282,0.352 0.282,0.916 -0.07,1.338c0.07,0.599 -0.141,0.704 -0.282,0.951c0,0.106 0.106,0.986 -0.528,1.444c0.211,1.127 -0.564,1.338 -1.233,0.986c-0.423,0.317 -0.704,0.493 -1.303,-0.035c-0.352,0.176 -0.74,0.035 -1.233,-0.352c-0.493,0.07 -0.845,-0.07 -1.127,-0.528c-0.669,0.07 -0.986,-0.564 -1.198,-0.775c-0.352,-0.106 -0.704,-0.211 -0.916,-1.021c-0.564,-0.176 -0.634,-0.564 -0.845,-1.092c-0.845,1.479 -1.972,2.818 -4.896,2.818l-0.352,0.247c-1.127,1.691 -4.473,3.276 -7.185,0.881c-0.881,-0.176 -1.55,-0.458 -2.219,-0.704c-2.747,-0.352 -4.051,-2.677 -4.156,-3.346c-0.74,-0.81 -1.374,-1.796 -1.867,-3.1c-1.268,-1.268 -1.655,-2.571 -1.655,-3.91l0,-0.106c0,-1.303 0.387,-2.642 1.655,-3.91c0.493,-1.268 1.127,-2.149 1.867,-3.1c0.106,-0.634 1.409,-2.959 4.156,-3.276c0.669,-0.282 1.338,-0.528 2.219,-0.74c2.712,-2.43 6.058,-0.845 7.185,0.881l0.352,0.282c2.923,-0.106 4.051,1.268 4.896,2.712c0.211,-0.458 0.282,-0.81 0.845,-1.021c0.211,-0.775 0.564,-0.951 0.916,-1.057c0.211,-0.176 0.528,-0.916 1.198,-0.775c0.282,-0.387 0.634,-0.669 1.127,-0.493c0.493,-0.387 0.881,-0.599 1.233,-0.387c0.599,-0.458 0.881,-0.282 1.303,0c0.669,-0.458 1.444,-0.141 1.233,0.916c0.634,0.458 0.528,1.374 0.528,1.479c0.141,0.141 0.352,0.423 0.282,0.986c0.352,0.493 0.352,0.881 0.07,1.444c0.141,0.176 0.282,0.282 0.282,0.493Z" style="fill:none;stroke:#fff;stroke-width:0.25px;"/></g><g id="g2264"><path id="path2260" d="M120.183,42.024c-1.902,-0.493 -2.043,-3.029 -1.902,-3.91c0.035,0.176 0.141,0.247 0.352,0.247c0.176,-0.07 0,-0.951 0.282,-1.585c0.07,0.282 0.07,0.352 0.247,0.528c0.247,-0.634 0.352,-1.162 0.634,-1.585c0,0.282 0,0.493 0.211,0.634c0.176,-0.387 0.352,-1.021 0.845,-1.374c0,0.282 0,0.493 0.106,0.634c0.211,-0.493 0.564,-0.845 0.881,-1.127c-0.035,0.317 0,0.352 0,0.528c0.352,-0.247 0.669,-0.81 1.162,-0.951c-0.106,0.211 -0.211,0.493 0,0.704c0.247,-0.106 0.387,-0.634 0.986,-0.881c-0.106,0.247 -0.106,0.528 0,0.599c0.528,-0.07 0.775,-0.352 1.092,-0.599l0,1.444l0.493,-0.352c0.106,0.634 -0.141,1.233 -0.211,1.585c0.211,0.211 0.317,0 0.493,-0.211c-0.106,0.423 -0.176,0.951 -0.282,1.303c0.106,0.282 0.352,-0.106 0.564,-0.247c-0.211,0.775 -0.387,0.951 -0.458,1.374c0.07,0.211 0.247,0 0.564,-0.176c-0.317,0.599 -0.564,0.951 -0.81,1.162c0.141,0.106 0.247,0.282 0.599,0.106c-0.282,0.423 -0.458,0.704 -0.845,0.951c0.176,0.211 0.387,0.176 0.564,0.176l-0.986,1.021c0,0 0.176,0.07 0.423,0.141c-0.951,0.951 -3.381,2.395 -4.332,0.352c1.479,-1.832 2.501,-3.839 3.24,-6.164c-1.585,3.029 -2.783,4.685 -3.91,5.671Z" style="fill:#00723e;"/><path id="rect2262" d="M126.277,43.609l-8.101,0l0,-9.721l8.101,0l0,9.721Z" style="fill:none;"/></g><g id="g2267"><path id="Drawing_432_0" d="M124.093,36.354c-1.585,3.029 -2.783,4.685 -3.91,5.671c-1.902,-0.493 -2.043,-3.029 -1.902,-3.91c0.035,0.176 0.141,0.247 0.352,0.247c0.176,-0.07 0,-0.951 0.282,-1.585c0.07,0.282 0.07,0.352 0.247,0.528c0.247,-0.634 0.352,-1.162 0.634,-1.585c0,0.282 0,0.493 0.211,0.634c0.176,-0.387 0.352,-1.021 0.845,-1.374c0,0.282 0,0.493 0.106,0.634c0.211,-0.493 0.564,-0.845 0.881,-1.127c-0.035,0.317 0,0.352 0,0.528c0.352,-0.247 0.669,-0.81 1.162,-0.951c-0.106,0.211 -0.211,0.493 0,0.704c0.247,-0.106 0.387,-0.634 0.986,-0.881c-0.106,0.247 -0.106,0.528 0,0.599c0.528,-0.07 0.775,-0.352 1.092,-0.599l0,1.444l0.493,-0.352c0.106,0.634 -0.141,1.233 -0.211,1.585c0.211,0.211 0.317,0 0.493,-0.211c-0.106,0.423 -0.176,0.951 -0.282,1.303c0.106,0.282 0.352,-0.106 0.564,-0.247c-0.211,0.775 -0.387,0.951 -0.458,1.374c0.07,0.211 0.247,0 0.564,-0.176c-0.317,0.599 -0.564,0.951 -0.81,1.162c0.141,0.106 0.247,0.282 0.599,0.106c-0.282,0.423 -0.458,0.704 -0.845,0.951c0.176,0.211 0.387,0.176 0.564,0.176l-0.986,1.021c0,0 0.176,0.07 0.423,0.141c-0.951,0.951 -3.381,2.395 -4.332,0.352c1.479,-1.832 2.501,-3.839 3.24,-6.164Z" style="fill:none;stroke:#fff;stroke-width:0.25px;"/></g><g id="g2273"><path id="path2269" d="M120.183,46.603c1.127,1.021 2.325,2.642 3.91,5.706c-0.74,-2.466 -1.761,-4.508 -3.24,-6.27c0.951,-1.972 3.381,-0.634 4.332,0.387c-0.247,0 -0.423,0.07 -0.423,0.176c0.317,0.317 0.669,0.599 0.986,1.057c-0.176,0 -0.387,-0.035 -0.564,0.07c0.387,0.247 0.564,0.599 0.845,1.021c-0.352,-0.247 -0.458,-0.07 -0.599,0c0.247,0.352 0.493,0.634 0.81,1.233c-0.317,-0.211 -0.493,-0.352 -0.564,-0.211c0.07,0.352 0.247,0.74 0.458,1.479c-0.211,-0.141 -0.458,-0.599 -0.564,-0.352c0.106,0.387 0.176,0.845 0.282,1.409c-0.176,-0.317 -0.282,-0.493 -0.493,-0.317c0.07,0.458 0.317,1.057 0.211,1.655l-0.493,-0.458l0,1.55c-0.317,-0.317 -0.564,-0.493 -1.092,-0.669c-0.106,0.106 -0.106,0.458 0,0.704c-0.599,-0.352 -0.74,-0.74 -0.986,-0.951c-0.211,0.211 -0.106,0.423 0,0.704c-0.493,-0.141 -0.81,-0.634 -1.162,-0.986c0,0.106 -0.035,0.282 0,0.634c-0.317,-0.352 -0.669,-0.704 -0.881,-1.127c-0.106,0.106 -0.106,0.317 -0.106,0.599c-0.493,-0.458 -0.669,-0.951 -0.845,-1.479c-0.211,0.282 -0.211,0.458 -0.211,0.634c-0.282,-0.352 -0.387,-0.986 -0.634,-1.515c-0.176,0.141 -0.176,0.176 -0.247,0.458c-0.282,-0.564 -0.106,-1.374 -0.282,-1.62c-0.211,0.07 -0.317,0.247 -0.352,0.423c-0.141,-0.916 0,-3.522 1.902,-3.945Z" style="fill:#00723e;"/><path id="rect2271" d="M126.277,54.81l-8.101,0l0,-9.827l8.101,0l0,9.827Z" style="fill:none;"/></g><g id="g2276"><path id="Drawing_434_0" d="M124.093,52.309c-0.74,-2.466 -1.761,-4.508 -3.24,-6.27c0.951,-1.972 3.381,-0.634 4.332,0.387c-0.247,0 -0.423,0.07 -0.423,0.176c0.317,0.317 0.669,0.599 0.986,1.057c-0.176,0 -0.387,-0.035 -0.564,0.07c0.387,0.247 0.564,0.599 0.845,1.021c-0.352,-0.247 -0.458,-0.07 -0.599,0c0.247,0.352 0.493,0.634 0.81,1.233c-0.317,-0.211 -0.493,-0.352 -0.564,-0.211c0.07,0.352 0.247,0.74 0.458,1.479c-0.211,-0.141 -0.458,-0.599 -0.564,-0.352c0.106,0.387 0.176,0.845 0.282,1.409c-0.176,-0.317 -0.282,-0.493 -0.493,-0.317c0.07,0.458 0.317,1.057 0.211,1.655l-0.493,-0.458l0,1.55c-0.317,-0.317 -0.564,-0.493 -1.092,-0.669c-0.106,0.106 -0.106,0.458 0,0.704c-0.599,-0.352 -0.74,-0.74 -0.986,-0.951c-0.211,0.211 -0.106,0.423 0,0.704c-0.493,-0.141 -0.81,-0.634 -1.162,-0.986c0,0.106 -0.035,0.282 0,0.634c-0.317,-0.352 -0.669,-0.704 -0.881,-1.127c-0.106,0.106 -0.106,0.317 -0.106,0.599c-0.493,-0.458 -0.669,-0.951 -0.845,-1.479c-0.211,0.282 -0.211,0.458 -0.211,0.634c-0.282,-0.352 -0.387,-0.986 -0.634,-1.515c-0.176,0.141 -0.176,0.176 -0.247,0.458c-0.282,-0.564 -0.106,-1.374 -0.282,-1.62c-0.211,0.07 -0.317,0.247 -0.352,0.423c-0.141,-0.916 0,-3.522 1.902,-3.945c1.127,1.021 2.325,2.642 3.91,5.706Z" style="fill:none;stroke:#fff;stroke-width:0.25px;"/></g><g id="g2282"><path id="path2278" d="M104.263,47.836c-1.902,0 -3.381,-1.479 -3.381,-3.522c0,-1.937 1.479,-3.593 3.276,-3.593l0.106,0c1.761,0 3.24,1.655 3.24,3.593c0,1.937 -1.479,3.522 -3.24,3.522Z" style="fill:#00723e;"/><path id="rect2280" d="M107.503,47.871l-6.657,0l0,-7.15l6.657,0l0,7.15Z" style="fill:none;"/></g><g id="g2285"><path id="Drawing_436_0" d="M104.263,47.836c-1.902,0 -3.381,-1.479 -3.381,-3.522c0,-1.937 1.479,-3.593 3.276,-3.593l0.106,0c1.761,0 3.24,1.655 3.24,3.593c0,1.937 -1.479,3.522 -3.24,3.522Z" style="fill:none;stroke:#fff;stroke-width:0.25px;"/></g><g id="g2291"><path id="path2287" d="M108.701,42.764c-1.761,-1.092 -2.395,-3.24 -1.338,-4.685c0.881,-1.515 3.135,-1.761 4.861,-0.669c1.691,1.198 2.43,3.24 1.374,4.79c-0.986,1.55 -3.205,1.726 -4.896,0.564Z" style="fill:#00723e;"/><path id="rect2289" d="M114.09,43.574l-7.291,0l0,-6.833l7.291,0l0,6.833Z" style="fill:none;"/></g><g id="g2294"><path id="Drawing_438_0" d="M113.597,42.2c-0.986,1.55 -3.205,1.726 -4.896,0.564c-1.761,-1.092 -2.395,-3.24 -1.338,-4.685c0.881,-1.515 3.135,-1.761 4.861,-0.669c1.691,1.198 2.43,3.24 1.374,4.79Z" style="fill:none;stroke:#fff;stroke-width:0.25px;"/></g><g id="g2300"><path id="path2296" d="M113.773,46.216c0.986,1.479 0.317,3.593 -1.409,4.825c-1.691,1.092 -3.98,0.845 -4.861,-0.599c-0.916,-1.444 -0.352,-3.628 1.374,-4.79c1.761,-1.198 3.91,-0.881 4.896,0.564Z" style="fill:#00723e;"/><path id="rect2298" d="M114.231,51.781l-7.221,0l0,-6.868l7.221,0l0,6.868Z" style="fill:none;"/></g><g id="g2303"><path id="Drawing_440_0" d="M113.773,46.216c0.986,1.479 0.317,3.593 -1.409,4.825c-1.691,1.092 -3.98,0.845 -4.861,-0.599c-0.916,-1.444 -0.352,-3.628 1.374,-4.79c1.761,-1.198 3.91,-0.881 4.896,0.564Z" style="fill:none;stroke:#fff;stroke-width:0.25px;"/></g><g id="g2309"><path id="path2305" d="M112.117,34.733c0.352,1.62 -6.622,0.528 -6.164,-0.775c1.198,-1.338 4.544,-1.902 6.164,0.775Z" style="fill:#00723e;"/><path id="rect2307" d="M112.117,35.579l-6.234,0l0,-2.747l6.234,0l0,2.747Z" style="fill:none;"/></g><g id="g2312"><path id="Drawing_442_0" d="M112.117,34.733c0.352,1.62 -6.622,0.528 -6.164,-0.775c1.198,-1.338 4.544,-1.902 6.164,0.775Z" style="fill:none;stroke:#fff;stroke-width:0.25px;"/></g><g id="g2318"><path id="path2314" d="M112.188,53.331c-1.585,2.677 -4.896,2.149 -6.093,0.775c-0.599,-1.338 6.481,-2.43 6.093,-0.775Z" style="fill:#00723e;"/><path id="rect2316" d="M112.188,55.268l-6.199,0l0,-2.783l6.199,0l0,2.783Z" style="fill:none;"/></g><g id="g2321"><path id="Drawing_444_0" d="M112.188,53.331c-1.585,2.677 -4.896,2.149 -6.093,0.775c-0.599,-1.338 6.481,-2.43 6.093,-0.775Z" style="fill:none;stroke:#fff;stroke-width:0.25px;"/></g><g id="g2327"><path id="path2323" d="M117.365,47.836c0.458,2.853 -1.127,5.107 -4.227,5.002c-1.057,-0.07 4.086,-5.917 4.227,-5.002Z" style="fill:#00723e;"/><path id="rect2325" d="M117.436,52.873l-4.508,0l0,-5.142l4.508,0l0,5.142Z" style="fill:none;"/></g><g id="g2330"><path id="Drawing_446_0" d="M117.365,47.836c0.458,2.853 -1.127,5.107 -4.227,5.002c-1.057,-0.07 4.086,-5.917 4.227,-5.002Z" style="fill:none;stroke:#fff;stroke-width:0.25px;"/></g><g id="g2336"><path id="path2332" d="M117.436,40.193c-0.176,1.092 -5.319,-4.896 -4.227,-4.896c2.994,-0.176 4.579,2.113 4.227,4.896Z" style="fill:#00723e;"/><path id="rect2334" d="M117.471,40.404l-4.473,0l0,-5.142l4.473,0l0,5.142Z" style="fill:none;"/></g><g id="g2339"><path id="Drawing_448_0" d="M117.436,40.193c-0.176,1.092 -5.319,-4.896 -4.227,-4.896c2.994,-0.176 4.579,2.113 4.227,4.896Z" style="fill:none;stroke:#fff;stroke-width:0.25px;"/></g><g id="g2345"><path id="path2341" d="M118.175,44.243c0,1.479 -1.162,3.276 -2.149,3.276c-0.845,0 -1.62,-1.303 -1.62,-3.276c0,-2.008 0.916,-3.24 1.796,-3.24c0.775,0 2.043,1.479 1.972,3.24Z" style="fill:#00723e;"/><path id="rect2343" d="M118.175,47.554l-3.839,0l0,-6.551l3.839,0l0,6.551Z" style="fill:none;"/></g><g id="g2348"><path id="Drawing_450_0" d="M118.175,44.243c0,1.479 -1.162,3.276 -2.149,3.276c-0.845,0 -1.62,-1.303 -1.62,-3.276c0,-2.008 0.916,-3.24 1.796,-3.24c0.775,0 2.043,1.479 1.972,3.24Z" style="fill:none;stroke:#fff;stroke-width:0.25px;"/></g><g id="g2354"><path id="path2350" d="M99.895,44.314c0.035,1.444 -0.564,3.381 -1.127,3.381c-0.669,0 -2.254,-1.691 -2.254,-3.417c-0.106,-1.796 1.479,-3.557 1.972,-3.557c0.775,0 1.409,2.149 1.409,3.593Z" style="fill:#00723e;"/><path id="rect2352" d="M99.895,47.73l-3.452,0l0,-7.009l3.452,0l0,7.009Z" style="fill:none;"/></g><g id="g2357"><path id="Drawing_452_0" d="M99.895,44.314c0.035,1.444 -0.564,3.381 -1.127,3.381c-0.669,0 -2.254,-1.691 -2.254,-3.417c-0.106,-1.796 1.479,-3.557 1.972,-3.557c0.775,0 1.409,2.149 1.409,3.593Z" style="fill:none;stroke:#fff;stroke-width:0.25px;"/></g><g id="g2363"><path id="path2359" d="M99.966,39.559c-0.493,-0.704 -0.247,-2.677 1.796,-4.121c1.691,-0.916 3.417,-0.845 3.769,-0.07c0.775,0.951 -0.141,2.395 -1.479,3.593c-1.198,1.092 -3.311,1.585 -4.086,0.599Z" style="fill:#00723e;"/><path id="rect2361" d="M105.813,40.158l-6.129,0l0,-5.389l6.129,0l0,5.389Z" style="fill:none;"/></g><g id="g2366"><path id="Drawing_454_0" d="M104.051,38.96c-1.198,1.092 -3.311,1.585 -4.086,0.599c-0.493,-0.704 -0.247,-2.677 1.796,-4.121c1.691,-0.916 3.417,-0.845 3.769,-0.07c0.775,0.951 -0.141,2.395 -1.479,3.593Z" style="fill:none;stroke:#fff;stroke-width:0.25px;"/></g><g id="g2372"><path id="path2368" d="M104.439,49.351c1.374,1.303 2.325,2.642 1.655,3.628c-0.669,0.634 -2.994,0.986 -4.438,-0.106c-2.149,-1.515 -2.289,-3.628 -1.691,-4.403c0.845,-0.81 3.17,-0.141 4.473,0.881Z" style="fill:#00723e;"/><path id="rect2370" d="M106.341,53.648l-6.727,0l0,-5.53l6.727,0l0,5.53Z" style="fill:none;"/></g><g id="g2375"><path id="Drawing_456_0" d="M104.439,49.351c1.374,1.303 2.325,2.642 1.655,3.628c-0.669,0.634 -2.994,0.986 -4.438,-0.106c-2.149,-1.515 -2.289,-3.628 -1.691,-4.403c0.845,-0.81 3.17,-0.141 4.473,0.881Z" style="fill:none;stroke:#fff;stroke-width:0.25px;"/></g></g><g id="Drawing_457"><path id="rect2378" d="M179.849,145.084l-8.453,0l0,-56.602l8.453,0l0,56.602Z" style="fill:none;"/><g id="g2384"><g id="text2382" transform="matrix(0,1,-1,0,261.604018,-84.63961)"><text x="173.122px" y="88.482px" style="font-family:'Arial-BoldMT', 'Arial', sans-serif;font-weight:700;font-size:7.467px;fill:#fff;">Raspberry Pi  5</text></g></g></g><g id="DrawingGroup_17"><g id="DrawingGroup_18"><g id="g2400"><path id="path2396" d="M136.35,62.911l0,-37.688l44.873,0l0,37.688l-44.873,0Z" style="fill:#eee;"/><path id="rect2398" d="M181.223,62.946l-44.908,0l0,-37.723l44.908,0l0,37.723Z" style="fill:none;"/></g><g id="g2403"><path id="Drawing_460_0" d="M136.35,62.911l0,-37.688l44.873,0l0,37.688l-44.873,0Z" style="fill:none;stroke:#000;stroke-width:0.35px;"/></g></g></g><g id="Drawing_473"><path id="rect2492" d="M25.718,149.064l-16.554,0l0,-8.172l16.554,0l0,8.172Z" style="fill:none;"/><g id="g2500"><g id="g2498"><text id="text2496" x="9.199px" y="144.344px" style="font-family:'Helvetica';font-size:3.734px;fill:#fff;">HDMI</text></g></g></g><g id="DrawingGroup_21"><g id="DrawingGroup_22"><g id="g2518"><path id="path2514" d="M5.113,24.167l25.008,0l0,29.234l-25.008,0l0,-29.234Z" style="fill:#cfcfcf;"/><path id="rect2516" d="M30.12,53.436l-25.043,0l0,-29.269l25.043,0l0,29.269Z" style="fill:none;"/></g><g id="g2521"><path id="Drawing_476_0" d="M5.113,24.167l25.008,0l0,29.234l-25.008,0l0,-29.234Z" style="fill:none;stroke:#000;stroke-width:0.74px;"/></g></g></g><g id="DrawingGroup_23"><g id="g2578"><path id="path2574" d="M41.251,226.975l-8.066,0l-0,-18.668l8.066,0l0,18.668Z" style="fill:#3b3b3b;"/><path id="rect2576" d="M41.286,227.01l-8.136,0l-0,-18.703l8.136,0l0,18.703Z" style="fill:none;"/></g><g id="g2581"><path id="Drawing_483_0" d="M41.251,226.975l-8.066,0l-0,-18.668l8.066,0l0,18.668Z" style="fill:none;stroke:#000;stroke-width:0.21px;"/></g><g id="g2587"><path id="path2583" d="M38.855,220.565l0,3.346l-3.381,0l0,-3.346l3.381,0Z" style="fill:#ff9;"/><path id="rect2585" d="M38.891,223.946l-3.452,0l0,-3.381l3.452,0l0,3.381Z" style="fill:none;"/></g><g id="g2590"><path id="Drawing_485_0" d="M38.855,220.565l0,3.346l-3.381,0l0,-3.346l3.381,0Z" style="fill:none;stroke:#373435;stroke-width:0.11px;"/></g><g id="g2596"><path id="path2592" d="M38.116,221.304l0,1.867l-1.867,0l0,-1.867l1.867,0Z" style="fill:#ff9;"/><path id="rect2594" d="M38.151,223.206l-1.937,0l0,-1.902l1.937,0l0,1.902Z" style="fill:none;"/></g><g id="g2599"><path id="Drawing_487_0" d="M38.116,221.304l0,1.867l-1.867,0l0,-1.867l1.867,0Z" style="fill:none;stroke:#373435;stroke-width:0.11px;"/></g><g id="g2602"><path id="Drawing_488_0" d="M36.249,221.445l-0.74,-0.881" style="fill:none;stroke:#373435;stroke-width:0.07px;"/></g><g id="g2605"><path id="Drawing_489_0" d="M36.249,223.171l-0.74,0.74" style="fill:none;stroke:#373435;stroke-width:0.07px;"/></g><g id="g2608"><path id="Drawing_490_0" d="M38.116,223.171l0.74,0.74" style="fill:none;stroke:#373435;stroke-width:0.07px;"/></g><g id="g2611"><path id="Drawing_491_0" d="M38.116,221.445l0.74,-0.881" style="fill:none;stroke:#373435;stroke-width:0.07px;"/></g><g id="g2617"><path id="path2613" d="M38.855,211.513l0,3.346l-3.381,0l0,-3.346l3.381,0Z" style="fill:#ff9;"/><path id="rect2615" d="M38.891,214.894l-3.452,0l0,-3.381l3.452,0l0,3.381Z" style="fill:none;"/></g><g id="g2620"><path id="Drawing_493_0" d="M38.855,211.513l0,3.346l-3.381,0l0,-3.346l3.381,0Z" style="fill:none;stroke:#373435;stroke-width:0.11px;"/></g><g id="g2626"><path id="path2622" d="M38.116,212.358l0,1.796l-1.867,0l0,-1.796l1.867,0Z" style="fill:#ff9;"/><path id="rect2624" d="M38.151,214.19l-1.937,0l0,-1.832l1.937,0l0,1.832Z" style="fill:none;"/></g><g id="g2629"><path id="Drawing_495_0" d="M38.116,212.358l0,1.796l-1.867,0l0,-1.796l1.867,0Z" style="fill:none;stroke:#373435;stroke-width:0.11px;"/></g><g id="g2632"><path id="Drawing_496_0" d="M36.249,212.393l-0.74,-0.881" style="fill:none;stroke:#373435;stroke-width:0.07px;"/></g><g id="g2635"><path id="Drawing_497_0" d="M36.249,214.154l-0.74,0.704" style="fill:none;stroke:#373435;stroke-width:0.07px;"/></g><g id="g2638"><path id="Drawing_498_0" d="M38.116,214.154l0.74,0.704" style="fill:none;stroke:#373435;stroke-width:0.07px;"/></g><g id="g2641"><path id="Drawing_499_0" d="M38.116,212.393l0.74,-0.881" style="fill:none;stroke:#373435;stroke-width:0.07px;"/></g></g><g id="DrawingGroup_24"><g id="DrawingGroup_25"><g id="g2645"><path id="Drawing_500_0" d="M18.215,77.352l-8.066,0l0,-18.668l8.066,0l0,18.668Z" style="fill:none;stroke:#000;stroke-width:0.21px;"/></g><g id="g2650"><path id="path2647" d="M11.101,72.527c0,-0.564 0.106,-1.021 0.387,-1.479c0.282,-0.458 0.599,-0.775 1.057,-1.057c0.493,-0.282 0.951,-0.387 1.479,-0.387c0.528,0 0.986,0.106 1.444,0.387c0.493,0.282 0.81,0.599 1.092,1.057c0.282,0.458 0.387,0.916 0.387,1.479c0,0.528 -0.106,0.986 -0.387,1.444c-0.282,0.458 -0.599,0.775 -1.092,1.057c-0.458,0.282 -0.916,0.387 -1.444,0.387c-0.528,0 -0.986,-0.106 -1.479,-0.387c-0.458,-0.282 -0.775,-0.599 -1.057,-1.057c-0.282,-0.458 -0.387,-0.916 -0.387,-1.444Z" style="fill:#fc9;"/><path id="Drawing_501_0" d="M11.101,72.527c0,-0.564 0.106,-1.021 0.387,-1.479c0.282,-0.458 0.599,-0.775 1.057,-1.057c0.493,-0.282 0.951,-0.387 1.479,-0.387c0.528,0 0.986,0.106 1.444,0.387c0.493,0.282 0.81,0.599 1.092,1.057c0.282,0.458 0.387,0.916 0.387,1.479c0,0.528 -0.106,0.986 -0.387,1.444c-0.282,0.458 -0.599,0.775 -1.092,1.057c-0.458,0.282 -0.916,0.387 -1.444,0.387c-0.528,0 -0.986,-0.106 -1.479,-0.387c-0.458,-0.282 -0.775,-0.599 -1.057,-1.057c-0.282,-0.458 -0.387,-0.916 -0.387,-1.444Z" style="fill:none;stroke:#fc9;stroke-width:0.99px;"/></g><g id="g2655"><path id="path2652" d="M11.911,72.562c0,-0.387 0.07,-0.704 0.282,-1.057c0.176,-0.317 0.423,-0.564 0.74,-0.74c0.352,-0.211 0.669,-0.282 1.057,-0.282c0.387,0 0.704,0.07 1.021,0.282c0.352,0.176 0.599,0.423 0.775,0.74c0.211,0.352 0.282,0.669 0.282,1.057c0,0.352 -0.07,0.669 -0.282,1.021c-0.176,0.317 -0.423,0.564 -0.775,0.74c-0.317,0.211 -0.634,0.282 -1.021,0.282c-0.387,0 -0.704,-0.07 -1.057,-0.282c-0.317,-0.176 -0.564,-0.423 -0.74,-0.74c-0.211,-0.352 -0.282,-0.669 -0.282,-1.021Z" style="fill:#fff;"/><path id="Drawing_502_0" d="M11.911,72.562c0,-0.387 0.07,-0.704 0.282,-1.057c0.176,-0.317 0.423,-0.564 0.74,-0.74c0.352,-0.211 0.669,-0.282 1.057,-0.282c0.387,0 0.704,0.07 1.021,0.282c0.352,0.176 0.599,0.423 0.775,0.74c0.211,0.352 0.282,0.669 0.282,1.057c0,0.352 -0.07,0.669 -0.282,1.021c-0.176,0.317 -0.423,0.564 -0.775,0.74c-0.317,0.211 -0.634,0.282 -1.021,0.282c-0.387,0 -0.704,-0.07 -1.057,-0.282c-0.317,-0.176 -0.564,-0.423 -0.74,-0.74c-0.211,-0.352 -0.282,-0.669 -0.282,-1.021Z" style="fill:none;stroke:#fff;stroke-width:0.99px;"/></g><g id="g2660"><path id="path2657" d="M11.101,66.539l0,-5.847l5.847,0l0,5.847l-5.847,0Z" style="fill:#fc9;"/><path id="Drawing_503_0" d="M11.101,66.539l0,-5.847l5.847,0l0,5.847l-5.847,0Z" style="fill:none;stroke:#fc9;stroke-width:0.99px;"/></g><g id="g2665"><path id="path2662" d="M11.911,63.58c0,-0.387 0.07,-0.704 0.282,-1.021c0.176,-0.352 0.423,-0.599 0.74,-0.775c0.352,-0.211 0.669,-0.282 1.057,-0.282c0.387,0 0.704,0.07 1.021,0.282c0.352,0.176 0.599,0.423 0.775,0.775c0.211,0.317 0.282,0.634 0.282,1.021c0,0.387 -0.07,0.704 -0.282,1.057c-0.176,0.317 -0.423,0.564 -0.775,0.74c-0.317,0.211 -0.634,0.282 -1.021,0.282c-0.387,0 -0.704,-0.07 -1.057,-0.282c-0.317,-0.176 -0.564,-0.423 -0.74,-0.74c-0.211,-0.352 -0.282,-0.669 -0.282,-1.057Z" style="fill:#fff;"/><path id="Drawing_504_0" d="M11.911,63.58c0,-0.387 0.07,-0.704 0.282,-1.021c0.176,-0.352 0.423,-0.599 0.74,-0.775c0.352,-0.211 0.669,-0.282 1.057,-0.282c0.387,0 0.704,0.07 1.021,0.282c0.352,0.176 0.599,0.423 0.775,0.775c0.211,0.317 0.282,0.634 0.282,1.021c0,0.387 -0.07,0.704 -0.282,1.057c-0.176,0.317 -0.423,0.564 -0.775,0.74c-0.317,0.211 -0.634,0.282 -1.021,0.282c-0.387,0 -0.704,-0.07 -1.057,-0.282c-0.317,-0.176 -0.564,-0.423 -0.74,-0.74c-0.211,-0.352 -0.282,-0.669 -0.282,-1.057Z" style="fill:none;stroke:#fff;stroke-width:0.99px;"/></g></g><g id="g2669"><path id="Drawing_505_0" d="M9.868,77.317l0,-18.703l8.312,0l0,18.703l-8.312,0Z" style="fill:none;stroke:#fff;stroke-width:1.06px;"/></g></g><g id="g2781"><path id="Drawing_523_0" d="M131.912,174.213l0,-16.554l22.542,0l0,16.554l-22.542,0Z" style="fill:none;stroke:#fff;stroke-width:1.06px;"/></g><g id="g2798"><path id="Drawing_526_0" d="M19.906,73.83l0,-14.793l9.51,0l0,14.793l-9.51,0Z" style="fill:none;stroke:#fff;stroke-width:1.06px;"/></g><g id="DrawingGroup_34"><g id="g2803"><path id="path2800" d="M151.636,246.77l0,-15.498l23.951,0l0,15.498l-23.951,0Z"/><path id="Drawing_527_0" d="M151.636,246.77l0,-15.498l23.951,0l0,15.498l-23.951,0Z" style="fill:none;stroke:#000;stroke-width:1.06px;"/></g><g id="g2808"><path id="path2805" d="M170.656,246.77l0,-15.498l4.931,0l0,15.498l-4.931,0Z" style="fill:#808080;"/><path id="Drawing_528_0" d="M170.656,246.77l0,-15.498l4.931,0l0,15.498l-4.931,0Z" style="fill:none;stroke:#808080;stroke-width:1.06px;"/></g></g><g id="DrawingGroup_35"><g id="g2815"><path id="path2811" d="M129.094,143.534l34.341,0l1.585,-1.972l0,-49.839l-35.926,0l0,51.812Z" style="fill:#8c8c8c;"/><path id="rect2813" d="M165.021,143.569l-35.962,0l0,-51.847l35.962,0l0,51.847Z" style="fill:none;"/></g><g id="g2818"><path id="Drawing_530_0" d="M129.094,143.534l34.341,0l1.585,-1.972l0,-49.839l-35.926,0l0,51.812Z" style="fill:none;stroke:#000;stroke-width:0.74px;"/></g><g id="g2836"><path id="path2833" d="M159.385,138.814c0,-0.282 0.07,-0.528 0.211,-0.775c0.141,-0.282 0.317,-0.458 0.564,-0.599c0.282,-0.141 0.528,-0.211 0.81,-0.211c0.282,0 0.528,0.07 0.775,0.211c0.282,0.141 0.458,0.317 0.599,0.599c0.141,0.247 0.211,0.493 0.211,0.775c0,0.282 -0.07,0.528 -0.211,0.81c-0.141,0.247 -0.317,0.423 -0.599,0.564c-0.247,0.141 -0.493,0.211 -0.775,0.211c-0.282,0 -0.528,-0.07 -0.81,-0.211c-0.247,-0.141 -0.423,-0.317 -0.564,-0.564c-0.141,-0.282 -0.211,-0.528 -0.211,-0.81Z" style="fill:#fff;"/><path id="Drawing_532_0" d="M159.385,138.814c0,-0.282 0.07,-0.528 0.211,-0.775c0.141,-0.282 0.317,-0.458 0.564,-0.599c0.282,-0.141 0.528,-0.211 0.81,-0.211c0.282,0 0.528,0.07 0.775,0.211c0.282,0.141 0.458,0.317 0.599,0.599c0.141,0.247 0.211,0.493 0.211,0.775c0,0.282 -0.07,0.528 -0.211,0.81c-0.141,0.247 -0.317,0.423 -0.599,0.564c-0.247,0.141 -0.493,0.211 -0.775,0.211c-0.282,0 -0.528,-0.07 -0.81,-0.211c-0.247,-0.141 -0.423,-0.317 -0.564,-0.564c-0.141,-0.282 -0.211,-0.528 -0.211,-0.81Z" style="fill:none;stroke:#808080;stroke-width:0.99px;"/></g></g><g id="g2840"><path id="Drawing_533_0" d="M16.384,122.788l0,-17.259l9.51,0l0,17.259l-9.51,0Z" style="fill:none;stroke:#fff;stroke-width:1.06px;"/></g><g id="DrawingGroup_36"><g id="DrawingGroup_37"><g id="g2846"><path id="path2842" d="M84.257,223.946l-0.564,0.528l-4.755,-4.649l1.021,-0.986l4.755,4.649l-0.458,0.458Z" style="fill:#868686;"/><path id="rect2844" d="M84.715,224.51l-5.812,0l0,-5.706l5.812,0l0,5.706Z" style="fill:none;"/></g><g id="g2849"><path id="Drawing_535_0" d="M84.257,223.946l-0.564,0.528l-4.755,-4.649l1.021,-0.986l4.755,4.649l-0.458,0.458Z" style="fill:none;stroke:#000;stroke-width:0.14px;"/></g><g id="g2855"><path id="path2851" d="M87.18,221.058l-0.599,0.564l-4.72,-4.649l1.021,-0.986l4.72,4.649l-0.423,0.423Z" style="fill:#868686;"/><path id="rect2853" d="M87.603,221.692l-5.812,0l0,-5.706l5.812,0l0,5.706Z" style="fill:none;"/></g><g id="g2858"><path id="Drawing_537_0" d="M87.18,221.058l-0.599,0.564l-4.72,-4.649l1.021,-0.986l4.72,4.649l-0.423,0.423Z" style="fill:none;stroke:#000;stroke-width:0.18px;"/></g><g id="g2864"><path id="path2860" d="M85.877,222.537l-0.564,0.564l-4.861,-4.79l1.021,-0.986l4.861,4.79l-0.458,0.423Z" style="fill:#868686;"/><path id="rect2862" d="M86.335,223.136l-5.917,0l0,-5.812l5.917,0l0,5.812Z" style="fill:none;"/></g><g id="g2867"><path id="Drawing_539_0" d="M85.877,222.537l-0.564,0.564l-4.861,-4.79l1.021,-0.986l4.861,4.79l-0.458,0.423Z" style="fill:none;stroke:#000;stroke-width:0.14px;"/></g><g id="g2873"><path id="path2869" d="M89.329,219.297l-0.986,0.986l-4.931,-4.825l0.986,-0.986l4.931,4.825Z" style="fill:#868686;"/><path id="rect2871" d="M89.364,220.318l-6.023,0l0,-5.882l6.023,0l0,5.882Z" style="fill:none;"/></g><g id="g2876"><path id="Drawing_541_0" d="M89.329,219.297l-0.986,0.986l-4.931,-4.825l0.986,-0.986l4.931,4.825Z" style="fill:none;stroke:#000;stroke-width:0.14px;"/></g><g id="g2882"><path id="path2878" d="M91.689,217.007l-0.458,0.423l-4.931,-4.861l1.021,-0.951l4.896,4.825l-0.528,0.564Z" style="fill:#868686;"/><path id="rect2880" d="M92.252,217.465l-6.023,0l0,-5.882l6.023,0l0,5.882Z" style="fill:none;"/></g><g id="g2885"><path id="Drawing_543_0" d="M91.689,217.007l-0.458,0.423l-4.931,-4.861l1.021,-0.951l4.896,4.825l-0.528,0.564Z" style="fill:none;stroke:#000;stroke-width:0.18px;"/></g><g id="g2891"><path id="path2887" d="M90.068,218.24l-0.387,0.352l-4.755,-4.649l1.021,-0.986l4.755,4.649l-0.634,0.634Z" style="fill:#868686;"/><path id="rect2889" d="M90.702,218.663l-5.847,0l0,-5.706l5.847,0l0,5.706Z" style="fill:none;"/></g><g id="g2894"><path id="Drawing_545_0" d="M90.068,218.24l-0.387,0.352l-4.755,-4.649l1.021,-0.986l4.755,4.649l-0.634,0.634Z" style="fill:none;stroke:#000;stroke-width:0.14px;"/></g><g id="g2900"><path id="path2896" d="M81.228,226.905l-0.599,0.564l-4.72,-4.649l0.986,-0.986l4.755,4.649l-0.423,0.423Z" style="fill:#868686;"/><path id="rect2898" d="M81.685,227.539l-5.847,0l0,-5.741l5.847,0l0,5.741Z" style="fill:none;"/></g><g id="g2903"><path id="Drawing_547_0" d="M81.228,226.905l-0.599,0.564l-4.72,-4.649l0.986,-0.986l4.755,4.649l-0.423,0.423Z" style="fill:none;stroke:#000;stroke-width:0.14px;"/></g><g id="g2909"><path id="path2905" d="M83.306,225.073l-0.986,0.986l-4.861,-4.79l0.986,-0.951l4.861,4.755Z" style="fill:#868686;"/><path id="rect2907" d="M83.341,226.13l-5.953,0l0,-5.847l5.953,0l0,5.847Z" style="fill:none;"/></g><g id="g2912"><path id="Drawing_549_0" d="M83.306,225.073l-0.986,0.986l-4.861,-4.79l0.986,-0.951l4.861,4.755Z" style="fill:none;stroke:#000;stroke-width:0.14px;"/></g></g><g id="DrawingGroup_38"><g id="g2919"><path id="path2915" d="M97.254,228.455l0.564,-0.528l4.755,4.649l-1.021,0.986l-4.72,-4.649l0.423,-0.458Z" style="fill:#868686;"/><path id="rect2917" d="M102.572,233.632l-5.812,0l0,-5.741l5.812,0l0,5.741Z" style="fill:none;"/></g><g id="g2922"><path id="Drawing_551_0" d="M97.254,228.455l0.564,-0.528l4.755,4.649l-1.021,0.986l-4.72,-4.649l0.423,-0.458Z" style="fill:none;stroke:#000;stroke-width:0.14px;"/></g><g id="g2928"><path id="path2924" d="M94.365,231.307l0.564,-0.528l4.755,4.649l-1.021,0.986l-4.755,-4.649l0.458,-0.458Z" style="fill:#868686;"/><path id="rect2926" d="M99.684,236.45l-5.812,0l0,-5.706l5.812,0l0,5.706Z" style="fill:none;"/></g><g id="g2931"><path id="Drawing_553_0" d="M94.365,231.307l0.564,-0.528l4.755,4.649l-1.021,0.986l-4.755,-4.649l0.458,-0.458Z" style="fill:none;stroke:#000;stroke-width:0.18px;"/></g><g id="g2937"><path id="path2933" d="M95.633,229.793l0.528,-0.564l4.896,4.79l-1.021,0.986l-4.861,-4.755l0.458,-0.458Z" style="fill:#868686;"/><path id="rect2935" d="M101.093,235.041l-5.953,0l0,-5.812l5.953,0l0,5.812Z" style="fill:none;"/></g><g id="g2940"><path id="Drawing_555_0" d="M95.633,229.793l0.528,-0.564l4.896,4.79l-1.021,0.986l-4.861,-4.755l0.458,-0.458Z" style="fill:none;stroke:#000;stroke-width:0.14px;"/></g><g id="g2946"><path id="path2942" d="M92.78,232.54l0.423,-0.423l4.896,4.825l-0.986,0.986l-4.931,-4.825l0.599,-0.564Z" style="fill:#868686;"/><path id="rect2944" d="M98.134,238l-6.023,0l0,-5.882l6.023,0l0,5.882Z" style="fill:none;"/></g><g id="g2949"><path id="Drawing_557_0" d="M92.78,232.54l0.423,-0.423l4.896,4.825l-0.986,0.986l-4.931,-4.825l0.599,-0.564Z" style="fill:none;stroke:#000;stroke-width:0.14px;"/></g><g id="g2955"><path id="path2951" d="M89.822,235.428l0.458,-0.458l4.931,4.825l-1.021,0.986l-4.931,-4.825l0.564,-0.528Z" style="fill:#868686;"/><path id="rect2953" d="M95.246,240.853l-6.023,0l0,-5.882l6.023,0l0,5.882Z" style="fill:none;"/></g><g id="g2958"><path id="Drawing_559_0" d="M89.822,235.428l0.458,-0.458l4.931,4.825l-1.021,0.986l-4.931,-4.825l0.564,-0.528Z" style="fill:none;stroke:#000;stroke-width:0.18px;"/></g><g id="g2964"><path id="path2960" d="M91.442,234.16l0.387,-0.352l4.755,4.649l-0.986,0.986l-4.755,-4.649l0.599,-0.634Z" style="fill:#868686;"/><path id="rect2962" d="M96.62,239.479l-5.847,0l0,-5.706l5.847,0l0,5.706Z" style="fill:none;"/></g><g id="g2967"><path id="Drawing_561_0" d="M91.442,234.16l0.387,-0.352l4.755,4.649l-0.986,0.986l-4.755,-4.649l0.599,-0.634Z" style="fill:none;stroke:#000;stroke-width:0.14px;"/></g><g id="g2973"><path id="path2969" d="M100.318,225.461l0.564,-0.528l4.755,4.649l-1.021,0.986l-4.755,-4.649l0.458,-0.458Z" style="fill:#868686;"/><path id="rect2971" d="M105.636,230.638l-5.812,0l0,-5.741l5.812,0l0,5.741Z" style="fill:none;"/></g><g id="g2976"><path id="Drawing_563_0" d="M100.318,225.461l0.564,-0.528l4.755,4.649l-1.021,0.986l-4.755,-4.649l0.458,-0.458Z" style="fill:none;stroke:#000;stroke-width:0.14px;"/></g><g id="g2982"><path id="path2978" d="M98.169,227.292l0.986,-0.986l4.861,4.755l-0.986,1.021l-4.861,-4.79Z" style="fill:#868686;"/><path id="rect2980" d="M104.051,232.118l-5.953,0l0,-5.812l5.953,0l0,5.812Z" style="fill:none;"/></g><g id="g2985"><path id="Drawing_565_0" d="M98.169,227.292l0.986,-0.986l4.861,4.755l-0.986,1.021l-4.861,-4.79Z" style="fill:none;stroke:#000;stroke-width:0.14px;"/></g></g><g id="DrawingGroup_39"><g id="g2992"><path id="path2988" d="M93.273,219.719l-0.564,-0.599l4.649,-4.544l1.021,0.986l-4.685,4.579l-0.423,-0.423Z" style="fill:#868686;"/><path id="rect2990" d="M98.381,220.177l-5.741,0l0,-5.636l5.741,0l0,5.636Z" style="fill:none;"/></g><g id="g2995"><path id="Drawing_567_0" d="M93.273,219.719l-0.564,-0.599l4.649,-4.544l1.021,0.986l-4.685,4.579l-0.423,-0.423Z" style="fill:none;stroke:#000;stroke-width:0.14px;"/></g><g id="g3001"><path id="path2997" d="M96.655,223.03l-0.986,-0.986l4.614,-4.579l1.021,0.986l-4.649,4.579Z" style="fill:#868686;"/><path id="rect2999" d="M101.339,223.066l-5.741,0l0,-5.636l5.741,0l0,5.636Z" style="fill:none;"/></g><g id="g3004"><path id="Drawing_569_0" d="M96.655,223.03l-0.986,-0.986l4.614,-4.579l1.021,0.986l-4.649,4.579Z" style="fill:none;stroke:#000;stroke-width:0.18px;"/></g><g id="g3010"><path id="path3006" d="M95.105,221.798l-0.986,-0.986l4.79,-4.72l1.021,0.986l-4.825,4.72Z" style="fill:#868686;"/><path id="rect3008" d="M99.93,221.868l-5.882,0l0,-5.812l5.882,0l0,5.812Z" style="fill:none;"/></g><g id="g3013"><path id="Drawing_571_0" d="M95.105,221.798l-0.986,-0.986l4.79,-4.72l1.021,0.986l-4.825,4.72Z" style="fill:none;stroke:#000;stroke-width:0.14px;"/></g><g id="g3019"><path id="path3015" d="M98.028,224.756l-0.986,-0.986l4.825,-4.755l1.021,0.986l-4.861,4.755Z" style="fill:#868686;"/><path id="rect3017" d="M102.924,224.827l-5.917,0l0,-5.812l5.917,0l0,5.812Z" style="fill:none;"/></g><g id="g3022"><path id="Drawing_573_0" d="M98.028,224.756l-0.986,-0.986l4.825,-4.755l1.021,0.986l-4.861,4.755Z" style="fill:none;stroke:#000;stroke-width:0.14px;"/></g><g id="g3028"><path id="path3024" d="M100.424,227.116l-0.423,-0.458l4.861,-4.755l0.986,1.021l-4.825,4.72l-0.599,-0.528Z" style="fill:#868686;"/><path id="rect3026" d="M105.848,227.68l-5.917,0l0,-5.776l5.917,0l0,5.776Z" style="fill:none;"/></g><g id="g3031"><path id="Drawing_575_0" d="M100.424,227.116l-0.423,-0.458l4.861,-4.755l0.986,1.021l-4.825,4.72l-0.599,-0.528Z" style="fill:none;stroke:#000;stroke-width:0.18px;"/></g><g id="g3037"><path id="path3033" d="M99.156,225.496l-0.387,-0.387l4.685,-4.544l0.986,0.986l-4.649,4.544l-0.634,-0.599Z" style="fill:#868686;"/><path id="rect3035" d="M104.474,226.13l-5.741,0l0,-5.6l5.741,0l0,5.6Z" style="fill:none;"/></g><g id="g3040"><path id="Drawing_577_0" d="M99.156,225.496l-0.387,-0.387l4.685,-4.544l0.986,0.986l-4.649,4.544l-0.634,-0.599Z" style="fill:none;stroke:#000;stroke-width:0.14px;"/></g><g id="g3046"><path id="path3042" d="M90.632,217.148l-1.021,-1.021l4.685,-4.579l0.986,0.986l-4.649,4.614Z" style="fill:#868686;"/><path id="rect3044" d="M95.316,217.183l-5.741,0l0,-5.636l5.741,0l0,5.636Z" style="fill:none;"/></g><g id="g3049"><path id="Drawing_579_0" d="M90.632,217.148l-1.021,-1.021l4.685,-4.579l0.986,0.986l-4.649,4.614Z" style="fill:none;stroke:#000;stroke-width:0.14px;"/></g><g id="g3055"><path id="path3051" d="M91.653,218.381l-0.599,-0.564l4.79,-4.72l1.021,0.986l-4.825,4.755l-0.387,-0.458Z" style="fill:#868686;"/><path id="rect3053" d="M96.901,218.874l-5.882,0l0,-5.776l5.882,0l0,5.776Z" style="fill:none;"/></g><g id="g3058"><path id="Drawing_581_0" d="M91.653,218.381l-0.599,-0.564l4.79,-4.72l1.021,0.986l-4.825,4.755l-0.387,-0.458Z" style="fill:none;stroke:#000;stroke-width:0.14px;"/></g></g><g id="DrawingGroup_40"><g id="g3065"><path id="path3061" d="M88.871,232.505l0.528,0.564l-4.649,4.579l-0.986,-0.986l4.649,-4.579l0.458,0.423Z" style="fill:#868686;"/><path id="rect3063" d="M89.434,237.683l-5.741,0l0,-5.6l5.741,0l0,5.6Z" style="fill:none;"/></g><g id="g3068"><path id="Drawing_583_0" d="M88.871,232.505l0.528,0.564l-4.649,4.579l-0.986,-0.986l4.649,-4.579l0.458,0.423Z" style="fill:none;stroke:#000;stroke-width:0.14px;"/></g><g id="g3074"><path id="path3070" d="M85.912,229.617l0.564,0.564l-4.685,4.579l-0.986,-1.021l4.649,-4.544l0.458,0.423Z" style="fill:#868686;"/><path id="rect3072" d="M86.476,234.794l-5.741,0l0,-5.636l5.741,0l0,5.636Z" style="fill:none;"/></g><g id="g3077"><path id="Drawing_585_0" d="M85.912,229.617l0.564,0.564l-4.685,4.579l-0.986,-1.021l4.649,-4.544l0.458,0.423Z" style="fill:none;stroke:#000;stroke-width:0.18px;"/></g><g id="g3083"><path id="path3079" d="M87.462,230.85l0.564,0.564l-4.825,4.72l-0.986,-0.986l4.79,-4.72l0.458,0.423Z" style="fill:#868686;"/><path id="rect3081" d="M88.025,236.203l-5.882,0l0,-5.812l5.882,0l0,5.812Z" style="fill:none;"/></g><g id="g3086"><path id="Drawing_587_0" d="M87.462,230.85l0.564,0.564l-4.825,4.72l-0.986,-0.986l4.79,-4.72l0.458,0.423Z" style="fill:none;stroke:#000;stroke-width:0.14px;"/></g><g id="g3092"><path id="path3088" d="M84.644,228.032l0.423,0.423l-4.825,4.755l-1.057,-0.986l4.861,-4.755l0.599,0.564Z" style="fill:#868686;"/><path id="rect3090" d="M85.067,233.245l-5.917,0l0,-5.812l5.917,0l0,5.812Z" style="fill:none;"/></g><g id="g3095"><path id="Drawing_589_0" d="M84.644,228.032l0.423,0.423l-4.825,4.755l-1.057,-0.986l4.861,-4.755l0.599,0.564Z" style="fill:none;stroke:#000;stroke-width:0.14px;"/></g><g id="g3101"><path id="path3097" d="M81.65,225.144l0.458,0.387l-4.825,4.755l-1.021,-0.986l4.825,-4.72l0.564,0.564Z" style="fill:#868686;"/><path id="rect3099" d="M82.108,230.357l-5.882,0l0,-5.812l5.882,0l0,5.812Z" style="fill:none;"/></g><g id="g3104"><path id="Drawing_591_0" d="M81.65,225.144l0.458,0.387l-4.825,4.755l-1.021,-0.986l4.825,-4.72l0.564,0.564Z" style="fill:none;stroke:#000;stroke-width:0.18px;"/></g><g id="g3110"><path id="path3106" d="M82.953,226.729l0.387,0.352l-4.649,4.579l-1.021,-0.951l4.649,-4.579l0.634,0.599Z" style="fill:#868686;"/><path id="rect3108" d="M83.341,231.73l-5.706,0l0,-5.636l5.706,0l0,5.636Z" style="fill:none;"/></g><g id="g3113"><path id="Drawing_593_0" d="M82.953,226.729l0.387,0.352l-4.649,4.579l-1.021,-0.951l4.649,-4.579l0.634,0.599Z" style="fill:none;stroke:#000;stroke-width:0.14px;"/></g><g id="g3119"><path id="path3115" d="M91.935,235.534l0.528,0.564l-4.649,4.544l-0.986,-0.986l4.649,-4.544l0.458,0.423Z" style="fill:#868686;"/><path id="rect3117" d="M92.499,240.712l-5.741,0l0,-5.636l5.741,0l0,5.636Z" style="fill:none;"/></g><g id="g3122"><path id="Drawing_595_0" d="M91.935,235.534l0.528,0.564l-4.649,4.544l-0.986,-0.986l4.649,-4.544l0.458,0.423Z" style="fill:none;stroke:#000;stroke-width:0.14px;"/></g><g id="g3128"><path id="path3124" d="M90.068,233.421l0.986,0.986l-4.825,4.685l-1.021,-0.951l4.861,-4.72Z" style="fill:#868686;"/><path id="rect3126" d="M91.055,239.162l-5.882,0l0,-5.776l5.882,0l0,5.776Z" style="fill:none;"/></g><g id="g3131"><path id="Drawing_597_0" d="M90.068,233.421l0.986,0.986l-4.825,4.685l-1.021,-0.951l4.861,-4.72Z" style="fill:none;stroke:#000;stroke-width:0.14px;"/></g></g><g id="g3138"><path id="path3134" d="M84.01,233.386l-7.643,-7.467l14.335,-14.089l14.899,14.652l-14.335,14.054l-7.256,-7.15Z" style="fill:#7e7e7e;"/><path id="rect3136" d="M105.636,240.606l-29.34,0l0,-28.776l29.34,0l0,28.776Z" style="fill:none;"/></g><g id="g3141"><path id="Drawing_599_0" d="M84.01,233.386l-7.643,-7.467l14.335,-14.089l14.899,14.652l-14.335,14.054l-7.256,-7.15Z" style="fill:none;stroke:#000;stroke-width:0.7px;"/></g></g><g id="g3147"><path id="path3144" d="M113.244,90.384c0,-0.282 0.07,-0.528 0.211,-0.775c0.141,-0.282 0.317,-0.458 0.564,-0.599c0.282,-0.141 0.528,-0.211 0.81,-0.211c0.282,0 0.528,0.07 0.775,0.211c0.282,0.141 0.458,0.317 0.599,0.599c0.141,0.247 0.211,0.493 0.211,0.775c0,0.282 -0.07,0.528 -0.211,0.81c-0.141,0.247 -0.317,0.423 -0.599,0.564c-0.247,0.141 -0.493,0.211 -0.775,0.211c-0.282,0 -0.528,-0.07 -0.81,-0.211c-0.247,-0.141 -0.423,-0.317 -0.564,-0.564c-0.141,-0.282 -0.211,-0.528 -0.211,-0.81Z"/><path id="Drawing_600_0" d="M113.244,90.384c0,-0.282 0.07,-0.528 0.211,-0.775c0.141,-0.282 0.317,-0.458 0.564,-0.599c0.282,-0.141 0.528,-0.211 0.81,-0.211c0.282,0 0.528,0.07 0.775,0.211c0.282,0.141 0.458,0.317 0.599,0.599c0.141,0.247 0.211,0.493 0.211,0.775c0,0.282 -0.07,0.528 -0.211,0.81c-0.141,0.247 -0.317,0.423 -0.599,0.564c-0.247,0.141 -0.493,0.211 -0.775,0.211c-0.282,0 -0.528,-0.07 -0.81,-0.211c-0.247,-0.141 -0.423,-0.317 -0.564,-0.564c-0.141,-0.282 -0.211,-0.528 -0.211,-0.81Z" style="fill:none;stroke:#808080;stroke-width:0.99px;"/></g><g id="g3154"><path id="path3149" d="M91.759,216.092c0,0.599 -0.423,1.057 -1.021,1.057c-0.599,0 -1.057,-0.458 -1.057,-1.057c0,-0.599 0.458,-1.021 1.057,-1.021c0.599,0 1.021,0.423 1.021,1.021Z" style="fill:#fff;"/><path id="Drawing_601_0" d="M91.759,216.092c0,0.599 -0.423,1.057 -1.021,1.057c-0.599,0 -1.057,-0.458 -1.057,-1.057c0,-0.599 0.458,-1.021 1.057,-1.021c0.599,0 1.021,0.423 1.021,1.021Z" style="fill:none;stroke:#808080;stroke-width:0.99px;"/><path id="rect3152" d="M91.759,217.219l-2.149,0l0,-2.149l2.149,0l0,2.149Z" style="fill:none;"/></g><g id="DrawingGroup_41"><g id="g3160"><path id="path3156" d="M4.479,149.487l0,-21.133l29.516,0l0,21.133l-29.516,0Z" style="fill:#cfcfcf;"/><path id="rect3158" d="M33.995,149.522l-29.551,0l0,-21.168l29.551,0l0,21.168Z" style="fill:none;"/></g><g id="g3163"><path id="Drawing_603_0" d="M4.479,149.487l0,-21.133l29.516,0l0,21.133l-29.516,0Z" style="fill:none;stroke:#000;stroke-width:1.3px;"/></g></g><g id="Drawing_606"><path id="rect3190" d="M44.949,155.404l-15.357,0l0,-32.933l15.357,0l0,32.933Z" style="fill:none;"/></g><g id="DrawingGroup_42"><g id="g3223"><path id="path3219" d="M8.811,167.239l0,9.686l57.94,0l0,-9.686l-57.94,0Z" style="fill:#565656;"/><path id="rect3221" d="M66.751,176.96l-58.011,0l0,-9.721l58.011,0l0,9.721Z" style="fill:none;"/></g><g id="g3226"><path id="Drawing_610_0" d="M8.811,167.239l0,9.686l57.94,0l0,-9.686l-57.94,0Z" style="fill:none;stroke:#000;stroke-width:0.74px;"/></g><g id="g3229"><path id="Drawing_611_0" d="M15.503,173.226l0,3.698l44.767,0l0,-3.698l-44.767,0Z" style="fill:none;stroke:#000;stroke-width:0.74px;"/></g></g><g id="DrawingGroup_43"><g id="DrawingGroup_44"><g id="g3268"><path id="path3265" d="M14.517,162.131c-0.564,0 -1.021,-0.106 -1.479,-0.387c-0.458,-0.282 -0.775,-0.599 -1.057,-1.092c-0.282,-0.458 -0.387,-0.916 -0.387,-1.444c0,-0.528 0.106,-0.986 0.387,-1.479c0.282,-0.458 0.599,-0.775 1.057,-1.057c0.458,-0.282 0.916,-0.387 1.444,-0.387c0.564,0 1.021,0.106 1.479,0.387c0.458,0.282 0.775,0.599 1.057,1.057c0.282,0.493 0.387,0.951 0.387,1.479c0,0.528 -0.106,0.986 -0.387,1.444c-0.282,0.493 -0.599,0.81 -1.057,1.092c-0.458,0.282 -0.916,0.387 -1.444,0.387Z" style="fill:#fc9;"/><path id="Drawing_615_0" d="M14.517,162.131c-0.564,0 -1.021,-0.106 -1.479,-0.387c-0.458,-0.282 -0.775,-0.599 -1.057,-1.092c-0.282,-0.458 -0.387,-0.916 -0.387,-1.444c0,-0.528 0.106,-0.986 0.387,-1.479c0.282,-0.458 0.599,-0.775 1.057,-1.057c0.458,-0.282 0.916,-0.387 1.444,-0.387c0.564,0 1.021,0.106 1.479,0.387c0.458,0.282 0.775,0.599 1.057,1.057c0.282,0.493 0.387,0.951 0.387,1.479c0,0.528 -0.106,0.986 -0.387,1.444c-0.282,0.493 -0.599,0.81 -1.057,1.092c-0.458,0.282 -0.916,0.387 -1.444,0.387Z" style="fill:none;stroke:#fc9;stroke-width:0.99px;"/></g><g id="g3273"><path id="path3270" d="M14.482,161.321c-0.387,0 -0.704,-0.07 -1.057,-0.282c-0.317,-0.176 -0.564,-0.423 -0.74,-0.775c-0.211,-0.317 -0.282,-0.634 -0.282,-1.021c0,-0.387 0.07,-0.704 0.282,-1.057c0.176,-0.317 0.423,-0.564 0.74,-0.74c0.352,-0.211 0.669,-0.282 1.021,-0.282c0.387,0 0.704,0.07 1.057,0.282c0.317,0.176 0.564,0.423 0.74,0.74c0.211,0.352 0.282,0.669 0.282,1.057c0,0.387 -0.07,0.704 -0.282,1.021c-0.176,0.352 -0.423,0.599 -0.74,0.775c-0.352,0.211 -0.669,0.282 -1.021,0.282Z" style="fill:#fff;"/><path id="Drawing_616_0" d="M14.482,161.321c-0.387,0 -0.704,-0.07 -1.057,-0.282c-0.317,-0.176 -0.564,-0.423 -0.74,-0.775c-0.211,-0.317 -0.282,-0.634 -0.282,-1.021c0,-0.387 0.07,-0.704 0.282,-1.057c0.176,-0.317 0.423,-0.564 0.74,-0.74c0.352,-0.211 0.669,-0.282 1.021,-0.282c0.387,0 0.704,0.07 1.057,0.282c0.317,0.176 0.564,0.423 0.74,0.74c0.211,0.352 0.282,0.669 0.282,1.057c0,0.387 -0.07,0.704 -0.282,1.021c-0.176,0.352 -0.423,0.599 -0.74,0.775c-0.352,0.211 -0.669,0.282 -1.021,0.282Z" style="fill:none;stroke:#fff;stroke-width:0.99px;"/></g><g id="g3278"><path id="path3275" d="M26.316,162.131l-5.847,0l0,-5.847l5.847,0l0,5.847Z" style="fill:#fc9;"/><path id="Drawing_617_0" d="M26.316,162.131l-5.847,0l0,-5.847l5.847,0l0,5.847Z" style="fill:none;stroke:#fc9;stroke-width:0.99px;"/></g><g id="g3283"><path id="path3280" d="M23.428,161.321c-0.387,0 -0.704,-0.07 -1.021,-0.282c-0.352,-0.176 -0.599,-0.423 -0.775,-0.775c-0.211,-0.317 -0.282,-0.634 -0.282,-1.021c0,-0.387 0.07,-0.704 0.282,-1.057c0.176,-0.317 0.423,-0.564 0.775,-0.74c0.317,-0.211 0.634,-0.282 1.021,-0.282c0.387,0 0.704,0.07 1.057,0.282c0.317,0.176 0.564,0.423 0.74,0.74c0.211,0.352 0.282,0.669 0.282,1.057c0,0.387 -0.07,0.704 -0.282,1.021c-0.176,0.352 -0.423,0.599 -0.74,0.775c-0.352,0.211 -0.669,0.282 -1.057,0.282Z" style="fill:#fff;"/><path id="Drawing_618_0" d="M23.428,161.321c-0.387,0 -0.704,-0.07 -1.021,-0.282c-0.352,-0.176 -0.599,-0.423 -0.775,-0.775c-0.211,-0.317 -0.282,-0.634 -0.282,-1.021c0,-0.387 0.07,-0.704 0.282,-1.057c0.176,-0.317 0.423,-0.564 0.775,-0.74c0.317,-0.211 0.634,-0.282 1.021,-0.282c0.387,0 0.704,0.07 1.057,0.282c0.317,0.176 0.564,0.423 0.74,0.74c0.211,0.352 0.282,0.669 0.282,1.057c0,0.387 -0.07,0.704 -0.282,1.021c-0.176,0.352 -0.423,0.599 -0.74,0.775c-0.352,0.211 -0.669,0.282 -1.057,0.282Z" style="fill:none;stroke:#fff;stroke-width:0.99px;"/></g></g><g id="g3287"><path id="Drawing_619_0" d="M28.395,163.364l-18.703,0l0,-8.312l18.703,0l0,8.312Z" style="fill:none;stroke:#fff;stroke-width:1.06px;"/></g></g><g id="DrawingGroup_45"><g id="g3318"><path id="path3315" d="M66.012,9.761l0,-2.466l14.793,0l0,2.466l-14.793,0Z" style="fill:#ccc;"/><path id="Drawing_623_0" d="M66.012,9.761l0,-2.466l14.793,0l0,2.466l-14.793,0Z" style="fill:none;stroke:#808080;stroke-width:0.99px;"/></g><g id="g3323"><path id="path3320" d="M66.012,7.648l0,-6.34l14.793,0l0,6.34l-14.793,0Z"/><path id="Drawing_624_0" d="M66.012,7.648l0,-6.34l14.793,0l0,6.34l-14.793,0Z" style="fill:none;stroke:#808080;stroke-width:0.99px;"/></g><g id="g3328"><path id="path3325" d="M67.421,11.17l0,-3.522l11.975,0l0,3.522l-11.975,0Z"/><path id="Drawing_625_0" d="M67.421,11.17l0,-3.522l11.975,0l0,3.522l-11.975,0Z" style="fill:none;stroke:#808080;stroke-width:0.99px;"/></g><g id="g3333"><path id="path3330" d="M64.251,7.648l0,-6.34l19.02,0l0,6.34l-19.02,0Z" style="fill:#ccc;"/><path id="Drawing_626_0" d="M64.251,7.648l0,-6.34l19.02,0l0,6.34l-19.02,0Z" style="fill:none;stroke:#808080;stroke-width:0.99px;"/></g></g><g id="g3341"><path id="path3336" d="M48.401,12.861c0,3.205 -2.43,5.636 -5.636,5.636c-3.205,0 -5.636,-2.43 -5.636,-5.636c0,-3.205 2.43,-5.636 5.636,-5.636c3.205,0 5.636,2.43 5.636,5.636Z"/><path id="Drawing_627_0" d="M48.401,12.861c0,3.205 -2.43,5.636 -5.636,5.636c-3.205,0 -5.636,-2.43 -5.636,-5.636c0,-3.205 2.43,-5.636 5.636,-5.636c3.205,0 5.636,2.43 5.636,5.636Z" style="fill:none;stroke:#808080;stroke-width:0.99px;"/><path id="rect3339" d="M48.401,18.531l-11.306,0l0,-11.306l11.306,0l0,11.306Z" style="fill:none;"/></g><g id="g3348"><path id="path3343" d="M177.842,216.972c0,3.205 -2.43,5.636 -5.636,5.636c-3.205,0 -5.636,-2.43 -5.636,-5.636c0,-3.205 2.43,-5.636 5.636,-5.636c3.205,0 5.636,2.43 5.636,5.636Z"/><path id="Drawing_628_0" d="M177.842,216.972c0,3.205 -2.43,5.636 -5.636,5.636c-3.205,0 -5.636,-2.43 -5.636,-5.636c0,-3.205 2.43,-5.636 5.636,-5.636c3.205,0 5.636,2.43 5.636,5.636Z" style="fill:none;stroke:#808080;stroke-width:0.99px;"/><path id="rect3346" d="M177.842,222.643l-11.306,0l0,-11.306l11.306,0l0,11.306Z" style="fill:none;"/></g><g id="DrawingGroup_46"><g id="g3353"><path id="path3350" d="M51.218,6.239l0,-2.113l9.51,0l0,2.113l-9.51,0Z" style="fill:#999;"/><path id="Drawing_629_0" d="M51.218,6.239l0,-2.113l9.51,0l0,2.113l-9.51,0Z" style="fill:none;stroke:#808080;stroke-width:0.99px;"/></g><g id="g3362"><path id="path3355" d="M52.627,4.513l0,-0.317l0.035,-0.176l0.07,-0.282l0.035,-0.176l0.035,-0.141l0.211,-0.423l0.106,-0.141l0.07,-0.141l0.106,-0.141l0.106,-0.106l0.106,-0.141l0.106,-0.106l0.141,-0.106l0.106,-0.106l0.141,-0.106l0.141,-0.07l0.141,-0.106l0.282,-0.141l0.176,-0.07l0.141,-0.035l0.176,-0.035l0.141,-0.07l0.176,-0.035l0.176,0l0.141,-0.035l0.528,0l0.141,0.035l0.176,0l0.176,0.035l0.141,0.035l0.176,0.07l0.141,0.035l0.176,0.07l0.423,0.211l0.141,0.106l0.141,0.07l0.141,0.106l0.106,0.106l0.106,0.141l0.141,0.106l0.106,0.141l0.07,0.106l0.106,0.141l0.07,0.141l0.106,0.141l0.035,0.141l0.141,0.282l0.035,0.176l0.035,0.141l0.035,0.176l0.035,0.141l0,0.317l-3.346,0l-3.346,0.035Z" style="fill:#579d1c;"/><path id="rect3357" d="M59.319,4.583l-6.727,0l0,-3.276l6.727,0l0,3.276Z" style="fill:none;"/><path id="Drawing_630_0" d="M52.627,4.513l0,-0.317l0.035,-0.176l0.07,-0.282l0.035,-0.176l0.035,-0.141l0.211,-0.423l0.106,-0.141l0.07,-0.141l0.106,-0.141l0.106,-0.106l0.106,-0.141l0.106,-0.106l0.141,-0.106l0.106,-0.106l0.141,-0.106l0.141,-0.07l0.141,-0.106l0.282,-0.141l0.176,-0.07l0.141,-0.035l0.176,-0.035l0.141,-0.07l0.176,-0.035l0.176,0l0.141,-0.035l0.528,0l0.141,0.035l0.176,0l0.176,0.035l0.141,0.035l0.176,0.07l0.141,0.035l0.176,0.07l0.423,0.211l0.141,0.106l0.141,0.07l0.141,0.106l0.106,0.106l0.106,0.141l0.141,0.106l0.106,0.141l0.07,0.106l0.106,0.141l0.07,0.141l0.106,0.141l0.035,0.141l0.141,0.282l0.035,0.176l0.035,0.141l0.035,0.176l0.035,0.141l0,0.317l-3.346,0l-3.346,0.035Z" style="fill:none;stroke:#808080;stroke-width:0.99px;"/><path id="rect3360" d="M59.319,7.683l-6.727,0l0,-6.375l6.727,0l0,6.375Z" style="fill:none;"/></g><g id="DrawingGroup_47"><g id="g3368"><path id="path3364" d="M59.108,6.133l-6.481,0l0,-1.902c0.106,-0.07 0.176,-0.07 0.282,-0.106l6.164,0c0,0 0.035,0 0.035,0.035l0,1.972Z" style="fill:#004d05;"/><path id="rect3366" d="M59.143,6.168l-6.551,0l0,-2.043l6.551,0l0,2.043Z" style="fill:none;"/></g><g id="g3374"><path id="path3370" d="M59.108,5.851c-0.176,0.141 -0.423,0.211 -0.704,0.282l-4.825,0c-0.282,-0.07 -0.458,-0.141 -0.669,-0.282c-0.106,-0.035 -0.247,-0.141 -0.282,-0.176l0,-0.881c0.035,-0.07 0.176,-0.106 0.282,-0.176c0.352,-0.176 0.634,-0.387 1.233,-0.493l3.628,0c0.634,0.106 1.021,0.317 1.338,0.493l0,1.233Z" style="fill:#004d05;"/><path id="rect3372" d="M59.143,6.168l-6.551,0l0,-2.043l6.551,0l0,2.043Z" style="fill:none;"/></g><g id="g3380"><path id="path3376" d="M59.108,5.675c-0.035,0.035 -0.035,0.035 -0.106,0.106c-0.317,0.106 -0.564,0.247 -0.916,0.352l-4.227,0c-0.317,-0.106 -0.599,-0.247 -0.845,-0.352c-0.211,-0.176 -0.387,-0.352 -0.387,-0.458l0,-0.247c0,-0.176 0.141,-0.317 0.387,-0.458c0.317,-0.176 0.74,-0.317 1.268,-0.387c0.211,0 0.423,-0.07 0.634,-0.106l2.149,0c0.211,0.035 0.387,0.035 0.564,0.106c0.634,0.07 0.951,0.211 1.374,0.387c0.07,0.035 0.07,0.07 0.106,0.07l0,0.986Z" style="fill:#0b540e;"/><path id="rect3378" d="M59.143,6.168l-6.551,0l0,-2.043l6.551,0l0,2.043Z" style="fill:none;"/></g><g id="g3386"><path id="path3382" d="M59.108,5.499c-0.035,0.106 -0.141,0.176 -0.317,0.282c-0.317,0.176 -0.634,0.282 -1.162,0.352l-3.24,0c-0.634,-0.07 -0.951,-0.176 -1.268,-0.352c-0.317,-0.211 -0.387,-0.387 -0.387,-0.599c0,-0.176 0.07,-0.387 0.387,-0.493c0.317,-0.176 0.634,-0.387 1.268,-0.458c0.282,-0.07 0.669,-0.106 1.057,-0.106l0.986,0c0.387,0 0.845,0.035 1.198,0.106c0.528,0.07 0.845,0.282 1.162,0.458c0.176,0.07 0.282,0.106 0.317,0.211l0,0.599Z" style="fill:#165a18;"/><path id="rect3384" d="M59.108,6.168l-6.41,0l0,-2.043l6.41,0l0,2.043Z" style="fill:none;"/></g><g id="g3392"><path id="path3388" d="M57.558,6.133l-3.17,0c-0.423,-0.07 -0.845,-0.176 -1.127,-0.352c-0.247,-0.211 -0.458,-0.387 -0.458,-0.599c0,-0.176 0.211,-0.282 0.458,-0.493c0.282,-0.176 0.704,-0.247 1.127,-0.387c0.387,-0.141 0.775,-0.176 1.162,-0.176l0.881,0c0.387,0 0.74,0.035 1.127,0.176c0.528,0.141 0.81,0.211 1.127,0.387c0.317,0.211 0.423,0.317 0.423,0.493c0,0.211 -0.106,0.387 -0.423,0.599c-0.317,0.176 -0.599,0.247 -1.127,0.352Z" style="fill:#216121;"/><path id="rect3390" d="M59.108,6.168l-6.34,0l0,-2.043l6.34,0l0,2.043Z" style="fill:none;"/></g><g id="g3398"><path id="path3394" d="M57.453,6.133l-2.923,0c-0.564,-0.176 -0.845,-0.247 -1.057,-0.352c-0.317,-0.211 -0.387,-0.387 -0.387,-0.599c0,-0.176 0.07,-0.282 0.387,-0.493c0.211,-0.176 0.493,-0.282 1.057,-0.352c0.528,-0.141 0.951,-0.106 1.444,-0.106c0.528,0 1.092,0 1.479,0.106c0.528,0.07 0.845,0.176 1.162,0.352c0.211,0.211 0.317,0.317 0.317,0.493c0,0.211 -0.106,0.387 -0.317,0.599c-0.317,0.106 -0.634,0.176 -1.162,0.352Z" style="fill:#2c672b;"/><path id="rect3396" d="M58.932,6.204l-5.882,0l0,-2.008l5.882,0l0,2.008Z" style="fill:none;"/></g><g id="g3404"><path id="path3400" d="M55.973,6.133c-0.493,0 -0.951,0 -1.374,-0.07c-0.423,-0.106 -0.81,-0.176 -1.057,-0.387c-0.211,-0.106 -0.282,-0.317 -0.282,-0.493c0,-0.106 0.07,-0.317 0.282,-0.493c0.247,-0.07 0.634,-0.176 1.057,-0.282c0.423,-0.07 0.881,-0.176 1.374,-0.176c0.528,0 0.951,0.106 1.374,0.176c0.528,0.106 0.81,0.211 1.021,0.282c0.317,0.176 0.458,0.387 0.458,0.493c0,0.176 -0.141,0.387 -0.458,0.493c-0.211,0.211 -0.493,0.282 -1.021,0.387c-0.423,0.07 -0.845,0.07 -1.374,0.07Z" style="fill:#376e34;"/><path id="rect3402" d="M58.826,6.168l-5.6,0l0,-1.972l5.6,0l0,1.972Z" style="fill:none;"/></g><g id="g3410"><path id="path3406" d="M55.938,6.133c-0.493,0 -0.81,0 -1.338,-0.176c-0.423,0 -0.634,-0.211 -0.951,-0.282c-0.211,-0.106 -0.317,-0.317 -0.317,-0.493c0,-0.106 0.106,-0.317 0.317,-0.387c0.317,-0.176 0.528,-0.317 0.951,-0.387c0.528,-0.106 0.845,-0.106 1.338,-0.106c0.528,0 0.986,0 1.374,0.106c0.423,0.07 0.775,0.211 0.951,0.387c0.211,0.07 0.317,0.282 0.317,0.387c0,0.176 -0.106,0.387 -0.317,0.493c-0.176,0.07 -0.528,0.282 -0.951,0.282c-0.387,0.176 -0.845,0.176 -1.374,0.176Z" style="fill:#43753d;"/><path id="rect3408" d="M58.58,6.168l-5.283,0l0,-1.867l5.283,0l0,1.867Z" style="fill:none;"/></g><g id="g3416"><path id="path3412" d="M55.938,6.027c-0.423,0 -0.81,0 -1.268,-0.07c-0.317,-0.106 -0.599,-0.211 -0.916,-0.282c-0.247,-0.176 -0.317,-0.317 -0.317,-0.493c0,-0.106 0.07,-0.317 0.317,-0.387c0.317,-0.176 0.599,-0.317 0.916,-0.317c0.458,-0.07 0.845,-0.176 1.268,-0.176c0.423,0 0.881,0.106 1.268,0.176c0.423,0 0.74,0.141 0.951,0.317c0.176,0.07 0.317,0.282 0.317,0.387c0,0.176 -0.141,0.317 -0.317,0.493c-0.211,0.07 -0.528,0.176 -0.951,0.282c-0.387,0.07 -0.845,0.07 -1.268,0.07Z" style="fill:#4e7b47;"/><path id="rect3414" d="M58.474,6.063l-5.072,0l0,-1.796l5.072,0l0,1.796Z" style="fill:none;"/></g><g id="g3422"><path id="path3418" d="M55.973,6.063c-0.387,0 -0.704,-0.106 -1.127,-0.106c-0.423,-0.106 -0.669,-0.211 -0.881,-0.423c-0.176,-0.07 -0.282,-0.176 -0.282,-0.352c0,-0.141 0.106,-0.317 0.282,-0.387c0.211,-0.106 0.458,-0.211 0.881,-0.282c0.423,-0.106 0.74,-0.106 1.127,-0.106c0.423,0 0.845,0 1.162,0.106c0.423,0.07 0.634,0.176 0.845,0.282c0.176,0.07 0.317,0.247 0.317,0.387c0,0.176 -0.141,0.282 -0.317,0.352c-0.211,0.211 -0.423,0.317 -0.845,0.423c-0.317,0 -0.74,0.106 -1.162,0.106Z" style="fill:#598250;"/><path id="rect3420" d="M58.298,6.098l-4.649,0l0,-1.691l4.649,0l0,1.691Z" style="fill:none;"/></g><g id="g3428"><path id="path3424" d="M55.973,5.957c-0.458,0 -0.74,0 -1.057,-0.07c-0.317,-0.106 -0.634,-0.106 -0.845,-0.317c-0.211,-0.07 -0.317,-0.176 -0.317,-0.387c0,-0.106 0.106,-0.176 0.317,-0.352c0.211,-0.141 0.528,-0.211 0.845,-0.317l2.219,0c0.317,0.106 0.528,0.176 0.704,0.317c0.211,0.176 0.317,0.247 0.317,0.352c0,0.211 -0.106,0.317 -0.317,0.387c-0.176,0.211 -0.387,0.211 -0.704,0.317c-0.458,0.07 -0.775,0.07 -1.162,0.07Z" style="fill:#64885a;"/><path id="rect3426" d="M58.157,5.992l-4.438,0l0,-1.479l4.438,0l0,1.479Z" style="fill:none;"/></g><g id="g3434"><path id="path3430" d="M55.938,5.957c-0.423,0 -0.634,-0.07 -0.916,-0.07c-0.423,-0.106 -0.634,-0.176 -0.881,-0.317c-0.07,-0.07 -0.176,-0.176 -0.176,-0.387c0,-0.106 0.106,-0.176 0.176,-0.282c0.247,-0.211 0.458,-0.211 0.881,-0.282c0.282,-0.106 0.493,-0.106 0.916,-0.106c0.458,0 0.81,0 1.057,0.106c0.352,0.07 0.528,0.07 0.74,0.282c0.211,0.106 0.211,0.176 0.211,0.282c0,0.211 0,0.282 -0.211,0.387c-0.211,0.07 -0.423,0.211 -0.74,0.317c-0.317,0 -0.599,0.07 -1.057,0.07Z" style="fill:#6f8f63;"/><path id="rect3432" d="M57.946,5.992l-4.015,0l0,-1.479l4.015,0l0,1.479Z" style="fill:none;"/></g><g id="g3440"><path id="path3436" d="M55.973,5.887c-0.282,0 -0.634,0 -0.916,-0.141c-0.352,0 -0.528,-0.07 -0.669,-0.176c-0.211,-0.176 -0.317,-0.176 -0.317,-0.387c0,-0.106 0.106,-0.176 0.317,-0.282c0.141,-0.106 0.317,-0.176 0.669,-0.176c0.282,-0.106 0.634,-0.106 0.916,-0.106c0.352,0 0.599,0 0.951,0.106c0.317,0 0.528,0.07 0.634,0.176c0.176,0.106 0.317,0.176 0.317,0.282c0,0.211 -0.141,0.211 -0.317,0.387c-0.106,0.106 -0.317,0.176 -0.634,0.176c-0.352,0.141 -0.599,0.141 -0.951,0.141Z" style="fill:#7a966c;"/><path id="rect3438" d="M57.911,5.922l-3.874,0l0,-1.338l3.874,0l0,1.338Z" style="fill:none;"/></g><g id="g3446"><path id="path3442" d="M56.819,5.746l-1.691,0c-0.282,-0.07 -0.528,-0.176 -0.634,-0.247c-0.106,-0.106 -0.176,-0.247 -0.176,-0.317c0,-0.106 0.07,-0.176 0.176,-0.282c0.106,-0.106 0.352,-0.176 0.634,-0.176c0.352,-0.106 0.528,-0.106 0.845,-0.106c0.317,0 0.634,0 0.845,0.106c0.317,0 0.528,0.07 0.634,0.176c0.211,0.106 0.211,0.176 0.211,0.282c0,0.07 0,0.211 -0.211,0.317c-0.106,0.07 -0.317,0.176 -0.634,0.247Z" style="fill:#859c76;"/><path id="rect3444" d="M57.699,5.781l-3.417,0l0,-1.162l3.417,0l0,1.162Z" style="fill:none;"/></g><g id="g3452"><path id="path3448" d="M56.009,5.746c-0.317,0 -0.564,0 -0.74,-0.07c-0.352,0 -0.423,-0.106 -0.669,-0.211c-0.07,-0.106 -0.211,-0.211 -0.211,-0.282c0,-0.106 0.141,-0.106 0.211,-0.317c0.247,0 0.317,-0.07 0.669,-0.176l1.585,0c0.211,0.106 0.387,0.176 0.493,0.176c0.106,0.211 0.211,0.211 0.211,0.317c0,0.07 -0.106,0.176 -0.211,0.282c-0.106,0.106 -0.282,0.211 -0.493,0.211c-0.317,0.07 -0.564,0.07 -0.845,0.07Z" style="fill:#90a37f;"/><path id="rect3450" d="M57.558,5.781l-3.205,0l0,-1.092l3.205,0l0,1.092Z" style="fill:none;"/></g><g id="g3458"><path id="path3454" d="M56.678,5.675l-1.479,0c-0.176,-0.106 -0.317,-0.106 -0.387,-0.211c-0.211,-0.106 -0.211,-0.211 -0.211,-0.282c0,-0.106 0,-0.106 0.211,-0.176c0.07,-0.141 0.211,-0.141 0.387,-0.211c0.317,-0.106 0.564,-0.106 0.74,-0.106c0.352,0 0.528,0 0.74,0.106c0.211,0.07 0.317,0.07 0.528,0.211c0.106,0.07 0.106,0.07 0.106,0.176c0,0.07 0,0.176 -0.106,0.282c-0.211,0.106 -0.317,0.106 -0.528,0.211Z" style="fill:#9baa88;"/><path id="rect3456" d="M57.312,5.71l-2.783,0l0,-1.021l2.783,0l0,1.021Z" style="fill:none;"/></g><g id="g3464"><path id="path3460" d="M55.938,5.675c-0.176,0 -0.387,-0.106 -0.599,-0.106c-0.211,0 -0.282,-0.106 -0.423,-0.211c-0.106,0 -0.211,-0.106 -0.211,-0.176c0,-0.106 0.106,-0.106 0.211,-0.211c0.141,-0.07 0.211,-0.07 0.423,-0.07c0.211,-0.106 0.423,-0.106 0.599,-0.106c0.247,0 0.458,0 0.634,0.106c0.247,0 0.352,0 0.458,0.07c0.211,0.106 0.211,0.106 0.211,0.211c0,0.07 0,0.176 -0.211,0.176c-0.106,0.106 -0.211,0.211 -0.458,0.211c-0.176,0 -0.387,0.106 -0.634,0.106Z" style="fill:#a6b092;"/><path id="rect3462" d="M57.241,5.71l-2.571,0l0,-0.916l2.571,0l0,0.916Z" style="fill:none;"/></g><g id="g3470"><path id="path3466" d="M56.502,5.57l-1.021,0c-0.211,-0.106 -0.352,-0.106 -0.458,-0.211c-0.07,0 -0.07,-0.106 -0.07,-0.176c0,0 0,-0.106 0.07,-0.211c0.106,0 0.247,-0.07 0.458,-0.07c0.106,0 0.282,-0.106 0.493,-0.106c0.211,0 0.423,0.106 0.528,0.106c0.211,0 0.317,0.07 0.423,0.07c0.106,0.106 0.211,0.211 0.211,0.211c0,0.07 -0.106,0.176 -0.211,0.176c-0.106,0.106 -0.211,0.106 -0.423,0.211Z" style="fill:#b1b79b;"/><path id="rect3468" d="M57.136,5.605l-2.219,0l0,-0.81l2.219,0l0,0.81Z" style="fill:none;"/></g><g id="g3476"><path id="path3472" d="M55.973,5.534c-0.211,0 -0.317,0 -0.423,-0.07c-0.176,0 -0.282,-0.106 -0.282,-0.106c-0.141,-0.106 -0.211,-0.106 -0.211,-0.176c0,0 0.07,-0.141 0.211,-0.141c0,-0.07 0.106,-0.07 0.282,-0.176l0.951,0c0.106,0.106 0.211,0.106 0.317,0.176c0.106,0 0.106,0.141 0.106,0.141c0,0.07 0,0.07 -0.106,0.176c-0.106,0 -0.211,0.106 -0.317,0.106c-0.211,0.07 -0.317,0.07 -0.528,0.07Z" style="fill:#bcbda5;"/><path id="rect3474" d="M56.924,5.57l-1.902,0l0,-0.704l1.902,0l0,0.704Z" style="fill:none;"/></g><g id="g3482"><path id="path3478" d="M56.361,5.464l-0.845,0c-0.07,-0.106 -0.07,-0.106 -0.176,-0.106c-0.07,-0.106 -0.07,-0.106 -0.07,-0.176c0,0 0,-0.141 0.07,-0.141c0.106,0 0.106,-0.07 0.176,-0.07c0.247,0 0.352,-0.106 0.458,-0.106c0.176,0 0.317,0.106 0.387,0.106c0.141,0 0.247,0.07 0.317,0.07l0.141,0.141c0,0.07 -0.141,0.07 -0.141,0.176c-0.07,0 -0.176,0 -0.317,0.106Z" style="fill:#c8c4ae;"/><path id="rect3480" d="M56.819,5.499l-1.585,0l0,-0.634l1.585,0l0,0.634Z" style="fill:none;"/></g><g id="g3488"><path id="path3484" d="M56.29,5.358l-0.634,0c-0.07,0 -0.07,0 -0.176,-0.106c0,0 -0.141,0 -0.141,-0.106c0,0 0.141,0 0.141,-0.07c0.106,0 0.106,0 0.176,-0.106l0.634,0c0.106,0.106 0.211,0.106 0.211,0.106l0.106,0.07c0,0.106 0,0.106 -0.106,0.106c0,0.106 -0.106,0.106 -0.211,0.106Z" style="fill:#d3cbb7;"/><path id="rect3486" d="M56.607,5.393l-1.303,0l0,-0.423l1.303,0l0,0.423Z" style="fill:none;"/></g><g id="g3494"><path id="path3490" d="M56.185,5.393l-0.423,0c-0.106,0 -0.106,-0.141 -0.211,-0.141l0,-0.176l0.81,0c0,0.106 0.141,0.106 0.141,0.106c0,0.07 -0.141,0.07 -0.141,0.07c0,0 -0.07,0.141 -0.176,0.141Z" style="fill:#ded1c1;"/><path id="rect3492" d="M56.502,5.429l-0.986,0l0,-0.352l0.986,0l0,0.352Z" style="fill:none;"/></g><g id="g3500"><path id="path3496" d="M56.29,5.253l-0.528,0c-0.106,0 -0.106,0 -0.106,-0.07l0.106,0c0,0 0,-0.106 0.106,-0.106l0.282,0c0,0 0,0.106 0.141,0.106l0,0.07Z" style="fill:#e9d8ca;"/><path id="rect3498" d="M56.29,5.323l-0.669,0l0,-0.247l0.669,0l0,0.247Z" style="fill:none;"/></g><g id="g3506"><path id="path3502" d="M56.044,5.288l-0.211,0l0,-0.106l0.317,0c0,0.106 0,0.106 -0.106,0.106Z" style="fill:#f4ded4;"/><path id="rect3504" d="M56.149,5.323l-0.352,0l0,-0.141l0.352,0l0,0.141Z" style="fill:none;"/></g><g id="g3509"><path id="Drawing_655_0" d="M52.698,6.239l0,-2.008l6.622,0l0,2.008l-6.622,0Z" style="fill:none;stroke:#000;stroke-width:0.6px;"/></g></g></g></g><g id="connectors-4"><g id="g23183"><path id="connector0pin-0" d="M190.728,16.113c0,1.92 -1.559,3.478 -3.478,3.478c-1.92,0 -3.478,-1.559 -3.478,-3.478c0,-1.92 1.559,-3.478 3.478,-3.478c1.92,0 3.478,1.559 3.478,3.478Z" style="fill:none;stroke:#ffbf00;stroke-width:1.67px;stroke-linejoin:miter;"/><path id="connector1pin-1" d="M190.728,28.107c0,1.92 -1.559,3.478 -3.478,3.478c-1.92,0 -3.478,-1.559 -3.478,-3.478c0,-1.92 1.559,-3.478 3.478,-3.478c1.92,0 3.478,1.559 3.478,3.478Z" style="fill:none;stroke:#ffbf00;stroke-width:1.67px;stroke-linejoin:miter;"/><path id="connector2pin-3" d="M190.728,40.101c0,1.92 -1.559,3.478 -3.478,3.478c-1.92,0 -3.478,-1.559 -3.478,-3.478c0,-1.92 1.559,-3.478 3.478,-3.478c1.92,0 3.478,1.559 3.478,3.478Z" style="fill:none;stroke:#ffbf00;stroke-width:1.67px;stroke-linejoin:miter;"/><path id="connector3pin-7" d="M190.728,52.096c0,1.92 -1.559,3.478 -3.478,3.478c-1.92,0 -3.478,-1.559 -3.478,-3.478c0,-1.92 1.559,-3.478 3.478,-3.478c1.92,0 3.478,1.559 3.478,3.478Z" style="fill:none;stroke:#ffbf00;stroke-width:1.67px;stroke-linejoin:miter;"/><path id="connector4pin-4" d="M190.728,64.09c0,1.92 -1.559,3.478 -3.478,3.478c-1.92,0 -3.478,-1.559 -3.478,-3.478c0,-1.92 1.559,-3.478 3.478,-3.478c1.92,0 3.478,1.559 3.478,3.478Z" style="fill:none;stroke:#ffbf00;stroke-width:1.67px;stroke-linejoin:miter;"/><path id="connector5pin-1" d="M190.728,76.084c0,1.92 -1.559,3.478 -3.478,3.478c-1.92,0 -3.478,-1.559 -3.478,-3.478c0,-1.92 1.559,-3.478 3.478,-3.478c1.92,0 3.478,1.559 3.478,3.478Z" style="fill:none;stroke:#ffbf00;stroke-width:1.67px;stroke-linejoin:miter;"/><path id="connector6pin-1" d="M190.728,88.079c0,1.92 -1.559,3.478 -3.478,3.478c-1.92,0 -3.478,-1.559 -3.478,-3.478c0,-1.92 1.559,-3.478 3.478,-3.478c1.92,0 3.478,1.559 3.478,3.478Z" style="fill:none;stroke:#ffbf00;stroke-width:1.67px;stroke-linejoin:miter;"/><path id="connector7pin-3" d="M190.728,100.073c0,1.92 -1.559,3.478 -3.478,3.478c-1.92,0 -3.478,-1.559 -3.478,-3.478c0,-1.92 1.559,-3.478 3.478,-3.478c1.92,0 3.478,1.559 3.478,3.478Z" style="fill:none;stroke:#ffbf00;stroke-width:1.67px;stroke-linejoin:miter;"/><path id="connector8pin-0" d="M190.728,112.069c0,1.92 -1.559,3.478 -3.478,3.478c-1.92,0 -3.478,-1.559 -3.478,-3.478c0,-1.92 1.559,-3.478 3.478,-3.478c1.92,0 3.478,1.559 3.478,3.478Z" style="fill:none;stroke:#ffbf00;stroke-width:1.67px;stroke-linejoin:miter;"/><path id="connector9pin-3" d="M190.728,124.062c0,1.92 -1.559,3.478 -3.478,3.478c-1.92,0 -3.478,-1.559 -3.478,-3.478c0,-1.92 1.559,-3.478 3.478,-3.478c1.92,0 3.478,1.559 3.478,3.478Z" style="fill:none;stroke:#ffbf00;stroke-width:1.67px;stroke-linejoin:miter;"/><path id="connector10pin-2" d="M190.728,136.056c0,1.92 -1.559,3.478 -3.478,3.478c-1.92,0 -3.478,-1.559 -3.478,-3.478c0,-1.92 1.559,-3.478 3.478,-3.478c1.92,0 3.478,1.559 3.478,3.478Z" style="fill:none;stroke:#ffbf00;stroke-width:1.67px;stroke-linejoin:miter;"/><path id="connector11pin-1" d="M190.73,148.05c0,1.921 -1.559,3.48 -3.48,3.48c-1.921,0 -3.48,-1.559 -3.48,-3.48c0,-1.921 1.559,-3.48 3.48,-3.48c1.921,0 3.48,1.559 3.48,3.48Z" style="fill:none;stroke:#ffbf00;stroke-width:1.67px;stroke-linejoin:miter;"/><path id="connector12pin-7" d="M190.728,160.044c0,1.92 -1.559,3.478 -3.478,3.478c-1.92,0 -3.478,-1.559 -3.478,-3.478c0,-1.92 1.559,-3.478 3.478,-3.478c1.92,0 3.478,1.559 3.478,3.478Z" style="fill:none;stroke:#ffbf00;stroke-width:1.67px;stroke-linejoin:miter;"/><path id="connector13pin-5" d="M190.728,172.039c0,1.92 -1.559,3.478 -3.478,3.478c-1.92,0 -3.478,-1.559 -3.478,-3.478c0,-1.92 1.559,-3.478 3.478,-3.478c1.92,0 3.478,1.559 3.478,3.478Z" style="fill:none;stroke:#ffbf00;stroke-width:1.67px;stroke-linejoin:miter;"/><path id="connector14pin-6" d="M190.728,184.035c0,1.92 -1.559,3.478 -3.478,3.478c-1.92,0 -3.478,-1.559 -3.478,-3.478c0,-1.92 1.559,-3.478 3.478,-3.478c1.92,0 3.478,1.559 3.478,3.478Z" style="fill:none;stroke:#ffbf00;stroke-width:1.67px;stroke-linejoin:miter;"/><path id="connector15pin-5" d="M190.728,196.027c0,1.92 -1.559,3.478 -3.478,3.478c-1.92,0 -3.478,-1.559 -3.478,-3.478c0,-1.92 1.559,-3.478 3.478,-3.478c1.92,0 3.478,1.559 3.478,3.478Z" style="fill:none;stroke:#ffbf00;stroke-width:1.67px;stroke-linejoin:miter;"/><path id="connector16pin-4" d="M190.73,208.022c0,1.921 -1.559,3.48 -3.48,3.48c-1.921,0 -3.48,-1.559 -3.48,-3.48c0,-1.921 1.559,-3.48 3.48,-3.48c1.921,0 3.48,1.559 3.48,3.48Z" style="fill:none;stroke:#ffbf00;stroke-width:1.67px;stroke-linejoin:miter;"/><path id="connector17pin-2" d="M190.728,220.016c0,1.92 -1.559,3.478 -3.478,3.478c-1.92,0 -3.478,-1.559 -3.478,-3.478c0,-1.92 1.559,-3.478 3.478,-3.478c1.92,0 3.478,1.559 3.478,3.478Z" style="fill:none;stroke:#ffbf00;stroke-width:1.67px;stroke-linejoin:miter;"/><path id="connector18pin-2" d="M190.728,232.009c0,1.92 -1.559,3.478 -3.478,3.478c-1.92,0 -3.478,-1.559 -3.478,-3.478c0,-1.92 1.559,-3.478 3.478,-3.478c1.92,0 3.478,1.559 3.478,3.478Z" style="fill:none;stroke:#ffbf00;stroke-width:1.67px;stroke-linejoin:miter;"/><path id="connector19pin-1" d="M190.728,244.005c0,1.92 -1.559,3.478 -3.478,3.478c-1.92,0 -3.478,-1.559 -3.478,-3.478c0,-1.92 1.559,-3.478 3.478,-3.478c1.92,0 3.478,1.559 3.478,3.478Z" style="fill:none;stroke:#ffbf00;stroke-width:1.67px;stroke-linejoin:miter;"/><path id="connector20pin-7" d="M202.72,244.005c0,1.92 -1.559,3.478 -3.478,3.478c-1.92,0 -3.478,-1.559 -3.478,-3.478c0,-1.92 1.559,-3.478 3.478,-3.478c1.92,0 3.478,1.559 3.478,3.478Z" style="fill:none;stroke:#ffbf00;stroke-width:1.67px;stroke-linejoin:miter;"/><path id="connector21pin-2" d="M202.72,232.009c0,1.92 -1.559,3.478 -3.478,3.478c-1.92,0 -3.478,-1.559 -3.478,-3.478c0,-1.92 1.559,-3.478 3.478,-3.478c1.92,0 3.478,1.559 3.478,3.478Z" style="fill:none;stroke:#ffbf00;stroke-width:1.67px;stroke-linejoin:miter;"/><path id="connector22pin-4" d="M202.72,220.016c0,1.92 -1.559,3.478 -3.478,3.478c-1.92,0 -3.478,-1.559 -3.478,-3.478c0,-1.92 1.559,-3.478 3.478,-3.478c1.92,0 3.478,1.559 3.478,3.478Z" style="fill:none;stroke:#ffbf00;stroke-width:1.67px;stroke-linejoin:miter;"/><path id="connector23pin-1" d="M202.722,208.022c0,1.921 -1.559,3.48 -3.48,3.48c-1.921,0 -3.48,-1.559 -3.48,-3.48c0,-1.921 1.559,-3.48 3.48,-3.48c1.921,0 3.48,1.559 3.48,3.48Z" style="fill:none;stroke:#ffbf00;stroke-width:1.67px;stroke-linejoin:miter;"/><path id="connector24pin-6" d="M202.72,196.027c0,1.92 -1.559,3.478 -3.478,3.478c-1.92,0 -3.478,-1.559 -3.478,-3.478c0,-1.92 1.559,-3.478 3.478,-3.478c1.92,0 3.478,1.559 3.478,3.478Z" style="fill:none;stroke:#ffbf00;stroke-width:1.67px;stroke-linejoin:miter;"/><path id="connector25pin-5" d="M202.72,184.035c0,1.92 -1.559,3.478 -3.478,3.478c-1.92,0 -3.478,-1.559 -3.478,-3.478c0,-1.92 1.559,-3.478 3.478,-3.478c1.92,0 3.478,1.559 3.478,3.478Z" style="fill:none;stroke:#ffbf00;stroke-width:1.67px;stroke-linejoin:miter;"/><path id="connector26pin-7" d="M202.72,172.039c0,1.92 -1.559,3.478 -3.478,3.478c-1.92,0 -3.478,-1.559 -3.478,-3.478c0,-1.92 1.559,-3.478 3.478,-3.478c1.92,0 3.478,1.559 3.478,3.478Z" style="fill:none;stroke:#ffbf00;stroke-width:1.67px;stroke-linejoin:miter;"/><path id="connector27pin-8" d="M202.72,160.044c0,1.92 -1.559,3.478 -3.478,3.478c-1.92,0 -3.478,-1.559 -3.478,-3.478c0,-1.92 1.559,-3.478 3.478,-3.478c1.92,0 3.478,1.559 3.478,3.478Z" style="fill:none;stroke:#ffbf00;stroke-width:1.67px;stroke-linejoin:miter;"/><path id="connector28pin-5" d="M202.722,148.05c0,1.921 -1.559,3.48 -3.48,3.48c-1.921,0 -3.48,-1.559 -3.48,-3.48c0,-1.921 1.559,-3.48 3.48,-3.48c1.921,0 3.48,1.559 3.48,3.48Z" style="fill:none;stroke:#ffbf00;stroke-width:1.67px;stroke-linejoin:miter;"/><path id="connector29pin-9" d="M202.72,136.056c0,1.92 -1.559,3.478 -3.478,3.478c-1.92,0 -3.478,-1.559 -3.478,-3.478c0,-1.92 1.559,-3.478 3.478,-3.478c1.92,0 3.478,1.559 3.478,3.478Z" style="fill:none;stroke:#ffbf00;stroke-width:1.67px;stroke-linejoin:miter;"/><path id="connector30pin-2" d="M202.72,124.062c0,1.92 -1.559,3.478 -3.478,3.478c-1.92,0 -3.478,-1.559 -3.478,-3.478c0,-1.92 1.559,-3.478 3.478,-3.478c1.92,0 3.478,1.559 3.478,3.478Z" style="fill:none;stroke:#ffbf00;stroke-width:1.67px;stroke-linejoin:miter;"/><path id="connector31pin-7" d="M202.72,112.069c0,1.92 -1.559,3.478 -3.478,3.478c-1.92,0 -3.478,-1.559 -3.478,-3.478c0,-1.92 1.559,-3.478 3.478,-3.478c1.92,0 3.478,1.559 3.478,3.478Z" style="fill:none;stroke:#ffbf00;stroke-width:1.67px;stroke-linejoin:miter;"/><path id="connector32pin-3" d="M202.72,100.073c0,1.92 -1.559,3.478 -3.478,3.478c-1.92,0 -3.478,-1.559 -3.478,-3.478c0,-1.92 1.559,-3.478 3.478,-3.478c1.92,0 3.478,1.559 3.478,3.478Z" style="fill:none;stroke:#ffbf00;stroke-width:1.67px;stroke-linejoin:miter;"/><path id="connector33pin-6" d="M202.72,88.079c0,1.92 -1.559,3.478 -3.478,3.478c-1.92,0 -3.478,-1.559 -3.478,-3.478c0,-1.92 1.559,-3.478 3.478,-3.478c1.92,0 3.478,1.559 3.478,3.478Z" style="fill:none;stroke:#ffbf00;stroke-width:1.67px;stroke-linejoin:miter;"/><path id="connector34pin-4" d="M202.72,76.084c0,1.92 -1.559,3.478 -3.478,3.478c-1.92,0 -3.478,-1.559 -3.478,-3.478c0,-1.92 1.559,-3.478 3.478,-3.478c1.92,0 3.478,1.559 3.478,3.478Z" style="fill:none;stroke:#ffbf00;stroke-width:1.67px;stroke-linejoin:miter;"/><path id="connector35pin-7" d="M202.72,64.09c0,1.92 -1.559,3.478 -3.478,3.478c-1.92,0 -3.478,-1.559 -3.478,-3.478c0,-1.92 1.559,-3.478 3.478,-3.478c1.92,0 3.478,1.559 3.478,3.478Z" style="fill:none;stroke:#ffbf00;stroke-width:1.67px;stroke-linejoin:miter;"/><path id="connector36pin-9" d="M202.72,52.096c0,1.92 -1.559,3.478 -3.478,3.478c-1.92,0 -3.478,-1.559 -3.478,-3.478c0,-1.92 1.559,-3.478 3.478,-3.478c1.92,0 3.478,1.559 3.478,3.478Z" style="fill:none;stroke:#ffbf00;stroke-width:1.67px;stroke-linejoin:miter;"/><path id="connector37pin-7" d="M202.72,40.101c0,1.92 -1.559,3.478 -3.478,3.478c-1.92,0 -3.478,-1.559 -3.478,-3.478c0,-1.92 1.559,-3.478 3.478,-3.478c1.92,0 3.478,1.559 3.478,3.478Z" style="fill:none;stroke:#ffbf00;stroke-width:1.67px;stroke-linejoin:miter;"/><path id="connector38pin-2" d="M202.72,28.107c0,1.92 -1.559,3.478 -3.478,3.478c-1.92,0 -3.478,-1.559 -3.478,-3.478c0,-1.92 1.559,-3.478 3.478,-3.478c1.92,0 3.478,1.559 3.478,3.478Z" style="fill:none;stroke:#ffbf00;stroke-width:1.67px;stroke-linejoin:miter;"/><path id="connector39pin-2" d="M202.72,16.113c0,1.92 -1.559,3.478 -3.478,3.478c-1.92,0 -3.478,-1.559 -3.478,-3.478c0,-1.92 1.559,-3.478 3.478,-3.478c1.92,0 3.478,1.559 3.478,3.478Z" style="fill:none;stroke:#ffbf00;stroke-width:1.67px;stroke-linejoin:miter;"/></g></g></svg>