<?xml version="1.0" encoding="UTF-8" standalone="no"?><!DOCTYPE svg PUBLIC "-//W3C//DTD SVG 1.1//EN" "http://www.w3.org/Graphics/SVG/1.1/DTD/svg11.dtd"><svg width="100%" height="100%" viewBox="0 0 249 101" version="1.1" xmlns="http://www.w3.org/2000/svg" xmlns:xlink="http://www.w3.org/1999/xlink" xml:space="preserve" xmlns:serif="http://www.serif.com/" style="fill-rule:evenodd;clip-rule:evenodd;stroke-linejoin:round;"><rect id="Artboard1" x="0" y="0" width="249" height="101" style="fill:none;"/><clipPath id="_clip1"><rect x="0" y="0" width="249" height="101"/></clipPath><g clip-path="url(#_clip1)"><g id="pico"><g id="g234"><path id="path230" d="M5.891,100.068c-5.299,0 -4.967,-2.271 -4.967,-4.684l0,-88.137c0,-6.339 -0.237,-6.529 8.279,-6.529l228.03,0c4.731,0 4.731,-0.473 4.684,5.677l0,86.718c0,4.826 0.047,6.954 -4.684,6.954l-231.342,0Z" style="fill:#00723d;"/><rect id="rect232" x="0.924" y="0.671" width="241.088" height="99.491" style="fill:none;"/></g><g id="g237"><path id="Drawing_4_0" d="M0.924,95.384l-0.237,-88.989c0,-6.339 1.041,-5.677 8.516,-5.677l227.557,0c5.204,0 5.204,0 5.157,5.677l0,86.718c0,4.826 0.047,6.954 -5.157,6.954l-230.869,0c-5.299,0 -4.967,-2.271 -4.967,-4.684Z" style="fill:none;stroke:#000;stroke-width:0.47px;"/></g><g id="DrawingGroup_2"><g id="g243"><path id="path239" d="M72.929,46.608l0,-13.105l0.426,-0.615l10.597,0l0,13.72l-11.023,0Z" style="fill:#8c8c8c;"/><rect id="rect241" x="72.929" y="32.888" width="11.07" height="13.767" style="fill:none;"/></g><g id="g246"><path id="Drawing_6_0" d="M72.929,46.608l0,-13.105l0.426,-0.615l10.597,0l0,13.72l-11.023,0Z" style="fill:none;stroke:#000;stroke-width:0.66px;"/></g></g><g id="g253"><rect id="path249" x="229.428" y="18.743" width="3.832" height="3.832" style="fill:#ff9;"/><rect id="rect251" x="229.38" y="18.743" width="3.927" height="3.879" style="fill:none;"/></g><g id="g256"><rect id="Drawing_8_0" x="229.428" y="18.743" width="3.832" height="3.832" style="fill:none;stroke:#373435;stroke-width:0.14px;"/></g><g id="g262"><rect id="path258" x="230.279" y="19.547" width="2.176" height="2.176" style="fill:#ff9;"/><rect id="rect260" x="230.232" y="19.547" width="2.271" height="2.224" style="fill:none;"/></g><g id="g265"><rect id="Drawing_10_0" x="230.279" y="19.547" width="2.176" height="2.176" style="fill:none;stroke:#373435;stroke-width:0.14px;"/></g><g id="g268"><path id="Drawing_11_0" d="M230.279,19.595l-0.852,-0.852" style="fill:none;stroke:#373435;stroke-width:0.05px;"/></g><g id="g271"><path id="Drawing_12_0" d="M232.408,19.595l0.852,-0.852" style="fill:none;stroke:#373435;stroke-width:0.05px;"/></g><g id="DrawingGroup_3"><g id="DrawingGroup_4"><g id="DrawingGroup_5"><g id="g277"><path id="path273" d="M18.807,23.663c0,4.684 -3.785,8.468 -8.516,8.468c-4.684,0 -8.516,-3.785 -8.516,-8.468c0,-4.826 3.832,-8.658 8.516,-8.658c4.731,0 8.516,3.832 8.516,8.658Z" style="fill:#f2d592;"/><rect id="rect275" x="1.776" y="14.958" width="17.079" height="17.221" style="fill:none;"/></g><g id="g280"><path id="Drawing_14_0" d="M18.807,23.663c0,4.684 -3.785,8.468 -8.516,8.468c-4.684,0 -8.516,-3.785 -8.516,-8.468c0,-4.826 3.832,-8.658 8.516,-8.658c4.731,0 8.516,3.832 8.516,8.658Z" style="fill:none;stroke:#000;stroke-width:0.33px;"/></g></g><g id="DrawingGroup_6"><g id="g287"><path id="path283" d="M15.164,23.663c0,2.649 -2.176,4.636 -4.778,4.636c-2.649,0 -4.636,-1.987 -4.636,-4.636c0,-2.649 1.987,-4.873 4.636,-4.873c2.602,0 4.778,2.224 4.778,4.873Z" style="fill:#fff;"/><rect id="rect285" x="5.75" y="18.79" width="9.462" height="9.556" style="fill:none;"/></g><g id="g290"><path id="Drawing_16_0" d="M15.022,23.758c0,2.602 -2.129,4.542 -4.731,4.542c-2.602,0 -4.542,-1.94 -4.542,-4.542c0,-2.602 1.94,-4.826 4.542,-4.826c2.602,0 4.731,2.224 4.731,4.826Z" style="fill:none;stroke:#000;stroke-width:0.33px;"/></g></g></g></g><g id="DrawingGroup_7"><g id="g308"><path id="path304" d="M221.148,18.743l0,10.313l-3.406,0c-0.047,-0.142 -0.095,-0.237 -0.142,-0.378l0,-9.84c0,0 0.047,-0.047 0.047,-0.095l3.501,0Z" style="fill:#004d05;"/><rect id="rect306" x="217.6" y="18.743" width="3.643" height="10.408" style="fill:none;"/></g><g id="g314"><path id="path310" d="M220.297,18.743c0.047,0.047 0.095,0.095 0.142,0.142c0.331,0.331 0.52,0.804 0.71,1.277l0,7.238c-0.189,0.615 -0.378,0.993 -0.71,1.277c-0.095,0.142 -0.189,0.284 -0.284,0.378l-1.419,0c-0.095,-0.095 -0.142,-0.237 -0.237,-0.378c-0.378,-0.426 -0.71,-1.088 -0.899,-2.082l0,-5.677c0.189,-0.852 0.52,-1.561 0.899,-2.034c0.047,-0.047 0.047,-0.095 0.095,-0.142l1.703,0Z" style="fill:#004d05;"/><rect id="rect312" x="217.6" y="18.743" width="3.643" height="10.408" style="fill:none;"/></g><g id="g320"><path id="path316" d="M220.155,18.743c0.095,0.095 0.189,0.189 0.284,0.284c0.237,0.378 0.473,0.852 0.71,1.325l0,6.813c-0.237,0.615 -0.473,1.041 -0.71,1.372c-0.142,0.237 -0.331,0.378 -0.426,0.52l-1.088,0c-0.189,-0.142 -0.331,-0.284 -0.426,-0.52c-0.378,-0.426 -0.568,-1.183 -0.899,-1.94l0,-5.535c0.331,-0.852 0.52,-1.514 0.899,-2.034c0.095,-0.095 0.142,-0.189 0.237,-0.284l1.419,0Z" style="fill:#0b540e;"/><rect id="rect318" x="217.6" y="18.743" width="3.643" height="10.408" style="fill:none;"/></g><g id="g326"><path id="path322" d="M219.966,18.743c0.142,0.142 0.284,0.284 0.473,0.615c0.331,0.378 0.473,1.041 0.71,1.892l0,5.157c-0.237,0.804 -0.378,1.514 -0.71,1.845c-0.331,0.426 -0.615,0.757 -0.993,0.757c-0.331,0 -0.662,-0.331 -0.946,-0.757c-0.378,-0.331 -0.568,-1.041 -0.71,-1.845c-0.047,-0.378 -0.142,-0.662 -0.189,-0.993l0,-3.17c0.047,-0.378 0.142,-0.662 0.189,-0.993c0.142,-0.852 0.331,-1.514 0.71,-1.892c0.095,-0.331 0.284,-0.473 0.426,-0.615l1.041,0Z" style="fill:#165a18;"/><rect id="rect324" x="217.6" y="18.743" width="3.643" height="10.313" style="fill:none;"/></g><g id="g332"><path id="path328" d="M221.148,21.298l0,4.92c-0.237,0.804 -0.378,1.372 -0.71,1.892c-0.331,0.473 -0.615,0.615 -0.993,0.615c-0.331,0 -0.662,-0.142 -0.852,-0.615c-0.331,-0.52 -0.662,-1.088 -0.804,-1.892c-0.142,-0.568 -0.189,-1.135 -0.189,-1.798l0,-1.419c0,-0.568 0.047,-1.183 0.189,-1.703c0.142,-0.757 0.473,-1.372 0.804,-1.75c0.189,-0.473 0.52,-0.615 0.852,-0.615c0.378,0 0.662,0.142 0.993,0.615c0.331,0.378 0.52,0.993 0.71,1.75Z" style="fill:#216121;"/><rect id="rect330" x="217.6" y="18.932" width="3.643" height="9.84" style="fill:none;"/></g><g id="g338"><path id="path334" d="M221.148,25.461c-0.047,0.284 -0.142,0.473 -0.189,0.757c-0.189,0.757 -0.331,1.183 -0.52,1.703c-0.331,0.378 -0.615,0.473 -0.993,0.473c-0.331,0 -0.52,-0.095 -0.852,-0.473c-0.331,-0.52 -0.473,-0.946 -0.662,-1.703c-0.142,-0.662 -0.284,-1.325 -0.331,-2.082l0,-0.662c0.047,-0.662 0.189,-1.325 0.331,-2.034c0.189,-0.71 0.331,-1.183 0.662,-1.703c0.331,-0.331 0.52,-0.662 0.852,-0.662c0.378,0 0.662,0.331 0.993,0.662c0.189,0.52 0.331,0.993 0.52,1.703c0.047,0.237 0.142,0.52 0.189,0.757l0,3.264Z" style="fill:#2c672b;"/><rect id="rect336" x="217.6" y="19.027" width="3.643" height="9.415" style="fill:none;"/></g><g id="g344"><path id="path340" d="M221.101,23.758c0,0.804 0,1.656 -0.142,2.318c-0.189,0.662 -0.331,1.183 -0.662,1.514c-0.189,0.473 -0.52,0.662 -0.852,0.662c-0.331,0 -0.52,-0.189 -0.852,-0.662c-0.331,-0.331 -0.473,-0.852 -0.662,-1.514c0,-0.662 -0.142,-1.514 -0.142,-2.318c0,-0.804 0.142,-1.514 0.142,-2.129c0.189,-0.71 0.331,-1.23 0.662,-1.75c0.331,-0.331 0.52,-0.473 0.852,-0.473c0.331,0 0.662,0.142 0.852,0.473c0.331,0.52 0.473,1.041 0.662,1.75c0.142,0.615 0.142,1.325 0.142,2.129Z" style="fill:#376e34;"/><rect id="rect342" x="217.789" y="19.405" width="3.359" height="8.894" style="fill:none;"/></g><g id="g350"><path id="path346" d="M221.148,23.758c0,0.804 -0.142,1.467 -0.331,2.129c0,0.662 -0.331,1.135 -0.473,1.514c-0.331,0.52 -0.52,0.662 -0.852,0.662c-0.189,0 -0.52,-0.142 -0.899,-0.662c-0.095,-0.378 -0.284,-0.852 -0.426,-1.514c-0.189,-0.662 -0.189,-1.325 -0.189,-2.129c0,-0.662 0,-1.372 0.189,-2.034c0.142,-0.662 0.331,-1.183 0.426,-1.514c0.378,-0.473 0.71,-0.662 0.899,-0.662c0.331,0 0.52,0.189 0.852,0.662c0.142,0.331 0.473,0.852 0.473,1.514c0.189,0.662 0.331,1.372 0.331,2.034Z" style="fill:#43753d;"/><rect id="rect348" x="217.979" y="19.547" width="3.217" height="8.61" style="fill:none;"/></g><g id="g356"><path id="path352" d="M221.007,23.805c0,0.757 0,1.325 -0.189,1.94c-0.142,0.71 -0.331,1.23 -0.473,1.514c-0.331,0.378 -0.52,0.52 -0.852,0.52c-0.189,0 -0.52,-0.142 -0.662,-0.52c-0.331,-0.284 -0.473,-0.804 -0.662,-1.514c-0.189,-0.615 -0.189,-1.183 -0.189,-1.94c0,-0.71 0,-1.372 0.189,-1.892c0.142,-0.615 0.331,-1.135 0.662,-1.514c0.142,-0.284 0.473,-0.473 0.662,-0.473c0.331,0 0.52,0.189 0.852,0.473c0.142,0.378 0.331,0.899 0.473,1.514c0.189,0.52 0.189,1.183 0.189,1.892Z" style="fill:#4e7b47;"/><rect id="rect354" x="217.979" y="19.926" width="3.075" height="7.948" style="fill:none;"/></g><g id="g362"><path id="path358" d="M220.817,23.805c0,0.615 0,1.325 -0.142,1.798c0,0.615 -0.189,1.183 -0.568,1.467c-0.095,0.331 -0.284,0.52 -0.615,0.52c-0.189,0 -0.52,-0.189 -0.71,-0.52c-0.189,-0.284 -0.284,-0.852 -0.473,-1.467c-0.142,-0.473 -0.142,-1.183 -0.142,-1.798c0,-0.71 0,-1.183 0.142,-1.892c0.189,-0.473 0.284,-0.946 0.473,-1.372c0.189,-0.284 0.52,-0.426 0.71,-0.426c0.331,0 0.52,0.142 0.615,0.426c0.378,0.426 0.568,0.899 0.568,1.372c0.142,0.71 0.142,1.183 0.142,1.892Z" style="fill:#598250;"/><rect id="rect360" x="218.168" y="20.115" width="2.697" height="7.522" style="fill:none;"/></g><g id="g368"><path id="path364" d="M220.817,23.758c0,0.662 0,1.325 -0.142,1.845c-0.189,0.473 -0.331,0.946 -0.568,1.183c-0.095,0.284 -0.284,0.473 -0.615,0.473c-0.189,0 -0.52,-0.189 -0.71,-0.473c-0.189,-0.237 -0.284,-0.71 -0.473,-1.183c0,-0.52 -0.142,-1.183 -0.142,-1.845c0,-0.662 0.142,-1.135 0.142,-1.703c0.189,-0.426 0.284,-0.993 0.473,-1.325c0.189,-0.189 0.52,-0.331 0.71,-0.331c0.331,0 0.52,0.142 0.615,0.331c0.237,0.331 0.378,0.899 0.568,1.325c0.142,0.568 0.142,1.041 0.142,1.703Z" style="fill:#64885a;"/><rect id="rect366" x="218.168" y="20.352" width="2.697" height="6.954" style="fill:none;"/></g><g id="g374"><path id="path370" d="M220.675,23.758c0,0.662 0,1.135 -0.189,1.703c0,0.426 -0.189,0.757 -0.378,1.088c-0.284,0.426 -0.473,0.52 -0.615,0.52c-0.189,0 -0.331,-0.095 -0.568,-0.52c-0.331,-0.331 -0.331,-0.662 -0.426,-1.088c-0.189,-0.568 -0.189,-1.041 -0.189,-1.703c0,-0.52 0.047,-0.946 0.189,-1.514c0.189,-0.52 0.095,-0.946 0.426,-1.183c0.237,-0.331 0.378,-0.52 0.568,-0.52c0.142,0 0.331,0.189 0.615,0.52c0.189,0.237 0.378,0.662 0.378,1.183c0.189,0.52 0.189,0.993 0.189,1.514Z" style="fill:#6f8f63;"/><rect id="rect372" x="218.31" y="20.541" width="2.413" height="6.576" style="fill:none;"/></g><g id="g380"><path id="path376" d="M220.675,23.758c0,0.662 -0.189,0.993 -0.189,1.467c-0.189,0.473 -0.378,0.852 -0.378,1.183c-0.284,0.142 -0.473,0.331 -0.615,0.331c-0.189,0 -0.331,-0.189 -0.568,-0.331c-0.142,-0.331 -0.331,-0.71 -0.426,-1.183c0,-0.473 -0.189,-0.804 -0.189,-1.467c0,-0.52 0.189,-1.041 0.189,-1.514c0.095,-0.331 0.284,-0.662 0.426,-0.993c0.237,-0.331 0.378,-0.331 0.568,-0.331c0.142,0 0.331,0 0.615,0.331c0,0.331 0.189,0.662 0.378,0.993c0,0.473 0.189,0.993 0.189,1.514Z" style="fill:#7a966c;"/><rect id="rect378" x="218.31" y="20.919" width="2.413" height="5.866" style="fill:none;"/></g><g id="g386"><path id="path382" d="M220.439,22.386l0,2.839c-0.142,0.331 -0.331,0.615 -0.426,0.993c-0.189,0.189 -0.378,0.331 -0.52,0.331c-0.189,0 -0.378,-0.142 -0.568,-0.331c-0.142,-0.378 -0.331,-0.662 -0.331,-0.993c-0.095,-0.473 -0.095,-0.993 -0.095,-1.467c0,-0.52 0,-0.852 0.095,-1.372c0,-0.331 0.189,-0.71 0.331,-0.993c0.189,-0.142 0.378,-0.331 0.568,-0.331c0.142,0 0.331,0.189 0.52,0.331c0.095,0.284 0.284,0.662 0.426,0.993Z" style="fill:#859c76;"/><rect id="rect384" x="218.499" y="21.061" width="2.034" height="5.535" style="fill:none;"/></g><g id="g392"><path id="path388" d="M220.439,23.805c0,0.473 0,0.993 -0.142,1.325c-0.189,0.331 -0.189,0.615 -0.284,0.757c-0.189,0.378 -0.378,0.378 -0.52,0.378c-0.237,0 -0.378,0 -0.568,-0.378c0,-0.142 -0.142,-0.426 -0.331,-0.757l0,-2.507c0.189,-0.331 0.331,-0.71 0.331,-0.993c0.189,-0.189 0.331,-0.331 0.568,-0.331c0.142,0 0.331,0.142 0.52,0.331c0.095,0.284 0.095,0.662 0.284,0.993c0.189,0.331 0.142,0.804 0.142,1.183Z" style="fill:#90a37f;"/><rect id="rect390" x="218.594" y="21.298" width="1.94" height="5.062" style="fill:none;"/></g><g id="g398"><path id="path394" d="M220.297,23.805c0,0.473 0,0.757 -0.189,1.088c0,0.378 -0.095,0.71 -0.095,0.852c-0.189,0.142 -0.378,0.331 -0.52,0.331c-0.237,0 -0.237,-0.189 -0.378,-0.331c-0.189,-0.142 -0.331,-0.473 -0.331,-0.852c-0.189,-0.331 -0.189,-0.615 -0.189,-1.088c0,-0.426 0,-0.71 0.189,-1.041c0,-0.331 0.142,-0.662 0.331,-0.852c0.237,-0.189 0.142,-0.284 0.378,-0.284c0.142,0 0.331,0.095 0.52,0.284c0,0.142 0.095,0.52 0.095,0.852c0.189,0.331 0.189,0.615 0.189,1.041Z" style="fill:#9baa88;"/><rect id="rect396" x="218.546" y="21.629" width="1.798" height="4.494" style="fill:none;"/></g><g id="g404"><path id="path400" d="M220.297,23.758c0,0.52 -0.189,0.662 -0.189,0.993c0,0.331 -0.095,0.71 -0.284,0.852c0,0.142 -0.189,0.142 -0.378,0.142c-0.189,0 -0.142,0 -0.331,-0.142c-0.189,-0.189 -0.189,-0.52 -0.331,-0.852l0,-1.987c0.142,-0.378 0.142,-0.52 0.331,-0.71c0.142,-0.142 0.142,-0.142 0.331,-0.142c0.189,0 0.378,0 0.378,0.142c0.189,0.189 0.284,0.331 0.284,0.71c0,0.331 0.189,0.615 0.189,0.993Z" style="fill:#a6b092;"/><rect id="rect402" x="218.783" y="21.913" width="1.561" height="3.879" style="fill:none;"/></g><g id="g410"><path id="path406" d="M220.108,22.954l0,1.798c-0.095,0.142 -0.095,0.331 -0.284,0.662c-0.189,0 -0.189,0.189 -0.378,0.189c-0.189,0 -0.189,-0.189 -0.331,-0.189c0,-0.331 -0.189,-0.52 -0.189,-0.662c-0.142,-0.331 -0.142,-0.662 -0.142,-0.993c0,-0.378 0,-0.52 0.142,-0.804c0,-0.237 0.189,-0.568 0.189,-0.71c0.142,0 0.142,-0.189 0.331,-0.189c0.189,0 0.189,0.189 0.378,0.189c0.189,0.142 0.189,0.473 0.284,0.71Z" style="fill:#b1b79b;"/><rect id="rect408" x="218.783" y="22.055" width="1.372" height="3.643" style="fill:none;"/></g><g id="g416"><path id="path412" d="M220.108,23.758c0,0.331 -0.095,0.615 -0.095,0.804c0,0.142 -0.189,0.331 -0.189,0.52c-0.237,0.142 -0.237,0.142 -0.378,0.142c0,0 -0.189,0 -0.189,-0.142c-0.142,-0.189 -0.142,-0.331 -0.331,-0.52l0,-1.467c0.189,-0.378 0.189,-0.378 0.331,-0.52c0,-0.189 0.189,-0.331 0.189,-0.331c0.142,0 0.142,0.142 0.378,0.331c0,0.142 0.189,0.142 0.189,0.52c0,0.142 0.095,0.473 0.095,0.662Z" style="fill:#bcbda5;"/><rect id="rect414" x="218.925" y="22.197" width="1.23" height="3.075" style="fill:none;"/></g><g id="g422"><path id="path418" d="M220.013,23.805c0,0.331 0,0.473 -0.189,0.615l0,0.52c-0.237,0.189 -0.237,0.189 -0.378,0.189c0,0 -0.189,0 -0.189,-0.189c-0.142,-0.142 -0.142,-0.378 -0.142,-0.52c-0.189,-0.142 -0.189,-0.284 -0.189,-0.615c0,-0.189 0,-0.378 0.189,-0.568c0,-0.142 0,-0.284 0.142,-0.473c0,-0.142 0.189,-0.142 0.189,-0.142c0.142,0 0.142,0 0.378,0.142l0,0.473c0.189,0.189 0.189,0.378 0.189,0.568Z" style="fill:#c8c4ae;"/><rect id="rect420" x="218.925" y="22.575" width="1.135" height="2.602" style="fill:none;"/></g><g id="g428"><path id="path424" d="M219.776,23.237l0,1.041c0,0.142 0,0.284 -0.189,0.473l-0.331,0c0,-0.189 0,-0.331 -0.142,-0.473l0,-1.041c0.142,-0.142 0.142,-0.142 0.142,-0.284l0.189,-0.189c0.142,0 0.142,0.189 0.142,0.189c0.189,0.142 0.189,0.142 0.189,0.284Z" style="fill:#d3cbb7;"/><rect id="rect426" x="219.114" y="22.764" width="0.71" height="2.034" style="fill:none;"/></g><g id="g434"><path id="path430" d="M219.824,23.379l0,0.899c-0.189,0 -0.189,0.142 -0.189,0.142c0,0.142 0,0.142 -0.142,0.142l-0.189,-0.142l0,-1.325l0.331,0c0,0.142 0,0.142 0.189,0.284Z" style="fill:#ded1c1;"/><rect id="rect432" x="219.303" y="23.048" width="0.568" height="1.561" style="fill:none;"/></g><g id="g440"><path id="path436" d="M219.635,23.379l0,0.899l-0.142,0c-0.189,0 -0.189,-0.142 -0.189,-0.142l0,-0.568c0,-0.189 0,-0.189 0.189,-0.189l0,-0.142l0.142,0.142Z" style="fill:#e9d8ca;"/><rect id="rect438" x="219.256" y="23.237" width="0.426" height="1.088" style="fill:none;"/></g><g id="g446"><rect id="path442" x="219.493" y="23.569" width="0.142" height="0.52" style="fill:#f4ded4;"/><rect id="rect444" x="219.493" y="23.569" width="0.189" height="0.568" style="fill:none;"/></g><g id="g449"><rect id="Drawing_42_0" x="217.6" y="18.601" width="3.737" height="10.503" style="fill:none;stroke:#000;stroke-width:0.8px;"/></g></g><g id="DrawingGroup_8"><g id="g456"><path id="path452" d="M66.826,43.155c0,0.378 -0.189,0.615 -0.237,1.088c0.237,0.993 -0.095,1.135 -0.284,1.467c0.189,1.088 -0.331,1.419 -0.804,1.798l0,0.615c-0.899,1.419 -2.649,2.271 -3.501,2.555c0.852,0.189 2.602,0.946 3.501,2.413l0,0.615c0.473,0.473 0.993,0.662 0.804,1.75c0.189,0.378 0.52,0.662 0.284,1.467c0.189,0.615 0.662,1.135 0,1.892c0.237,0.52 0.237,1.277 -0.095,1.845c0.095,0.757 -0.189,1.041 -0.378,1.23c0,0.189 0.047,1.325 -0.757,1.94c0.284,1.467 -0.757,1.892 -1.656,1.277c-0.473,0.473 -0.899,0.662 -1.703,-0.047c-0.426,0.237 -1.088,0.047 -1.609,-0.473c-0.662,0.142 -1.183,-0.142 -1.514,-0.615c-0.899,0.095 -1.419,-0.804 -1.609,-1.088c-0.568,-0.047 -0.946,-0.378 -1.23,-1.325c-0.852,-0.284 -0.899,-0.757 -1.135,-1.467c-1.183,1.987 -2.649,3.737 -6.481,3.737l-0.473,0.331c-1.467,2.318 -6.008,4.305 -9.651,1.135c-1.135,-0.237 -1.987,-0.568 -2.886,-0.852c-3.643,-0.473 -5.393,-3.643 -5.63,-4.494c-0.899,-1.135 -1.892,-2.413 -2.413,-4.116c-1.656,-1.656 -2.271,-3.406 -2.271,-5.157l0,-0.142c0,-1.75 0.615,-3.548 2.271,-5.157c0.52,-1.703 1.514,-2.98 2.413,-4.258c0.237,-0.757 1.987,-3.832 5.63,-4.305c0.899,-0.331 1.75,-0.662 2.886,-0.946c3.643,-3.217 8.184,-1.135 9.651,1.183l0.473,0.331c3.832,-0.095 5.299,1.75 6.481,3.69c0.237,-0.568 0.284,-1.23 1.135,-1.419c0.284,-0.993 0.662,-1.23 1.23,-1.372c0.189,-0.331 0.71,-1.23 1.609,-1.088c0.331,-0.473 0.852,-0.852 1.514,-0.615c0.52,-0.568 1.183,-0.852 1.609,-0.568c0.804,-0.52 1.23,-0.331 1.703,0c0.899,-0.52 1.94,-0.142 1.656,1.277c0.804,0.52 0.757,1.845 0.757,1.987c0.189,0.095 0.473,0.473 0.378,1.325c0.331,0.52 0.331,1.135 0.095,1.798c0.189,0.284 0.237,0.52 0.237,0.757Z" style="fill:#fff;"/><rect id="rect454" x="25.052" y="34.166" width="41.916" height="32.833" style="fill:none;"/></g><g id="g459"><path id="Drawing_44_0" d="M66.826,43.155c0,0.378 -0.189,0.615 -0.237,1.088c0.237,0.993 -0.095,1.135 -0.284,1.467c0.189,1.088 -0.331,1.419 -0.804,1.798l0,0.615c-0.899,1.419 -2.649,2.271 -3.501,2.555c0.852,0.189 2.602,0.946 3.501,2.413l0,0.615c0.473,0.473 0.993,0.662 0.804,1.75c0.189,0.378 0.52,0.662 0.284,1.467c0.189,0.615 0.662,1.135 0,1.892c0.237,0.52 0.237,1.277 -0.095,1.845c0.095,0.757 -0.189,1.041 -0.378,1.23c0,0.189 0.047,1.325 -0.757,1.94c0.284,1.467 -0.757,1.892 -1.656,1.277c-0.473,0.473 -0.899,0.662 -1.703,-0.047c-0.426,0.237 -1.088,0.047 -1.609,-0.473c-0.662,0.142 -1.183,-0.142 -1.514,-0.615c-0.899,0.095 -1.419,-0.804 -1.609,-1.088c-0.568,-0.047 -0.946,-0.378 -1.23,-1.325c-0.852,-0.284 -0.899,-0.757 -1.135,-1.467c-1.183,1.987 -2.649,3.737 -6.481,3.737l-0.473,0.331c-1.467,2.318 -6.008,4.305 -9.651,1.135c-1.135,-0.237 -1.987,-0.568 -2.886,-0.852c-3.643,-0.473 -5.393,-3.643 -5.63,-4.494c-0.899,-1.135 -1.892,-2.413 -2.413,-4.116c-1.656,-1.656 -2.271,-3.406 -2.271,-5.157l0,-0.142c0,-1.75 0.615,-3.548 2.271,-5.157c0.52,-1.703 1.514,-2.98 2.413,-4.258c0.237,-0.757 1.987,-3.832 5.63,-4.305c0.899,-0.331 1.75,-0.662 2.886,-0.946c3.643,-3.217 8.184,-1.135 9.651,1.183l0.473,0.331c3.832,-0.095 5.299,1.75 6.481,3.69c0.237,-0.568 0.284,-1.23 1.135,-1.419c0.284,-0.993 0.662,-1.23 1.23,-1.372c0.189,-0.331 0.71,-1.23 1.609,-1.088c0.331,-0.473 0.852,-0.852 1.514,-0.615c0.52,-0.568 1.183,-0.852 1.609,-0.568c0.804,-0.52 1.23,-0.331 1.703,0c0.899,-0.52 1.94,-0.142 1.656,1.277c0.804,0.52 0.757,1.845 0.757,1.987c0.189,0.095 0.473,0.473 0.378,1.325c0.331,0.52 0.331,1.135 0.095,1.798c0.189,0.284 0.237,0.52 0.237,0.757Z" style="fill:none;stroke:#fff;stroke-width:0.33px;"/></g><g id="g465"><path id="path461" d="M57.837,47.554c-2.602,-0.615 -2.744,-3.879 -2.602,-5.157c0.047,0.189 0.189,0.473 0.473,0.473c0.189,-0.284 0,-1.419 0.473,-2.176c0.047,0.331 0.047,0.426 0.284,0.615c0.284,-0.804 0.473,-1.514 0.804,-1.94c0,0.284 0,0.473 0.237,0.662c0.331,-0.52 0.662,-1.277 1.183,-1.75c0,0.331 0,0.662 0.142,0.804c0.237,-0.52 0.71,-1.183 1.23,-1.514c-0.095,0.473 0,0.568 0,0.852c0.473,-0.52 0.852,-1.135 1.419,-1.419c-0.142,0.331 -0.237,0.71 0,0.899c0.378,-0.095 0.615,-0.757 1.325,-1.088c-0.047,0.331 -0.047,0.615 0,0.757c0.804,-0.142 1.135,-0.426 1.609,-0.757l0,1.94l0.473,-0.473c0.237,0.804 -0.142,1.561 -0.189,2.176c0.189,0.237 0.426,0 0.71,-0.426c-0.142,0.662 -0.284,1.277 -0.52,1.75c0.237,0.331 0.662,-0.047 0.852,-0.331c-0.189,0.993 -0.473,1.419 -0.662,1.798c0.189,0.426 0.473,0 0.804,-0.189c-0.331,0.804 -0.757,1.277 -1.135,1.609c0.142,0.142 0.378,0.331 0.852,0.142c-0.331,0.473 -0.71,0.852 -1.183,1.277c0.284,0.284 0.473,0.189 0.852,0.189l-1.325,1.277c0,0 0.189,0.142 0.473,0.284c-1.277,1.277 -4.447,3.217 -5.724,0.52c1.94,-2.413 3.312,-5.157 4.258,-8.326c-2.034,4.116 -3.643,6.339 -5.109,7.522Z" style="fill:#00723e;"/><rect id="rect463" x="55.188" y="36.815" width="10.787" height="12.963" style="fill:none;"/></g><g id="g468"><path id="Drawing_46_0" d="M62.946,40.032c-2.034,4.116 -3.643,6.339 -5.109,7.522c-2.602,-0.615 -2.744,-3.879 -2.602,-5.157c0.047,0.189 0.189,0.473 0.473,0.473c0.189,-0.284 0,-1.419 0.473,-2.176c0.047,0.331 0.047,0.426 0.284,0.615c0.284,-0.804 0.473,-1.514 0.804,-1.94c0,0.284 0,0.473 0.237,0.662c0.331,-0.52 0.662,-1.277 1.183,-1.75c0,0.331 0,0.662 0.142,0.804c0.237,-0.52 0.71,-1.183 1.23,-1.514c-0.095,0.473 0,0.568 0,0.852c0.473,-0.52 0.852,-1.135 1.419,-1.419c-0.142,0.331 -0.237,0.71 0,0.899c0.378,-0.095 0.615,-0.757 1.325,-1.088c-0.047,0.331 -0.047,0.615 0,0.757c0.804,-0.142 1.135,-0.426 1.609,-0.757l0,1.94l0.473,-0.473c0.237,0.804 -0.142,1.561 -0.189,2.176c0.189,0.237 0.426,0 0.71,-0.426c-0.142,0.662 -0.284,1.277 -0.52,1.75c0.237,0.331 0.662,-0.047 0.852,-0.331c-0.189,0.993 -0.473,1.419 -0.662,1.798c0.189,0.426 0.473,0 0.804,-0.189c-0.331,0.804 -0.757,1.277 -1.135,1.609c0.142,0.142 0.378,0.331 0.852,0.142c-0.331,0.473 -0.71,0.852 -1.183,1.277c0.284,0.284 0.473,0.189 0.852,0.189l-1.325,1.277c0,0 0.189,0.142 0.473,0.284c-1.277,1.277 -4.447,3.217 -5.724,0.52c1.94,-2.413 3.312,-5.157 4.258,-8.326Z" style="fill:none;stroke:#fff;stroke-width:0.33px;"/></g><g id="g474"><path id="path470" d="M57.837,53.657c1.467,1.135 3.075,3.454 5.109,7.475c-0.946,-3.17 -2.318,-5.866 -4.258,-8.137c1.277,-2.791 4.447,-0.946 5.724,0.378c-0.284,0 -0.473,0.142 -0.473,0.284c0.473,0.426 0.804,0.804 1.325,1.277c-0.378,0 -0.568,-0.142 -0.852,0.142c0.473,0.378 0.852,0.852 1.183,1.419c-0.473,-0.378 -0.71,-0.095 -0.852,0c0.378,0.378 0.804,0.71 1.135,1.609c-0.331,-0.237 -0.615,-0.426 -0.804,-0.237c0.189,0.473 0.473,0.899 0.662,1.892c-0.189,-0.189 -0.615,-0.804 -0.852,-0.473c0.237,0.615 0.378,1.23 0.52,1.845c-0.284,-0.378 -0.52,-0.473 -0.71,-0.378c0.047,0.615 0.426,1.419 0.189,2.224l-0.473,-0.568l0,1.94c-0.473,-0.331 -0.804,-0.568 -1.609,-0.804c-0.047,0.142 -0.047,0.615 0,0.852c-0.71,-0.378 -0.946,-0.993 -1.325,-1.183c-0.237,0.189 -0.142,0.568 0,0.946c-0.568,-0.237 -0.946,-0.852 -1.419,-1.325c0,0.142 -0.095,0.378 0,0.852c-0.52,-0.473 -0.993,-0.946 -1.23,-1.514c-0.142,0.095 -0.142,0.426 -0.142,0.804c-0.52,-0.568 -0.852,-1.277 -1.183,-1.987c-0.237,0.378 -0.237,0.615 -0.237,0.852c-0.331,-0.473 -0.52,-1.183 -0.804,-1.94c-0.237,0.095 -0.237,0.284 -0.284,0.615c-0.473,-0.852 -0.284,-1.845 -0.473,-2.176c-0.284,0.095 -0.426,0.331 -0.473,0.473c-0.142,-1.135 0,-4.636 2.602,-5.157Z" style="fill:#00723e;"/><rect id="rect472" x="55.188" y="51.481" width="10.787" height="12.963" style="fill:none;"/></g><g id="g477"><path id="Drawing_48_0" d="M62.946,61.132c-0.946,-3.17 -2.318,-5.866 -4.258,-8.137c1.277,-2.791 4.447,-0.946 5.724,0.378c-0.284,0 -0.473,0.142 -0.473,0.284c0.473,0.426 0.804,0.804 1.325,1.277c-0.378,0 -0.568,-0.142 -0.852,0.142c0.473,0.378 0.852,0.852 1.183,1.419c-0.473,-0.378 -0.71,-0.095 -0.852,0c0.378,0.378 0.804,0.71 1.135,1.609c-0.331,-0.237 -0.615,-0.426 -0.804,-0.237c0.189,0.473 0.473,0.899 0.662,1.892c-0.189,-0.189 -0.615,-0.804 -0.852,-0.473c0.237,0.615 0.378,1.23 0.52,1.845c-0.284,-0.378 -0.52,-0.473 -0.71,-0.378c0.047,0.615 0.426,1.419 0.189,2.224l-0.473,-0.568l0,1.94c-0.473,-0.331 -0.804,-0.568 -1.609,-0.804c-0.047,0.142 -0.047,0.615 0,0.852c-0.71,-0.378 -0.946,-0.993 -1.325,-1.183c-0.237,0.189 -0.142,0.568 0,0.946c-0.568,-0.237 -0.946,-0.852 -1.419,-1.325c0,0.142 -0.095,0.378 0,0.852c-0.52,-0.473 -0.993,-0.946 -1.23,-1.514c-0.142,0.095 -0.142,0.426 -0.142,0.804c-0.52,-0.568 -0.852,-1.277 -1.183,-1.987c-0.237,0.378 -0.237,0.615 -0.237,0.852c-0.331,-0.473 -0.52,-1.183 -0.804,-1.94c-0.237,0.095 -0.237,0.284 -0.284,0.615c-0.473,-0.852 -0.284,-1.845 -0.473,-2.176c-0.284,0.095 -0.426,0.331 -0.473,0.473c-0.142,-1.135 0,-4.636 2.602,-5.157c1.467,1.135 3.075,3.454 5.109,7.475Z" style="fill:none;stroke:#fff;stroke-width:0.33px;"/></g><g id="g483"><path id="path479" d="M36.595,55.36c-2.46,0 -4.4,-2.082 -4.4,-4.636c0,-2.697 1.94,-4.826 4.258,-4.826l0.142,0c2.46,0 4.4,2.129 4.4,4.826c0,2.507 -1.94,4.636 -4.4,4.636Z" style="fill:#00723e;"/><rect id="rect481" x="32.195" y="45.851" width="8.894" height="9.556" style="fill:none;"/></g><g id="g486"><path id="Drawing_50_0" d="M36.595,55.36c-2.46,0 -4.4,-2.082 -4.4,-4.636c0,-2.697 1.94,-4.826 4.258,-4.826l0.142,0c2.46,0 4.4,2.129 4.4,4.826c0,2.507 -1.94,4.636 -4.4,4.636Z" style="fill:none;stroke:#fff;stroke-width:0.33px;"/></g><g id="g492"><path id="path488" d="M42.603,48.69c-2.271,-1.514 -3.217,-4.4 -1.798,-6.292c1.183,-1.94 4.211,-2.318 6.529,-0.852c2.176,1.561 3.17,4.352 1.798,6.434c-1.325,1.94 -4.258,2.318 -6.529,0.71Z" style="fill:#00723e;"/><rect id="rect490" x="40.096" y="40.647" width="9.746" height="9.131" style="fill:none;"/></g><g id="g495"><path id="Drawing_52_0" d="M49.132,47.98c-1.325,1.94 -4.258,2.318 -6.529,0.71c-2.271,-1.514 -3.217,-4.4 -1.798,-6.292c1.183,-1.94 4.211,-2.318 6.529,-0.852c2.176,1.561 3.17,4.352 1.798,6.434Z" style="fill:none;stroke:#fff;stroke-width:0.33px;"/></g><g id="g501"><path id="path497" d="M49.321,53.184c1.372,1.94 0.378,4.873 -1.798,6.434c-2.318,1.467 -5.346,1.183 -6.529,-0.852c-1.325,-1.94 -0.473,-4.731 1.798,-6.292c2.271,-1.561 5.251,-1.23 6.529,0.71Z" style="fill:#00723e;"/><rect id="rect499" x="40.333" y="51.434" width="9.698" height="9.178" style="fill:none;"/></g><g id="g504"><path id="Drawing_54_0" d="M49.321,53.184c1.372,1.94 0.378,4.873 -1.798,6.434c-2.318,1.467 -5.346,1.183 -6.529,-0.852c-1.325,-1.94 -0.473,-4.731 1.798,-6.292c2.271,-1.561 5.251,-1.23 6.529,0.71Z" style="fill:none;stroke:#fff;stroke-width:0.33px;"/></g><g id="g510"><path id="path506" d="M47.098,38.045c0.473,2.176 -8.894,0.662 -8.184,-0.993c1.561,-1.845 6.056,-2.507 8.184,0.993Z" style="fill:#00723e;"/><rect id="rect508" x="38.866" y="35.538" width="8.326" height="3.69" style="fill:none;"/></g><g id="g513"><path id="Drawing_56_0" d="M47.098,38.045c0.473,2.176 -8.894,0.662 -8.184,-0.993c1.561,-1.845 6.056,-2.507 8.184,0.993Z" style="fill:none;stroke:#fff;stroke-width:0.33px;"/></g><g id="g519"><path id="path515" d="M47.145,62.646c-2.129,3.548 -6.623,2.791 -8.184,1.041c-0.71,-1.798 8.658,-3.217 8.184,-1.041Z" style="fill:#00723e;"/><rect id="rect517" x="38.913" y="61.511" width="8.326" height="3.737" style="fill:none;"/></g><g id="g522"><path id="Drawing_58_0" d="M47.145,62.646c-2.129,3.548 -6.623,2.791 -8.184,1.041c-0.71,-1.798 8.658,-3.217 8.184,-1.041Z" style="fill:none;stroke:#fff;stroke-width:0.33px;"/></g><g id="g528"><path id="path524" d="M54.147,55.313c0.568,3.69 -1.609,6.765 -5.582,6.623c-1.467,-0.189 5.346,-7.901 5.582,-6.623Z" style="fill:#00723e;"/><rect id="rect526" x="48.328" y="55.171" width="5.961" height="6.86" style="fill:none;"/></g><g id="g531"><path id="Drawing_60_0" d="M54.147,55.313c0.568,3.69 -1.609,6.765 -5.582,6.623c-1.467,-0.189 5.346,-7.901 5.582,-6.623Z" style="fill:none;stroke:#fff;stroke-width:0.33px;"/></g><g id="g537"><path id="path533" d="M54.241,45.283c-0.237,1.325 -7.049,-6.529 -5.582,-6.529c3.974,-0.189 6.15,2.839 5.582,6.529Z" style="fill:#00723e;"/><rect id="rect535" x="48.422" y="38.707" width="5.961" height="6.813" style="fill:none;"/></g><g id="g540"><path id="Drawing_62_0" d="M54.241,45.283c-0.237,1.325 -7.049,-6.529 -5.582,-6.529c3.974,-0.189 6.15,2.839 5.582,6.529Z" style="fill:none;stroke:#fff;stroke-width:0.33px;"/></g><g id="g546"><path id="path542" d="M55.093,50.629c0,1.892 -1.467,4.258 -2.886,4.258c-1.041,0 -2.129,-1.703 -2.129,-4.258c0,-2.602 1.277,-4.352 2.413,-4.352c0.993,0 2.744,2.082 2.602,4.352Z" style="fill:#00723e;"/><rect id="rect544" x="50.078" y="46.23" width="5.109" height="8.705" style="fill:none;"/></g><g id="g549"><path id="Drawing_64_0" d="M55.093,50.629c0,1.892 -1.467,4.258 -2.886,4.258c-1.041,0 -2.129,-1.703 -2.129,-4.258c0,-2.602 1.277,-4.352 2.413,-4.352c0.993,0 2.744,2.082 2.602,4.352Z" style="fill:none;stroke:#fff;stroke-width:0.33px;"/></g><g id="g555"><path id="path551" d="M30.823,50.724c0.047,1.94 -0.662,4.447 -1.467,4.447c-0.852,0 -2.98,-2.271 -2.98,-4.589c-0.095,-2.413 1.987,-4.684 2.555,-4.684c1.135,0 1.892,2.886 1.892,4.826Z" style="fill:#00723e;"/><rect id="rect553" x="26.376" y="45.851" width="4.542" height="9.367" style="fill:none;"/></g><g id="g558"><path id="Drawing_66_0" d="M30.823,50.724c0.047,1.94 -0.662,4.447 -1.467,4.447c-0.852,0 -2.98,-2.271 -2.98,-4.589c-0.095,-2.413 1.987,-4.684 2.555,-4.684c1.135,0 1.892,2.886 1.892,4.826Z" style="fill:none;stroke:#fff;stroke-width:0.33px;"/></g><g id="g564"><path id="path560" d="M30.918,44.337c-0.71,-0.993 -0.378,-3.548 2.318,-5.441c2.224,-1.277 4.589,-1.135 5.109,-0.284c0.946,1.419 -0.237,3.312 -2.129,4.92c-1.467,1.467 -4.352,1.94 -5.299,0.804Z" style="fill:#00723e;"/><rect id="rect562" x="30.54" y="37.951" width="8.184" height="7.096" style="fill:none;"/></g><g id="g567"><path id="Drawing_68_0" d="M36.217,43.533c-1.467,1.467 -4.352,1.94 -5.299,0.804c-0.71,-0.993 -0.378,-3.548 2.318,-5.441c2.224,-1.277 4.589,-1.135 5.109,-0.284c0.946,1.419 -0.237,3.312 -2.129,4.92Z" style="fill:none;stroke:#fff;stroke-width:0.33px;"/></g><g id="g573"><path id="path569" d="M36.879,57.395c1.798,1.656 2.98,3.501 2.129,4.826c-0.993,0.71 -4.021,1.325 -6.008,-0.142c-2.791,-2.034 -2.839,-4.826 -2.129,-5.819c1.088,-1.135 4.258,-0.237 6.008,1.135Z" style="fill:#00723e;"/><rect id="rect571" x="30.492" y="55.739" width="8.894" height="7.333" style="fill:none;"/></g><g id="g576"><path id="Drawing_70_0" d="M36.879,57.395c1.798,1.656 2.98,3.501 2.129,4.826c-0.993,0.71 -4.021,1.325 -6.008,-0.142c-2.791,-2.034 -2.839,-4.826 -2.129,-5.819c1.088,-1.135 4.258,-0.237 6.008,1.135Z" style="fill:none;stroke:#fff;stroke-width:0.33px;"/></g></g><g id="Drawing_71"><rect id="rect579" x="22.166" y="16.709" width="112.076" height="11.543" style="fill:none;"/><g id="g583"><g id="text581" transform="matrix(7.522167,0,0,7.522167,86.548676,23.521223)"></g><text x="22.166px" y="23.521px" style="font-family:'Helvetica-Bold', 'Helvetica';font-weight:700;font-size:7.522px;fill:#fff;">Raspberry Pi Pico</text></g></g><g id="DrawingGroup_9"><g id="DrawingGroup_10"><g id="g590"><rect id="path586" x="99.469" y="54.461" width="9.793" height="2.224" style="fill:#868686;"/><rect id="rect588" x="99.469" y="54.461" width="9.84" height="2.271" style="fill:none;"/></g><g id="g593"><rect id="Drawing_73_0" x="99.469" y="54.461" width="9.793" height="2.224" style="fill:none;stroke:#000;stroke-width:0.19px;"/></g><g id="g599"><rect id="path595" x="99.469" y="48.075" width="9.793" height="2.224" style="fill:#868686;"/><rect id="rect597" x="99.469" y="48.027" width="9.84" height="2.318" style="fill:none;"/></g><g id="g602"><rect id="Drawing_75_0" x="99.469" y="48.075" width="9.793" height="2.224" style="fill:none;stroke:#000;stroke-width:0.24px;"/></g><g id="g608"><rect id="path604" x="99.469" y="51.103" width="10.124" height="2.224" style="fill:#868686;"/><rect id="rect606" x="99.469" y="51.055" width="10.171" height="2.318" style="fill:none;"/></g><g id="g611"><rect id="Drawing_77_0" x="99.469" y="51.103" width="10.124" height="2.224" style="fill:none;stroke:#000;stroke-width:0.19px;"/></g><g id="g617"><rect id="path613" x="99.469" y="44.668" width="10.171" height="2.224" style="fill:#868686;"/><rect id="rect615" x="99.469" y="44.668" width="10.219" height="2.271" style="fill:none;"/></g><g id="g620"><rect id="Drawing_79_0" x="99.469" y="44.668" width="10.171" height="2.224" style="fill:none;stroke:#000;stroke-width:0.19px;"/></g><g id="g626"><rect id="path622" x="99.469" y="38.282" width="10.171" height="2.224" style="fill:#868686;"/><rect id="rect624" x="99.469" y="38.282" width="10.219" height="2.271" style="fill:none;"/></g><g id="g629"><rect id="Drawing_81_0" x="99.469" y="38.282" width="10.171" height="2.224" style="fill:none;stroke:#000;stroke-width:0.24px;"/></g><g id="g635"><rect id="path631" x="99.469" y="41.309" width="9.793" height="2.224" style="fill:#868686;"/><rect id="rect633" x="99.469" y="41.262" width="9.84" height="2.318" style="fill:none;"/></g><g id="g638"><rect id="Drawing_83_0" x="99.469" y="41.309" width="9.793" height="2.224" style="fill:none;stroke:#000;stroke-width:0.19px;"/></g><g id="g644"><rect id="path640" x="99.469" y="61.132" width="9.793" height="2.224" style="fill:#868686;"/><rect id="rect642" x="99.469" y="61.132" width="9.84" height="2.271" style="fill:none;"/></g><g id="g647"><rect id="Drawing_85_0" x="99.469" y="61.132" width="9.793" height="2.224" style="fill:none;stroke:#000;stroke-width:0.19px;"/></g><g id="g653"><rect id="path649" x="99.469" y="57.726" width="10.124" height="2.224" style="fill:#868686;"/><rect id="rect651" x="99.469" y="57.726" width="10.171" height="2.271" style="fill:none;"/></g><g id="g656"><rect id="Drawing_87_0" x="99.469" y="57.726" width="10.124" height="2.224" style="fill:none;stroke:#000;stroke-width:0.19px;"/></g></g><g id="DrawingGroup_11"><g id="g663"><rect id="path659" x="127.618" y="44.952" width="9.793" height="2.224" style="fill:#868686;"/><rect id="rect661" x="127.618" y="44.952" width="9.84" height="2.271" style="fill:none;"/></g><g id="g666"><rect id="Drawing_89_0" x="127.618" y="44.952" width="9.793" height="2.224" style="fill:none;stroke:#000;stroke-width:0.19px;"/></g><g id="g672"><rect id="path668" x="127.618" y="51.339" width="9.793" height="2.224" style="fill:#868686;"/><rect id="rect670" x="127.618" y="51.339" width="9.84" height="2.271" style="fill:none;"/></g><g id="g675"><rect id="Drawing_91_0" x="127.618" y="51.339" width="9.793" height="2.224" style="fill:none;stroke:#000;stroke-width:0.24px;"/></g><g id="g681"><rect id="path677" x="127.287" y="48.311" width="10.124" height="2.224" style="fill:#868686;"/><rect id="rect679" x="127.24" y="48.311" width="10.219" height="2.271" style="fill:none;"/></g><g id="g684"><rect id="Drawing_93_0" x="127.287" y="48.311" width="10.124" height="2.224" style="fill:none;stroke:#000;stroke-width:0.19px;"/></g><g id="g690"><rect id="path686" x="127.24" y="54.745" width="10.171" height="2.224" style="fill:#868686;"/><rect id="rect688" x="127.24" y="54.745" width="10.219" height="2.271" style="fill:none;"/></g><g id="g693"><rect id="Drawing_95_0" x="127.24" y="54.745" width="10.171" height="2.224" style="fill:none;stroke:#000;stroke-width:0.19px;"/></g><g id="g699"><rect id="path695" x="127.24" y="61.132" width="10.171" height="2.224" style="fill:#868686;"/><rect id="rect697" x="127.24" y="61.132" width="10.219" height="2.271" style="fill:none;"/></g><g id="g702"><rect id="Drawing_97_0" x="127.24" y="61.132" width="10.171" height="2.224" style="fill:none;stroke:#000;stroke-width:0.24px;"/></g><g id="g708"><rect id="path704" x="127.618" y="58.104" width="9.793" height="2.224" style="fill:#868686;"/><rect id="rect706" x="127.618" y="58.104" width="9.84" height="2.271" style="fill:none;"/></g><g id="g711"><rect id="Drawing_99_0" x="127.618" y="58.104" width="9.793" height="2.224" style="fill:none;stroke:#000;stroke-width:0.19px;"/></g><g id="g717"><rect id="path713" x="127.618" y="38.282" width="9.793" height="2.224" style="fill:#868686;"/><rect id="rect715" x="127.618" y="38.282" width="9.84" height="2.271" style="fill:none;"/></g><g id="g720"><rect id="Drawing_101_0" x="127.618" y="38.282" width="9.793" height="2.224" style="fill:none;stroke:#000;stroke-width:0.19px;"/></g><g id="g726"><rect id="path722" x="127.287" y="41.688" width="10.124" height="2.224" style="fill:#868686;"/><rect id="rect724" x="127.24" y="41.688" width="10.219" height="2.271" style="fill:none;"/></g><g id="g729"><rect id="Drawing_103_0" x="127.287" y="41.688" width="10.124" height="2.224" style="fill:none;stroke:#000;stroke-width:0.19px;"/></g></g><g id="DrawingGroup_12"><g id="g736"><rect id="path732" x="113.047" y="30.523" width="2.129" height="10.266" style="fill:#868686;"/><rect id="rect734" x="113.047" y="30.523" width="2.224" height="10.313" style="fill:none;"/></g><g id="g739"><rect id="Drawing_105_0" x="113.047" y="30.523" width="2.129" height="10.266" style="fill:none;stroke:#000;stroke-width:0.19px;"/></g><g id="g745"><rect id="path741" x="119.15" y="30.523" width="2.129" height="10.266" style="fill:#868686;"/><rect id="rect743" x="119.15" y="30.523" width="2.176" height="10.313" style="fill:none;"/></g><g id="g748"><rect id="Drawing_107_0" x="119.15" y="30.523" width="2.129" height="10.266" style="fill:none;stroke:#000;stroke-width:0.24px;"/></g><g id="g754"><rect id="path750" x="116.264" y="30.523" width="2.129" height="10.55" style="fill:#868686;"/><rect id="rect752" x="116.264" y="30.523" width="2.176" height="10.597" style="fill:none;"/></g><g id="g757"><rect id="Drawing_109_0" x="116.264" y="30.523" width="2.129" height="10.55" style="fill:none;stroke:#000;stroke-width:0.19px;"/></g><g id="g763"><rect id="path759" x="122.461" y="30.523" width="2.129" height="10.645" style="fill:#868686;"/><rect id="rect761" x="122.461" y="30.523" width="2.224" height="10.692" style="fill:none;"/></g><g id="g766"><rect id="Drawing_111_0" x="122.461" y="30.523" width="2.129" height="10.645" style="fill:none;stroke:#000;stroke-width:0.19px;"/></g><g id="g772"><rect id="path768" x="128.564" y="30.523" width="2.129" height="10.645" style="fill:#868686;"/><rect id="rect770" x="128.564" y="30.523" width="2.176" height="10.692" style="fill:none;"/></g><g id="g775"><rect id="Drawing_113_0" x="128.564" y="30.523" width="2.129" height="10.645" style="fill:none;stroke:#000;stroke-width:0.24px;"/></g><g id="g781"><rect id="path777" x="125.631" y="30.523" width="2.129" height="10.266" style="fill:#868686;"/><rect id="rect779" x="125.631" y="30.523" width="2.176" height="10.313" style="fill:none;"/></g><g id="g784"><rect id="Drawing_115_0" x="125.631" y="30.523" width="2.129" height="10.266" style="fill:none;stroke:#000;stroke-width:0.19px;"/></g><g id="g790"><rect id="path786" x="106.66" y="30.523" width="2.129" height="10.266" style="fill:#868686;"/><rect id="rect788" x="106.66" y="30.523" width="2.224" height="10.313" style="fill:none;"/></g><g id="g793"><rect id="Drawing_117_0" x="106.66" y="30.523" width="2.129" height="10.266" style="fill:none;stroke:#000;stroke-width:0.19px;"/></g><g id="g799"><rect id="path795" x="109.924" y="30.523" width="2.129" height="10.55" style="fill:#868686;"/><rect id="rect797" x="109.924" y="30.523" width="2.224" height="10.597" style="fill:none;"/></g><g id="g802"><rect id="Drawing_119_0" x="109.924" y="30.523" width="2.129" height="10.55" style="fill:none;stroke:#000;stroke-width:0.19px;"/></g></g><g id="DrawingGroup_13"><g id="g809"><rect id="path805" x="122.225" y="59.997" width="2.129" height="10.266" style="fill:#868686;"/><rect id="rect807" x="122.225" y="59.997" width="2.176" height="10.313" style="fill:none;"/></g><g id="g812"><rect id="Drawing_121_0" x="122.225" y="59.997" width="2.129" height="10.266" style="fill:none;stroke:#000;stroke-width:0.19px;"/></g><g id="g818"><rect id="path814" x="116.122" y="59.997" width="2.129" height="10.266" style="fill:#868686;"/><rect id="rect816" x="116.122" y="59.997" width="2.176" height="10.313" style="fill:none;"/></g><g id="g821"><rect id="Drawing_123_0" x="116.122" y="59.997" width="2.129" height="10.266" style="fill:none;stroke:#000;stroke-width:0.24px;"/></g><g id="g827"><rect id="path823" x="119.008" y="59.665" width="2.129" height="10.55" style="fill:#868686;"/><rect id="rect825" x="119.008" y="59.618" width="2.176" height="10.645" style="fill:none;"/></g><g id="g830"><rect id="Drawing_125_0" x="119.008" y="59.665" width="2.129" height="10.55" style="fill:none;stroke:#000;stroke-width:0.19px;"/></g><g id="g836"><rect id="path832" x="112.858" y="59.618" width="2.129" height="10.645" style="fill:#868686;"/><rect id="rect834" x="112.858" y="59.618" width="2.176" height="10.692" style="fill:none;"/></g><g id="g839"><rect id="Drawing_127_0" x="112.858" y="59.618" width="2.129" height="10.645" style="fill:none;stroke:#000;stroke-width:0.19px;"/></g><g id="g845"><rect id="path841" x="106.755" y="59.618" width="2.129" height="10.645" style="fill:#868686;"/><rect id="rect843" x="106.755" y="59.618" width="2.176" height="10.692" style="fill:none;"/></g><g id="g848"><rect id="Drawing_129_0" x="106.755" y="59.618" width="2.129" height="10.645" style="fill:none;stroke:#000;stroke-width:0.24px;"/></g><g id="g854"><rect id="path850" x="109.641" y="59.997" width="2.129" height="10.266" style="fill:#868686;"/><rect id="rect852" x="109.641" y="59.997" width="2.176" height="10.313" style="fill:none;"/></g><g id="g857"><rect id="Drawing_131_0" x="109.641" y="59.997" width="2.129" height="10.266" style="fill:none;stroke:#000;stroke-width:0.19px;"/></g><g id="g863"><rect id="path859" x="128.612" y="59.997" width="2.129" height="10.266" style="fill:#868686;"/><rect id="rect861" x="128.612" y="59.997" width="2.176" height="10.313" style="fill:none;"/></g><g id="g866"><rect id="Drawing_133_0" x="128.612" y="59.997" width="2.129" height="10.266" style="fill:none;stroke:#000;stroke-width:0.19px;"/></g><g id="g872"><rect id="path868" x="125.347" y="59.665" width="2.129" height="10.55" style="fill:#868686;"/><rect id="rect870" x="125.347" y="59.618" width="2.224" height="10.645" style="fill:none;"/></g><g id="g875"><rect id="Drawing_135_0" x="125.347" y="59.665" width="2.129" height="10.55" style="fill:none;stroke:#000;stroke-width:0.19px;"/></g></g><g id="Drawing_136"><rect id="path878" x="103.254" y="34.781" width="30.893" height="31.508" style="fill:#7e7e7e;"/><rect id="rect880" x="103.254" y="34.781" width="30.94" height="31.555" style="fill:none;"/></g><g id="g898"><rect id="Drawing_137_0" x="103.254" y="34.781" width="30.893" height="31.508" style="fill:none;stroke:#000;stroke-width:0.95px;"/></g></g><g id="DrawingGroup_14"><g id="DrawingGroup_15"><g id="DrawingGroup_16"><g id="g916"><path id="path912" d="M18.807,77.406c0,4.684 -3.785,8.468 -8.516,8.468c-4.684,0 -8.516,-3.785 -8.516,-8.468c0,-4.826 3.832,-8.658 8.516,-8.658c4.731,0 8.516,3.832 8.516,8.658Z" style="fill:#f2d592;"/><rect id="rect914" x="1.776" y="68.749" width="17.079" height="17.173" style="fill:none;"/></g><g id="g919"><path id="Drawing_140_0" d="M18.807,77.406c0,4.684 -3.785,8.468 -8.516,8.468c-4.684,0 -8.516,-3.785 -8.516,-8.468c0,-4.826 3.832,-8.658 8.516,-8.658c4.731,0 8.516,3.832 8.516,8.658Z" style="fill:none;stroke:#000;stroke-width:0.33px;"/></g></g><g id="DrawingGroup_17"><g id="g926"><path id="path922" d="M15.164,77.406c0,2.649 -2.176,4.636 -4.778,4.636c-2.649,0 -4.636,-1.987 -4.636,-4.636c0,-2.649 1.987,-4.873 4.636,-4.873c2.602,0 4.778,2.224 4.778,4.873Z" style="fill:#fff;"/><rect id="rect924" x="5.75" y="72.534" width="9.462" height="9.556" style="fill:none;"/></g><g id="g929"><path id="Drawing_142_0" d="M15.022,77.501c0,2.602 -2.129,4.542 -4.731,4.542c-2.602,0 -4.542,-1.94 -4.542,-4.542c0,-2.602 1.94,-4.826 4.542,-4.826c2.602,0 4.731,2.224 4.731,4.826Z" style="fill:none;stroke:#000;stroke-width:0.33px;"/></g></g></g></g><g id="DrawingGroup_18"><g id="DrawingGroup_19"><g id="DrawingGroup_20"><g id="g938"><path id="path934" d="M240.876,23.663c0,4.684 -3.785,8.468 -8.516,8.468c-4.684,0 -8.516,-3.785 -8.516,-8.468c0,-4.826 3.832,-8.658 8.516,-8.658c4.731,0 8.516,3.832 8.516,8.658Z" style="fill:#f2d592;"/><rect id="rect936" x="223.845" y="14.958" width="17.126" height="17.221" style="fill:none;"/></g><g id="g941"><path id="Drawing_144_0" d="M240.876,23.663c0,4.684 -3.785,8.468 -8.516,8.468c-4.684,0 -8.516,-3.785 -8.516,-8.468c0,-4.826 3.832,-8.658 8.516,-8.658c4.731,0 8.516,3.832 8.516,8.658Z" style="fill:none;stroke:#000;stroke-width:0.33px;"/></g></g><g id="DrawingGroup_21"><g id="g948"><path id="path944" d="M237.234,23.663c0,2.649 -2.176,4.636 -4.778,4.636c-2.649,0 -4.636,-1.987 -4.636,-4.636c0,-2.649 1.987,-4.873 4.636,-4.873c2.602,0 4.778,2.224 4.778,4.873Z" style="fill:#fff;"/><rect id="rect946" x="227.819" y="18.79" width="9.462" height="9.556" style="fill:none;"/></g><g id="g951"><path id="Drawing_146_0" d="M237.092,23.758c0,2.602 -2.129,4.542 -4.731,4.542c-2.602,0 -4.542,-1.94 -4.542,-4.542c0,-2.602 1.94,-4.826 4.542,-4.826c2.602,0 4.731,2.224 4.731,4.826Z" style="fill:none;stroke:#000;stroke-width:0.33px;"/></g></g></g></g><g id="DrawingGroup_22"><g id="DrawingGroup_23"><g id="DrawingGroup_24"><g id="g960"><path id="path956" d="M240.876,77.406c0,4.684 -3.785,8.468 -8.516,8.468c-4.684,0 -8.516,-3.785 -8.516,-8.468c0,-4.826 3.832,-8.658 8.516,-8.658c4.731,0 8.516,3.832 8.516,8.658Z" style="fill:#f2d592;"/><rect id="rect958" x="223.845" y="68.749" width="17.126" height="17.173" style="fill:none;"/></g><g id="g963"><path id="Drawing_148_0" d="M240.876,77.406c0,4.684 -3.785,8.468 -8.516,8.468c-4.684,0 -8.516,-3.785 -8.516,-8.468c0,-4.826 3.832,-8.658 8.516,-8.658c4.731,0 8.516,3.832 8.516,8.658Z" style="fill:none;stroke:#000;stroke-width:0.33px;"/></g></g><g id="DrawingGroup_25"><g id="g970"><path id="path966" d="M237.234,77.406c0,2.649 -2.176,4.636 -4.778,4.636c-2.649,0 -4.636,-1.987 -4.636,-4.636c0,-2.649 1.987,-4.873 4.636,-4.873c2.602,0 4.778,2.224 4.778,4.873Z" style="fill:#fff;"/><rect id="rect968" x="227.819" y="72.534" width="9.462" height="9.556" style="fill:none;"/></g><g id="g973"><path id="Drawing_150_0" d="M237.092,77.501c0,2.602 -2.129,4.542 -4.731,4.542c-2.602,0 -4.542,-1.94 -4.542,-4.542c0,-2.602 1.94,-4.826 4.542,-4.826c2.602,0 4.731,2.224 4.731,4.826Z" style="fill:none;stroke:#000;stroke-width:0.33px;"/></g></g></g></g><g id="DrawingGroup_47"><g id="DrawingGroup_48"><g id="g1363"><rect id="path1359" x="0.829" y="48.217" width="3.454" height="5.251" style="fill:#fff;"/><rect id="rect1361" x="0.829" y="48.217" width="3.548" height="5.346" style="fill:none;"/></g><g id="g1369"><path id="path1365" d="M0.829,46.797l10.408,0c0.52,0 0.993,0 0.993,0.946l0,5.724c0,0.568 -0.473,1.041 -0.993,1.041l-10.408,0c0.095,-0.142 0,-0.757 0,-1.277c0,-0.426 2.318,-0.237 2.365,-2.365c-0.047,-2.176 -2.365,-1.703 -2.365,-2.176l0,-1.892Z" style="fill:#ffeba2;"/><rect id="rect1367" x="0.782" y="46.75" width="11.496" height="7.806" style="fill:none;"/></g><g id="g1375"><path id="path1371" d="M5.797,50.724c0,-0.473 0.095,-0.852 0.331,-1.23c0.237,-0.426 0.568,-0.71 0.993,-0.946c0.378,-0.237 0.804,-0.331 1.277,-0.331c0.473,0 0.899,0.095 1.325,0.331c0.378,0.237 0.71,0.52 0.946,0.946c0.237,0.378 0.331,0.757 0.331,1.23c0,0.473 -0.095,0.852 -0.331,1.277c-0.237,0.378 -0.568,0.662 -0.946,0.899c-0.426,0.237 -0.852,0.331 -1.325,0.331c-0.473,0 -0.899,-0.095 -1.277,-0.331c-0.426,-0.237 -0.757,-0.52 -0.993,-0.899c-0.237,-0.426 -0.331,-0.804 -0.331,-1.277Z" style="fill:#fff;"/><rect id="rect1373" x="5.797" y="48.217" width="5.299" height="5.109" style="fill:none;"/></g></g><g id="DrawingGroup_49"><g id="g1382"><rect id="path1378" x="0.829" y="36.058" width="3.454" height="5.251" style="fill:#fff;"/><rect id="rect1380" x="0.829" y="36.058" width="3.548" height="5.346" style="fill:none;"/></g><g id="g1388"><path id="path1384" d="M0.829,34.639l7.948,0c2.46,0 3.454,1.892 3.454,3.785c0,2.413 -1.467,3.832 -3.454,3.832c-3.832,0 -4.116,0.095 -7.948,0.095c0.095,-0.142 0,-0.757 0,-1.277c0,-0.426 2.318,-0.237 2.365,-2.365c-0.047,-2.176 -2.365,-1.703 -2.365,-2.176l0,-1.892Z" style="fill:#ffeba2;"/><rect id="rect1386" x="0.782" y="34.639" width="11.496" height="7.806" style="fill:none;"/></g><g id="g1394"><path id="path1390" d="M5.797,38.471c0,-0.473 0.095,-0.852 0.331,-1.23c0.237,-0.426 0.568,-0.71 0.993,-0.946c0.378,-0.237 0.804,-0.331 1.277,-0.331c0.473,0 0.899,0.095 1.325,0.331c0.378,0.237 0.71,0.52 0.946,0.946c0.237,0.378 0.331,0.757 0.331,1.23c0,0.473 -0.095,0.852 -0.331,1.277c-0.237,0.378 -0.568,0.662 -0.946,0.899c-0.426,0.237 -0.852,0.331 -1.325,0.331c-0.473,0 -0.899,-0.095 -1.277,-0.331c-0.426,-0.237 -0.757,-0.52 -0.993,-0.899c-0.237,-0.426 -0.331,-0.804 -0.331,-1.277Z" style="fill:#fff;"/><rect id="rect1392" x="5.797" y="35.964" width="5.299" height="5.109" style="fill:none;"/></g></g><g id="DrawingGroup_50"><g id="g1401"><rect id="path1397" x="0.829" y="60.517" width="3.454" height="5.204" style="fill:#fff;"/><rect id="rect1399" x="0.829" y="60.517" width="3.548" height="5.299" style="fill:none;"/></g><g id="g1407"><path id="path1403" d="M0.829,59.05l7.948,0c2.46,0 3.454,1.892 3.454,3.785c0,2.413 -1.467,3.832 -3.454,3.832c-3.832,0 -4.116,0.095 -7.948,0.095c0.095,-0.142 0,-0.757 0,-1.277c0,-0.426 2.318,-0.237 2.365,-2.365c-0.047,-2.176 -2.365,-1.703 -2.365,-2.176l0,-1.892Z" style="fill:#ffeba2;"/><rect id="rect1405" x="0.782" y="59.05" width="11.496" height="7.806" style="fill:none;"/></g><g id="g1413"><path id="path1409" d="M5.797,62.93c0,-0.473 0.095,-0.852 0.331,-1.277c0.237,-0.378 0.568,-0.662 0.993,-0.899c0.378,-0.237 0.804,-0.331 1.277,-0.331c0.473,0 0.899,0.095 1.325,0.331c0.378,0.237 0.71,0.52 0.946,0.899c0.237,0.426 0.331,0.804 0.331,1.277c0,0.426 -0.095,0.804 -0.331,1.23c-0.237,0.378 -0.568,0.662 -0.946,0.899c-0.426,0.237 -0.852,0.331 -1.325,0.331c-0.473,0 -0.899,-0.095 -1.277,-0.331c-0.426,-0.237 -0.757,-0.52 -0.993,-0.899c-0.237,-0.426 -0.331,-0.804 -0.331,-1.23Z" style="fill:#fff;"/><rect id="rect1411" x="5.797" y="60.422" width="5.299" height="5.062" style="fill:none;"/></g></g></g><g id="DrawingGroup_51"><g id="g1421"><path id="path1417" d="M29.546,83.036c-0.804,0 -1.467,-0.189 -2.129,-0.568c-0.662,-0.378 -1.183,-0.899 -1.561,-1.561c-0.378,-0.662 -0.568,-1.325 -0.568,-2.129c0,-0.804 0.189,-1.467 0.568,-2.129c0.378,-0.662 0.899,-1.183 1.561,-1.561c0.662,-0.378 1.325,-0.568 2.129,-0.568c0.804,0 1.467,0.189 2.129,0.568c0.662,0.378 1.183,0.899 1.561,1.561c0.378,0.662 0.568,1.325 0.568,2.129c0,0.804 -0.189,1.467 -0.568,2.129c-0.378,0.662 -0.899,1.183 -1.561,1.561c-0.662,0.378 -1.325,0.568 -2.129,0.568Z" style="fill:#630;"/><rect id="rect1419" x="25.288" y="74.521" width="8.563" height="8.563" style="fill:none;"/></g><g id="g1427"><path id="path1423" d="M29.593,81.049c-0.426,0 -0.804,-0.095 -1.135,-0.331c-0.378,-0.189 -0.662,-0.473 -0.852,-0.804c-0.237,-0.378 -0.331,-0.757 -0.331,-1.183c0,-0.426 0.095,-0.804 0.331,-1.135c0.189,-0.378 0.473,-0.662 0.852,-0.852c0.331,-0.237 0.71,-0.331 1.135,-0.331c0.426,0 0.804,0.095 1.183,0.331c0.331,0.189 0.615,0.473 0.804,0.852c0.237,0.331 0.331,0.71 0.331,1.135c0,0.426 -0.095,0.804 -0.331,1.183c-0.189,0.331 -0.473,0.615 -0.804,0.804c-0.378,0.237 -0.757,0.331 -1.183,0.331Z" style="fill:#f90;"/><rect id="rect1425" x="27.275" y="76.413" width="4.684" height="4.684" style="fill:none;"/></g></g><g id="DrawingGroup_52"><g id="g1434"><path id="path1430" d="M206.009,27.306c-0.804,0 -1.467,-0.189 -2.129,-0.568c-0.662,-0.378 -1.183,-0.899 -1.561,-1.561c-0.378,-0.662 -0.568,-1.325 -0.568,-2.129c0,-0.804 0.189,-1.467 0.568,-2.129c0.378,-0.662 0.899,-1.183 1.561,-1.561c0.662,-0.378 1.325,-0.568 2.129,-0.568c0.804,0 1.467,0.189 2.129,0.568c0.662,0.378 1.183,0.899 1.561,1.561c0.378,0.662 0.568,1.325 0.568,2.129c0,0.804 -0.189,1.467 -0.568,2.129c-0.378,0.662 -0.899,1.183 -1.561,1.561c-0.662,0.378 -1.325,0.568 -2.129,0.568Z" style="fill:#630;"/><rect id="rect1432" x="201.752" y="18.79" width="8.563" height="8.563" style="fill:none;"/></g><g id="g1440"><path id="path1436" d="M206.057,25.319c-0.426,0 -0.804,-0.095 -1.135,-0.331c-0.378,-0.189 -0.662,-0.473 -0.852,-0.804c-0.237,-0.378 -0.331,-0.757 -0.331,-1.183c0,-0.426 0.095,-0.804 0.331,-1.135c0.189,-0.378 0.473,-0.662 0.852,-0.852c0.331,-0.237 0.71,-0.331 1.135,-0.331c0.426,0 0.804,0.095 1.183,0.331c0.331,0.189 0.615,0.473 0.804,0.852c0.237,0.331 0.331,0.71 0.331,1.135c0,0.426 -0.095,0.804 -0.331,1.183c-0.189,0.331 -0.473,0.615 -0.804,0.804c-0.378,0.237 -0.757,0.331 -1.183,0.331Z" style="fill:#f90;"/><rect id="rect1438" x="203.739" y="20.683" width="4.684" height="4.684" style="fill:none;"/></g></g><g id="DrawingGroup_53"><g id="g1474"><rect id="path1470" x="172.893" y="27.684" width="24.128" height="2.839" style="fill:#ddd;"/><rect id="rect1472" x="172.893" y="27.684" width="24.175" height="2.886" style="fill:none;"/></g><g id="g1480"><rect id="path1476" x="172.893" y="37.809" width="24.128" height="2.839" style="fill:#ddd;"/><rect id="rect1478" x="172.893" y="37.809" width="24.175" height="2.886" style="fill:none;"/></g><g id="g1486"><rect id="path1482" x="175.258" y="26.265" width="19.87" height="16.085"/><rect id="rect1484" x="175.258" y="26.265" width="19.917" height="16.132" style="fill:none;"/></g><g id="g1494"><path id="path1488" d="M185.477,28.631c4.305,0 7.569,2.46 7.569,5.677c0,3.217 -3.264,5.677 -7.569,5.677c-4.305,0 -7.569,-2.46 -7.569,-5.677c0,-3.217 3.264,-5.677 7.569,-5.677Z" style="fill:#ddd;"/><rect id="rect1490" x="177.908" y="28.631" width="15.234" height="11.402" style="fill:none;"/><rect id="rect1492" x="177.908" y="28.631" width="15.186" height="11.402" style="fill:none;"/></g><g id="g1502"><path id="path1496" d="M175.258,37.572l4.258,4.778l-4.258,0l0,-4.778Z" style="fill:#ddd;"/><rect id="rect1498" x="175.258" y="37.572" width="4.305" height="4.826" style="fill:none;"/><rect id="rect1500" x="175.258" y="37.572" width="4.305" height="4.778" style="fill:none;"/></g><g id="g1510"><path id="path1504" d="M175.258,31.043l4.258,-4.778l-4.258,0l0,4.778Z" style="fill:#ddd;"/><rect id="rect1506" x="175.258" y="26.265" width="4.305" height="4.826" style="fill:none;"/><rect id="rect1508" x="175.211" y="26.312" width="4.352" height="4.826" style="fill:none;"/></g><g id="g1518"><path id="path1512" d="M195.128,31.043l-4.258,-4.778l4.258,0l0,4.778Z" style="fill:#ddd;"/><rect id="rect1514" x="190.871" y="26.265" width="4.305" height="4.826" style="fill:none;"/><rect id="rect1516" x="190.823" y="26.312" width="4.352" height="4.826" style="fill:none;"/></g><g id="g1526"><path id="path1520" d="M195.128,37.572l-4.258,4.778l4.258,0l0,-4.778Z" style="fill:#ddd;"/><rect id="rect1522" x="190.871" y="37.572" width="4.305" height="4.826" style="fill:none;"/><rect id="rect1524" x="190.871" y="37.572" width="4.305" height="4.778" style="fill:none;"/></g></g><g id="DrawingGroup_54"><g id="g1555"><rect id="path1551" x="216.938" y="32.321" width="30.514" height="36.333" style="fill:#cfcfcf;"/><rect id="rect1553" x="216.938" y="32.273" width="30.562" height="36.428" style="fill:none;"/></g><g id="g1558"><rect id="Drawing_238_0" x="216.938" y="32.321" width="30.514" height="36.333" style="fill:none;stroke:#000;stroke-width:0.95px;"/></g></g></g><circle id="connector0pin-0" cx="235.887" cy="94.198" r="3.478" style="fill:none;stroke:#ffbf00;stroke-width:1.67px;stroke-linejoin:miter;"/><circle id="connector1pin-1" cx="223.893" cy="94.198" r="3.478" style="fill:none;stroke:#ffbf00;stroke-width:1.67px;stroke-linejoin:miter;"/><circle id="connector2pin-3" cx="211.899" cy="94.198" r="3.478" style="fill:none;stroke:#ffbf00;stroke-width:1.67px;stroke-linejoin:miter;"/><circle id="connector3pin-7" cx="199.904" cy="94.198" r="3.478" style="fill:none;stroke:#ffbf00;stroke-width:1.67px;stroke-linejoin:miter;"/><circle id="connector4pin-4" cx="187.91" cy="94.198" r="3.478" style="fill:none;stroke:#ffbf00;stroke-width:1.67px;stroke-linejoin:miter;"/><circle id="connector5pin-1" cx="175.916" cy="94.198" r="3.478" style="fill:none;stroke:#ffbf00;stroke-width:1.67px;stroke-linejoin:miter;"/><circle id="connector6pin-1" cx="163.921" cy="94.198" r="3.478" style="fill:none;stroke:#ffbf00;stroke-width:1.67px;stroke-linejoin:miter;"/><circle id="connector7pin-3" cx="151.927" cy="94.198" r="3.478" style="fill:none;stroke:#ffbf00;stroke-width:1.67px;stroke-linejoin:miter;"/><circle id="connector8pin-0" cx="139.931" cy="94.198" r="3.478" style="fill:none;stroke:#ffbf00;stroke-width:1.67px;stroke-linejoin:miter;"/><circle id="connector9pin-3" cx="127.938" cy="94.198" r="3.478" style="fill:none;stroke:#ffbf00;stroke-width:1.67px;stroke-linejoin:miter;"/><circle id="connector10pin-2" cx="115.944" cy="94.198" r="3.478" style="fill:none;stroke:#ffbf00;stroke-width:1.67px;stroke-linejoin:miter;"/><circle id="connector11pin-1" cx="103.95" cy="94.198" r="3.48" style="fill:none;stroke:#ffbf00;stroke-width:1.67px;stroke-linejoin:miter;"/><circle id="connector12pin-7" cx="91.956" cy="94.198" r="3.478" style="fill:none;stroke:#ffbf00;stroke-width:1.67px;stroke-linejoin:miter;"/><circle id="connector13pin-5" cx="79.961" cy="94.198" r="3.478" style="fill:none;stroke:#ffbf00;stroke-width:1.67px;stroke-linejoin:miter;"/><circle id="connector14pin-6" cx="67.965" cy="94.198" r="3.478" style="fill:none;stroke:#ffbf00;stroke-width:1.67px;stroke-linejoin:miter;"/><circle id="connector15pin-5" cx="55.973" cy="94.198" r="3.478" style="fill:none;stroke:#ffbf00;stroke-width:1.67px;stroke-linejoin:miter;"/><circle id="connector16pin-4" cx="43.978" cy="94.198" r="3.48" style="fill:none;stroke:#ffbf00;stroke-width:1.67px;stroke-linejoin:miter;"/><circle id="connector17pin-2" cx="31.984" cy="94.198" r="3.478" style="fill:none;stroke:#ffbf00;stroke-width:1.67px;stroke-linejoin:miter;"/><circle id="connector18pin-2" cx="19.991" cy="94.198" r="3.478" style="fill:none;stroke:#ffbf00;stroke-width:1.67px;stroke-linejoin:miter;"/><circle id="connector19pin-1" cx="7.995" cy="94.198" r="3.478" style="fill:none;stroke:#ffbf00;stroke-width:1.67px;stroke-linejoin:miter;"/><g><circle id="connector20pin-7" cx="7.995" cy="6.19" r="3.478" style="fill:none;stroke:#ffbf00;stroke-width:1.67px;stroke-linejoin:miter;"/><circle id="connector21pin-2" cx="19.991" cy="6.19" r="3.478" style="fill:none;stroke:#ffbf00;stroke-width:1.67px;stroke-linejoin:miter;"/><circle id="connector22pin-4" cx="31.984" cy="6.19" r="3.478" style="fill:none;stroke:#ffbf00;stroke-width:1.67px;stroke-linejoin:miter;"/><circle id="connector23pin-1" cx="43.978" cy="6.19" r="3.48" style="fill:none;stroke:#ffbf00;stroke-width:1.67px;stroke-linejoin:miter;"/><circle id="connector24pin-6" cx="55.973" cy="6.19" r="3.478" style="fill:none;stroke:#ffbf00;stroke-width:1.67px;stroke-linejoin:miter;"/><circle id="connector25pin-5" cx="67.965" cy="6.19" r="3.478" style="fill:none;stroke:#ffbf00;stroke-width:1.67px;stroke-linejoin:miter;"/><circle id="connector26pin-7" cx="79.961" cy="6.19" r="3.478" style="fill:none;stroke:#ffbf00;stroke-width:1.67px;stroke-linejoin:miter;"/><circle id="connector27pin-8" cx="91.956" cy="6.19" r="3.478" style="fill:none;stroke:#ffbf00;stroke-width:1.67px;stroke-linejoin:miter;"/><circle id="connector28pin-5" cx="103.95" cy="6.19" r="3.48" style="fill:none;stroke:#ffbf00;stroke-width:1.67px;stroke-linejoin:miter;"/><circle id="connector29pin-9" cx="115.944" cy="6.19" r="3.478" style="fill:none;stroke:#ffbf00;stroke-width:1.67px;stroke-linejoin:miter;"/><circle id="connector30pin-2" cx="127.938" cy="6.19" r="3.478" style="fill:none;stroke:#ffbf00;stroke-width:1.67px;stroke-linejoin:miter;"/><circle id="connector31pin-7" cx="139.931" cy="6.19" r="3.478" style="fill:none;stroke:#ffbf00;stroke-width:1.67px;stroke-linejoin:miter;"/><circle id="connector32pin-3" cx="151.927" cy="6.19" r="3.478" style="fill:none;stroke:#ffbf00;stroke-width:1.67px;stroke-linejoin:miter;"/><circle id="connector33pin-6" cx="163.921" cy="6.19" r="3.478" style="fill:none;stroke:#ffbf00;stroke-width:1.67px;stroke-linejoin:miter;"/><circle id="connector34pin-4" cx="175.916" cy="6.19" r="3.478" style="fill:none;stroke:#ffbf00;stroke-width:1.67px;stroke-linejoin:miter;"/><circle id="connector35pin-7" cx="187.91" cy="6.19" r="3.478" style="fill:none;stroke:#ffbf00;stroke-width:1.67px;stroke-linejoin:miter;"/><circle id="connector36pin-9" cx="199.904" cy="6.19" r="3.478" style="fill:none;stroke:#ffbf00;stroke-width:1.67px;stroke-linejoin:miter;"/><circle id="connector37pin-7" cx="211.899" cy="6.19" r="3.478" style="fill:none;stroke:#ffbf00;stroke-width:1.67px;stroke-linejoin:miter;"/><circle id="connector38pin-2" cx="223.893" cy="6.19" r="3.478" style="fill:none;stroke:#ffbf00;stroke-width:1.67px;stroke-linejoin:miter;"/><circle id="connector39pin-2" cx="235.887" cy="6.19" r="3.478" style="fill:none;stroke:#ffbf00;stroke-width:1.67px;stroke-linejoin:miter;"/></g></g></svg>