<?xml version="1.0" encoding="utf-8" ?>
<svg baseProfile="full" height="1011.2px" version="1.1" width="720.0px" xmlns="http://www.w3.org/2000/svg" xmlns:ev="http://www.w3.org/2001/xml-events" xmlns:xlink="http://www.w3.org/1999/xlink"><defs /><rect fill="white" height="1011.2" width="720.0" x="0" y="0" /><text fill="#333" font-family="Arial, sans-serif" font-size="20px" font-weight="bold" text-anchor="middle" x="360.0" y="25">BH1750 Light Sensor on Raspberry Pi Zero 2 W</text><g transform="translate(40.0, 40.0)"><g id="Calque-1" transform="matrix(2.834646,0,0,2.834646,-150.197736,-9.325816)"><g id="rect11950" transform="matrix(-0,1,-1,-0,154.143222,1.921143)"><rect height="89.39" style="fill:rgb(0,83,50);stroke:rgb(0,83,50);stroke-width:0.89px;" width="193.178" x="7.474" y="4.613" /></g><g id="path79-2-4-8" transform="matrix(-0.000583,-1,1,-0.000583,154.143222,1.921143)"><ellipse cx="-17.574" cy="-16.161" rx="6.936" ry="6.88" style="fill:white;stroke:rgb(171,148,79);stroke-width:4.39px;" /></g><g id="path79-2-4-8-9" transform="matrix(-0.000583,-1,1,-0.000583,154.143222,1.921143)"><ellipse cx="-17.325" cy="-85.218" rx="6.936" ry="6.88" style="fill:white;stroke:rgb(171,148,79);stroke-width:4.39px;" /></g><g id="path79-2-4-8-0" transform="matrix(-0.000583,-1,1,-0.000583,154.143222,1.921143)"><ellipse cx="-190.596" cy="-84.481" rx="6.936" ry="6.88" style="fill:white;stroke:rgb(171,148,79);stroke-width:4.39px;" /></g><g id="path79-2-4-8-7" transform="matrix(-0.000583,-1,1,-0.000583,154.143222,1.921143)"><ellipse cx="-190.218" cy="-14.587" rx="6.936" ry="6.88" style="fill:white;stroke:rgb(171,148,79);stroke-width:4.39px;" /></g><g id="path12034" transform="matrix(-0,1,-1,-0,154.143222,1.921143)"><ellipse cx="32.078" cy="11.959" rx="2.411" ry="2.201" style="fill:white;stroke:rgb(170,137,100);stroke-width:0.91px;" /></g><g id="path120341" transform="matrix(-0,1,-1,-0,146.029333,1.921143)"><ellipse cx="32.078" cy="11.959" rx="2.411" ry="2.201" style="fill:white;stroke:rgb(170,137,100);stroke-width:0.91px;" /></g><g id="use12289" transform="matrix(-0,1,-1,-0,154.143232,9.375775)"><ellipse cx="32.078" cy="11.959" rx="2.411" ry="2.201" style="fill:white;stroke:rgb(170,137,100);stroke-width:0.91px;" /></g><g id="use122891" transform="matrix(-0,1,-1,-0,146.029343,9.375775)"><ellipse cx="32.078" cy="11.959" rx="2.411" ry="2.201" style="fill:white;stroke:rgb(170,137,100);stroke-width:0.91px;" /></g><g id="use12291" transform="matrix(-0,1,-1,-0,154.143232,16.830434)"><ellipse cx="32.078" cy="11.959" rx="2.411" ry="2.201" style="fill:white;stroke:rgb(170,137,100);stroke-width:0.91px;" /></g><g id="use122911" transform="matrix(-0,1,-1,-0,146.029343,16.830434)"><ellipse cx="32.078" cy="11.959" rx="2.411" ry="2.201" style="fill:white;stroke:rgb(170,137,100);stroke-width:0.91px;" /></g><g id="use12293" transform="matrix(-0,1,-1,-0,154.143232,24.285048)"><ellipse cx="32.078" cy="11.959" rx="2.411" ry="2.201" style="fill:white;stroke:rgb(170,137,100);stroke-width:0.91px;" /></g><g id="use122931" transform="matrix(-0,1,-1,-0,146.029343,24.285048)"><ellipse cx="32.078" cy="11.959" rx="2.411" ry="2.201" style="fill:white;stroke:rgb(170,137,100);stroke-width:0.91px;" /></g><g id="use12295" transform="matrix(-0,1,-1,-0,154.143232,31.739707)"><ellipse cx="32.078" cy="11.959" rx="2.411" ry="2.201" style="fill:white;stroke:rgb(170,137,100);stroke-width:0.91px;" /></g><g id="use122951" transform="matrix(-0,1,-1,-0,146.029343,31.739707)"><ellipse cx="32.078" cy="11.959" rx="2.411" ry="2.201" style="fill:white;stroke:rgb(170,137,100);stroke-width:0.91px;" /></g><g id="use12297" transform="matrix(-0,1,-1,-0,154.143232,39.194366)"><ellipse cx="32.078" cy="11.959" rx="2.411" ry="2.201" style="fill:white;stroke:rgb(170,137,100);stroke-width:0.91px;" /></g><g id="use122971" transform="matrix(-0,1,-1,-0,146.029343,39.194366)"><ellipse cx="32.078" cy="11.959" rx="2.411" ry="2.201" style="fill:white;stroke:rgb(170,137,100);stroke-width:0.91px;" /></g><g id="use12299" transform="matrix(-0,1,-1,-0,154.143232,46.648982)"><ellipse cx="32.078" cy="11.959" rx="2.411" ry="2.201" style="fill:white;stroke:rgb(170,137,100);stroke-width:0.91px;" /></g><g id="use122991" transform="matrix(-0,1,-1,-0,146.029343,46.648982)"><ellipse cx="32.078" cy="11.959" rx="2.411" ry="2.201" style="fill:white;stroke:rgb(170,137,100);stroke-width:0.91px;" /></g><g id="use12301" transform="matrix(-0,1,-1,-0,154.143232,54.103641)"><ellipse cx="32.078" cy="11.959" rx="2.411" ry="2.201" style="fill:white;stroke:rgb(170,137,100);stroke-width:0.91px;" /></g><g id="use123011" transform="matrix(-0,1,-1,-0,146.029343,54.103641)"><ellipse cx="32.078" cy="11.959" rx="2.411" ry="2.201" style="fill:white;stroke:rgb(170,137,100);stroke-width:0.91px;" /></g><g id="use12303" transform="matrix(-0,1,-1,-0,154.143232,61.558256)"><ellipse cx="32.078" cy="11.959" rx="2.411" ry="2.201" style="fill:white;stroke:rgb(170,137,100);stroke-width:0.91px;" /></g><g id="use123031" transform="matrix(-0,1,-1,-0,146.029343,61.558256)"><ellipse cx="32.078" cy="11.959" rx="2.411" ry="2.201" style="fill:white;stroke:rgb(170,137,100);stroke-width:0.91px;" /></g><g id="use12305" transform="matrix(-0,1,-1,-0,154.143232,69.012915)"><ellipse cx="32.078" cy="11.959" rx="2.411" ry="2.201" style="fill:white;stroke:rgb(170,137,100);stroke-width:0.91px;" /></g><g id="use123051" transform="matrix(-0,1,-1,-0,146.029343,69.012915)"><ellipse cx="32.078" cy="11.959" rx="2.411" ry="2.201" style="fill:white;stroke:rgb(170,137,100);stroke-width:0.91px;" /></g><g id="use12307" transform="matrix(-0,1,-1,-0,154.143232,76.467573)"><ellipse cx="32.078" cy="11.959" rx="2.411" ry="2.201" style="fill:white;stroke:rgb(170,137,100);stroke-width:0.91px;" /></g><g id="use123071" transform="matrix(-0,1,-1,-0,146.029343,76.467573)"><ellipse cx="32.078" cy="11.959" rx="2.411" ry="2.201" style="fill:white;stroke:rgb(170,137,100);stroke-width:0.91px;" /></g><g id="use12309" transform="matrix(-0,1,-1,-0,154.143232,83.922189)"><ellipse cx="32.078" cy="11.959" rx="2.411" ry="2.201" style="fill:white;stroke:rgb(170,137,100);stroke-width:0.91px;" /></g><g id="use123091" transform="matrix(-0,1,-1,-0,146.029343,83.922189)"><ellipse cx="32.078" cy="11.959" rx="2.411" ry="2.201" style="fill:white;stroke:rgb(170,137,100);stroke-width:0.91px;" /></g><g id="use12311" transform="matrix(-0,1,-1,-0,154.143232,91.376848)"><ellipse cx="32.078" cy="11.959" rx="2.411" ry="2.201" style="fill:white;stroke:rgb(170,137,100);stroke-width:0.91px;" /></g><g id="use123111" transform="matrix(-0,1,-1,-0,146.029343,91.376848)"><ellipse cx="32.078" cy="11.959" rx="2.411" ry="2.201" style="fill:white;stroke:rgb(170,137,100);stroke-width:0.91px;" /></g><g id="use12313" transform="matrix(-0,1,-1,-0,154.143232,98.831462)"><ellipse cx="32.078" cy="11.959" rx="2.411" ry="2.201" style="fill:white;stroke:rgb(170,137,100);stroke-width:0.91px;" /></g><g id="use123131" transform="matrix(-0,1,-1,-0,146.029343,98.831462)"><ellipse cx="32.078" cy="11.959" rx="2.411" ry="2.201" style="fill:white;stroke:rgb(170,137,100);stroke-width:0.91px;" /></g><g id="use12315" transform="matrix(-0,1,-1,-0,154.143232,106.286123)"><ellipse cx="32.078" cy="11.959" rx="2.411" ry="2.201" style="fill:white;stroke:rgb(170,137,100);stroke-width:0.91px;" /></g><g id="use123151" transform="matrix(-0,1,-1,-0,146.029343,106.286123)"><ellipse cx="32.078" cy="11.959" rx="2.411" ry="2.201" style="fill:white;stroke:rgb(170,137,100);stroke-width:0.91px;" /></g><g id="use12317" transform="matrix(-0,1,-1,-0,154.143232,113.740783)"><ellipse cx="32.078" cy="11.959" rx="2.411" ry="2.201" style="fill:white;stroke:rgb(170,137,100);stroke-width:0.91px;" /></g><g id="use123171" transform="matrix(-0,1,-1,-0,146.029343,113.740783)"><ellipse cx="32.078" cy="11.959" rx="2.411" ry="2.201" style="fill:white;stroke:rgb(170,137,100);stroke-width:0.91px;" /></g><g id="use12319" transform="matrix(-0,1,-1,-0,154.143232,121.195393)"><ellipse cx="32.078" cy="11.959" rx="2.411" ry="2.201" style="fill:white;stroke:rgb(170,137,100);stroke-width:0.91px;" /></g><g id="use123191" transform="matrix(-0,1,-1,-0,146.029343,121.195393)"><ellipse cx="32.078" cy="11.959" rx="2.411" ry="2.201" style="fill:white;stroke:rgb(170,137,100);stroke-width:0.91px;" /></g><g id="use12321" transform="matrix(-0,1,-1,-0,154.143232,128.650053)"><ellipse cx="32.078" cy="11.959" rx="2.411" ry="2.201" style="fill:white;stroke:rgb(170,137,100);stroke-width:0.91px;" /></g><g id="use123211" transform="matrix(-0,1,-1,-0,146.029343,128.650053)"><ellipse cx="32.078" cy="11.959" rx="2.411" ry="2.201" style="fill:white;stroke:rgb(170,137,100);stroke-width:0.91px;" /></g><g id="use12323" transform="matrix(-0,1,-1,-0,154.143232,136.104673)"><ellipse cx="32.078" cy="11.959" rx="2.411" ry="2.201" style="fill:white;stroke:rgb(170,137,100);stroke-width:0.91px;" /></g><g id="use123231" transform="matrix(-0,1,-1,-0,146.029343,136.104673)"><ellipse cx="32.078" cy="11.959" rx="2.411" ry="2.201" style="fill:white;stroke:rgb(170,137,100);stroke-width:0.91px;" /></g><g id="use12325" transform="matrix(-0,1,-1,-0,154.143232,143.559333)"><ellipse cx="32.078" cy="11.959" rx="2.411" ry="2.201" style="fill:white;" /></g><g id="use123251" transform="matrix(-0,1,-1,-0,146.029343,143.559333)"><ellipse cx="32.078" cy="11.959" rx="2.411" ry="2.201" style="fill:white;" /></g><g id="use12363" transform="matrix(-0,1,-1,-0,154.143232,1.92116)"><ellipse cx="32.078" cy="11.959" rx="2.411" ry="2.201" style="fill:white;" /></g><g id="use123631" transform="matrix(-0,1,-1,-0,146.029343,1.92116)"><ellipse cx="32.078" cy="11.959" rx="2.411" ry="2.201" style="fill:white;" /></g><g id="use12365" transform="matrix(-0,1,-1,-0,154.143232,9.375775)"><ellipse cx="32.078" cy="11.959" rx="2.411" ry="2.201" style="fill:white;" /></g><g id="use123651" transform="matrix(-0,1,-1,-0,146.029343,9.375775)"><ellipse cx="32.078" cy="11.959" rx="2.411" ry="2.201" style="fill:white;" /></g><g id="use12367" transform="matrix(-0,1,-1,-0,154.143232,16.830434)"><ellipse cx="32.078" cy="11.959" rx="2.411" ry="2.201" style="fill:white;" /></g><g id="use123671" transform="matrix(-0,1,-1,-0,146.029343,16.830434)"><ellipse cx="32.078" cy="11.959" rx="2.411" ry="2.201" style="fill:white;" /></g><g id="use12369" transform="matrix(-0,1,-1,-0,154.143232,24.285048)"><ellipse cx="32.078" cy="11.959" rx="2.411" ry="2.201" style="fill:white;" /></g><g id="use123691" transform="matrix(-0,1,-1,-0,146.029343,24.285048)"><ellipse cx="32.078" cy="11.959" rx="2.411" ry="2.201" style="fill:white;" /></g><g id="use12371" transform="matrix(-0,1,-1,-0,154.143232,31.739707)"><ellipse cx="32.078" cy="11.959" rx="2.411" ry="2.201" style="fill:white;" /></g><g id="use123711" transform="matrix(-0,1,-1,-0,146.029343,31.739707)"><ellipse cx="32.078" cy="11.959" rx="2.411" ry="2.201" style="fill:white;" /></g><g id="use12373" transform="matrix(-0,1,-1,-0,154.143232,39.194366)"><ellipse cx="32.078" cy="11.959" rx="2.411" ry="2.201" style="fill:white;" /></g><g id="use123731" transform="matrix(-0,1,-1,-0,146.029343,39.194366)"><ellipse cx="32.078" cy="11.959" rx="2.411" ry="2.201" style="fill:white;" /></g><g id="use12375" transform="matrix(-0,1,-1,-0,154.143232,46.648982)"><ellipse cx="32.078" cy="11.959" rx="2.411" ry="2.201" style="fill:white;" /></g><g id="use123751" transform="matrix(-0,1,-1,-0,146.029343,46.648982)"><ellipse cx="32.078" cy="11.959" rx="2.411" ry="2.201" style="fill:white;" /></g><g id="use12377" transform="matrix(-0,1,-1,-0,154.143232,54.103641)"><ellipse cx="32.078" cy="11.959" rx="2.411" ry="2.201" style="fill:white;" /></g><g id="use123771" transform="matrix(-0,1,-1,-0,146.029343,54.103641)"><ellipse cx="32.078" cy="11.959" rx="2.411" ry="2.201" style="fill:white;" /></g><g id="use12379" transform="matrix(-0,1,-1,-0,154.143232,61.558256)"><ellipse cx="32.078" cy="11.959" rx="2.411" ry="2.201" style="fill:white;" /></g><g id="use123791" transform="matrix(-0,1,-1,-0,146.029343,61.558256)"><ellipse cx="32.078" cy="11.959" rx="2.411" ry="2.201" style="fill:white;" /></g><g id="use12381" transform="matrix(-0,1,-1,-0,154.143232,69.012915)"><ellipse cx="32.078" cy="11.959" rx="2.411" ry="2.201" style="fill:white;" /></g><g id="use123811" transform="matrix(-0,1,-1,-0,146.029343,69.012915)"><ellipse cx="32.078" cy="11.959" rx="2.411" ry="2.201" style="fill:white;" /></g><g id="use12383" transform="matrix(-0,1,-1,-0,154.143232,76.467573)"><ellipse cx="32.078" cy="11.959" rx="2.411" ry="2.201" style="fill:white;" /></g><g id="use123831" transform="matrix(-0,1,-1,-0,146.029343,76.467573)"><ellipse cx="32.078" cy="11.959" rx="2.411" ry="2.201" style="fill:white;" /></g><g id="use12385" transform="matrix(-0,1,-1,-0,154.143232,83.922189)"><ellipse cx="32.078" cy="11.959" rx="2.411" ry="2.201" style="fill:white;" /></g><g id="use123851" transform="matrix(-0,1,-1,-0,146.029343,83.922189)"><ellipse cx="32.078" cy="11.959" rx="2.411" ry="2.201" style="fill:white;" /></g><g id="use12387" transform="matrix(-0,1,-1,-0,154.143232,91.376848)"><ellipse cx="32.078" cy="11.959" rx="2.411" ry="2.201" style="fill:white;" /></g><g id="use123871" transform="matrix(-0,1,-1,-0,146.029343,91.376848)"><ellipse cx="32.078" cy="11.959" rx="2.411" ry="2.201" style="fill:white;" /></g><g id="use12389" transform="matrix(-0,1,-1,-0,154.143232,98.831462)"><ellipse cx="32.078" cy="11.959" rx="2.411" ry="2.201" style="fill:white;" /></g><g id="use123891" transform="matrix(-0,1,-1,-0,146.029343,98.831462)"><ellipse cx="32.078" cy="11.959" rx="2.411" ry="2.201" style="fill:white;" /></g><g id="use12391" transform="matrix(-0,1,-1,-0,154.143232,106.286123)"><ellipse cx="32.078" cy="11.959" rx="2.411" ry="2.201" style="fill:white;" /></g><g id="use123911" transform="matrix(-0,1,-1,-0,146.029343,106.286123)"><ellipse cx="32.078" cy="11.959" rx="2.411" ry="2.201" style="fill:white;" /></g><g id="use12393" transform="matrix(-0,1,-1,-0,154.143232,113.740783)"><ellipse cx="32.078" cy="11.959" rx="2.411" ry="2.201" style="fill:white;" /></g><g id="use123931" transform="matrix(-0,1,-1,-0,146.029343,113.740783)"><ellipse cx="32.078" cy="11.959" rx="2.411" ry="2.201" style="fill:white;" /></g><g id="use12395" transform="matrix(-0,1,-1,-0,154.143232,121.195393)"><ellipse cx="32.078" cy="11.959" rx="2.411" ry="2.201" style="fill:white;" /></g><g id="use123951" transform="matrix(-0,1,-1,-0,146.029343,121.195393)"><ellipse cx="32.078" cy="11.959" rx="2.411" ry="2.201" style="fill:white;" /></g><g id="use12397" transform="matrix(-0,1,-1,-0,154.143232,128.650053)"><ellipse cx="32.078" cy="11.959" rx="2.411" ry="2.201" style="fill:white;" /></g><g id="use123971" transform="matrix(-0,1,-1,-0,146.029343,128.650053)"><ellipse cx="32.078" cy="11.959" rx="2.411" ry="2.201" style="fill:white;" /></g><g id="use12399" transform="matrix(-0,1,-1,-0,154.143232,136.104673)"><ellipse cx="32.078" cy="11.959" rx="2.411" ry="2.201" style="fill:white;" /></g><g id="use123991" transform="matrix(-0,1,-1,-0,146.029343,136.104673)"><ellipse cx="32.078" cy="11.959" rx="2.411" ry="2.201" style="fill:white;" /></g><g id="rect12401" transform="matrix(-0,1,-1,-0,154.143222,1.921143)"><rect height="36.621" style="fill:rgb(63,58,62);stroke:rgb(67,61,66);stroke-width:0.92px;" width="36.621" x="65.455" y="37.908" /></g><g id="rect12401-6" transform="matrix(-0,1,-1,-0,154.143222,1.921143)"><rect height="10.229" style="fill:rgb(63,58,62);stroke:rgb(67,61,66);stroke-width:0.32px;" width="15.67" x="128.247" y="49.43" /></g><g id="rect12418" transform="matrix(-0,1,-1,-0,154.143222,1.921143)"><rect height="47.503" style="fill:rgb(198,184,177);stroke:rgb(199,185,178);stroke-width:0.92px;" width="3.976" x="190.595" y="25.143" /></g><g id="rect12418-1" transform="matrix(-0,1,-1,-0,154.143222,1.921143)"><rect height="40.847" style="fill:rgb(198,184,177);stroke:rgb(199,185,178);stroke-width:0.86px;" width="4.015" x="194.761" y="28.366" /></g><g id="rect12418-1-5" transform="matrix(-0,1,-1,-0,154.143222,1.921143)"><rect height="3.134" style="fill:rgb(198,184,177);stroke:rgb(199,185,178);stroke-width:0.17px;" width="2.086" x="195.633" y="25.724" /></g><g id="rect12418-1-5-0" transform="matrix(-0,1,-1,-0,154.143222,1.921143)"><rect height="3.134" style="fill:rgb(198,184,177);stroke:rgb(199,185,178);stroke-width:0.17px;" width="2.086" x="195.853" y="69.214" /></g><g id="rect12465" transform="matrix(-0,1,-1,-0,154.143222,1.921143)"><rect height="51.06" style="fill:rgb(55,53,62);stroke:rgb(58,57,65);stroke-width:0.92px;" width="5.022" x="199.698" y="22.527" /></g><g id="rect12465-4" transform="matrix(-0,1,-1,-0,154.143222,1.921143)"><rect height="2.68" style="fill:rgb(55,53,62);stroke:rgb(58,57,65);stroke-width:0.1px;" width="1.163" x="198.06" y="69.703" /></g><g id="rect12465-4-6" transform="matrix(-0,1,-1,-0,154.143222,1.921143)"><rect height="2.195" style="fill:rgb(55,53,62);stroke:rgb(58,57,65);stroke-width:0.11px;" width="1.718" x="197.811" y="25.687" /></g><g id="rect12497" transform="matrix(-0,1,-1,-0,154.143222,1.921143)"><rect height="23.182" style="fill:rgb(193,182,177);" width="32.706" x="27.555" y="72.991" /></g><g id="rect12497-0" transform="matrix(-0,1,-1,-0,154.143222,1.921143)"><rect height="18.859" style="fill:rgb(193,182,177);" width="22.761" x="119.518" y="78.97" /></g><g id="rect12497-0-8" transform="matrix(-0,1,-1,-0,154.143222,1.921143)"><rect height="18.859" style="fill:rgb(193,182,177);" width="22.761" x="156.881" y="78.6" /></g></g></g><circle cx="270.0" cy="127.0" fill="#FFA500" opacity="0.95" r="7.5" stroke="#333" stroke-width="0.5" /><text fill="#000000" font-family="Arial, sans-serif" font-size="6px" font-weight="bold" text-anchor="middle" x="270.0" y="128.5">1</text><circle cx="293.0" cy="127.0" fill="#FF0000" opacity="0.95" r="7.5" stroke="#333" stroke-width="0.5" /><text fill="#000000" font-family="Arial, sans-serif" font-size="6px" font-weight="bold" text-anchor="middle" x="293.0" y="128.5">2</text><circle cx="270.0" cy="148.13" fill="#FF00FF" opacity="0.95" r="7.5" stroke="#333" stroke-width="0.5" /><text fill="#000000" font-family="Arial, sans-serif" font-size="6px" font-weight="bold" text-anchor="middle" x="270.0" y="149.63">3</text><circle cx="293.0" cy="148.13" fill="#FF0000" opacity="0.95" r="7.5" stroke="#333" stroke-width="0.5" /><text fill="#000000" font-family="Arial, sans-serif" font-size="6px" font-weight="bold" text-anchor="middle" x="293.0" y="149.63">4</text><circle cx="270.0" cy="169.26" fill="#FF00FF" opacity="0.95" r="7.5" stroke="#333" stroke-width="0.5" /><text fill="#000000" font-family="Arial, sans-serif" font-size="6px" font-weight="bold" text-anchor="middle" x="270.0" y="170.76">5</text><circle cx="293.0" cy="169.26" fill="#D3D3D3" opacity="0.95" r="7.5" stroke="#333" stroke-width="0.5" /><text fill="#000000" font-family="Arial, sans-serif" font-size="6px" font-weight="bold" text-anchor="middle" x="293.0" y="170.76">6</text><circle cx="270.0" cy="190.39" fill="#00FF00" opacity="0.95" r="7.5" stroke="#333" stroke-width="0.5" /><text fill="#000000" font-family="Arial, sans-serif" font-size="6px" font-weight="bold" text-anchor="middle" x="270.0" y="191.89">7</text><circle cx="293.0" cy="190.39" fill="#0000FF" opacity="0.95" r="7.5" stroke="#333" stroke-width="0.5" /><text fill="#FFFFFF" font-family="Arial, sans-serif" font-size="6px" font-weight="bold" text-anchor="middle" x="293.0" y="191.89">8</text><circle cx="270.0" cy="211.51999999999998" fill="#D3D3D3" opacity="0.95" r="7.5" stroke="#333" stroke-width="0.5" /><text fill="#000000" font-family="Arial, sans-serif" font-size="6px" font-weight="bold" text-anchor="middle" x="270.0" y="213.01999999999998">9</text><circle cx="293.0" cy="211.51999999999998" fill="#0000FF" opacity="0.95" r="7.5" stroke="#333" stroke-width="0.5" /><text fill="#FFFFFF" font-family="Arial, sans-serif" font-size="6px" font-weight="bold" text-anchor="middle" x="293.0" y="213.01999999999998">10</text><circle cx="270.0" cy="232.64999999999998" fill="#00FF00" opacity="0.95" r="7.5" stroke="#333" stroke-width="0.5" /><text fill="#000000" font-family="Arial, sans-serif" font-size="6px" font-weight="bold" text-anchor="middle" x="270.0" y="234.14999999999998">11</text><circle cx="293.0" cy="232.64999999999998" fill="#00FF00" opacity="0.95" r="7.5" stroke="#333" stroke-width="0.5" /><text fill="#000000" font-family="Arial, sans-serif" font-size="6px" font-weight="bold" text-anchor="middle" x="293.0" y="234.14999999999998">12</text><circle cx="270.0" cy="253.78" fill="#00FF00" opacity="0.95" r="7.5" stroke="#333" stroke-width="0.5" /><text fill="#000000" font-family="Arial, sans-serif" font-size="6px" font-weight="bold" text-anchor="middle" x="270.0" y="255.28">13</text><circle cx="293.0" cy="253.78" fill="#D3D3D3" opacity="0.95" r="7.5" stroke="#333" stroke-width="0.5" /><text fill="#000000" font-family="Arial, sans-serif" font-size="6px" font-weight="bold" text-anchor="middle" x="293.0" y="255.28">14</text><circle cx="270.0" cy="274.90999999999997" fill="#00FF00" opacity="0.95" r="7.5" stroke="#333" stroke-width="0.5" /><text fill="#000000" font-family="Arial, sans-serif" font-size="6px" font-weight="bold" text-anchor="middle" x="270.0" y="276.40999999999997">15</text><circle cx="293.0" cy="274.90999999999997" fill="#00FF00" opacity="0.95" r="7.5" stroke="#333" stroke-width="0.5" /><text fill="#000000" font-family="Arial, sans-serif" font-size="6px" font-weight="bold" text-anchor="middle" x="293.0" y="276.40999999999997">16</text><circle cx="270.0" cy="296.03999999999996" fill="#FFA500" opacity="0.95" r="7.5" stroke="#333" stroke-width="0.5" /><text fill="#000000" font-family="Arial, sans-serif" font-size="6px" font-weight="bold" text-anchor="middle" x="270.0" y="297.53999999999996">17</text><circle cx="293.0" cy="296.03999999999996" fill="#00FF00" opacity="0.95" r="7.5" stroke="#333" stroke-width="0.5" /><text fill="#000000" font-family="Arial, sans-serif" font-size="6px" font-weight="bold" text-anchor="middle" x="293.0" y="297.53999999999996">18</text><circle cx="270.0" cy="317.16999999999996" fill="#0000FF" opacity="0.95" r="7.5" stroke="#333" stroke-width="0.5" /><text fill="#FFFFFF" font-family="Arial, sans-serif" font-size="6px" font-weight="bold" text-anchor="middle" x="270.0" y="318.66999999999996">19</text><circle cx="293.0" cy="317.16999999999996" fill="#D3D3D3" opacity="0.95" r="7.5" stroke="#333" stroke-width="0.5" /><text fill="#000000" font-family="Arial, sans-serif" font-size="6px" font-weight="bold" text-anchor="middle" x="293.0" y="318.66999999999996">20</text><circle cx="270.0" cy="338.29999999999995" fill="#0000FF" opacity="0.95" r="7.5" stroke="#333" stroke-width="0.5" /><text fill="#FFFFFF" font-family="Arial, sans-serif" font-size="6px" font-weight="bold" text-anchor="middle" x="270.0" y="339.79999999999995">21</text><circle cx="293.0" cy="338.29999999999995" fill="#00FF00" opacity="0.95" r="7.5" stroke="#333" stroke-width="0.5" /><text fill="#000000" font-family="Arial, sans-serif" font-size="6px" font-weight="bold" text-anchor="middle" x="293.0" y="339.79999999999995">22</text><circle cx="270.0" cy="359.42999999999995" fill="#0000FF" opacity="0.95" r="7.5" stroke="#333" stroke-width="0.5" /><text fill="#FFFFFF" font-family="Arial, sans-serif" font-size="6px" font-weight="bold" text-anchor="middle" x="270.0" y="360.92999999999995">23</text><circle cx="293.0" cy="359.42999999999995" fill="#0000FF" opacity="0.95" r="7.5" stroke="#333" stroke-width="0.5" /><text fill="#FFFFFF" font-family="Arial, sans-serif" font-size="6px" font-weight="bold" text-anchor="middle" x="293.0" y="360.92999999999995">24</text><circle cx="270.0" cy="380.56" fill="#D3D3D3" opacity="0.95" r="7.5" stroke="#333" stroke-width="0.5" /><text fill="#000000" font-family="Arial, sans-serif" font-size="6px" font-weight="bold" text-anchor="middle" x="270.0" y="382.06">25</text><circle cx="293.0" cy="380.56" fill="#0000FF" opacity="0.95" r="7.5" stroke="#333" stroke-width="0.5" /><text fill="#FFFFFF" font-family="Arial, sans-serif" font-size="6px" font-weight="bold" text-anchor="middle" x="293.0" y="382.06">26</text><circle cx="270.0" cy="401.69" fill="#FFFF00" opacity="0.95" r="7.5" stroke="#333" stroke-width="0.5" /><text fill="#000000" font-family="Arial, sans-serif" font-size="6px" font-weight="bold" text-anchor="middle" x="270.0" y="403.19">27</text><circle cx="293.0" cy="401.69" fill="#FFFF00" opacity="0.95" r="7.5" stroke="#333" stroke-width="0.5" /><text fill="#000000" font-family="Arial, sans-serif" font-size="6px" font-weight="bold" text-anchor="middle" x="293.0" y="403.19">28</text><circle cx="270.0" cy="422.82" fill="#00FF00" opacity="0.95" r="7.5" stroke="#333" stroke-width="0.5" /><text fill="#000000" font-family="Arial, sans-serif" font-size="6px" font-weight="bold" text-anchor="middle" x="270.0" y="424.32">29</text><circle cx="293.0" cy="422.82" fill="#D3D3D3" opacity="0.95" r="7.5" stroke="#333" stroke-width="0.5" /><text fill="#000000" font-family="Arial, sans-serif" font-size="6px" font-weight="bold" text-anchor="middle" x="293.0" y="424.32">30</text><circle cx="270.0" cy="443.95" fill="#00FF00" opacity="0.95" r="7.5" stroke="#333" stroke-width="0.5" /><text fill="#000000" font-family="Arial, sans-serif" font-size="6px" font-weight="bold" text-anchor="middle" x="270.0" y="445.45">31</text><circle cx="293.0" cy="443.95" fill="#00FF00" opacity="0.95" r="7.5" stroke="#333" stroke-width="0.5" /><text fill="#000000" font-family="Arial, sans-serif" font-size="6px" font-weight="bold" text-anchor="middle" x="293.0" y="445.45">32</text><circle cx="270.0" cy="465.08" fill="#00FF00" opacity="0.95" r="7.5" stroke="#333" stroke-width="0.5" /><text fill="#000000" font-family="Arial, sans-serif" font-size="6px" font-weight="bold" text-anchor="middle" x="270.0" y="466.58">33</text><circle cx="293.0" cy="465.08" fill="#D3D3D3" opacity="0.95" r="7.5" stroke="#333" stroke-width="0.5" /><text fill="#000000" font-family="Arial, sans-serif" font-size="6px" font-weight="bold" text-anchor="middle" x="293.0" y="466.58">34</text><circle cx="270.0" cy="486.21" fill="#00FF00" opacity="0.95" r="7.5" stroke="#333" stroke-width="0.5" /><text fill="#000000" font-family="Arial, sans-serif" font-size="6px" font-weight="bold" text-anchor="middle" x="270.0" y="487.71">35</text><circle cx="293.0" cy="486.21" fill="#00FF00" opacity="0.95" r="7.5" stroke="#333" stroke-width="0.5" /><text fill="#000000" font-family="Arial, sans-serif" font-size="6px" font-weight="bold" text-anchor="middle" x="293.0" y="487.71">36</text><circle cx="270.0" cy="507.34" fill="#00FF00" opacity="0.95" r="7.5" stroke="#333" stroke-width="0.5" /><text fill="#000000" font-family="Arial, sans-serif" font-size="6px" font-weight="bold" text-anchor="middle" x="270.0" y="508.84">37</text><circle cx="293.0" cy="507.34" fill="#00FF00" opacity="0.95" r="7.5" stroke="#333" stroke-width="0.5" /><text fill="#000000" font-family="Arial, sans-serif" font-size="6px" font-weight="bold" text-anchor="middle" x="293.0" y="508.84">38</text><circle cx="270.0" cy="528.47" fill="#D3D3D3" opacity="0.95" r="7.5" stroke="#333" stroke-width="0.5" /><text fill="#000000" font-family="Arial, sans-serif" font-size="6px" font-weight="bold" text-anchor="middle" x="270.0" y="529.97">39</text><circle cx="293.0" cy="528.47" fill="#00FF00" opacity="0.95" r="7.5" stroke="#333" stroke-width="0.5" /><text fill="#000000" font-family="Arial, sans-serif" font-size="6px" font-weight="bold" text-anchor="middle" x="293.0" y="529.97">40</text><text fill="#333" font-family="Arial, sans-serif" font-size="14px" font-weight="bold" text-anchor="middle" x="272.8" y="991.2">Raspberry Pi Zero 2 W</text><path d="M 270.00,127.00 L 305.00,127.00 Q 310.00,127.00 310.00,122.00 L 310.00,75.00 Q 310.00,70.00 315.00,70.00 L 455.00,70.00" fill="none" opacity="1.0" stroke="white" stroke-linecap="round" stroke-linejoin="round" stroke-width="7" /><path d="M 270.00,127.00 L 305.00,127.00 Q 310.00,127.00 310.00,122.00 L 310.00,75.00 Q 310.00,70.00 315.00,70.00 L 455.00,70.00" fill="none" opacity="0.8" stroke="#FF8C00" stroke-linecap="round" stroke-linejoin="round" stroke-width="3" /><circle cx="270.0" cy="127.0" fill="white" r="4" /><circle cx="270.0" cy="127.0" fill="#FF8C00" r="3" /><circle cx="455.0" cy="70.0" fill="white" r="4" /><circle cx="455.0" cy="70.0" fill="#FF8C00" r="3" /><path d="M 270.00,148.13 L 305.00,148.13 Q 310.00,148.13 310.00,143.13 L 310.00,99.00 Q 310.00,94.00 315.00,94.00 L 455.00,94.00" fill="none" opacity="1.0" stroke="white" stroke-linecap="round" stroke-linejoin="round" stroke-width="7" /><path d="M 270.00,148.13 L 305.00,148.13 Q 310.00,148.13 310.00,143.13 L 310.00,99.00 Q 310.00,94.00 315.00,94.00 L 455.00,94.00" fill="none" opacity="0.8" stroke="#00FF00" stroke-linecap="round" stroke-linejoin="round" stroke-width="3" /><circle cx="270.0" cy="148.13" fill="white" r="4" /><circle cx="270.0" cy="148.13" fill="#00FF00" r="3" /><circle cx="455.0" cy="94.0" fill="white" r="4" /><circle cx="455.0" cy="94.0" fill="#00FF00" r="3" /><path d="M 270.00,169.26 L 305.00,169.26 Q 310.00,169.26 310.00,164.26 L 310.00,91.00 Q 310.00,86.00 315.00,86.00 L 455.00,86.00" fill="none" opacity="1.0" stroke="white" stroke-linecap="round" stroke-linejoin="round" stroke-width="7" /><path d="M 270.00,169.26 L 305.00,169.26 Q 310.00,169.26 310.00,164.26 L 310.00,91.00 Q 310.00,86.00 315.00,86.00 L 455.00,86.00" fill="none" opacity="0.8" stroke="#0000FF" stroke-linecap="round" stroke-linejoin="round" stroke-width="3" /><circle cx="270.0" cy="169.26" fill="white" r="4" /><circle cx="270.0" cy="169.26" fill="#0000FF" r="3" /><circle cx="455.0" cy="86.0" fill="white" r="4" /><circle cx="455.0" cy="86.0" fill="#0000FF" r="3" /><path d="M 293.00,169.26 L 328.00,169.26 Q 333.00,169.26 333.00,164.26 L 333.00,83.00 Q 333.00,78.00 338.00,78.00 L 455.00,78.00" fill="none" opacity="1.0" stroke="white" stroke-linecap="round" stroke-linejoin="round" stroke-width="7" /><path d="M 293.00,169.26 L 328.00,169.26 Q 333.00,169.26 333.00,164.26 L 333.00,83.00 Q 333.00,78.00 338.00,78.00 L 455.00,78.00" fill="none" opacity="0.8" stroke="#000000" stroke-linecap="round" stroke-linejoin="round" stroke-width="3" /><circle cx="293.0" cy="169.26" fill="white" r="4" /><circle cx="293.0" cy="169.26" fill="#000000" r="3" /><circle cx="455.0" cy="78.0" fill="white" r="4" /><circle cx="455.0" cy="78.0" fill="#000000" r="3" /><path d="M 270.00,190.39 L 305.00,190.39 Q 310.00,190.39 310.00,185.39 L 310.00,107.00 Q 310.00,102.00 315.00,102.00 L 455.00,102.00" fill="none" opacity="1.0" stroke="white" stroke-linecap="round" stroke-linejoin="round" stroke-width="7" /><path d="M 270.00,190.39 L 305.00,190.39 Q 310.00,190.39 310.00,185.39 L 310.00,107.00 Q 310.00,102.00 315.00,102.00 L 455.00,102.00" fill="none" opacity="0.8" stroke="#808080" stroke-linecap="round" stroke-linejoin="round" stroke-width="3" /><circle cx="270.0" cy="190.39" fill="white" r="4" /><circle cx="270.0" cy="190.39" fill="#808080" r="3" /><circle cx="455.0" cy="102.0" fill="white" r="4" /><circle cx="455.0" cy="102.0" fill="#808080" r="3" /><text fill="#333" font-family="Arial, sans-serif" font-size="12px" font-weight="bold" text-anchor="middle" x="485.0" y="55.0">BH1750</text><rect fill="#4A90E2" height="60.0" opacity="0.9" rx="5" ry="5" stroke="#333" stroke-width="2" width="70.0" x="450.0" y="60.0" /><circle cx="455.0" cy="70.0" fill="#FFD700" r="3" stroke="#333" /><rect fill="#000000" height="10" opacity="0.8" rx="2" ry="2" width="20.6" x="461.0" y="65.0" /><text fill="#FFFFFF" font-family="Arial, sans-serif" font-size="7px" text-anchor="start" x="465.0" y="72.5">VCC</text><circle cx="455.0" cy="78.0" fill="#FFD700" r="3" stroke="#333" /><rect fill="#000000" height="10" opacity="0.8" rx="2" ry="2" width="20.6" x="461.0" y="73.0" /><text fill="#FFFFFF" font-family="Arial, sans-serif" font-size="7px" text-anchor="start" x="465.0" y="80.5">GND</text><circle cx="455.0" cy="86.0" fill="#FFD700" r="3" stroke="#333" /><rect fill="#000000" height="10" opacity="0.8" rx="2" ry="2" width="20.6" x="461.0" y="81.0" /><text fill="#FFFFFF" font-family="Arial, sans-serif" font-size="7px" text-anchor="start" x="465.0" y="88.5">SCL</text><circle cx="455.0" cy="94.0" fill="#FFD700" r="3" stroke="#333" /><rect fill="#000000" height="10" opacity="0.8" rx="2" ry="2" width="20.6" x="461.0" y="89.0" /><text fill="#FFFFFF" font-family="Arial, sans-serif" font-size="7px" text-anchor="start" x="465.0" y="96.5">SDA</text><circle cx="455.0" cy="102.0" fill="#FFD700" r="3" stroke="#333" /><rect fill="#000000" height="10" opacity="0.8" rx="2" ry="2" width="24.8" x="461.0" y="97.0" /><text fill="#FFFFFF" font-family="Arial, sans-serif" font-size="7px" text-anchor="start" x="465.0" y="104.5">ADDR</text></svg>