<?xml version="1.0" encoding="UTF-8"?>
<svg xmlns="http://www.w3.org/2000/svg" xmlns:xlink="http://www.w3.org/1999/xlink"
     width="550.0" height="427.46" viewBox="0 0 550.0 427.46">
<defs>
</defs>
<rect x="0" y="0" width="550.0" height="427.46" fill="white" />
<text x="275.0" y="25" font-size="20" text-anchor="middle" font-family="Arial, sans-serif" font-weight="bold" fill="#333">Raspberry Pi 4 - Button &amp; LED (GPIO Input/Output)</text>
<g transform="translate(40.0, 80.0)">
<g id="pi4">
<g id="g328">
<path d="M8.898,10.898c0,-6.658 4.521,-9.988 9.289,-9.988l174.974,0c12.577,0 12.577,9 12.577,18.29l0,272.099c0,8.549 -4.481,9.125 -10.85,8.838l-172.18,0c-9.576,0 -13.81,-0.576 -13.81,-9.002l-0,-280.238Z" id="path324" style="fill:#00723d;" />
<path d="M205.738,300.261l-196.883,0l-0,-299.351l196.883,0l0,299.351Z" id="rect326" style="fill:none;" />
</g>
<path d="M18.186,0.91l174.974,0c12.577,0 12.577,9 12.577,18.29l0,272.099c0,8.549 -4.481,9.125 -10.85,8.838l-172.18,0c-9.576,0 -13.81,-0.576 -13.81,-9.002l-0,-280.238c0,-6.658 4.521,-9.988 9.289,-9.988Z" id="Drawing_6_0" style="fill:none;stroke:#000;stroke-width:0.62px;" />
<g id="DrawingGroup_1">
<g id="g337">
<path d="M19.728,305.663l0,-58.283l46.405,0l0,58.283l-46.405,0Z" id="path333" style="fill:#cfcfcf;" />
<path d="M66.133,305.705l-46.445,0l0,-58.325l46.445,0l0,58.325Z" id="rect335" style="fill:none;" />
</g>
<path d="M19.728,305.663l0,-58.283l46.405,0l0,58.283l-46.405,0Z" id="Drawing_8_0" style="fill:none;stroke:#000;stroke-width:0.94px;" />
</g>
<g id="DrawingGroup_2">
<g id="g356">
<path d="M6.308,24.255l20.88,0l0,25.936l-20.88,0l0,-25.936Z" id="path352" style="fill:#cfcfcf;" />
<path d="M27.188,50.232l-20.921,0l0,-25.977l20.921,0l0,25.977Z" id="rect354" style="fill:none;" />
</g>
<path d="M6.308,24.255l20.88,0l0,25.936l-20.88,0l0,-25.936Z" id="Drawing_11_0" style="fill:none;stroke:#000;stroke-width:0.87px;" />
</g>
<g id="DrawingGroup_3">
<g id="g393">
<path d="M95.418,71.401l47.473,0l3.248,3.616l0,47.35l-50.721,0l0,-50.966Z" id="path389" style="fill:#8c8c8c;" />
<path d="M146.18,122.45l-50.803,0l0,-51.049l50.803,0l0,51.049Z" id="rect391" style="fill:none;" />
</g>
<path d="M95.418,71.401l47.473,0l3.248,3.616l0,47.35l-50.721,0l0,-50.966Z" id="Drawing_16_0" style="fill:none;stroke:#000;stroke-width:0.87px;" />
</g>
<g id="DrawingGroup_4">
<g id="g439">
<path d="M10.09,163.553l0,-9.413l79,0l0,9.413l-79,0Z" id="path435" style="fill:#565656;" />
<path d="M89.089,163.594l-79.04,0l0,-9.454l79.04,0l0,9.454Z" id="rect437" style="fill:none;" />
</g>
<path d="M10.09,163.553l0,-9.413l79,0l0,9.413l-79,0Z" id="Drawing_22_0" style="fill:none;stroke:#000;stroke-width:0.87px;" />
<path d="M19.214,157.758l0,-3.618l61.037,0l0,3.618l-61.037,0Z" id="Drawing_23_0" style="fill:none;stroke:#000;stroke-width:0.87px;" />
</g>
<g id="DrawingGroup_5">
<g id="g506">
<path d="M127.067,192.936l23.444,0l1.075,0.941l0,23.343l-24.518,0l0,-24.284Z" id="path502" style="fill:#8c8c8c;" />
<path d="M151.585,217.253l-24.552,0l0,-24.317l24.552,0l0,24.317Z" id="rect504" style="fill:none;" />
</g>
<path d="M127.067,192.936l23.444,0l1.075,0.941l0,23.343l-24.518,0l0,-24.284Z" id="Drawing_34_0" style="fill:none;stroke:#000;stroke-width:0.71px;" />
</g>
<g id="DrawingGroup_51">
<g id="g5061">
<path d="M111.117,228.128l23.444,-0l1.075,0.589l0,14.615l-24.518,0l0,-15.204Z" id="path5021" style="fill:#8c8c8c;" />
<path d="M135.635,243.354l-24.552,0l0,-15.225l24.552,-0l0,15.225Z" id="rect5041" style="fill:none;" />
</g>
<path d="M111.117,228.128l23.444,-0l1.075,0.589l0,14.615l-24.518,0l0,-15.204Z" id="Drawing_34_01" style="fill:none;stroke:#000;stroke-width:0.59px;" />
</g>
<g id="DrawingGroup_52">
<g id="g5062">
<path d="M69.478,192.603l28.69,0l1.315,1.151l0,28.567l-30.005,0l0,-29.718Z" id="path5022" style="fill:#8c8c8c;" />
<path d="M99.483,222.362l-30.046,0l0,-29.759l30.046,0l0,29.759Z" id="rect5042" style="fill:none;" />
</g>
<path d="M69.478,192.603l28.69,0l1.315,1.151l0,28.567l-30.005,0l0,-29.718Z" id="Drawing_34_02" style="fill:none;stroke:#000;stroke-width:0.87px;" />
</g>
<g id="DrawingGroup_7">
<g id="g982">
<path d="M79.507,305.663l0,-58.119l46.076,0l0,58.119l-46.076,0Z" id="path978" style="fill:#4869de;" />
<path d="M125.583,305.704l-46.158,0l0,-58.16l46.158,0l0,58.16Z" id="rect980" style="fill:#4869de;" />
</g>
<path d="M79.507,305.663l0,-58.119l46.076,0l0,58.119l-46.076,0Z" id="Drawing_154_0" style="fill:none;stroke:#000;stroke-width:0.94px;" />
</g>
<g id="DrawingGroup_8">
<g id="g1001">
<path d="M139.366,305.675l0,-51.708l55.818,0l0,51.708l-55.818,0Z" id="path997" style="fill:#cfcfcf;" />
<path d="M195.184,305.704l-55.859,0l0,-51.766l55.859,0l0,51.766Z" id="rect999" style="fill:none;" />
</g>
<path d="M139.366,305.675l0,-51.708l55.818,0l0,51.708l-55.818,0Z" id="Drawing_157_0" style="fill:none;stroke:#000;stroke-width:0.81px;" />
</g>
<g id="DrawingGroup_11">
<g id="g1872">
<path d="M5.291,93.985l0,-21.589l28.811,0l0,21.589l-28.811,0Z" id="path1868" style="fill:#cfcfcf;" />
<path d="M34.102,94.002l-28.87,0l0,-21.606l28.87,0l0,21.606Z" id="rect1870" style="fill:none;" />
</g>
<path d="M5.291,93.985l0,-21.589l28.811,0l0,21.589l-28.811,0Z" id="Drawing_379_0" style="fill:none;stroke:#000;stroke-width:0.89px;" />
<g id="Drawing_380">
<path d="M22.771,89.608l-5.791,0l0,-13.623l5.791,0l0,13.623Z" id="rect1877" style="fill:none;" />
</g>
</g>
<g id="DrawingGroup_111">
<g id="g18721">
<path d="M5.292,141.835l0,-21.733l28.941,0l0,21.733l-28.941,0Z" id="path18681" style="fill:#cfcfcf;" />
<path d="M34.232,141.852l-29,0l0,-21.75l29,0l0,21.75Z" id="rect18701" style="fill:none;" />
</g>
<path d="M5.292,141.835l0,-21.733l28.941,0l0,21.733l-28.941,0Z" id="Drawing_379_01" style="fill:none;stroke:#000;stroke-width:0.9px;" />
<g id="Drawing_3801">
<path d="M22.85,137.429l-5.818,0l0,-13.713l5.818,0l0,13.713Z" id="rect18771" style="fill:none;" />
</g>
</g>
<g id="DrawingGroup_12">
<g id="g1891">
<path d="M12.074,174.468l0,20.181l-9.988,0l0,-20.181l9.988,0Z" id="path1887" style="fill:#868686;" />
<path d="M12.074,194.69l-10.03,0l0,-20.264l10.03,0l0,20.264Z" id="rect1889" style="fill:none;" />
</g>
<path d="M12.074,174.468l0,20.181l-9.988,0l0,-20.181l9.988,0Z" id="Drawing_382_0" style="fill:none;stroke:#000;stroke-width:0.41px;" />
<g id="g1900">
<path d="M54.533,173.194l0,23.757l-43.487,0l0,-23.757l43.487,0Z" id="path1896" style="fill:#cfcfcf;" />
<path d="M54.533,196.993l-43.528,0l0,-23.799l43.528,0l0,23.799Z" id="rect1898" style="fill:none;" />
</g>
<path d="M54.533,173.194l0,23.757l-43.487,0l0,-23.757l43.487,0Z" id="Drawing_384_0" style="fill:none;stroke:#000;stroke-width:0.78px;" />
</g>
<g id="DrawingGroup_13">
<g id="g2096">
<path d="M180.586,227.977l-7.974,0l0,-18.537l7.974,0l0,18.537Z" id="path2092" style="fill:#3b3b3b;" />
<path d="M180.586,228.019l-8.016,0l0,-18.579l8.016,0l0,18.579Z" id="rect2094" style="fill:none;" />
</g>
<path d="M180.586,227.977l-7.974,0l0,-18.537l7.974,0l0,18.537Z" id="Drawing_416_0" style="fill:none;stroke:#000;stroke-width:0.25px;" />
<g id="g2105">
<path d="M178.244,221.606l0,3.329l-3.329,0l0,-3.329l3.329,0Z" id="path2101" style="fill:#ff9;" />
<path d="M178.244,224.976l-3.37,0l0,-3.37l3.37,0l0,3.37Z" id="rect2103" style="fill:none;" />
</g>
<path d="M178.244,221.606l0,3.329l-3.329,0l0,-3.329l3.329,0Z" id="Drawing_418_0" style="fill:none;stroke:#373435;stroke-width:0.13px;" />
<g id="g2114">
<path d="M177.503,222.347l0,1.849l-1.849,0l0,-1.849l1.849,0Z" id="path2110" style="fill:#ff9;" />
<path d="M177.503,224.237l-1.891,0l0,-1.891l1.891,0l0,1.891Z" id="rect2112" style="fill:none;" />
</g>
<path d="M177.503,222.347l0,1.849l-1.849,0l0,-1.849l1.849,0Z" id="Drawing_420_0" style="fill:none;stroke:#373435;stroke-width:0.13px;" />
<path d="M175.655,222.47l-0.74,-0.864" id="Drawing_421_0" style="fill:none;stroke:#373435;stroke-width:0.09px;" />
<path d="M175.655,224.195l-0.74,0.74" id="Drawing_422_0" style="fill:none;stroke:#373435;stroke-width:0.09px;" />
<path d="M177.503,224.195l0.741,0.74" id="Drawing_423_0" style="fill:none;stroke:#373435;stroke-width:0.09px;" />
<path d="M177.503,222.47l0.741,-0.864" id="Drawing_424_0" style="fill:none;stroke:#373435;stroke-width:0.09px;" />
<g id="g2135">
<path d="M178.244,212.605l0,3.329l-3.329,0l0,-3.329l3.329,0Z" id="path2131" style="fill:#ff9;" />
<path d="M178.244,215.975l-3.37,0l0,-3.37l3.37,0l0,3.37Z" id="rect2133" style="fill:none;" />
</g>
<path d="M178.244,212.605l0,3.329l-3.329,0l0,-3.329l3.329,0Z" id="Drawing_426_0" style="fill:none;stroke:#373435;stroke-width:0.13px;" />
<g id="g2144">
<path d="M177.503,213.468l0,1.768l-1.849,0l0,-1.768l1.849,0Z" id="path2140" style="fill:#ff9;" />
<path d="M177.503,215.276l-1.891,0l0,-1.85l1.891,0l0,1.85Z" id="rect2142" style="fill:none;" />
</g>
<path d="M177.503,213.468l0,1.768l-1.849,0l0,-1.768l1.849,0Z" id="Drawing_428_0" style="fill:none;stroke:#373435;stroke-width:0.13px;" />
<path d="M175.655,213.468l-0.74,-0.863" id="Drawing_429_0" style="fill:none;stroke:#373435;stroke-width:0.09px;" />
<path d="M175.655,215.236l-0.74,0.699" id="Drawing_430_0" style="fill:none;stroke:#373435;stroke-width:0.09px;" />
<path d="M177.503,215.236l0.741,0.699" id="Drawing_431_0" style="fill:none;stroke:#373435;stroke-width:0.09px;" />
<path d="M177.503,213.468l0.741,-0.863" id="Drawing_432_0" style="fill:none;stroke:#373435;stroke-width:0.09px;" />
</g>
<g id="DrawingGroup_131">
<g id="g20961">
<path d="M171.981,227.993l-7.974,0l0,-18.537l7.974,0l0,18.537Z" id="path20921" style="fill:#3b3b3b;" />
<path d="M171.981,228.035l-8.016,0l0,-18.579l8.016,0l0,18.579Z" id="rect20941" style="fill:none;" />
</g>
<path d="M171.981,227.993l-7.974,0l0,-18.537l7.974,0l0,18.537Z" id="Drawing_416_01" style="fill:none;stroke:#000;stroke-width:0.25px;" />
<g id="g21051">
<path d="M169.639,221.621l0,3.329l-3.329,0l0,-3.329l3.329,0Z" id="path21011" style="fill:#ff9;" />
<path d="M169.639,224.991l-3.37,0l0,-3.37l3.37,0l0,3.37Z" id="rect21031" style="fill:none;" />
</g>
<path d="M169.639,221.621l0,3.329l-3.329,0l0,-3.329l3.329,0Z" id="Drawing_418_01" style="fill:none;stroke:#373435;stroke-width:0.13px;" />
<g id="g21141">
<path d="M168.898,222.362l0,1.849l-1.849,0l0,-1.849l1.849,0Z" id="path21101" style="fill:#ff9;" />
<path d="M168.898,224.253l-1.891,0l0,-1.891l1.891,0l0,1.891Z" id="rect21121" style="fill:none;" />
</g>
<path d="M168.898,222.362l0,1.849l-1.849,0l0,-1.849l1.849,0Z" id="Drawing_420_01" style="fill:none;stroke:#373435;stroke-width:0.13px;" />
<path d="M167.05,222.486l-0.74,-0.864" id="Drawing_421_01" style="fill:none;stroke:#373435;stroke-width:0.09px;" />
<path d="M167.05,224.211l-0.74,0.74" id="Drawing_422_01" style="fill:none;stroke:#373435;stroke-width:0.09px;" />
<path d="M168.898,224.211l0.741,0.74" id="Drawing_423_01" style="fill:none;stroke:#373435;stroke-width:0.09px;" />
<path d="M168.898,222.486l0.741,-0.864" id="Drawing_424_01" style="fill:none;stroke:#373435;stroke-width:0.09px;" />
<g id="g21351">
<path d="M169.639,212.621l0,3.329l-3.329,0l0,-3.329l3.329,0Z" id="path21311" style="fill:#ff9;" />
<path d="M169.639,215.991l-3.37,0l0,-3.37l3.37,0l0,3.37Z" id="rect21331" style="fill:none;" />
</g>
<path d="M169.639,212.621l0,3.329l-3.329,0l0,-3.329l3.329,0Z" id="Drawing_426_01" style="fill:none;stroke:#373435;stroke-width:0.13px;" />
<g id="g21441">
<path d="M168.898,213.484l0,1.768l-1.849,0l0,-1.768l1.849,0Z" id="path21401" style="fill:#ff9;" />
<path d="M168.898,215.292l-1.891,0l0,-1.85l1.891,0l0,1.85Z" id="rect21421" style="fill:none;" />
</g>
<path d="M168.898,213.484l0,1.768l-1.849,0l0,-1.768l1.849,0Z" id="Drawing_428_01" style="fill:none;stroke:#373435;stroke-width:0.13px;" />
<path d="M167.05,213.484l-0.74,-0.863" id="Drawing_429_01" style="fill:none;stroke:#373435;stroke-width:0.09px;" />
<path d="M167.05,215.252l-0.74,0.699" id="Drawing_430_01" style="fill:none;stroke:#373435;stroke-width:0.09px;" />
<path d="M168.898,215.252l0.741,0.699" id="Drawing_431_01" style="fill:none;stroke:#373435;stroke-width:0.09px;" />
<path d="M168.898,213.484l0.741,-0.863" id="Drawing_432_01" style="fill:none;stroke:#373435;stroke-width:0.09px;" />
</g>
<g id="DrawingGroup_14">
<g id="g2184">
<path d="M67.88,20.063l0,-10.604l79.287,0l0,10.604l-79.287,0Z" id="path2180" style="fill:#565656;" />
<path d="M147.166,20.105l-79.329,0l0,-10.646l79.329,0l0,10.646Z" id="rect2182" style="fill:none;" />
</g>
<path d="M67.88,20.063l0,-10.604l79.287,0l0,10.604l-79.287,0Z" id="Drawing_437_0" style="fill:none;stroke:#000;stroke-width:0.9px;" />
<path d="M79.924,20.063l0,-4.644l59.886,0l0,4.644l-59.886,0Z" id="Drawing_438_0" style="fill:none;stroke:#000;stroke-width:0.9px;" />
</g>
<g id="DrawingGroup_15">
<g id="g2395">
<path d="M52.179,6.663l-9.002,0l0,-2.917c0.123,-0.042 0.247,-0.083 0.41,-0.125l8.509,0c0.041,0 0.041,0 0.083,0.042l0,3Z" id="path2391" style="fill:#004d05;" />
<path d="M52.179,6.745l-9.042,0l0,-3.123l9.042,0l0,3.123Z" id="rect2393" style="fill:none;" />
</g>
<g id="g2401">
<path d="M52.179,6.253c-0.247,0.164 -0.576,0.287 -0.987,0.41l-6.658,0c-0.37,-0.123 -0.616,-0.247 -0.903,-0.41c-0.206,-0.083 -0.329,-0.206 -0.452,-0.289l0,-1.315c0.123,-0.123 0.247,-0.206 0.452,-0.287c0.451,-0.289 0.863,-0.576 1.685,-0.741l5.014,0c0.822,0.165 1.398,0.452 1.85,0.741l0,1.891Z" id="path2397" style="fill:#004d05;" />
<path d="M52.179,6.745l-9.042,0l0,-3.123l9.042,0l0,3.123Z" id="rect2399" style="fill:none;" />
</g>
<g id="g2407">
<path d="M52.179,5.965c-0.042,0.042 -0.083,0.083 -0.123,0.123c-0.452,0.206 -0.782,0.412 -1.275,0.576l-5.836,0c-0.452,-0.164 -0.864,-0.37 -1.151,-0.576c-0.37,-0.247 -0.534,-0.493 -0.616,-0.699l0,-0.328c0.083,-0.247 0.247,-0.452 0.616,-0.699c0.41,-0.289 0.986,-0.452 1.727,-0.576c0.287,-0.041 0.574,-0.123 0.863,-0.165l2.959,0c0.287,0.042 0.534,0.083 0.822,0.165c0.863,0.123 1.273,0.287 1.891,0.576c0.041,0.041 0.081,0.081 0.123,0.123l0,1.479Z" id="path2403" style="fill:#0b540e;" />
<path d="M52.179,6.745l-9.042,0l0,-3.123l9.042,0l0,3.123Z" id="rect2405" style="fill:none;" />
</g>
<g id="g2413">
<path d="M52.179,5.677c-0.083,0.123 -0.247,0.287 -0.412,0.41c-0.452,0.289 -0.903,0.452 -1.602,0.576l-4.521,0c-0.864,-0.123 -1.275,-0.287 -1.727,-0.576c-0.452,-0.287 -0.576,-0.576 -0.576,-0.863c0,-0.287 0.123,-0.576 0.576,-0.74c0.452,-0.289 0.863,-0.576 1.727,-0.699c0.41,-0.123 0.945,-0.165 1.479,-0.165l1.315,0c0.616,0 1.192,0.042 1.727,0.165c0.699,0.123 1.15,0.41 1.602,0.699c0.165,0.081 0.329,0.164 0.412,0.287l0,0.905Z" id="path2409" style="fill:#165a18;" />
<path d="M52.179,6.745l-8.878,0l0,-3.123l8.878,0l0,3.123Z" id="rect2411" style="fill:none;" />
</g>
<g id="g2419">
<path d="M50,6.663l-4.356,0c-0.576,-0.123 -1.151,-0.287 -1.563,-0.576c-0.287,-0.287 -0.616,-0.576 -0.616,-0.863c0,-0.287 0.329,-0.452 0.616,-0.74c0.412,-0.289 0.987,-0.412 1.563,-0.576c0.534,-0.206 1.069,-0.289 1.602,-0.289l1.234,0c0.534,0 1.027,0.083 1.52,0.289c0.741,0.164 1.151,0.287 1.604,0.576c0.452,0.287 0.576,0.452 0.576,0.74c0,0.287 -0.123,0.576 -0.576,0.863c-0.452,0.289 -0.863,0.412 -1.604,0.576Z" id="path2415" style="fill:#216121;" />
<path d="M52.179,6.745l-8.755,0l0,-3.123l8.755,0l0,3.123Z" id="rect2417" style="fill:none;" />
</g>
<g id="g2425">
<path d="M49.876,6.663l-4.069,0c-0.74,-0.287 -1.151,-0.41 -1.438,-0.576c-0.452,-0.287 -0.576,-0.576 -0.576,-0.863c0,-0.287 0.123,-0.452 0.576,-0.74c0.287,-0.289 0.699,-0.412 1.438,-0.576c0.74,-0.123 1.315,-0.123 2.014,-0.123c0.74,0 1.479,0 2.055,0.123c0.699,0.164 1.151,0.287 1.562,0.576c0.329,0.287 0.452,0.452 0.452,0.74c0,0.287 -0.123,0.576 -0.452,0.863c-0.41,0.165 -0.863,0.289 -1.562,0.576Z" id="path2421" style="fill:#2c672b;" />
<path d="M51.933,6.706l-8.18,0l0,-2.919l8.18,0l0,2.919Z" id="rect2423" style="fill:none;" />
</g>
<g id="g2431">
<path d="M47.822,6.663c-0.699,0 -1.275,0 -1.891,-0.123c-0.576,-0.164 -1.151,-0.287 -1.438,-0.576c-0.289,-0.164 -0.412,-0.452 -0.412,-0.74c0,-0.164 0.123,-0.452 0.412,-0.74c0.287,-0.123 0.863,-0.289 1.438,-0.412c0.616,-0.164 1.192,-0.287 1.891,-0.287c0.74,0 1.315,0.123 1.891,0.287c0.74,0.123 1.151,0.289 1.438,0.412c0.452,0.287 0.616,0.576 0.616,0.74c0,0.287 -0.164,0.576 -0.616,0.74c-0.287,0.289 -0.699,0.412 -1.438,0.576c-0.576,0.123 -1.151,0.123 -1.891,0.123Z" id="path2427" style="fill:#376e34;" />
<path d="M51.809,6.706l-7.768,0l0,-2.919l7.768,0l0,2.919Z" id="rect2429" style="fill:none;" />
</g>
<g id="g2437">
<path d="M47.822,6.663c-0.699,0 -1.151,0 -1.891,-0.287c-0.576,0 -0.863,-0.289 -1.275,-0.412c-0.287,-0.164 -0.452,-0.452 -0.452,-0.74c0,-0.164 0.165,-0.452 0.452,-0.576c0.412,-0.287 0.699,-0.452 1.275,-0.576c0.74,-0.164 1.192,-0.164 1.891,-0.164c0.74,0 1.315,0 1.891,0.164c0.576,0.123 1.028,0.289 1.315,0.576c0.287,0.123 0.41,0.412 0.41,0.576c0,0.287 -0.123,0.576 -0.41,0.74c-0.287,0.123 -0.74,0.412 -1.315,0.412c-0.576,0.287 -1.151,0.287 -1.891,0.287Z" id="path2433" style="fill:#43753d;" />
<path d="M51.438,6.706l-7.275,0l0,-2.836l7.275,0l0,2.836Z" id="rect2435" style="fill:none;" />
</g>
<g id="g2443">
<path d="M47.822,6.54c-0.576,0 -1.151,0 -1.727,-0.164c-0.451,-0.123 -0.863,-0.289 -1.315,-0.412c-0.287,-0.287 -0.41,-0.452 -0.41,-0.74c0,-0.164 0.123,-0.452 0.41,-0.576c0.452,-0.287 0.864,-0.452 1.315,-0.452c0.576,-0.123 1.151,-0.287 1.727,-0.287c0.576,0 1.192,0.164 1.768,0.287c0.576,0 0.986,0.165 1.275,0.452c0.287,0.123 0.451,0.412 0.451,0.576c0,0.287 -0.164,0.452 -0.451,0.74c-0.289,0.123 -0.699,0.289 -1.275,0.412c-0.576,0.164 -1.192,0.164 -1.768,0.164Z" id="path2439" style="fill:#4e7b47;" />
<path d="M51.315,6.582l-6.988,0l0,-2.672l6.988,0l0,2.672Z" id="rect2441" style="fill:none;" />
</g>
<g id="g2449">
<path d="M47.822,6.54c-0.576,0 -0.986,-0.164 -1.562,-0.164c-0.616,-0.123 -0.905,-0.289 -1.192,-0.576c-0.289,-0.123 -0.412,-0.289 -0.412,-0.576c0,-0.164 0.123,-0.41 0.412,-0.576c0.287,-0.164 0.576,-0.287 1.192,-0.452c0.576,-0.123 0.986,-0.123 1.562,-0.123c0.576,0 1.192,0 1.602,0.123c0.576,0.165 0.864,0.289 1.151,0.452c0.289,0.123 0.452,0.412 0.452,0.576c0,0.287 -0.164,0.452 -0.452,0.576c-0.287,0.287 -0.576,0.452 -1.151,0.576c-0.41,0 -1.027,0.164 -1.602,0.164Z" id="path2445" style="fill:#598250;" />
<path d="M51.028,6.581l-6.412,0l0,-2.507l6.412,0l0,2.507Z" id="rect2447" style="fill:none;" />
</g>
<g id="g2455">
<path d="M47.822,6.376c-0.576,0 -0.986,0 -1.438,-0.123c-0.452,-0.165 -0.863,-0.165 -1.151,-0.452c-0.287,-0.123 -0.452,-0.289 -0.452,-0.576c0,-0.164 0.165,-0.287 0.452,-0.576c0.289,-0.164 0.699,-0.287 1.151,-0.452l3.041,0c0.452,0.165 0.741,0.289 1.028,0.452c0.289,0.289 0.412,0.412 0.412,0.576c0,0.287 -0.123,0.452 -0.412,0.576c-0.287,0.287 -0.576,0.287 -1.028,0.452c-0.574,0.123 -1.027,0.123 -1.602,0.123Z" id="path2451" style="fill:#64885a;" />
<path d="M50.864,6.417l-6.165,0l0,-2.261l6.165,0l0,2.261Z" id="rect2453" style="fill:none;" />
</g>
<g id="g2461">
<path d="M47.822,6.376c-0.576,0 -0.863,-0.123 -1.275,-0.123c-0.616,-0.165 -0.903,-0.289 -1.192,-0.452c-0.123,-0.123 -0.287,-0.289 -0.287,-0.576c0,-0.164 0.164,-0.287 0.287,-0.452c0.289,-0.287 0.576,-0.287 1.192,-0.41c0.412,-0.165 0.699,-0.165 1.275,-0.165c0.576,0 1.069,0 1.479,0.165c0.452,0.164 0.699,0.123 0.987,0.41c0.287,0.165 0.287,0.289 0.287,0.452c0,0.287 0,0.41 -0.287,0.576c-0.289,0.164 -0.576,0.287 -0.987,0.452c-0.451,0 -0.903,0.123 -1.479,0.123Z" id="path2457" style="fill:#6f8f63;" />
<path d="M50.575,6.417l-5.549,0l0,-2.261l5.549,0l0,2.261Z" id="rect2459" style="fill:none;" />
</g>
<g id="g2467">
<path d="M47.822,6.253c-0.41,0 -0.863,0 -1.275,-0.165c-0.452,0 -0.74,-0.123 -0.903,-0.287c-0.289,-0.289 -0.412,-0.289 -0.412,-0.576c0,-0.164 0.123,-0.287 0.412,-0.452c0.164,-0.123 0.451,-0.287 0.903,-0.287c0.412,-0.123 0.864,-0.123 1.275,-0.123c0.452,0 0.863,0 1.315,0.123c0.452,0 0.74,0.164 0.863,0.287c0.289,0.165 0.452,0.289 0.452,0.452c0,0.287 -0.164,0.287 -0.452,0.576c-0.123,0.164 -0.41,0.287 -0.863,0.287c-0.452,0.165 -0.863,0.165 -1.315,0.165Z" id="path2463" style="fill:#7a966c;" />
<path d="M50.452,6.294l-5.261,0l0,-1.931l5.261,0l0,1.931Z" id="rect2465" style="fill:none;" />
</g>
<g id="g2473">
<path d="M49.014,6.088l-2.343,0c-0.41,-0.123 -0.74,-0.287 -0.863,-0.41c-0.164,-0.165 -0.287,-0.329 -0.287,-0.452c0,-0.164 0.123,-0.287 0.287,-0.452c0.123,-0.123 0.452,-0.287 0.863,-0.287c0.452,-0.123 0.741,-0.123 1.151,-0.123c0.452,0 0.863,0 1.192,0.123c0.41,0 0.699,0.164 0.863,0.287c0.289,0.165 0.289,0.289 0.289,0.452c0,0.123 0,0.287 -0.289,0.452c-0.164,0.123 -0.452,0.287 -0.863,0.41Z" id="path2469" style="fill:#859c76;" />
<path d="M50.165,6.13l-4.685,0l0,-1.768l4.685,0l0,1.768Z" id="rect2471" style="fill:none;" />
</g>
<g id="g2479">
<path d="M47.822,6.088c-0.41,0 -0.699,0 -0.986,-0.123c-0.452,0 -0.576,-0.164 -0.905,-0.287c-0.123,-0.165 -0.287,-0.329 -0.287,-0.452c0,-0.164 0.164,-0.164 0.287,-0.452c0.329,0 0.452,-0.123 0.905,-0.287l2.178,0c0.287,0.164 0.576,0.287 0.699,0.287c0.164,0.289 0.287,0.289 0.287,0.452c0,0.123 -0.123,0.287 -0.287,0.452c-0.123,0.123 -0.412,0.287 -0.699,0.287c-0.452,0.123 -0.74,0.123 -1.192,0.123Z" id="path2475" style="fill:#90a37f;" />
<path d="M50,6.13l-4.398,0l0,-1.644l4.398,0l0,1.644Z" id="rect2477" style="fill:none;" />
</g>
<g id="g2485">
<path d="M48.85,5.965l-2.014,0c-0.289,-0.164 -0.452,-0.164 -0.576,-0.287c-0.329,-0.165 -0.329,-0.329 -0.329,-0.452c0,-0.164 0,-0.164 0.329,-0.287c0.123,-0.165 0.287,-0.165 0.576,-0.289c0.41,-0.164 0.699,-0.164 0.986,-0.164c0.452,0 0.74,0 1.028,0.164c0.287,0.165 0.451,0.123 0.74,0.289c0.123,0.123 0.123,0.123 0.123,0.287c0,0.123 0,0.287 -0.123,0.452c-0.289,0.123 -0.452,0.123 -0.74,0.287Z" id="path2481" style="fill:#9baa88;" />
<path d="M49.713,6.007l-3.822,0l0,-1.521l3.822,0l0,1.521Z" id="rect2483" style="fill:none;" />
</g>
<g id="g2491">
<path d="M47.822,5.965c-0.287,0 -0.576,-0.164 -0.863,-0.164c-0.289,0 -0.412,-0.123 -0.576,-0.289c-0.123,0 -0.289,-0.164 -0.289,-0.287c0,-0.164 0.165,-0.164 0.289,-0.287c0.164,-0.165 0.287,-0.165 0.576,-0.165c0.287,-0.123 0.576,-0.123 0.863,-0.123c0.287,0 0.576,0 0.863,0.123c0.329,0 0.452,0 0.616,0.165c0.289,0.123 0.289,0.123 0.289,0.287c0,0.123 0,0.287 -0.289,0.287c-0.164,0.165 -0.287,0.289 -0.616,0.289c-0.287,0 -0.576,0.164 -0.863,0.164Z" id="path2487" style="fill:#a6b092;" />
<path d="M49.589,6.005l-3.535,0l0,-1.356l3.535,0l0,1.356Z" id="rect2489" style="fill:none;" />
</g>
<g id="g2497">
<path d="M48.561,5.801l-1.438,0c-0.287,-0.123 -0.452,-0.123 -0.576,-0.289c-0.164,0 -0.164,-0.164 -0.164,-0.287c0,0 0,-0.164 0.164,-0.287c0.123,0 0.289,-0.165 0.576,-0.165c0.123,0 0.412,-0.123 0.699,-0.123c0.287,0 0.576,0.123 0.74,0.123c0.289,0 0.452,0.165 0.576,0.165c0.164,0.123 0.287,0.287 0.287,0.287c0,0.123 -0.123,0.287 -0.287,0.287c-0.123,0.165 -0.287,0.165 -0.576,0.289Z" id="path2493" style="fill:#b1b79b;" />
<path d="M49.424,5.841l-3.083,0l0,-1.192l3.083,0l0,1.192Z" id="rect2495" style="fill:none;" />
</g>
<g id="g2503">
<path d="M47.822,5.801c-0.287,0 -0.41,0 -0.576,-0.123c-0.287,0 -0.41,-0.165 -0.41,-0.165c-0.165,-0.164 -0.289,-0.164 -0.289,-0.287c0,0 0.123,-0.164 0.289,-0.164c0,-0.123 0.123,-0.123 0.41,-0.289l1.315,0c0.123,0.165 0.289,0.165 0.452,0.289c0.123,0 0.123,0.164 0.123,0.164c0,0.123 0,0.123 -0.123,0.287c-0.164,0 -0.329,0.165 -0.452,0.165c-0.287,0.123 -0.452,0.123 -0.74,0.123Z" id="path2499" style="fill:#bcbda5;" />
<path d="M49.178,5.841l-2.672,0l0,-1.069l2.672,0l0,1.069Z" id="rect2501" style="fill:none;" />
</g>
<g id="g2509">
<path d="M48.397,5.677l-1.151,0c-0.123,-0.165 -0.123,-0.165 -0.287,-0.165c-0.123,-0.164 -0.123,-0.164 -0.123,-0.287c0,0 0,-0.164 0.123,-0.164c0.164,0 0.164,-0.123 0.287,-0.123c0.289,0 0.452,-0.165 0.576,-0.165c0.287,0 0.452,0.165 0.576,0.165c0.164,0 0.287,0.123 0.452,0.123l0.164,0.164c0,0.123 -0.164,0.123 -0.164,0.287c-0.165,0 -0.289,0 -0.452,0.165Z" id="path2505" style="fill:#c8c4ae;" />
<path d="M49.014,5.718l-2.22,0l0,-0.945l2.22,0l0,0.945Z" id="rect2507" style="fill:none;" />
</g>
<g id="g2515">
<path d="M48.274,5.512l-0.863,0c-0.125,0 -0.165,0 -0.289,-0.164c0,0 -0.164,0 -0.164,-0.123c0,0 0.164,0 0.164,-0.164c0.123,0 0.123,0 0.289,-0.123l0.863,0c0.123,0.123 0.287,0.123 0.287,0.123l0.123,0.164c0,0.123 0,0.123 -0.123,0.123c0,0.164 -0.164,0.164 -0.287,0.164Z" id="path2511" style="fill:#d3cbb7;" />
<path d="M48.685,5.554l-1.768,0l0,-0.616l1.768,0l0,0.616Z" id="rect2513" style="fill:none;" />
</g>
<g id="g2521">
<path d="M48.109,5.512l-0.574,0c-0.123,0 -0.123,-0.164 -0.289,-0.164l0,-0.287l1.151,0c0,0.164 0.164,0.164 0.164,0.164c0,0.123 -0.164,0.123 -0.164,0.123c0,0 -0.123,0.164 -0.289,0.164Z" id="path2517" style="fill:#ded1c1;" />
<path d="M48.561,5.596l-1.356,0l0,-0.535l1.356,0l0,0.535Z" id="rect2519" style="fill:none;" />
</g>
<g id="g2527">
<path d="M48.274,5.348l-0.74,0c-0.123,0 -0.123,0 -0.123,-0.123l0.123,0c0,0 0,-0.164 0.164,-0.164l0.41,0c0,0 0,0.164 0.165,0.164l0,0.123Z" id="path2523" style="fill:#e9d8ca;" />
<path d="M48.315,5.39l-0.945,0l0,-0.329l0.945,0l0,0.329Z" id="rect2525" style="fill:none;" />
</g>
<g id="g2533">
<path d="M47.986,5.348l-0.287,0l0,-0.123l0.41,0c0,0.123 0,0.123 -0.123,0.123Z" id="path2529" style="fill:#f4ded4;" />
<path d="M48.109,5.389l-0.493,0l0,-0.164l0.493,0l0,0.164Z" id="rect2531" style="fill:none;" />
</g>
<path d="M43.341,6.827l0,-3.041l9.125,0l0,3.041l-9.125,0Z" id="Drawing_496_0" style="fill:none;stroke:#000;stroke-width:0.7px;" />
<g id="g2646">
<path d="M39.889,6.663l-9.002,0l0,-2.917c0.123,-0.042 0.206,-0.083 0.329,-0.125l8.59,0c0,0 0.042,0.042 0.083,0.042l0,3Z" id="path2642" style="fill:#004d05;" />
<path d="M39.889,6.745l-9.042,0l0,-3.123l9.042,0l0,3.123Z" id="rect2644" style="fill:none;" />
</g>
<g id="g2652">
<path d="M39.889,5.965c-0.041,0.042 -0.083,0.083 -0.123,0.123c-0.329,0.289 -0.699,0.452 -1.109,0.576l-6.331,0c-0.493,-0.123 -0.822,-0.287 -1.109,-0.576c-0.123,-0.081 -0.247,-0.164 -0.329,-0.247l0,-1.233c0.083,-0.083 0.206,-0.165 0.329,-0.247c0.41,-0.289 0.945,-0.576 1.85,-0.741l4.931,0c0.74,0.165 1.315,0.452 1.768,0.741c0.041,0.041 0.083,0.041 0.123,0.081l0,1.521Z" id="path2648" style="fill:#004d05;" />
<path d="M39.889,6.745l-9.042,0l0,-3.123l9.042,0l0,3.123Z" id="rect2650" style="fill:none;" />
</g>
<g id="g2658">
<path d="M39.889,5.841c-0.083,0.083 -0.164,0.165 -0.287,0.247c-0.329,0.206 -0.699,0.412 -1.151,0.576l-5.919,0c-0.493,-0.164 -0.863,-0.37 -1.192,-0.576c-0.206,-0.123 -0.329,-0.287 -0.452,-0.41l0,-0.905c0.123,-0.164 0.247,-0.287 0.452,-0.41c0.412,-0.289 1.028,-0.452 1.727,-0.741l4.808,0c0.74,0.289 1.315,0.452 1.727,0.741c0.123,0.081 0.204,0.164 0.287,0.247l0,1.233Z" id="path2654" style="fill:#0b540e;" />
<path d="M39.889,6.745l-9.042,0l0,-3.123l9.042,0l0,3.123Z" id="rect2656" style="fill:none;" />
</g>
<g id="g2664">
<path d="M39.889,5.635c-0.123,0.165 -0.287,0.289 -0.576,0.452c-0.287,0.289 -0.903,0.412 -1.602,0.576l-4.481,0c-0.74,-0.164 -1.315,-0.287 -1.604,-0.576c-0.41,-0.287 -0.697,-0.576 -0.697,-0.863c0,-0.287 0.287,-0.576 0.697,-0.863c0.289,-0.289 0.864,-0.452 1.604,-0.576c0.287,-0.041 0.576,-0.123 0.863,-0.165l2.754,0c0.289,0.042 0.576,0.125 0.864,0.165c0.699,0.123 1.315,0.287 1.602,0.576c0.289,0.123 0.452,0.287 0.576,0.41l0,0.863Z" id="path2660" style="fill:#165a18;" />
<path d="M39.889,6.745l-9.002,0l0,-3.123l9.002,0l0,3.123Z" id="rect2662" style="fill:none;" />
</g>
<g id="g2670">
<path d="M37.669,6.663l-4.315,0c-0.699,-0.164 -1.192,-0.287 -1.602,-0.576c-0.452,-0.287 -0.576,-0.576 -0.576,-0.863c0,-0.287 0.123,-0.576 0.576,-0.74c0.41,-0.289 0.903,-0.576 1.602,-0.699c0.535,-0.123 0.986,-0.165 1.562,-0.165l1.275,0c0.493,0 0.986,0.042 1.479,0.165c0.618,0.123 1.192,0.41 1.48,0.699c0.41,0.164 0.576,0.452 0.576,0.74c0,0.287 -0.165,0.576 -0.576,0.863c-0.289,0.289 -0.863,0.452 -1.48,0.576Z" id="path2666" style="fill:#216121;" />
<path d="M39.725,6.745l-8.59,0l0,-3.123l8.59,0l0,3.123Z" id="rect2668" style="fill:none;" />
</g>
<g id="g2676">
<path d="M34.052,6.663c-0.247,-0.041 -0.452,-0.083 -0.699,-0.123c-0.616,-0.164 -1.028,-0.287 -1.479,-0.452c-0.289,-0.287 -0.412,-0.576 -0.412,-0.863c0,-0.287 0.123,-0.452 0.412,-0.74c0.451,-0.289 0.863,-0.412 1.479,-0.576c0.616,-0.123 1.151,-0.247 1.85,-0.289l0.534,0c0.616,0.042 1.151,0.165 1.808,0.289c0.576,0.164 1.028,0.287 1.438,0.576c0.289,0.287 0.576,0.452 0.576,0.74c0,0.287 -0.287,0.576 -0.576,0.863c-0.41,0.165 -0.863,0.289 -1.438,0.452c-0.247,0.041 -0.493,0.083 -0.699,0.123l-2.794,0Z" id="path2672" style="fill:#2c672b;" />
<path d="M39.56,6.745l-8.139,0l0,-3.123l8.139,0l0,3.123Z" id="rect2674" style="fill:none;" />
</g>
<g id="g2682">
<path d="M35.491,6.663c-0.699,0 -1.438,0 -2.014,-0.123c-0.576,-0.164 -1.028,-0.287 -1.315,-0.576c-0.41,-0.164 -0.576,-0.452 -0.576,-0.74c0,-0.287 0.165,-0.452 0.576,-0.74c0.287,-0.289 0.74,-0.412 1.315,-0.576c0.576,0 1.315,-0.123 2.014,-0.123c0.74,0 1.315,0.123 1.891,0.123c0.576,0.164 1.028,0.287 1.479,0.576c0.289,0.287 0.412,0.452 0.412,0.74c0,0.287 -0.123,0.576 -0.412,0.74c-0.451,0.289 -0.903,0.412 -1.479,0.576c-0.576,0.123 -1.151,0.123 -1.891,0.123Z" id="path2678" style="fill:#376e34;" />
<path d="M39.272,6.706l-7.727,0l0,-2.919l7.727,0l0,2.919Z" id="rect2680" style="fill:none;" />
</g>
<g id="g2688">
<path d="M35.491,6.663c-0.699,0 -1.275,-0.123 -1.85,-0.287c-0.574,0 -1.027,-0.289 -1.315,-0.412c-0.451,-0.287 -0.574,-0.452 -0.574,-0.74c0,-0.164 0.123,-0.452 0.574,-0.74c0.289,-0.123 0.741,-0.289 1.315,-0.412c0.576,-0.164 1.151,-0.164 1.85,-0.164c0.616,0 1.192,0 1.768,0.164c0.576,0.123 1.028,0.289 1.315,0.412c0.41,0.287 0.576,0.576 0.576,0.74c0,0.287 -0.165,0.452 -0.576,0.74c-0.287,0.123 -0.74,0.412 -1.315,0.412c-0.576,0.164 -1.151,0.287 -1.768,0.287Z" id="path2684" style="fill:#43753d;" />
<path d="M39.149,6.706l-7.44,0l0,-2.836l7.44,0l0,2.836Z" id="rect2686" style="fill:none;" />
</g>
<g id="g2694">
<path d="M35.491,6.54c-0.699,0 -1.151,0 -1.727,-0.164c-0.574,-0.123 -1.027,-0.289 -1.315,-0.412c-0.287,-0.287 -0.41,-0.452 -0.41,-0.74c0,-0.164 0.123,-0.452 0.41,-0.576c0.289,-0.287 0.741,-0.41 1.315,-0.576c0.576,-0.164 1.028,-0.164 1.727,-0.164c0.616,0 1.192,0 1.604,0.164c0.574,0.123 1.027,0.289 1.315,0.576c0.287,0.123 0.451,0.412 0.451,0.576c0,0.287 -0.164,0.452 -0.451,0.74c-0.289,0.123 -0.741,0.289 -1.315,0.412c-0.412,0.164 -0.987,0.164 -1.604,0.164Z" id="path2690" style="fill:#4e7b47;" />
<path d="M38.861,6.582l-6.905,0l0,-2.672l6.905,0l0,2.672Z" id="rect2692" style="fill:none;" />
</g>
<g id="g2700">
<path d="M35.491,6.376c-0.576,0 -1.151,0 -1.562,-0.123c-0.576,0 -1.028,-0.165 -1.315,-0.452c-0.289,-0.123 -0.452,-0.289 -0.452,-0.576c0,-0.164 0.164,-0.452 0.452,-0.576c0.287,-0.164 0.74,-0.287 1.315,-0.452c0.41,-0.123 0.986,-0.123 1.562,-0.123c0.616,0 1.028,0 1.604,0.123c0.451,0.165 0.863,0.289 1.192,0.452c0.287,0.123 0.41,0.412 0.41,0.576c0,0.287 -0.123,0.452 -0.41,0.576c-0.329,0.287 -0.741,0.452 -1.192,0.452c-0.576,0.123 -0.987,0.123 -1.604,0.123Z" id="path2696" style="fill:#598250;" />
<path d="M38.697,6.417l-6.576,0l0,-2.343l6.576,0l0,2.343Z" id="rect2698" style="fill:none;" />
</g>
<g id="g2706">
<path d="M35.491,6.376c-0.576,0 -1.151,0 -1.562,-0.123c-0.452,-0.165 -0.863,-0.289 -1.028,-0.452c-0.287,-0.123 -0.452,-0.289 -0.452,-0.576c0,-0.164 0.165,-0.452 0.452,-0.576c0.165,-0.164 0.576,-0.287 1.028,-0.452c0.41,0 0.986,-0.123 1.562,-0.123c0.616,0 1.028,0.123 1.48,0.123c0.41,0.165 0.863,0.289 1.15,0.452c0.165,0.123 0.289,0.412 0.289,0.576c0,0.287 -0.123,0.452 -0.289,0.576c-0.287,0.164 -0.74,0.287 -1.15,0.452c-0.452,0.123 -0.864,0.123 -1.48,0.123Z" id="path2702" style="fill:#64885a;" />
<path d="M38.41,6.417l-6.002,0l0,-2.343l6.002,0l0,2.343Z" id="rect2704" style="fill:none;" />
</g>
<g id="g2712">
<path d="M35.491,6.253c-0.576,0 -0.986,0 -1.438,-0.165c-0.412,0 -0.699,-0.123 -0.986,-0.287c-0.329,-0.289 -0.452,-0.452 -0.452,-0.576c0,-0.164 0.123,-0.287 0.452,-0.452c0.287,-0.287 0.574,-0.287 0.986,-0.41c0.452,-0.165 0.863,-0.165 1.438,-0.165c0.452,0 0.863,0 1.315,0.165c0.452,0.164 0.863,0.123 1.028,0.41c0.287,0.165 0.452,0.289 0.452,0.452c0,0.123 -0.165,0.287 -0.452,0.576c-0.165,0.164 -0.576,0.287 -1.028,0.287c-0.41,0.165 -0.863,0.165 -1.315,0.165Z" id="path2708" style="fill:#6f8f63;" />
<path d="M38.286,6.294l-5.713,0l0,-2.097l5.713,0l0,2.097Z" id="rect2710" style="fill:none;" />
</g>
<g id="g2718">
<path d="M35.491,6.253c-0.576,0 -0.863,-0.165 -1.275,-0.165c-0.452,-0.123 -0.74,-0.287 -1.027,-0.287c-0.123,-0.289 -0.289,-0.452 -0.289,-0.576c0,-0.164 0.165,-0.287 0.289,-0.452c0.287,-0.123 0.574,-0.287 1.027,-0.41c0.412,0 0.699,-0.165 1.275,-0.165c0.452,0 0.905,0.165 1.315,0.165c0.289,0.123 0.576,0.287 0.863,0.41c0.289,0.165 0.289,0.289 0.289,0.452c0,0.123 0,0.287 -0.289,0.576c-0.287,0 -0.574,0.164 -0.863,0.287c-0.41,0 -0.863,0.165 -1.315,0.165Z" id="path2714" style="fill:#7a966c;" />
<path d="M37.957,6.294l-5.137,0l0,-2.097l5.137,0l0,2.097Z" id="rect2716" style="fill:none;" />
</g>
<g id="g2724">
<path d="M36.683,6.088l-2.466,0c-0.287,-0.123 -0.576,-0.287 -0.863,-0.41c-0.164,-0.165 -0.287,-0.329 -0.287,-0.452c0,-0.164 0.123,-0.287 0.287,-0.452c0.287,-0.123 0.576,-0.287 0.863,-0.287c0.412,-0.123 0.864,-0.123 1.275,-0.123c0.452,0 0.74,0 1.192,0.123c0.289,0 0.576,0.164 0.863,0.287c0.123,0.165 0.289,0.289 0.289,0.452c0,0.123 -0.165,0.287 -0.289,0.452c-0.287,0.123 -0.574,0.287 -0.863,0.41Z" id="path2720" style="fill:#859c76;" />
<path d="M37.834,6.13l-4.81,0l0,-1.768l4.81,0l0,1.768Z" id="rect2722" style="fill:none;" />
</g>
<g id="g2730">
<path d="M35.491,6.088c-0.41,0 -0.863,0 -1.151,-0.123c-0.287,-0.164 -0.576,-0.164 -0.699,-0.287c-0.287,-0.165 -0.287,-0.329 -0.287,-0.452c0,-0.164 0,-0.287 0.287,-0.452c0.123,0 0.412,-0.123 0.699,-0.287l2.179,0c0.287,0.164 0.576,0.287 0.863,0.287c0.164,0.165 0.287,0.289 0.287,0.452c0,0.123 -0.123,0.287 -0.287,0.452c-0.287,0.123 -0.576,0.123 -0.863,0.287c-0.289,0.165 -0.699,0.123 -1.028,0.123Z" id="path2726" style="fill:#90a37f;" />
<path d="M37.669,6.17l-4.357,0l0,-1.727l4.357,0l0,1.727Z" id="rect2728" style="fill:none;" />
</g>
<g id="g2736">
<path d="M35.491,5.965c-0.41,0 -0.699,0 -0.986,-0.164c-0.289,0 -0.576,-0.123 -0.741,-0.123c-0.123,-0.165 -0.287,-0.329 -0.287,-0.452c0,-0.164 0.164,-0.164 0.287,-0.287c0.165,-0.165 0.452,-0.289 0.741,-0.289c0.287,-0.164 0.576,-0.164 0.986,-0.164c0.329,0 0.616,0 0.905,0.164c0.287,0 0.534,0.123 0.699,0.289c0.164,0.164 0.287,0.123 0.287,0.287c0,0.123 -0.123,0.287 -0.287,0.452c-0.123,0 -0.412,0.123 -0.699,0.123c-0.289,0.164 -0.576,0.164 -0.905,0.164Z" id="path2732" style="fill:#9baa88;" />
<path d="M37.422,6.007l-3.988,0l0,-1.521l3.988,0l0,1.521Z" id="rect2734" style="fill:none;" />
</g>
<g id="g2742">
<path d="M35.491,5.965c-0.41,0 -0.576,-0.164 -0.863,-0.164c-0.289,0 -0.576,-0.123 -0.699,-0.289c-0.165,0 -0.165,-0.164 -0.165,-0.287c0,-0.164 0,-0.123 0.165,-0.287c0.164,-0.165 0.41,-0.165 0.699,-0.289l1.768,0c0.287,0.123 0.41,0.123 0.576,0.289c0.123,0.123 0.123,0.123 0.123,0.287c0,0.123 0,0.287 -0.123,0.287c-0.165,0.165 -0.289,0.289 -0.576,0.289c-0.289,0 -0.576,0.164 -0.905,0.164Z" id="path2738" style="fill:#a6b092;" />
<path d="M37.095,6.005l-3.37,0l0,-1.356l3.37,0l0,1.356Z" id="rect2740" style="fill:none;" />
</g>
<g id="g2748">
<path d="M36.23,5.801l-1.602,0c-0.123,-0.123 -0.289,-0.123 -0.576,-0.289c0,-0.164 -0.123,-0.164 -0.123,-0.287c0,-0.164 0.123,-0.164 0.123,-0.287c0.287,0 0.452,-0.165 0.576,-0.165c0.287,-0.123 0.576,-0.123 0.863,-0.123c0.329,0 0.452,0 0.74,0.123c0.165,0 0.452,0.165 0.576,0.165c0,0.123 0.165,0.123 0.165,0.287c0,0.123 -0.165,0.123 -0.165,0.287c-0.123,0.165 -0.41,0.165 -0.576,0.289Z" id="path2744" style="fill:#b1b79b;" />
<path d="M36.971,5.841l-3.083,0l0,-1.192l3.083,0l0,1.192Z" id="rect2746" style="fill:none;" />
</g>
<g id="g2754">
<path d="M35.491,5.801c-0.287,0 -0.534,-0.123 -0.699,-0.123c-0.123,0 -0.287,-0.165 -0.452,-0.165c-0.123,-0.164 -0.123,-0.164 -0.123,-0.287c0,0 0,-0.164 0.123,-0.164c0.165,-0.123 0.289,-0.123 0.452,-0.289l1.315,0c0.289,0.165 0.289,0.165 0.412,0.289c0.164,0 0.287,0.164 0.287,0.164c0,0.123 -0.123,0.123 -0.287,0.287c-0.123,0 -0.123,0.165 -0.412,0.165c-0.164,0 -0.452,0.123 -0.616,0.123Z" id="path2750" style="fill:#bcbda5;" />
<path d="M36.847,5.841l-2.672,0l0,-1.069l2.672,0l0,1.069Z" id="rect2752" style="fill:none;" />
</g>
<g id="g2760">
<path d="M35.491,5.677c-0.287,0 -0.41,0 -0.576,-0.165l-0.41,0c-0.165,-0.164 -0.165,-0.164 -0.165,-0.287c0,0 0,-0.164 0.165,-0.164c0.123,-0.123 0.287,-0.123 0.41,-0.123c0.165,-0.165 0.289,-0.165 0.576,-0.165c0.164,0 0.329,0 0.452,0.165c0.164,0 0.287,0 0.452,0.123c0.123,0 0.123,0.164 0.123,0.164c0,0.123 0,0.123 -0.123,0.287l-0.452,0c-0.123,0.165 -0.289,0.165 -0.452,0.165Z" id="path2756" style="fill:#c8c4ae;" />
<path d="M36.519,5.718l-2.22,0l0,-0.945l2.22,0l0,0.945Z" id="rect2758" style="fill:none;" />
</g>
<g id="g2766">
<path d="M35.943,5.512l-0.863,0c-0.165,0 -0.289,0 -0.452,-0.164l0,-0.287c0.164,0 0.287,0 0.452,-0.123l0.863,0c0.164,0.123 0.164,0.123 0.287,0.123l0.165,0.164c0,0.123 -0.165,0.123 -0.165,0.123c-0.123,0.164 -0.123,0.164 -0.287,0.164Z" id="path2762" style="fill:#d3cbb7;" />
<path d="M36.436,5.554l-1.85,0l0,-0.616l1.85,0l0,0.616Z" id="rect2764" style="fill:none;" />
</g>
<g id="g2772">
<path d="M35.82,5.512l-0.74,0c0,-0.164 -0.165,-0.164 -0.165,-0.164c-0.123,0 -0.123,0 -0.123,-0.123l0.123,-0.164l1.192,0l0,0.287c-0.164,0 -0.164,0 -0.287,0.164Z" id="path2768" style="fill:#ded1c1;" />
<path d="M36.107,5.596l-1.356,0l0,-0.535l1.356,0l0,0.535Z" id="rect2770" style="fill:none;" />
</g>
<g id="g2778">
<path d="M35.82,5.348l-0.74,0l0,-0.123c0,-0.164 0.123,-0.164 0.123,-0.164l0.451,0c0.165,0 0.165,0 0.165,0.164l0.123,0l-0.123,0.123Z" id="path2774" style="fill:#e9d8ca;" />
<path d="M35.943,5.39l-0.905,0l0,-0.329l0.905,0l0,0.329Z" id="rect2776" style="fill:none;" />
</g>
<g id="g2784">
<path d="M35.655,5.348l-0.451,0l0,-0.123l0.451,0l0,0.123Z" id="path2780" style="fill:#f4ded4;" />
<path d="M35.655,5.389l-0.493,0l0,-0.164l0.493,0l0,0.164Z" id="rect2782" style="fill:none;" />
</g>
<path d="M30.887,6.827l0,-3.206l9.125,0l0,3.206l-9.125,0Z" id="Drawing_538_0" style="fill:none;stroke:#000;stroke-width:0.7px;" />
</g>
<g id="DrawingGroup_18">
<g id="Drawing_547">
<path d="M57.852,56.028l-4.685,0l0,-19.935l4.685,0l0,19.935Z" id="rect2828" style="fill:none;" />
<g>
<g id="text2832">
<g transform="matrix(0,1,-1,0,90.286047,-18.1002)">
<text x="54.193" y="36.093" font-size="12" style="font-family:'LucidaGrande', 'Lucida Grande', sans-serif;font-weight:500;font-size:4.069px;">Regulator</text>
</g>
</g>
</g>
</g>
<g id="DrawingGroup_21">
<g id="g2841">
<path d="M43.453,38.518l0,-16.44l15.29,0l0,16.44l-15.29,0Z" id="path2837" style="fill:#7e7e7e;" />
<path d="M58.742,38.654l-15.359,0l0,-16.576l15.359,0l0,16.576Z" id="rect2839" style="fill:none;" />
</g>
<path d="M43.453,38.518l0,-16.44l15.29,0l0,16.44l-15.29,0Z" id="Drawing_549_0" style="fill:none;stroke:#000;stroke-width:1.36px;" />
<g id="g2850">
<path d="M59.215,24.718l0,-1.692l5.21,0l0,1.692l-5.21,0Z" id="path2846" style="fill:#868686;" />
<path d="M64.425,24.785l-5.344,0l0,-1.759l5.344,0l0,1.759Z" id="rect2848" style="fill:none;" />
</g>
<path d="M59.215,24.718l0,-1.692l5.21,0l0,1.692l-5.21,0Z" id="Drawing_551_0" style="fill:none;stroke:#000;stroke-width:0.26px;" />
<g id="g2859">
<path d="M59.215,29.723l0,-1.69l5.21,0l0,1.69l-5.21,0Z" id="path2855" style="fill:#868686;" />
<path d="M64.425,29.792l-5.344,0l0,-1.759l5.344,0l0,1.759Z" id="rect2857" style="fill:none;" />
</g>
<path d="M59.215,29.723l0,-1.69l5.21,0l0,1.69l-5.21,0Z" id="Drawing_553_0" style="fill:none;stroke:#000;stroke-width:0.33px;" />
<g id="g2868">
<path d="M59.215,27.355l0,-1.692l5.007,0l0,1.692l-5.007,0Z" id="path2864" style="fill:#868686;" />
<path d="M64.222,27.422l-5.141,0l0,-1.759l5.141,0l0,1.759Z" id="rect2866" style="fill:none;" />
</g>
<path d="M59.215,27.355l0,-1.692l5.007,0l0,1.692l-5.007,0Z" id="Drawing_555_0" style="fill:none;stroke:#000;stroke-width:0.26px;" />
<g id="g2877">
<path d="M59.418,32.363l0,-1.692l5.007,0l0,1.692l-5.007,0Z" id="path2873" style="fill:#868686;" />
<path d="M64.425,32.43l-5.074,0l0,-1.759l5.074,0l0,1.759Z" id="rect2875" style="fill:none;" />
</g>
<path d="M59.418,32.363l0,-1.692l5.007,0l0,1.692l-5.007,0Z" id="Drawing_557_0" style="fill:none;stroke:#000;stroke-width:0.26px;" />
<g id="g2886">
<path d="M59.418,37.368l0,-1.69l5.007,0l0,1.69l-5.007,0Z" id="path2882" style="fill:#868686;" />
<path d="M64.425,37.437l-5.074,0l0,-1.759l5.074,0l0,1.759Z" id="rect2884" style="fill:none;" />
</g>
<path d="M59.418,37.368l0,-1.69l5.007,0l0,1.69l-5.007,0Z" id="Drawing_559_0" style="fill:none;stroke:#000;stroke-width:0.33px;" />
<g id="g2895">
<path d="M59.215,35l0,-1.69l5.21,0l0,1.69l-5.21,0Z" id="path2891" style="fill:#868686;" />
<path d="M64.425,35.069l-5.344,0l0,-1.759l5.344,0l0,1.759Z" id="rect2893" style="fill:none;" />
</g>
<path d="M59.215,35l0,-1.69l5.21,0l0,1.69l-5.21,0Z" id="Drawing_561_0" style="fill:none;stroke:#000;stroke-width:0.26px;" />
<g id="g2904">
<path d="M38.648,24.718l0,-1.692l4.33,0l0,1.692l-4.33,0Z" id="path2900" style="fill:#868686;" />
<path d="M42.978,24.785l-4.399,0l0,-1.759l4.399,0l0,1.759Z" id="rect2902" style="fill:none;" />
</g>
<path d="M38.648,24.718l0,-1.692l4.33,0l0,1.692l-4.33,0Z" id="Drawing_563_0" style="fill:none;stroke:#000;stroke-width:0.26px;" />
<g id="g2913">
<path d="M38.648,29.723l0,-1.69l4.33,0l0,1.69l-4.33,0Z" id="path2909" style="fill:#868686;" />
<path d="M42.978,29.792l-4.399,0l0,-1.759l4.399,0l0,1.759Z" id="rect2911" style="fill:none;" />
</g>
<path d="M38.648,29.723l0,-1.69l4.33,0l0,1.69l-4.33,0Z" id="Drawing_565_0" style="fill:none;stroke:#000;stroke-width:0.26px;" />
<g id="g2922">
<path d="M38.648,27.355l0,-1.692l4.33,0l0,1.692l-4.33,0Z" id="path2918" style="fill:#868686;" />
<path d="M42.978,27.422l-4.399,0l0,-1.759l4.399,0l0,1.759Z" id="rect2920" style="fill:none;" />
</g>
<path d="M38.648,27.355l0,-1.692l4.33,0l0,1.692l-4.33,0Z" id="Drawing_567_0" style="fill:none;stroke:#000;stroke-width:0.26px;" />
<g id="g2931">
<path d="M38.918,32.091l0,-1.623l4.06,0l0,1.623l-4.06,0Z" id="path2927" style="fill:#868686;" />
<path d="M42.978,32.16l-4.127,0l0,-1.692l4.127,0l0,1.692Z" id="rect2929" style="fill:none;" />
</g>
<path d="M38.918,32.091l0,-1.623l4.06,0l0,1.623l-4.06,0Z" id="Drawing_569_0" style="fill:none;stroke:#000;stroke-width:0.26px;" />
<g id="g2940">
<path d="M38.648,37.098l0,-1.42l4.33,0l0,1.42l-4.33,0Z" id="path2936" style="fill:#868686;" />
<path d="M42.978,37.165l-4.399,0l0,-1.556l4.399,0l0,1.556Z" id="rect2938" style="fill:none;" />
</g>
<path d="M38.648,37.098l0,-1.42l4.33,0l0,1.42l-4.33,0Z" id="Drawing_571_0" style="fill:none;stroke:#000;stroke-width:0.26px;" />
<g id="g2949">
<path d="M38.648,34.73l0,-1.692l4.33,0l0,1.692l-4.33,0Z" id="path2945" style="fill:#868686;" />
<path d="M42.978,34.797l-4.399,0l0,-1.759l4.399,0l0,1.759Z" id="rect2947" style="fill:none;" />
</g>
<path d="M38.648,34.73l0,-1.692l4.33,0l0,1.692l-4.33,0Z" id="Drawing_573_0" style="fill:none;stroke:#000;stroke-width:0.26px;" />
</g>
<g id="DrawingGroup_23">
<g id="g2996">
<rect x="25.574" y="59.972" width="22.359" height="7.563" id="path2992" style="fill:#868686;" />
<rect x="25.533" y="59.931" width="22.442" height="7.604" id="rect2994" style="fill:none;" />
</g>
<rect x="25.574" y="59.972" width="22.359" height="7.563" id="Drawing_583_0" style="fill:none;stroke:#000;stroke-width:1.52px;" />
<g id="g3005">
<rect x="29.643" y="57.794" width="14.634" height="11.467" id="path3001" style="fill:#7e7e7e;" />
<rect x="29.602" y="57.752" width="14.674" height="11.509" id="rect3003" style="fill:none;" />
</g>
<rect x="29.643" y="57.794" width="14.634" height="11.467" id="Drawing_585_0" style="fill:none;stroke:#000;stroke-width:1.15px;" />
</g>
<g id="DrawingGroup_25">
<g id="g3052">
<path d="M20.774,19.969c-5.343,0 -9.701,-4.356 -9.701,-9.741c0,-5.507 4.357,-9.864 9.701,-9.864c5.384,0 9.741,4.357 9.741,9.864c0,5.385 -4.357,9.741 -9.741,9.741Z" id="path3048" style="fill:#f2d592;" />
<path d="M30.516,20.052l-19.482,0l0,-19.688l19.482,0l0,19.688Z" id="rect3050" style="fill:none;" />
</g>
<path d="M20.774,19.969c-5.343,0 -9.701,-4.356 -9.701,-9.741c0,-5.507 4.357,-9.864 9.701,-9.864c5.384,0 9.741,4.357 9.741,9.864c0,5.385 -4.357,9.741 -9.741,9.741Z" id="Drawing_595_0" style="fill:none;stroke:#000;stroke-width:0.33px;" />
<g id="g3061">
<path d="M20.774,14.749c-2.466,0 -4.481,-2.055 -4.481,-4.356c0,-2.466 2.014,-4.481 4.481,-4.481c2.342,0 4.356,2.014 4.356,4.481c0,2.301 -2.014,4.356 -4.356,4.356Z" id="path3057" style="fill:#fff;" />
<path d="M25.172,14.791l-8.919,0l0,-8.878l8.919,0l0,8.878Z" id="rect3059" style="fill:none;" />
</g>
<path d="M20.774,14.749c-2.466,0 -4.481,-2.055 -4.481,-4.356c0,-2.466 2.014,-4.481 4.481,-4.481c2.342,0 4.356,2.014 4.356,4.481c0,2.301 -2.014,4.356 -4.356,4.356Z" id="Drawing_597_0" style="fill:none;stroke:#000;stroke-width:0.33px;" />
</g>
</g>
<g id="DrawingGroup_27">
<g id="g3091">
<path d="M21.681,226.768c-5.385,0 -9.701,-4.356 -9.701,-9.864c0,-5.343 4.357,-9.701 9.701,-9.701c5.384,0 9.699,4.357 9.699,9.701c0,5.509 -4.356,9.864 -9.699,9.864Z" id="path3087" style="fill:#f2d592;" />
<path d="M31.38,226.81l-19.442,0l0,-19.648l19.442,0l0,19.648Z" id="rect3089" style="fill:none;" />
</g>
<path d="M21.681,226.768c-5.385,0 -9.701,-4.356 -9.701,-9.864c0,-5.343 4.357,-9.701 9.701,-9.701c5.384,0 9.699,4.357 9.699,9.701c0,5.509 -4.356,9.864 -9.699,9.864Z" id="Drawing_603_0" style="fill:none;stroke:#000;stroke-width:0.33px;" />
<g id="g3100">
<path d="M21.681,221.548c-2.466,0 -4.521,-1.891 -4.521,-4.356c0,-2.466 2.055,-4.481 4.521,-4.481c2.465,0 4.356,2.014 4.356,4.481c0,2.465 -1.891,4.356 -4.356,4.356Z" id="path3096" style="fill:#fff;" />
<path d="M26.037,221.59l-8.919,0l0,-8.878l8.919,0l0,8.878Z" id="rect3098" style="fill:none;" />
</g>
<path d="M21.681,221.548c-2.466,0 -4.521,-1.891 -4.521,-4.356c0,-2.466 2.055,-4.481 4.521,-4.481c2.465,0 4.356,2.014 4.356,4.481c0,2.465 -1.891,4.356 -4.356,4.356Z" id="Drawing_605_0" style="fill:none;stroke:#000;stroke-width:0.33px;" />
</g>
<g id="DrawingGroup_28">
<g id="g3110">
<path d="M125.254,42.924c0,0.287 -0.123,0.41 -0.164,0.697c0.164,0.576 -0.083,0.699 -0.164,0.905c0.081,0.658 -0.206,0.863 -0.494,1.151l0,0.329c-0.534,0.903 -1.602,1.396 -2.178,1.562c0.576,0.123 1.644,0.616 2.178,1.521l0,0.37c0.289,0.287 0.576,0.41 0.494,1.069c0.081,0.247 0.328,0.41 0.164,0.945c0.123,0.37 0.41,0.657 0,1.15c0.164,0.329 0.164,0.782 -0.083,1.111c0.083,0.493 -0.081,0.657 -0.204,0.78c0,0.123 0.041,0.822 -0.452,1.192c0.164,0.905 -0.452,1.151 -1.028,0.822c-0.287,0.247 -0.576,0.37 -1.069,-0.041c-0.247,0.123 -0.616,0.041 -0.986,-0.289c-0.412,0.083 -0.699,-0.081 -0.905,-0.41c-0.576,0.041 -0.863,-0.493 -0.986,-0.658c-0.37,-0.041 -0.616,-0.204 -0.782,-0.821c-0.493,-0.165 -0.534,-0.494 -0.699,-0.905c-0.697,1.233 -1.602,2.301 -3.986,2.301l-0.289,0.206c-0.903,1.398 -3.657,2.672 -5.919,0.699c-0.74,-0.123 -1.233,-0.329 -1.808,-0.535c-2.261,-0.287 -3.329,-2.219 -3.452,-2.754c-0.534,-0.699 -1.151,-1.479 -1.479,-2.548c-1.028,-1.028 -1.398,-2.097 -1.398,-3.206l0,-0.083c0,-1.069 0.37,-2.178 1.398,-3.165c0.328,-1.027 0.945,-1.808 1.479,-2.59c0.123,-0.493 1.192,-2.384 3.452,-2.671c0.576,-0.206 1.069,-0.41 1.808,-0.576c2.262,-2.014 5.016,-0.699 5.919,0.699l0.289,0.247c2.384,-0.083 3.289,1.028 3.986,2.22c0.165,-0.329 0.206,-0.699 0.699,-0.822c0.165,-0.658 0.412,-0.782 0.782,-0.863c0.123,-0.206 0.41,-0.782 0.986,-0.699c0.206,-0.289 0.493,-0.493 0.905,-0.37c0.37,-0.329 0.74,-0.494 0.986,-0.329c0.493,-0.329 0.782,-0.206 1.069,0c0.576,-0.329 1.192,-0.083 1.028,0.78c0.493,0.329 0.452,1.111 0.452,1.192c0.123,0.123 0.287,0.329 0.204,0.822c0.247,0.37 0.247,0.741 0.083,1.151c0.123,0.123 0.164,0.287 0.164,0.412Z" id="path3106" style="fill:#fff;" />
<path d="M125.296,57.678l-25.813,0l0,-20.222l25.813,0l0,20.222Z" id="rect3108" style="fill:none;" />
</g>
<path d="M125.254,42.924c0,0.287 -0.123,0.41 -0.164,0.697c0.164,0.576 -0.083,0.699 -0.164,0.905c0.081,0.658 -0.206,0.863 -0.494,1.151l0,0.329c-0.534,0.903 -1.602,1.396 -2.178,1.562c0.576,0.123 1.644,0.616 2.178,1.521l0,0.37c0.289,0.287 0.576,0.41 0.494,1.069c0.081,0.247 0.328,0.41 0.164,0.945c0.123,0.37 0.41,0.657 0,1.15c0.164,0.329 0.164,0.782 -0.083,1.111c0.083,0.493 -0.081,0.657 -0.204,0.78c0,0.123 0.041,0.822 -0.452,1.192c0.164,0.905 -0.452,1.151 -1.028,0.822c-0.287,0.247 -0.576,0.37 -1.069,-0.041c-0.247,0.123 -0.616,0.041 -0.986,-0.289c-0.412,0.083 -0.699,-0.081 -0.905,-0.41c-0.576,0.041 -0.863,-0.493 -0.986,-0.658c-0.37,-0.041 -0.616,-0.204 -0.782,-0.821c-0.493,-0.165 -0.534,-0.494 -0.699,-0.905c-0.697,1.233 -1.602,2.301 -3.986,2.301l-0.289,0.206c-0.903,1.398 -3.657,2.672 -5.919,0.699c-0.74,-0.123 -1.233,-0.329 -1.808,-0.535c-2.261,-0.287 -3.329,-2.219 -3.452,-2.754c-0.534,-0.699 -1.151,-1.479 -1.479,-2.548c-1.028,-1.028 -1.398,-2.097 -1.398,-3.206l0,-0.083c0,-1.069 0.37,-2.178 1.398,-3.165c0.328,-1.027 0.945,-1.808 1.479,-2.59c0.123,-0.493 1.192,-2.384 3.452,-2.671c0.576,-0.206 1.069,-0.41 1.808,-0.576c2.262,-2.014 5.016,-0.699 5.919,0.699l0.289,0.247c2.384,-0.083 3.289,1.028 3.986,2.22c0.165,-0.329 0.206,-0.699 0.699,-0.822c0.165,-0.658 0.412,-0.782 0.782,-0.863c0.123,-0.206 0.41,-0.782 0.986,-0.699c0.206,-0.289 0.493,-0.493 0.905,-0.37c0.37,-0.329 0.74,-0.494 0.986,-0.329c0.493,-0.329 0.782,-0.206 1.069,0c0.576,-0.329 1.192,-0.083 1.028,0.78c0.493,0.329 0.452,1.111 0.452,1.192c0.123,0.123 0.287,0.329 0.204,0.822c0.247,0.37 0.247,0.741 0.083,1.151c0.123,0.123 0.164,0.287 0.164,0.412Z" id="Drawing_607_0" style="fill:none;stroke:#fff;stroke-width:0.29px;" />
<g id="g3119">
<path d="M119.747,45.719c-1.604,-0.41 -1.685,-2.424 -1.604,-3.206c0.042,0.123 0.125,0.287 0.289,0.287c0.123,-0.164 0,-0.863 0.287,-1.356c0.042,0.206 0.042,0.287 0.165,0.412c0.164,-0.494 0.287,-0.945 0.534,-1.234c0,0.206 0,0.329 0.123,0.452c0.206,-0.329 0.37,-0.822 0.699,-1.109c0,0.204 0,0.41 0.083,0.493c0.206,-0.329 0.493,-0.699 0.78,-0.905c-0.081,0.289 0,0.329 0,0.493c0.289,-0.287 0.535,-0.699 0.905,-0.863c-0.083,0.247 -0.164,0.452 0,0.576c0.206,-0.041 0.329,-0.493 0.822,-0.699c-0.083,0.206 -0.083,0.41 0,0.493c0.452,-0.083 0.658,-0.287 0.945,-0.493l0,1.192l0.329,-0.287c0.123,0.493 -0.083,0.986 -0.123,1.356c0.123,0.123 0.247,0 0.41,-0.247c-0.083,0.37 -0.164,0.782 -0.287,1.069c0.123,0.206 0.37,-0.041 0.493,-0.206c-0.123,0.616 -0.289,0.863 -0.412,1.111c0.123,0.247 0.289,0 0.494,-0.123c-0.206,0.493 -0.452,0.78 -0.658,0.986c0.083,0.083 0.206,0.206 0.493,0.083c-0.206,0.328 -0.41,0.534 -0.699,0.78c0.165,0.165 0.289,0.123 0.493,0.123l-0.821,0.822c0,0 0.123,0.083 0.328,0.164c-0.78,0.782 -2.794,1.973 -3.576,0.289c1.192,-1.48 2.055,-3.165 2.672,-5.097c-1.275,2.507 -2.261,3.864 -3.165,4.644Z" id="path3115" style="fill:#00723e;" />
<path d="M124.72,47.076l-6.658,0l0,-8.016l6.658,0l0,8.016Z" id="rect3117" style="fill:none;" />
</g>
<path d="M122.912,41.074c-1.275,2.507 -2.261,3.864 -3.165,4.644c-1.604,-0.41 -1.685,-2.424 -1.604,-3.206c0.042,0.123 0.125,0.287 0.289,0.287c0.123,-0.164 0,-0.863 0.287,-1.356c0.042,0.206 0.042,0.287 0.165,0.412c0.164,-0.494 0.287,-0.945 0.534,-1.234c0,0.206 0,0.329 0.123,0.452c0.206,-0.329 0.37,-0.822 0.699,-1.109c0,0.204 0,0.41 0.083,0.493c0.206,-0.329 0.493,-0.699 0.78,-0.905c-0.081,0.289 0,0.329 0,0.493c0.289,-0.287 0.535,-0.699 0.905,-0.863c-0.083,0.247 -0.164,0.452 0,0.576c0.206,-0.041 0.329,-0.493 0.822,-0.699c-0.083,0.206 -0.083,0.41 0,0.493c0.452,-0.083 0.658,-0.287 0.945,-0.493l0,1.192l0.329,-0.287c0.123,0.493 -0.083,0.986 -0.123,1.356c0.123,0.123 0.247,0 0.41,-0.247c-0.083,0.37 -0.164,0.782 -0.287,1.069c0.123,0.206 0.37,-0.041 0.493,-0.206c-0.123,0.616 -0.289,0.863 -0.412,1.111c0.123,0.247 0.289,0 0.494,-0.123c-0.206,0.493 -0.452,0.78 -0.658,0.986c0.083,0.083 0.206,0.206 0.493,0.083c-0.206,0.328 -0.41,0.534 -0.699,0.78c0.165,0.165 0.289,0.123 0.493,0.123l-0.821,0.822c0,0 0.123,0.083 0.328,0.164c-0.78,0.782 -2.794,1.973 -3.576,0.289c1.192,-1.48 2.055,-3.165 2.672,-5.097Z" id="Drawing_609_0" style="fill:none;stroke:#fff;stroke-width:0.29px;" />
<g id="g3128">
<path d="M119.747,49.46c0.905,0.74 1.891,2.137 3.165,4.602c-0.618,-1.972 -1.48,-3.616 -2.672,-5.055c0.782,-1.685 2.796,-0.535 3.576,0.287c-0.204,0 -0.328,0.083 -0.328,0.165c0.287,0.247 0.534,0.493 0.821,0.822c-0.204,0 -0.328,-0.083 -0.493,0.081c0.289,0.206 0.493,0.493 0.699,0.822c-0.287,-0.206 -0.41,-0.041 -0.493,0c0.206,0.289 0.452,0.493 0.658,0.986c-0.206,-0.123 -0.371,-0.247 -0.494,-0.123c0.123,0.289 0.289,0.576 0.412,1.192c-0.123,-0.123 -0.37,-0.493 -0.493,-0.287c0.123,0.37 0.204,0.699 0.287,1.109c-0.164,-0.204 -0.287,-0.328 -0.41,-0.204c0.041,0.37 0.247,0.863 0.123,1.356l-0.329,-0.37l0,1.192c-0.287,-0.206 -0.493,-0.329 -0.945,-0.493c-0.083,0.083 -0.083,0.37 0,0.576c-0.493,-0.289 -0.616,-0.658 -0.822,-0.782c-0.164,0.123 -0.083,0.37 0,0.576c-0.37,-0.123 -0.616,-0.493 -0.905,-0.782c0,0.083 -0.081,0.206 0,0.494c-0.287,-0.289 -0.574,-0.576 -0.78,-0.905c-0.083,0.041 -0.083,0.287 -0.083,0.493c-0.329,-0.37 -0.493,-0.78 -0.699,-1.233c-0.123,0.247 -0.123,0.37 -0.123,0.534c-0.247,-0.287 -0.37,-0.78 -0.534,-1.192c-0.123,0.042 -0.123,0.123 -0.165,0.329c-0.287,-0.493 -0.164,-1.109 -0.287,-1.315c-0.164,0.041 -0.247,0.206 -0.289,0.329c-0.081,-0.741 0,-2.878 1.604,-3.206Z" id="path3124" style="fill:#00723e;" />
<path d="M124.72,56.201l-6.658,0l0,-8.056l6.658,0l0,8.056Z" id="rect3126" style="fill:none;" />
</g>
<path d="M122.912,54.062c-0.618,-1.972 -1.48,-3.616 -2.672,-5.055c0.782,-1.685 2.796,-0.535 3.576,0.287c-0.204,0 -0.328,0.083 -0.328,0.165c0.287,0.247 0.534,0.493 0.821,0.822c-0.204,0 -0.328,-0.083 -0.493,0.081c0.289,0.206 0.493,0.493 0.699,0.822c-0.287,-0.206 -0.41,-0.041 -0.493,0c0.206,0.289 0.452,0.493 0.658,0.986c-0.206,-0.123 -0.371,-0.247 -0.494,-0.123c0.123,0.289 0.289,0.576 0.412,1.192c-0.123,-0.123 -0.37,-0.493 -0.493,-0.287c0.123,0.37 0.204,0.699 0.287,1.109c-0.164,-0.204 -0.287,-0.328 -0.41,-0.204c0.041,0.37 0.247,0.863 0.123,1.356l-0.329,-0.37l0,1.192c-0.287,-0.206 -0.493,-0.329 -0.945,-0.493c-0.083,0.083 -0.083,0.37 0,0.576c-0.493,-0.289 -0.616,-0.658 -0.822,-0.782c-0.164,0.123 -0.083,0.37 0,0.576c-0.37,-0.123 -0.616,-0.493 -0.905,-0.782c0,0.083 -0.081,0.206 0,0.494c-0.287,-0.289 -0.574,-0.576 -0.78,-0.905c-0.083,0.041 -0.083,0.287 -0.083,0.493c-0.329,-0.37 -0.493,-0.78 -0.699,-1.233c-0.123,0.247 -0.123,0.37 -0.123,0.534c-0.247,-0.287 -0.37,-0.78 -0.534,-1.192c-0.123,0.042 -0.123,0.123 -0.165,0.329c-0.287,-0.493 -0.164,-1.109 -0.287,-1.315c-0.164,0.041 -0.247,0.206 -0.289,0.329c-0.081,-0.741 0,-2.878 1.604,-3.206c0.905,0.74 1.891,2.137 3.165,4.602Z" id="Drawing_611_0" style="fill:none;stroke:#fff;stroke-width:0.29px;" />
<g id="g3137">
<path d="M106.676,50.486c-1.562,0 -2.754,-1.273 -2.754,-2.877c0,-1.644 1.192,-2.959 2.671,-2.959l0.083,0c1.479,0 2.671,1.315 2.671,2.959c0,1.562 -1.192,2.877 -2.671,2.877Z" id="path3133" style="fill:#00723e;" />
<path d="M109.347,50.528l-5.507,0l0,-5.878l5.507,0l0,5.878Z" id="rect3135" style="fill:none;" />
</g>
<path d="M106.676,50.486c-1.562,0 -2.754,-1.273 -2.754,-2.877c0,-1.644 1.192,-2.959 2.671,-2.959l0.083,0c1.479,0 2.671,1.315 2.671,2.959c0,1.562 -1.192,2.877 -2.671,2.877Z" id="Drawing_613_0" style="fill:none;stroke:#fff;stroke-width:0.29px;" />
<g id="g3146">
<path d="M110.335,46.377c-1.398,-0.905 -1.973,-2.672 -1.111,-3.864c0.741,-1.192 2.59,-1.438 3.988,-0.493c1.398,0.905 1.973,2.671 1.109,3.945c-0.78,1.192 -2.59,1.398 -3.986,0.412Z" id="path3142" style="fill:#00723e;" />
<path d="M114.773,47.074l-6.002,0l0,-5.63l6.002,0l0,5.63Z" id="rect3144" style="fill:none;" />
</g>
<path d="M114.321,45.965c-0.78,1.192 -2.59,1.398 -3.986,0.412c-1.398,-0.905 -1.973,-2.672 -1.111,-3.864c0.741,-1.192 2.59,-1.438 3.988,-0.493c1.398,0.905 1.973,2.671 1.109,3.945Z" id="Drawing_615_0" style="fill:none;stroke:#fff;stroke-width:0.29px;" />
<g id="g3155">
<path d="M114.444,49.171c0.864,1.192 0.289,2.959 -1.109,3.945c-1.398,0.905 -3.247,0.699 -3.988,-0.493c-0.78,-1.192 -0.287,-2.959 1.111,-3.945c1.396,-0.945 3.247,-0.699 3.986,0.493Z" id="path3151" style="fill:#00723e;" />
<path d="M114.856,53.733l-5.919,0l0,-5.63l5.919,0l0,5.63Z" id="rect3153" style="fill:none;" />
</g>
<path d="M114.444,49.171c0.864,1.192 0.289,2.959 -1.109,3.945c-1.398,0.905 -3.247,0.699 -3.988,-0.493c-0.78,-1.192 -0.287,-2.959 1.111,-3.945c1.396,-0.945 3.247,-0.699 3.986,0.493Z" id="Drawing_617_0" style="fill:none;stroke:#fff;stroke-width:0.29px;" />
<g id="g3164">
<path d="M113.088,39.842c0.329,1.315 -5.426,0.41 -5.014,-0.658c0.986,-1.109 3.74,-1.521 5.014,0.658Z" id="path3160" style="fill:#00723e;" />
<path d="M113.088,40.539l-5.097,0l0,-2.261l5.097,0l0,2.261Z" id="rect3162" style="fill:none;" />
</g>
<path d="M113.088,39.842c0.329,1.315 -5.426,0.41 -5.014,-0.658c0.986,-1.109 3.74,-1.521 5.014,0.658Z" id="Drawing_619_0" style="fill:none;stroke:#fff;stroke-width:0.29px;" />
<g id="g3173">
<path d="M113.129,55.007c-1.275,2.137 -4.028,1.727 -5.014,0.618c-0.412,-1.111 5.343,-1.973 5.014,-0.618Z" id="path3169" style="fill:#00723e;" />
<path d="M113.129,56.611l-5.097,0l0,-2.301l5.097,0l0,2.301Z" id="rect3171" style="fill:none;" />
</g>
<path d="M113.129,55.007c-1.275,2.137 -4.028,1.727 -5.014,0.618c-0.412,-1.111 5.343,-1.973 5.014,-0.618Z" id="Drawing_621_0" style="fill:none;stroke:#fff;stroke-width:0.29px;" />
<g id="g3182">
<path d="M117.446,50.486c0.328,2.303 -0.987,4.151 -3.454,4.07c-0.903,-0.083 3.289,-4.85 3.454,-4.07Z" id="path3178" style="fill:#00723e;" />
<path d="M117.527,54.638l-3.741,0l0,-4.275l3.741,0l0,4.275Z" id="rect3180" style="fill:none;" />
</g>
<path d="M117.446,50.486c0.328,2.303 -0.987,4.151 -3.454,4.07c-0.903,-0.083 3.289,-4.85 3.454,-4.07Z" id="Drawing_623_0" style="fill:none;stroke:#fff;stroke-width:0.29px;" />
<g id="g3191">
<path d="M117.486,44.28c-0.164,0.822 -4.357,-4.028 -3.452,-4.028c2.466,-0.123 3.782,1.768 3.452,4.028Z" id="path3187" style="fill:#00723e;" />
<path d="M117.569,44.444l-3.741,0l0,-4.192l3.741,0l0,4.192Z" id="rect3189" style="fill:none;" />
</g>
<path d="M117.486,44.28c-0.164,0.822 -4.357,-4.028 -3.452,-4.028c2.466,-0.123 3.782,1.768 3.452,4.028Z" id="Drawing_625_0" style="fill:none;stroke:#fff;stroke-width:0.29px;" />
<g id="g3200">
<path d="M118.062,47.569c0,1.192 -0.905,2.671 -1.768,2.671c-0.699,0 -1.315,-1.069 -1.315,-2.671c0,-1.604 0.78,-2.672 1.479,-2.672c0.616,0 1.685,1.275 1.604,2.672Z" id="path3196" style="fill:#00723e;" />
<path d="M118.062,50.322l-3.165,0l0,-5.426l3.165,0l0,5.426Z" id="rect3198" style="fill:none;" />
</g>
<path d="M118.062,47.569c0,1.192 -0.905,2.671 -1.768,2.671c-0.699,0 -1.315,-1.069 -1.315,-2.671c0,-1.604 0.78,-2.672 1.479,-2.672c0.616,0 1.685,1.275 1.604,2.672Z" id="Drawing_627_0" style="fill:none;stroke:#fff;stroke-width:0.29px;" />
<g id="g3209">
<path d="M103.101,47.609c0.041,1.192 -0.452,2.754 -0.905,2.754c-0.576,0 -1.85,-1.438 -1.85,-2.836c-0.041,-1.479 1.193,-2.877 1.604,-2.877c0.658,0 1.151,1.768 1.151,2.959Z" id="path3205" style="fill:#00723e;" />
<path d="M103.141,50.405l-2.877,0l0,-5.755l2.877,0l0,5.755Z" id="rect3207" style="fill:none;" />
</g>
<path d="M103.101,47.609c0.041,1.192 -0.452,2.754 -0.905,2.754c-0.576,0 -1.85,-1.438 -1.85,-2.836c-0.041,-1.479 1.193,-2.877 1.604,-2.877c0.658,0 1.151,1.768 1.151,2.959Z" id="Drawing_629_0" style="fill:none;stroke:#fff;stroke-width:0.29px;" />
<g id="g3218">
<path d="M103.141,43.745c-0.41,-0.616 -0.206,-2.219 1.398,-3.37c1.398,-0.782 2.836,-0.699 3.164,-0.164c0.576,0.863 -0.123,2.055 -1.273,3.041c-0.945,0.864 -2.713,1.192 -3.289,0.493Z" id="path3214" style="fill:#00723e;" />
<path d="M107.951,44.197l-5.056,0l0,-4.398l5.056,0l0,4.398Z" id="rect3216" style="fill:none;" />
</g>
<path d="M106.43,43.252c-0.945,0.864 -2.713,1.192 -3.289,0.493c-0.41,-0.616 -0.206,-2.219 1.398,-3.37c1.398,-0.782 2.836,-0.699 3.164,-0.164c0.576,0.863 -0.123,2.055 -1.273,3.041Z" id="Drawing_631_0" style="fill:none;stroke:#fff;stroke-width:0.29px;" />
<g id="g3227">
<path d="M106.8,51.761c1.109,1.028 1.891,2.178 1.315,2.959c-0.576,0.452 -2.466,0.822 -3.658,-0.083c-1.726,-1.273 -1.808,-2.959 -1.315,-3.576c0.616,-0.699 2.59,-0.164 3.658,0.699Z" id="path3223" style="fill:#00723e;" />
<path d="M108.361,55.254l-5.549,0l0,-4.521l5.549,0l0,4.521Z" id="rect3225" style="fill:none;" />
</g>
<path d="M106.8,51.761c1.109,1.028 1.891,2.178 1.315,2.959c-0.576,0.452 -2.466,0.822 -3.658,-0.083c-1.726,-1.273 -1.808,-2.959 -1.315,-3.576c0.616,-0.699 2.59,-0.164 3.658,0.699Z" id="Drawing_633_0" style="fill:none;stroke:#fff;stroke-width:0.29px;" />
</g>
<g id="Memory">
<g id="path3246">
<path d="M96.583,178.554l0,-39.601l50.749,0l0,39.601l-50.749,0Z" style="fill:#858585;" />
</g>
<g id="Drawing_635_0">
<path d="M96.583,178.164l0,-39.212l50.073,0l0,39.212l-50.073,0Z" style="fill:none;stroke:#000;stroke-width:1.63px;" />
</g>
</g>
<g id="Drawing_634">
<path d="M181.406,193.721l-24.004,0l0,-103.743l24.004,0l0,103.743Z" id="rect3233" style="fill:none;" />
<g id="g3243">
<g>
<g id="text3237">
<g transform="matrix(0,1,-1,0,274.056276,-67.300573)">
<g transform="matrix(5.7957,0,0,5.7957,212.878363,103.377852)"></g>
<text x="170.678" y="103.378" font-size="12" style="font-family:'Arial-BoldMT', 'Arial', sans-serif;font-weight:700;font-size:5.796px;fill:#fff;">Raspberry Pi 4</text>
</g>
</g>
</g>
</g>
</g>
<g id="DrawingGroup_29">
<g id="g3249">
<g id="path32461">
<path d="M147.334,47.831l0,-23.431l28.999,0l0,23.431l-28.999,0Z" style="fill:#eee;" />
</g>
<g id="Drawing_635_01">
<path d="M147.333,47.601l0,-23.2l28.613,0l0,23.2l-28.613,0Z" style="fill:none;stroke:#000;stroke-width:0.96px;" />
</g>
</g>
</g>
</g>
<g id="connectors-4">
<g id="g23183">
<path d="M190.728,16.113c0,1.92 -1.559,3.478 -3.478,3.478c-1.92,0 -3.478,-1.559 -3.478,-3.478c0,-1.92 1.559,-3.478 3.478,-3.478c1.92,0 3.478,1.559 3.478,3.478Z" id="connector0pin-0" style="fill:none;stroke:#ffbf00;stroke-width:1.67px;stroke-linejoin:miter;" />
<path d="M190.728,28.107c0,1.92 -1.559,3.478 -3.478,3.478c-1.92,0 -3.478,-1.559 -3.478,-3.478c0,-1.92 1.559,-3.478 3.478,-3.478c1.92,0 3.478,1.559 3.478,3.478Z" id="connector1pin-1" style="fill:none;stroke:#ffbf00;stroke-width:1.67px;stroke-linejoin:miter;" />
<path d="M190.728,40.101c0,1.92 -1.559,3.478 -3.478,3.478c-1.92,0 -3.478,-1.559 -3.478,-3.478c0,-1.92 1.559,-3.478 3.478,-3.478c1.92,0 3.478,1.559 3.478,3.478Z" id="connector2pin-3" style="fill:none;stroke:#ffbf00;stroke-width:1.67px;stroke-linejoin:miter;" />
<path d="M190.728,52.096c0,1.92 -1.559,3.478 -3.478,3.478c-1.92,0 -3.478,-1.559 -3.478,-3.478c0,-1.92 1.559,-3.478 3.478,-3.478c1.92,0 3.478,1.559 3.478,3.478Z" id="connector3pin-7" style="fill:none;stroke:#ffbf00;stroke-width:1.67px;stroke-linejoin:miter;" />
<path d="M190.728,64.09c0,1.92 -1.559,3.478 -3.478,3.478c-1.92,0 -3.478,-1.559 -3.478,-3.478c0,-1.92 1.559,-3.478 3.478,-3.478c1.92,0 3.478,1.559 3.478,3.478Z" id="connector4pin-4" style="fill:none;stroke:#ffbf00;stroke-width:1.67px;stroke-linejoin:miter;" />
<path d="M190.728,76.084c0,1.92 -1.559,3.478 -3.478,3.478c-1.92,0 -3.478,-1.559 -3.478,-3.478c0,-1.92 1.559,-3.478 3.478,-3.478c1.92,0 3.478,1.559 3.478,3.478Z" id="connector5pin-1" style="fill:none;stroke:#ffbf00;stroke-width:1.67px;stroke-linejoin:miter;" />
<path d="M190.728,88.079c0,1.92 -1.559,3.478 -3.478,3.478c-1.92,0 -3.478,-1.559 -3.478,-3.478c0,-1.92 1.559,-3.478 3.478,-3.478c1.92,0 3.478,1.559 3.478,3.478Z" id="connector6pin-1" style="fill:none;stroke:#ffbf00;stroke-width:1.67px;stroke-linejoin:miter;" />
<path d="M190.728,100.073c0,1.92 -1.559,3.478 -3.478,3.478c-1.92,0 -3.478,-1.559 -3.478,-3.478c0,-1.92 1.559,-3.478 3.478,-3.478c1.92,0 3.478,1.559 3.478,3.478Z" id="connector7pin-3" style="fill:none;stroke:#ffbf00;stroke-width:1.67px;stroke-linejoin:miter;" />
<path d="M190.728,112.069c0,1.92 -1.559,3.478 -3.478,3.478c-1.92,0 -3.478,-1.559 -3.478,-3.478c0,-1.92 1.559,-3.478 3.478,-3.478c1.92,0 3.478,1.559 3.478,3.478Z" id="connector8pin-0" style="fill:none;stroke:#ffbf00;stroke-width:1.67px;stroke-linejoin:miter;" />
<path d="M190.728,124.062c0,1.92 -1.559,3.478 -3.478,3.478c-1.92,0 -3.478,-1.559 -3.478,-3.478c0,-1.92 1.559,-3.478 3.478,-3.478c1.92,0 3.478,1.559 3.478,3.478Z" id="connector9pin-3" style="fill:none;stroke:#ffbf00;stroke-width:1.67px;stroke-linejoin:miter;" />
<path d="M190.728,136.056c0,1.92 -1.559,3.478 -3.478,3.478c-1.92,0 -3.478,-1.559 -3.478,-3.478c0,-1.92 1.559,-3.478 3.478,-3.478c1.92,0 3.478,1.559 3.478,3.478Z" id="connector10pin-2" style="fill:none;stroke:#ffbf00;stroke-width:1.67px;stroke-linejoin:miter;" />
<path d="M190.73,148.05c0,1.921 -1.559,3.48 -3.48,3.48c-1.921,0 -3.48,-1.559 -3.48,-3.48c0,-1.921 1.559,-3.48 3.48,-3.48c1.921,0 3.48,1.559 3.48,3.48Z" id="connector11pin-1" style="fill:none;stroke:#ffbf00;stroke-width:1.67px;stroke-linejoin:miter;" />
<path d="M190.728,160.044c0,1.92 -1.559,3.478 -3.478,3.478c-1.92,0 -3.478,-1.559 -3.478,-3.478c0,-1.92 1.559,-3.478 3.478,-3.478c1.92,0 3.478,1.559 3.478,3.478Z" id="connector12pin-7" style="fill:none;stroke:#ffbf00;stroke-width:1.67px;stroke-linejoin:miter;" />
<path d="M190.728,172.039c0,1.92 -1.559,3.478 -3.478,3.478c-1.92,0 -3.478,-1.559 -3.478,-3.478c0,-1.92 1.559,-3.478 3.478,-3.478c1.92,0 3.478,1.559 3.478,3.478Z" id="connector13pin-5" style="fill:none;stroke:#ffbf00;stroke-width:1.67px;stroke-linejoin:miter;" />
<path d="M190.728,184.035c0,1.92 -1.559,3.478 -3.478,3.478c-1.92,0 -3.478,-1.559 -3.478,-3.478c0,-1.92 1.559,-3.478 3.478,-3.478c1.92,0 3.478,1.559 3.478,3.478Z" id="connector14pin-6" style="fill:none;stroke:#ffbf00;stroke-width:1.67px;stroke-linejoin:miter;" />
<path d="M190.728,196.027c0,1.92 -1.559,3.478 -3.478,3.478c-1.92,0 -3.478,-1.559 -3.478,-3.478c0,-1.92 1.559,-3.478 3.478,-3.478c1.92,0 3.478,1.559 3.478,3.478Z" id="connector15pin-5" style="fill:none;stroke:#ffbf00;stroke-width:1.67px;stroke-linejoin:miter;" />
<path d="M190.73,208.022c0,1.921 -1.559,3.48 -3.48,3.48c-1.921,0 -3.48,-1.559 -3.48,-3.48c0,-1.921 1.559,-3.48 3.48,-3.48c1.921,0 3.48,1.559 3.48,3.48Z" id="connector16pin-4" style="fill:none;stroke:#ffbf00;stroke-width:1.67px;stroke-linejoin:miter;" />
<path d="M190.728,220.016c0,1.92 -1.559,3.478 -3.478,3.478c-1.92,0 -3.478,-1.559 -3.478,-3.478c0,-1.92 1.559,-3.478 3.478,-3.478c1.92,0 3.478,1.559 3.478,3.478Z" id="connector17pin-2" style="fill:none;stroke:#ffbf00;stroke-width:1.67px;stroke-linejoin:miter;" />
<path d="M190.728,232.009c0,1.92 -1.559,3.478 -3.478,3.478c-1.92,0 -3.478,-1.559 -3.478,-3.478c0,-1.92 1.559,-3.478 3.478,-3.478c1.92,0 3.478,1.559 3.478,3.478Z" id="connector18pin-2" style="fill:none;stroke:#ffbf00;stroke-width:1.67px;stroke-linejoin:miter;" />
<path d="M190.728,244.005c0,1.92 -1.559,3.478 -3.478,3.478c-1.92,0 -3.478,-1.559 -3.478,-3.478c0,-1.92 1.559,-3.478 3.478,-3.478c1.92,0 3.478,1.559 3.478,3.478Z" id="connector19pin-1" style="fill:none;stroke:#ffbf00;stroke-width:1.67px;stroke-linejoin:miter;" />
<path d="M202.72,244.005c0,1.92 -1.559,3.478 -3.478,3.478c-1.92,0 -3.478,-1.559 -3.478,-3.478c0,-1.92 1.559,-3.478 3.478,-3.478c1.92,0 3.478,1.559 3.478,3.478Z" id="connector20pin-7" style="fill:none;stroke:#ffbf00;stroke-width:1.67px;stroke-linejoin:miter;" />
<path d="M202.72,232.009c0,1.92 -1.559,3.478 -3.478,3.478c-1.92,0 -3.478,-1.559 -3.478,-3.478c0,-1.92 1.559,-3.478 3.478,-3.478c1.92,0 3.478,1.559 3.478,3.478Z" id="connector21pin-2" style="fill:none;stroke:#ffbf00;stroke-width:1.67px;stroke-linejoin:miter;" />
<path d="M202.72,220.016c0,1.92 -1.559,3.478 -3.478,3.478c-1.92,0 -3.478,-1.559 -3.478,-3.478c0,-1.92 1.559,-3.478 3.478,-3.478c1.92,0 3.478,1.559 3.478,3.478Z" id="connector22pin-4" style="fill:none;stroke:#ffbf00;stroke-width:1.67px;stroke-linejoin:miter;" />
<path d="M202.722,208.022c0,1.921 -1.559,3.48 -3.48,3.48c-1.921,0 -3.48,-1.559 -3.48,-3.48c0,-1.921 1.559,-3.48 3.48,-3.48c1.921,0 3.48,1.559 3.48,3.48Z" id="connector23pin-1" style="fill:none;stroke:#ffbf00;stroke-width:1.67px;stroke-linejoin:miter;" />
<path d="M202.72,196.027c0,1.92 -1.559,3.478 -3.478,3.478c-1.92,0 -3.478,-1.559 -3.478,-3.478c0,-1.92 1.559,-3.478 3.478,-3.478c1.92,0 3.478,1.559 3.478,3.478Z" id="connector24pin-6" style="fill:none;stroke:#ffbf00;stroke-width:1.67px;stroke-linejoin:miter;" />
<path d="M202.72,184.035c0,1.92 -1.559,3.478 -3.478,3.478c-1.92,0 -3.478,-1.559 -3.478,-3.478c0,-1.92 1.559,-3.478 3.478,-3.478c1.92,0 3.478,1.559 3.478,3.478Z" id="connector25pin-5" style="fill:none;stroke:#ffbf00;stroke-width:1.67px;stroke-linejoin:miter;" />
<path d="M202.72,172.039c0,1.92 -1.559,3.478 -3.478,3.478c-1.92,0 -3.478,-1.559 -3.478,-3.478c0,-1.92 1.559,-3.478 3.478,-3.478c1.92,0 3.478,1.559 3.478,3.478Z" id="connector26pin-7" style="fill:none;stroke:#ffbf00;stroke-width:1.67px;stroke-linejoin:miter;" />
<path d="M202.72,160.044c0,1.92 -1.559,3.478 -3.478,3.478c-1.92,0 -3.478,-1.559 -3.478,-3.478c0,-1.92 1.559,-3.478 3.478,-3.478c1.92,0 3.478,1.559 3.478,3.478Z" id="connector27pin-8" style="fill:none;stroke:#ffbf00;stroke-width:1.67px;stroke-linejoin:miter;" />
<path d="M202.722,148.05c0,1.921 -1.559,3.48 -3.48,3.48c-1.921,0 -3.48,-1.559 -3.48,-3.48c0,-1.921 1.559,-3.48 3.48,-3.48c1.921,0 3.48,1.559 3.48,3.48Z" id="connector28pin-5" style="fill:none;stroke:#ffbf00;stroke-width:1.67px;stroke-linejoin:miter;" />
<path d="M202.72,136.056c0,1.92 -1.559,3.478 -3.478,3.478c-1.92,0 -3.478,-1.559 -3.478,-3.478c0,-1.92 1.559,-3.478 3.478,-3.478c1.92,0 3.478,1.559 3.478,3.478Z" id="connector29pin-9" style="fill:none;stroke:#ffbf00;stroke-width:1.67px;stroke-linejoin:miter;" />
<path d="M202.72,124.062c0,1.92 -1.559,3.478 -3.478,3.478c-1.92,0 -3.478,-1.559 -3.478,-3.478c0,-1.92 1.559,-3.478 3.478,-3.478c1.92,0 3.478,1.559 3.478,3.478Z" id="connector30pin-2" style="fill:none;stroke:#ffbf00;stroke-width:1.67px;stroke-linejoin:miter;" />
<path d="M202.72,112.069c0,1.92 -1.559,3.478 -3.478,3.478c-1.92,0 -3.478,-1.559 -3.478,-3.478c0,-1.92 1.559,-3.478 3.478,-3.478c1.92,0 3.478,1.559 3.478,3.478Z" id="connector31pin-7" style="fill:none;stroke:#ffbf00;stroke-width:1.67px;stroke-linejoin:miter;" />
<path d="M202.72,100.073c0,1.92 -1.559,3.478 -3.478,3.478c-1.92,0 -3.478,-1.559 -3.478,-3.478c0,-1.92 1.559,-3.478 3.478,-3.478c1.92,0 3.478,1.559 3.478,3.478Z" id="connector32pin-3" style="fill:none;stroke:#ffbf00;stroke-width:1.67px;stroke-linejoin:miter;" />
<path d="M202.72,88.079c0,1.92 -1.559,3.478 -3.478,3.478c-1.92,0 -3.478,-1.559 -3.478,-3.478c0,-1.92 1.559,-3.478 3.478,-3.478c1.92,0 3.478,1.559 3.478,3.478Z" id="connector33pin-6" style="fill:none;stroke:#ffbf00;stroke-width:1.67px;stroke-linejoin:miter;" />
<path d="M202.72,76.084c0,1.92 -1.559,3.478 -3.478,3.478c-1.92,0 -3.478,-1.559 -3.478,-3.478c0,-1.92 1.559,-3.478 3.478,-3.478c1.92,0 3.478,1.559 3.478,3.478Z" id="connector34pin-4" style="fill:none;stroke:#ffbf00;stroke-width:1.67px;stroke-linejoin:miter;" />
<path d="M202.72,64.09c0,1.92 -1.559,3.478 -3.478,3.478c-1.92,0 -3.478,-1.559 -3.478,-3.478c0,-1.92 1.559,-3.478 3.478,-3.478c1.92,0 3.478,1.559 3.478,3.478Z" id="connector35pin-7" style="fill:none;stroke:#ffbf00;stroke-width:1.67px;stroke-linejoin:miter;" />
<path d="M202.72,52.096c0,1.92 -1.559,3.478 -3.478,3.478c-1.92,0 -3.478,-1.559 -3.478,-3.478c0,-1.92 1.559,-3.478 3.478,-3.478c1.92,0 3.478,1.559 3.478,3.478Z" id="connector36pin-9" style="fill:none;stroke:#ffbf00;stroke-width:1.67px;stroke-linejoin:miter;" />
<path d="M202.72,40.101c0,1.92 -1.559,3.478 -3.478,3.478c-1.92,0 -3.478,-1.559 -3.478,-3.478c0,-1.92 1.559,-3.478 3.478,-3.478c1.92,0 3.478,1.559 3.478,3.478Z" id="connector37pin-7" style="fill:none;stroke:#ffbf00;stroke-width:1.67px;stroke-linejoin:miter;" />
<path d="M202.72,28.107c0,1.92 -1.559,3.478 -3.478,3.478c-1.92,0 -3.478,-1.559 -3.478,-3.478c0,-1.92 1.559,-3.478 3.478,-3.478c1.92,0 3.478,1.559 3.478,3.478Z" id="connector38pin-2" style="fill:none;stroke:#ffbf00;stroke-width:1.67px;stroke-linejoin:miter;" />
<path d="M202.72,16.113c0,1.92 -1.559,3.478 -3.478,3.478c-1.92,0 -3.478,-1.559 -3.478,-3.478c0,-1.92 1.559,-3.478 3.478,-3.478c1.92,0 3.478,1.559 3.478,3.478Z" id="connector39pin-2" style="fill:none;stroke:#ffbf00;stroke-width:1.67px;stroke-linejoin:miter;" />
</g>
</g>
</g>
<text x="142.70999999999998" y="407.46" font-size="14" text-anchor="middle" font-family="Arial, sans-serif" font-weight="bold" fill="#333">Raspberry Pi 4 Model B</text>
<circle cx="227.1" cy="96.2" r="4.5" fill="#FFA500" stroke="#333" stroke-width="0.5" opacity="0.95" />
<text x="227.1" y="97.7" font-size="4.5" text-anchor="middle" font-family="Arial, sans-serif" font-weight="bold" fill="#000000">1</text>
<circle cx="239.1" cy="96.2" r="4.5" fill="#FF0000" stroke="#333" stroke-width="0.5" opacity="0.95" />
<text x="239.1" y="97.7" font-size="4.5" text-anchor="middle" font-family="Arial, sans-serif" font-weight="bold" fill="#000000">2</text>
<circle cx="227.1" cy="108.2" r="4.5" fill="#FF00FF" stroke="#333" stroke-width="0.5" opacity="0.95" />
<text x="227.1" y="109.7" font-size="4.5" text-anchor="middle" font-family="Arial, sans-serif" font-weight="bold" fill="#000000">3</text>
<circle cx="239.1" cy="108.2" r="4.5" fill="#FF0000" stroke="#333" stroke-width="0.5" opacity="0.95" />
<text x="239.1" y="109.7" font-size="4.5" text-anchor="middle" font-family="Arial, sans-serif" font-weight="bold" fill="#000000">4</text>
<circle cx="227.1" cy="120.2" r="4.5" fill="#FF00FF" stroke="#333" stroke-width="0.5" opacity="0.95" />
<text x="227.1" y="121.7" font-size="4.5" text-anchor="middle" font-family="Arial, sans-serif" font-weight="bold" fill="#000000">5</text>
<circle cx="239.1" cy="120.2" r="4.5" fill="#D3D3D3" stroke="#333" stroke-width="0.5" opacity="0.95" />
<text x="239.1" y="121.7" font-size="4.5" text-anchor="middle" font-family="Arial, sans-serif" font-weight="bold" fill="#000000">6</text>
<circle cx="227.1" cy="132.2" r="4.5" fill="#00FF00" stroke="#333" stroke-width="0.5" opacity="0.95" />
<text x="227.1" y="133.7" font-size="4.5" text-anchor="middle" font-family="Arial, sans-serif" font-weight="bold" fill="#000000">7</text>
<circle cx="239.1" cy="132.2" r="4.5" fill="#0000FF" stroke="#333" stroke-width="0.5" opacity="0.95" />
<text x="239.1" y="133.7" font-size="4.5" text-anchor="middle" font-family="Arial, sans-serif" font-weight="bold" fill="#FFFFFF">8</text>
<circle cx="227.1" cy="144.2" r="4.5" fill="#D3D3D3" stroke="#333" stroke-width="0.5" opacity="0.95" />
<text x="227.1" y="145.7" font-size="4.5" text-anchor="middle" font-family="Arial, sans-serif" font-weight="bold" fill="#000000">9</text>
<circle cx="239.1" cy="144.2" r="4.5" fill="#0000FF" stroke="#333" stroke-width="0.5" opacity="0.95" />
<text x="239.1" y="145.7" font-size="4.5" text-anchor="middle" font-family="Arial, sans-serif" font-weight="bold" fill="#FFFFFF">10</text>
<circle cx="227.1" cy="156.2" r="4.5" fill="#00FF00" stroke="#333" stroke-width="0.5" opacity="0.95" />
<text x="227.1" y="157.7" font-size="4.5" text-anchor="middle" font-family="Arial, sans-serif" font-weight="bold" fill="#000000">11</text>
<circle cx="239.1" cy="156.2" r="4.5" fill="#00FF00" stroke="#333" stroke-width="0.5" opacity="0.95" />
<text x="239.1" y="157.7" font-size="4.5" text-anchor="middle" font-family="Arial, sans-serif" font-weight="bold" fill="#000000">12</text>
<circle cx="227.1" cy="168.2" r="4.5" fill="#00FF00" stroke="#333" stroke-width="0.5" opacity="0.95" />
<text x="227.1" y="169.7" font-size="4.5" text-anchor="middle" font-family="Arial, sans-serif" font-weight="bold" fill="#000000">13</text>
<circle cx="239.1" cy="168.2" r="4.5" fill="#D3D3D3" stroke="#333" stroke-width="0.5" opacity="0.95" />
<text x="239.1" y="169.7" font-size="4.5" text-anchor="middle" font-family="Arial, sans-serif" font-weight="bold" fill="#000000">14</text>
<circle cx="227.1" cy="180.2" r="4.5" fill="#00FF00" stroke="#333" stroke-width="0.5" opacity="0.95" />
<text x="227.1" y="181.7" font-size="4.5" text-anchor="middle" font-family="Arial, sans-serif" font-weight="bold" fill="#000000">15</text>
<circle cx="239.1" cy="180.2" r="4.5" fill="#00FF00" stroke="#333" stroke-width="0.5" opacity="0.95" />
<text x="239.1" y="181.7" font-size="4.5" text-anchor="middle" font-family="Arial, sans-serif" font-weight="bold" fill="#000000">16</text>
<circle cx="227.1" cy="192.2" r="4.5" fill="#FFA500" stroke="#333" stroke-width="0.5" opacity="0.95" />
<text x="227.1" y="193.7" font-size="4.5" text-anchor="middle" font-family="Arial, sans-serif" font-weight="bold" fill="#000000">17</text>
<circle cx="239.1" cy="192.2" r="4.5" fill="#00FF00" stroke="#333" stroke-width="0.5" opacity="0.95" />
<text x="239.1" y="193.7" font-size="4.5" text-anchor="middle" font-family="Arial, sans-serif" font-weight="bold" fill="#000000">18</text>
<circle cx="227.1" cy="204.2" r="4.5" fill="#0000FF" stroke="#333" stroke-width="0.5" opacity="0.95" />
<text x="227.1" y="205.7" font-size="4.5" text-anchor="middle" font-family="Arial, sans-serif" font-weight="bold" fill="#FFFFFF">19</text>
<circle cx="239.1" cy="204.2" r="4.5" fill="#D3D3D3" stroke="#333" stroke-width="0.5" opacity="0.95" />
<text x="239.1" y="205.7" font-size="4.5" text-anchor="middle" font-family="Arial, sans-serif" font-weight="bold" fill="#000000">20</text>
<circle cx="227.1" cy="216.2" r="4.5" fill="#0000FF" stroke="#333" stroke-width="0.5" opacity="0.95" />
<text x="227.1" y="217.7" font-size="4.5" text-anchor="middle" font-family="Arial, sans-serif" font-weight="bold" fill="#FFFFFF">21</text>
<circle cx="239.1" cy="216.2" r="4.5" fill="#00FF00" stroke="#333" stroke-width="0.5" opacity="0.95" />
<text x="239.1" y="217.7" font-size="4.5" text-anchor="middle" font-family="Arial, sans-serif" font-weight="bold" fill="#000000">22</text>
<circle cx="227.1" cy="228.2" r="4.5" fill="#0000FF" stroke="#333" stroke-width="0.5" opacity="0.95" />
<text x="227.1" y="229.7" font-size="4.5" text-anchor="middle" font-family="Arial, sans-serif" font-weight="bold" fill="#FFFFFF">23</text>
<circle cx="239.1" cy="228.2" r="4.5" fill="#0000FF" stroke="#333" stroke-width="0.5" opacity="0.95" />
<text x="239.1" y="229.7" font-size="4.5" text-anchor="middle" font-family="Arial, sans-serif" font-weight="bold" fill="#FFFFFF">24</text>
<circle cx="227.1" cy="240.2" r="4.5" fill="#D3D3D3" stroke="#333" stroke-width="0.5" opacity="0.95" />
<text x="227.1" y="241.7" font-size="4.5" text-anchor="middle" font-family="Arial, sans-serif" font-weight="bold" fill="#000000">25</text>
<circle cx="239.1" cy="240.2" r="4.5" fill="#0000FF" stroke="#333" stroke-width="0.5" opacity="0.95" />
<text x="239.1" y="241.7" font-size="4.5" text-anchor="middle" font-family="Arial, sans-serif" font-weight="bold" fill="#FFFFFF">26</text>
<circle cx="227.1" cy="252.2" r="4.5" fill="#FFFF00" stroke="#333" stroke-width="0.5" opacity="0.95" />
<text x="227.1" y="253.7" font-size="4.5" text-anchor="middle" font-family="Arial, sans-serif" font-weight="bold" fill="#000000">27</text>
<circle cx="239.1" cy="252.2" r="4.5" fill="#FFFF00" stroke="#333" stroke-width="0.5" opacity="0.95" />
<text x="239.1" y="253.7" font-size="4.5" text-anchor="middle" font-family="Arial, sans-serif" font-weight="bold" fill="#000000">28</text>
<circle cx="227.1" cy="264.2" r="4.5" fill="#00FF00" stroke="#333" stroke-width="0.5" opacity="0.95" />
<text x="227.1" y="265.7" font-size="4.5" text-anchor="middle" font-family="Arial, sans-serif" font-weight="bold" fill="#000000">29</text>
<circle cx="239.1" cy="264.2" r="4.5" fill="#D3D3D3" stroke="#333" stroke-width="0.5" opacity="0.95" />
<text x="239.1" y="265.7" font-size="4.5" text-anchor="middle" font-family="Arial, sans-serif" font-weight="bold" fill="#000000">30</text>
<circle cx="227.1" cy="276.2" r="4.5" fill="#00FF00" stroke="#333" stroke-width="0.5" opacity="0.95" />
<text x="227.1" y="277.7" font-size="4.5" text-anchor="middle" font-family="Arial, sans-serif" font-weight="bold" fill="#000000">31</text>
<circle cx="239.1" cy="276.2" r="4.5" fill="#00FF00" stroke="#333" stroke-width="0.5" opacity="0.95" />
<text x="239.1" y="277.7" font-size="4.5" text-anchor="middle" font-family="Arial, sans-serif" font-weight="bold" fill="#000000">32</text>
<circle cx="227.1" cy="288.2" r="4.5" fill="#00FF00" stroke="#333" stroke-width="0.5" opacity="0.95" />
<text x="227.1" y="289.7" font-size="4.5" text-anchor="middle" font-family="Arial, sans-serif" font-weight="bold" fill="#000000">33</text>
<circle cx="239.1" cy="288.2" r="4.5" fill="#D3D3D3" stroke="#333" stroke-width="0.5" opacity="0.95" />
<text x="239.1" y="289.7" font-size="4.5" text-anchor="middle" font-family="Arial, sans-serif" font-weight="bold" fill="#000000">34</text>
<circle cx="227.1" cy="300.2" r="4.5" fill="#00FF00" stroke="#333" stroke-width="0.5" opacity="0.95" />
<text x="227.1" y="301.7" font-size="4.5" text-anchor="middle" font-family="Arial, sans-serif" font-weight="bold" fill="#000000">35</text>
<circle cx="239.1" cy="300.2" r="4.5" fill="#00FF00" stroke="#333" stroke-width="0.5" opacity="0.95" />
<text x="239.1" y="301.7" font-size="4.5" text-anchor="middle" font-family="Arial, sans-serif" font-weight="bold" fill="#000000">36</text>
<circle cx="227.1" cy="312.2" r="4.5" fill="#00FF00" stroke="#333" stroke-width="0.5" opacity="0.95" />
<text x="227.1" y="313.7" font-size="4.5" text-anchor="middle" font-family="Arial, sans-serif" font-weight="bold" fill="#000000">37</text>
<circle cx="239.1" cy="312.2" r="4.5" fill="#00FF00" stroke="#333" stroke-width="0.5" opacity="0.95" />
<text x="239.1" y="313.7" font-size="4.5" text-anchor="middle" font-family="Arial, sans-serif" font-weight="bold" fill="#000000">38</text>
<circle cx="227.1" cy="324.2" r="4.5" fill="#D3D3D3" stroke="#333" stroke-width="0.5" opacity="0.95" />
<text x="227.1" y="325.7" font-size="4.5" text-anchor="middle" font-family="Arial, sans-serif" font-weight="bold" fill="#000000">39</text>
<circle cx="239.1" cy="324.2" r="4.5" fill="#00FF00" stroke="#333" stroke-width="0.5" opacity="0.95" />
<text x="239.1" y="325.7" font-size="4.5" text-anchor="middle" font-family="Arial, sans-serif" font-weight="bold" fill="#000000">40</text>
<path d="M 239.10,204.20 C 268.83,253.54 389.37,163.45 440.00,147.00" stroke="white" stroke-width="4.5" fill="none" stroke-linecap="round" stroke-linejoin="round" opacity="1.0" />
<path d="M 239.10,204.20 C 268.83,253.54 389.37,163.45 440.00,147.00" stroke="#000000" stroke-width="3.0" fill="none" stroke-linecap="round" stroke-linejoin="round" opacity="0.8" />
<circle cx="239.1" cy="204.2" r="4.0" fill="white" />
<circle cx="239.1" cy="204.2" r="3.0" fill="#000000" />
<path d="M 239.10,192.20 Q 265.63,207.66 353.98,158.18" stroke="white" stroke-width="4.5" fill="none" stroke-linecap="round" stroke-linejoin="round" opacity="1.0" />
<path d="M 239.10,192.20 Q 265.63,207.66 353.98,158.18" stroke="#0000FF" stroke-width="3.0" fill="none" stroke-linecap="round" stroke-linejoin="round" opacity="0.8" />
<g transform="translate(353.97845932124557, 158.18004204978573) rotate(-29.250099689010426)">
<rect x="-10.0" y="-3.0" width="20.0" height="6.0" fill="white" stroke="#0000FF" stroke-width="2" />
<path d="M-18.0,0 L-10.0,0" stroke="#0000FF" stroke-width="2" />
<path d="M10.0,0 L18.0,0" stroke="#0000FF" stroke-width="2" />
<text x="0" y="-8.0" font-size="10" text-anchor="middle" font-family="Arial, sans-serif" fill="#333" font-weight="bold">220</text>
</g>
<path d="M 353.98,158.18 C 386.17,140.15 440.00,135.00 457.00,135.00" stroke="white" stroke-width="4.5" fill="none" stroke-linecap="round" stroke-linejoin="round" opacity="1.0" />
<path d="M 353.98,158.18 C 386.17,140.15 440.00,135.00 457.00,135.00" stroke="#0000FF" stroke-width="3.0" fill="none" stroke-linecap="round" stroke-linejoin="round" opacity="0.8" />
<circle cx="239.1" cy="192.2" r="4.0" fill="white" />
<circle cx="239.1" cy="192.2" r="3.0" fill="#0000FF" />
<path d="M 239.10,168.20 C 256.03,115.74 376.57,69.51 440.00,87.00" stroke="white" stroke-width="4.5" fill="none" stroke-linecap="round" stroke-linejoin="round" opacity="1.0" />
<path d="M 239.10,168.20 C 256.03,115.74 376.57,69.51 440.00,87.00" stroke="#000000" stroke-width="3.0" fill="none" stroke-linecap="round" stroke-linejoin="round" opacity="0.8" />
<circle cx="239.1" cy="168.2" r="4.0" fill="white" />
<circle cx="239.1" cy="168.2" r="3.0" fill="#000000" />
<path d="M 239.10,180.20 C 259.23,167.86 379.77,70.89 440.00,75.00" stroke="white" stroke-width="4.5" fill="none" stroke-linecap="round" stroke-linejoin="round" opacity="1.0" />
<path d="M 239.10,180.20 C 259.23,167.86 379.77,70.89 440.00,75.00" stroke="#FFA500" stroke-width="3.0" fill="none" stroke-linecap="round" stroke-linejoin="round" opacity="0.8" />
<circle cx="239.1" cy="180.2" r="4.0" fill="white" />
<circle cx="239.1" cy="180.2" r="3.0" fill="#FFA500" />
<text x="480.0" y="55.0" font-size="12.0" text-anchor="middle" font-family="Arial, sans-serif" font-weight="bold" fill="#333">Push Button</text>
<rect x="450.0" y="60.0" width="60.0" height="40.0" rx="5" ry="5" fill="#95A5A6" stroke="#333" stroke-width="2" opacity="0.9" />
<text x="475.0" y="115.0" font-size="12.0" text-anchor="middle" font-family="Arial, sans-serif" font-weight="bold" fill="#333">Blue LED</text>
<rect x="450.0" y="120.0" width="50.0" height="40.0" rx="5" ry="5" fill="#E74C3C" stroke="#333" stroke-width="2" opacity="0.9" />
<path d="M 440.00,147.00 L 457.00,147.00" stroke="white" stroke-width="4.5" fill="none" stroke-linecap="round" stroke-linejoin="round" opacity="1.0" />
<path d="M 440.00,147.00 L 457.00,147.00" stroke="#000000" stroke-width="3.0" fill="none" stroke-linecap="round" stroke-linejoin="round" opacity="0.8" />
<path d="M 440.00,135.00 L 457.00,135.00" stroke="white" stroke-width="4.5" fill="none" stroke-linecap="round" stroke-linejoin="round" opacity="1.0" />
<path d="M 440.00,135.00 L 457.00,135.00" stroke="#0000FF" stroke-width="3.0" fill="none" stroke-linecap="round" stroke-linejoin="round" opacity="0.8" />
<path d="M 440.00,87.00 L 457.00,87.00" stroke="white" stroke-width="4.5" fill="none" stroke-linecap="round" stroke-linejoin="round" opacity="1.0" />
<path d="M 440.00,87.00 L 457.00,87.00" stroke="#000000" stroke-width="3.0" fill="none" stroke-linecap="round" stroke-linejoin="round" opacity="0.8" />
<path d="M 440.00,75.00 L 457.00,75.00" stroke="white" stroke-width="4.5" fill="none" stroke-linecap="round" stroke-linejoin="round" opacity="1.0" />
<path d="M 440.00,75.00 L 457.00,75.00" stroke="#FFA500" stroke-width="3.0" fill="none" stroke-linecap="round" stroke-linejoin="round" opacity="0.8" />
<circle cx="455.0" cy="75.0" r="4.0" fill="white" opacity="0.8" />
<circle cx="455.0" cy="75.0" r="3.0" fill="#FFD700" stroke="#333" stroke-width="1" opacity="0.95" />
<rect x="461.0" y="70.0" width="20.6" height="10" rx="2" ry="2" fill="#000000" opacity="0.8" />
<text x="465.0" y="77.5" font-size="7" text-anchor="start" font-family="Arial, sans-serif" fill="#FFFFFF">SIG</text>
<circle cx="455.0" cy="87.0" r="4.0" fill="white" opacity="0.8" />
<circle cx="455.0" cy="87.0" r="3.0" fill="#FFD700" stroke="#333" stroke-width="1" opacity="0.95" />
<rect x="461.0" y="82.0" width="20.6" height="10" rx="2" ry="2" fill="#000000" opacity="0.8" />
<text x="465.0" y="89.5" font-size="7" text-anchor="start" font-family="Arial, sans-serif" fill="#FFFFFF">GND</text>
<circle cx="455.0" cy="135.0" r="4.0" fill="white" opacity="0.8" />
<circle cx="455.0" cy="135.0" r="3.0" fill="#FFD700" stroke="#333" stroke-width="1" opacity="0.95" />
<rect x="461.0" y="130.0" width="12.2" height="10" rx="2" ry="2" fill="#000000" opacity="0.8" />
<text x="465.0" y="137.5" font-size="7" text-anchor="start" font-family="Arial, sans-serif" fill="#FFFFFF">+</text>
<circle cx="455.0" cy="147.0" r="4.0" fill="white" opacity="0.8" />
<circle cx="455.0" cy="147.0" r="3.0" fill="#FFD700" stroke="#333" stroke-width="1" opacity="0.95" />
<rect x="461.0" y="142.0" width="12.2" height="10" rx="2" ry="2" fill="#000000" opacity="0.8" />
<text x="465.0" y="149.5" font-size="7" text-anchor="start" font-family="Arial, sans-serif" fill="#FFFFFF">-</text>
</svg>