<?xml version="1.0" encoding="UTF-8"?>
<svg xmlns="http://www.w3.org/2000/svg" xmlns:xlink="http://www.w3.org/1999/xlink"
     width="720.0" height="1051.2" viewBox="0 0 720.0 1051.2">
<defs>
</defs>
<rect x="0" y="0" width="720.0" height="1051.2" fill="white" />
<text x="360.0" y="25" font-size="20" text-anchor="middle" font-family="Arial, sans-serif" font-weight="bold" fill="#333">BH1750 Light Sensor on Raspberry Pi Zero 2 W</text>
<g transform="translate(40.0, 80.0)">
<rect x="0" y="0" width="90.0" height="195.0" rx="8.0" ry="8.0" fill="#006B32" stroke="#004D24" stroke-width="2.0" />
<g>
<circle cx="10.5" cy="10.5" r="4.800000000000001" fill="#C0C0C0" stroke="#999" stroke-width="0.5" />
<circle cx="10.5" cy="10.5" r="2.4000000000000004" fill="white" opacity="0.3" />
</g>
<g>
<circle cx="79.5" cy="10.5" r="4.800000000000001" fill="#C0C0C0" stroke="#999" stroke-width="0.5" />
<circle cx="79.5" cy="10.5" r="2.4000000000000004" fill="white" opacity="0.3" />
</g>
<g>
<circle cx="10.5" cy="184.5" r="4.800000000000001" fill="#C0C0C0" stroke="#999" stroke-width="0.5" />
<circle cx="10.5" cy="184.5" r="2.4000000000000004" fill="white" opacity="0.3" />
</g>
<g>
<circle cx="79.5" cy="184.5" r="4.800000000000001" fill="#C0C0C0" stroke="#999" stroke-width="0.5" />
<circle cx="79.5" cy="184.5" r="2.4000000000000004" fill="white" opacity="0.3" />
</g>
<g>
<rect x="4.0" y="20.5" width="19.240000000000002" height="156.39999999999998" rx="2" ry="2" fill="#1A1A1A" stroke="#000" stroke-width="1" />
</g>
</g>
<text x="85.0" y="295.0" font-size="14" text-anchor="middle" font-family="Arial, sans-serif" font-weight="bold" fill="#333">Raspberry Pi Zero 2 W</text>
<path d="M 270.00,218.39 C 386.64,226.04 497.64,104.55 455.00,102.00" stroke="white" stroke-width="4.5" fill="none" stroke-linecap="round" stroke-linejoin="round" opacity="1.0" />
<path d="M 270.00,218.39 C 386.64,226.04 497.64,104.55 455.00,102.00" stroke="#808080" stroke-width="3" fill="none" stroke-linecap="round" stroke-linejoin="round" opacity="0.8" />
<circle cx="270.0" cy="218.39" r="4" fill="white" />
<circle cx="270.0" cy="218.39" r="3" fill="#808080" />
<circle cx="455.0" cy="102.0" r="4" fill="white" />
<circle cx="455.0" cy="102.0" r="3" fill="#808080" />
<path d="M 270.00,176.13 C 377.04,150.96 488.04,85.61 455.00,94.00" stroke="white" stroke-width="4.5" fill="none" stroke-linecap="round" stroke-linejoin="round" opacity="1.0" />
<path d="M 270.00,176.13 C 377.04,150.96 488.04,85.61 455.00,94.00" stroke="#00FF00" stroke-width="3" fill="none" stroke-linecap="round" stroke-linejoin="round" opacity="0.8" />
<circle cx="270.0" cy="176.13" r="4" fill="white" />
<circle cx="270.0" cy="176.13" r="3" fill="#00FF00" />
<circle cx="455.0" cy="94.0" r="4" fill="white" />
<circle cx="455.0" cy="94.0" r="3" fill="#00FF00" />
<path d="M 270.00,197.26 C 383.44,247.73 494.44,102.82 455.00,86.00" stroke="white" stroke-width="4.5" fill="none" stroke-linecap="round" stroke-linejoin="round" opacity="1.0" />
<path d="M 270.00,197.26 C 383.44,247.73 494.44,102.82 455.00,86.00" stroke="#0000FF" stroke-width="3" fill="none" stroke-linecap="round" stroke-linejoin="round" opacity="0.8" />
<circle cx="270.0" cy="197.26" r="4" fill="white" />
<circle cx="270.0" cy="197.26" r="3" fill="#0000FF" />
<circle cx="455.0" cy="86.0" r="4" fill="white" />
<circle cx="455.0" cy="86.0" r="3" fill="#0000FF" />
<path d="M 270.00,155.00 C 373.84,104.60 484.84,53.20 455.00,70.00" stroke="white" stroke-width="4.5" fill="none" stroke-linecap="round" stroke-linejoin="round" opacity="1.0" />
<path d="M 270.00,155.00 C 373.84,104.60 484.84,53.20 455.00,70.00" stroke="#FF8C00" stroke-width="3" fill="none" stroke-linecap="round" stroke-linejoin="round" opacity="0.8" />
<circle cx="270.0" cy="155.0" r="4" fill="white" />
<circle cx="270.0" cy="155.0" r="3" fill="#FF8C00" />
<circle cx="455.0" cy="70.0" r="4" fill="white" />
<circle cx="455.0" cy="70.0" r="3" fill="#FF8C00" />
<path d="M 293.00,197.26 C 394.04,214.71 491.24,83.82 455.00,78.00" stroke="white" stroke-width="4.5" fill="none" stroke-linecap="round" stroke-linejoin="round" opacity="1.0" />
<path d="M 293.00,197.26 C 394.04,214.71 491.24,83.82 455.00,78.00" stroke="#000000" stroke-width="3" fill="none" stroke-linecap="round" stroke-linejoin="round" opacity="0.8" />
<circle cx="293.0" cy="197.26" r="4" fill="white" />
<circle cx="293.0" cy="197.26" r="3" fill="#000000" />
<circle cx="455.0" cy="78.0" r="4" fill="white" />
<circle cx="455.0" cy="78.0" r="3" fill="#000000" />
<text x="485.0" y="55.0" font-size="12.0" text-anchor="middle" font-family="Arial, sans-serif" font-weight="bold" fill="#333">BH1750</text>
<rect x="450.0" y="60.0" width="70.0" height="60.0" rx="5" ry="5" fill="#4A90E2" stroke="#333" stroke-width="2" opacity="0.9" />
<circle cx="455.0" cy="70.0" r="3" fill="#FFD700" stroke="#333" />
<rect x="461.0" y="65.0" width="20.6" height="10" rx="2" ry="2" fill="#000000" opacity="0.8" />
<text x="465.0" y="72.5" font-size="7" text-anchor="start" font-family="Arial, sans-serif" fill="#FFFFFF">VCC</text>
<circle cx="455.0" cy="78.0" r="3" fill="#FFD700" stroke="#333" />
<rect x="461.0" y="73.0" width="20.6" height="10" rx="2" ry="2" fill="#000000" opacity="0.8" />
<text x="465.0" y="80.5" font-size="7" text-anchor="start" font-family="Arial, sans-serif" fill="#FFFFFF">GND</text>
<circle cx="455.0" cy="86.0" r="3" fill="#FFD700" stroke="#333" />
<rect x="461.0" y="81.0" width="20.6" height="10" rx="2" ry="2" fill="#000000" opacity="0.8" />
<text x="465.0" y="88.5" font-size="7" text-anchor="start" font-family="Arial, sans-serif" fill="#FFFFFF">SCL</text>
<circle cx="455.0" cy="94.0" r="3" fill="#FFD700" stroke="#333" />
<rect x="461.0" y="89.0" width="20.6" height="10" rx="2" ry="2" fill="#000000" opacity="0.8" />
<text x="465.0" y="96.5" font-size="7" text-anchor="start" font-family="Arial, sans-serif" fill="#FFFFFF">SDA</text>
<circle cx="455.0" cy="102.0" r="3" fill="#FFD700" stroke="#333" />
<rect x="461.0" y="97.0" width="24.8" height="10" rx="2" ry="2" fill="#000000" opacity="0.8" />
<text x="465.0" y="104.5" font-size="7" text-anchor="start" font-family="Arial, sans-serif" fill="#FFFFFF">ADDR</text>
</svg>