<?xml version="1.0" encoding="UTF-8"?>
<svg xmlns="http://www.w3.org/2000/svg" xmlns:xlink="http://www.w3.org/1999/xlink"
     width="540.0" height="300.0" viewBox="0 0 540.0 300.0">
<defs>
</defs>
<rect x="0" y="0" width="540.0" height="300.0" fill="#1E1E1E" />
<text x="270.0" y="25" font-size="20" text-anchor="middle" font-family="Arial, sans-serif" font-weight="bold" fill="#E0E0E0">Raspberry Pi Pico - LED Circuit (Dark Mode)</text>
<g transform="translate(40.0, 130.0)">
<rect x="0.0" y="0.0" width="249.0" height="101.0" id="Artboard1" style="fill:none;" />
<g clip-path="url(#_clip1)">
<g id="pico">
<g id="g234">
<path d="M5.891,100.068c-5.299,0 -4.967,-2.271 -4.967,-4.684l0,-88.137c0,-6.339 -0.237,-6.529 8.279,-6.529l228.03,0c4.731,0 4.731,-0.473 4.684,5.677l0,86.718c0,4.826 0.047,6.954 -4.684,6.954l-231.342,0Z" id="path230" style="fill:#00723d;" />
<rect x="0.924" y="0.671" width="241.088" height="99.491" id="rect232" style="fill:none;" />
</g>
<g id="g237">
<path d="M0.924,95.384l-0.237,-88.989c0,-6.339 1.041,-5.677 8.516,-5.677l227.557,0c5.204,0 5.204,0 5.157,5.677l0,86.718c0,4.826 0.047,6.954 -5.157,6.954l-230.869,0c-5.299,0 -4.967,-2.271 -4.967,-4.684Z" id="Drawing_4_0" style="fill:none;stroke:#000;stroke-width:0.47px;" />
</g>
<g id="DrawingGroup_2">
<g id="g243">
<path d="M72.929,46.608l0,-13.105l0.426,-0.615l10.597,0l0,13.72l-11.023,0Z" id="path239" style="fill:#8c8c8c;" />
<rect x="72.929" y="32.888" width="11.07" height="13.767" id="rect241" style="fill:none;" />
</g>
<g id="g246">
<path d="M72.929,46.608l0,-13.105l0.426,-0.615l10.597,0l0,13.72l-11.023,0Z" id="Drawing_6_0" style="fill:none;stroke:#000;stroke-width:0.66px;" />
</g>
</g>
<g id="g253">
<rect x="229.428" y="18.743" width="3.832" height="3.832" id="path249" style="fill:#ff9;" />
<rect x="229.38" y="18.743" width="3.927" height="3.879" id="rect251" style="fill:none;" />
</g>
<g id="g256">
<rect x="229.428" y="18.743" width="3.832" height="3.832" id="Drawing_8_0" style="fill:none;stroke:#373435;stroke-width:0.14px;" />
</g>
<g id="g262">
<rect x="230.279" y="19.547" width="2.176" height="2.176" id="path258" style="fill:#ff9;" />
<rect x="230.232" y="19.547" width="2.271" height="2.224" id="rect260" style="fill:none;" />
</g>
<g id="g265">
<rect x="230.279" y="19.547" width="2.176" height="2.176" id="Drawing_10_0" style="fill:none;stroke:#373435;stroke-width:0.14px;" />
</g>
<g id="g268">
<path d="M230.279,19.595l-0.852,-0.852" id="Drawing_11_0" style="fill:none;stroke:#373435;stroke-width:0.05px;" />
</g>
<g id="g271">
<path d="M232.408,19.595l0.852,-0.852" id="Drawing_12_0" style="fill:none;stroke:#373435;stroke-width:0.05px;" />
</g>
<g id="DrawingGroup_3">
<g id="DrawingGroup_4">
<g id="DrawingGroup_5">
<g id="g277">
<path d="M18.807,23.663c0,4.684 -3.785,8.468 -8.516,8.468c-4.684,0 -8.516,-3.785 -8.516,-8.468c0,-4.826 3.832,-8.658 8.516,-8.658c4.731,0 8.516,3.832 8.516,8.658Z" id="path273" style="fill:#f2d592;" />
<rect x="1.776" y="14.958" width="17.079" height="17.221" id="rect275" style="fill:none;" />
</g>
<g id="g280">
<path d="M18.807,23.663c0,4.684 -3.785,8.468 -8.516,8.468c-4.684,0 -8.516,-3.785 -8.516,-8.468c0,-4.826 3.832,-8.658 8.516,-8.658c4.731,0 8.516,3.832 8.516,8.658Z" id="Drawing_14_0" style="fill:none;stroke:#000;stroke-width:0.33px;" />
</g>
</g>
<g id="DrawingGroup_6">
<g id="g287">
<path d="M15.164,23.663c0,2.649 -2.176,4.636 -4.778,4.636c-2.649,0 -4.636,-1.987 -4.636,-4.636c0,-2.649 1.987,-4.873 4.636,-4.873c2.602,0 4.778,2.224 4.778,4.873Z" id="path283" style="fill:#fff;" />
<rect x="5.75" y="18.79" width="9.462" height="9.556" id="rect285" style="fill:none;" />
</g>
<g id="g290">
<path d="M15.022,23.758c0,2.602 -2.129,4.542 -4.731,4.542c-2.602,0 -4.542,-1.94 -4.542,-4.542c0,-2.602 1.94,-4.826 4.542,-4.826c2.602,0 4.731,2.224 4.731,4.826Z" id="Drawing_16_0" style="fill:none;stroke:#000;stroke-width:0.33px;" />
</g>
</g>
</g>
</g>
<g id="DrawingGroup_7">
<g id="g308">
<path d="M221.148,18.743l0,10.313l-3.406,0c-0.047,-0.142 -0.095,-0.237 -0.142,-0.378l0,-9.84c0,0 0.047,-0.047 0.047,-0.095l3.501,0Z" id="path304" style="fill:#004d05;" />
<rect x="217.6" y="18.743" width="3.643" height="10.408" id="rect306" style="fill:none;" />
</g>
<g id="g314">
<path d="M220.297,18.743c0.047,0.047 0.095,0.095 0.142,0.142c0.331,0.331 0.52,0.804 0.71,1.277l0,7.238c-0.189,0.615 -0.378,0.993 -0.71,1.277c-0.095,0.142 -0.189,0.284 -0.284,0.378l-1.419,0c-0.095,-0.095 -0.142,-0.237 -0.237,-0.378c-0.378,-0.426 -0.71,-1.088 -0.899,-2.082l0,-5.677c0.189,-0.852 0.52,-1.561 0.899,-2.034c0.047,-0.047 0.047,-0.095 0.095,-0.142l1.703,0Z" id="path310" style="fill:#004d05;" />
<rect x="217.6" y="18.743" width="3.643" height="10.408" id="rect312" style="fill:none;" />
</g>
<g id="g320">
<path d="M220.155,18.743c0.095,0.095 0.189,0.189 0.284,0.284c0.237,0.378 0.473,0.852 0.71,1.325l0,6.813c-0.237,0.615 -0.473,1.041 -0.71,1.372c-0.142,0.237 -0.331,0.378 -0.426,0.52l-1.088,0c-0.189,-0.142 -0.331,-0.284 -0.426,-0.52c-0.378,-0.426 -0.568,-1.183 -0.899,-1.94l0,-5.535c0.331,-0.852 0.52,-1.514 0.899,-2.034c0.095,-0.095 0.142,-0.189 0.237,-0.284l1.419,0Z" id="path316" style="fill:#0b540e;" />
<rect x="217.6" y="18.743" width="3.643" height="10.408" id="rect318" style="fill:none;" />
</g>
<g id="g326">
<path d="M219.966,18.743c0.142,0.142 0.284,0.284 0.473,0.615c0.331,0.378 0.473,1.041 0.71,1.892l0,5.157c-0.237,0.804 -0.378,1.514 -0.71,1.845c-0.331,0.426 -0.615,0.757 -0.993,0.757c-0.331,0 -0.662,-0.331 -0.946,-0.757c-0.378,-0.331 -0.568,-1.041 -0.71,-1.845c-0.047,-0.378 -0.142,-0.662 -0.189,-0.993l0,-3.17c0.047,-0.378 0.142,-0.662 0.189,-0.993c0.142,-0.852 0.331,-1.514 0.71,-1.892c0.095,-0.331 0.284,-0.473 0.426,-0.615l1.041,0Z" id="path322" style="fill:#165a18;" />
<rect x="217.6" y="18.743" width="3.643" height="10.313" id="rect324" style="fill:none;" />
</g>
<g id="g332">
<path d="M221.148,21.298l0,4.92c-0.237,0.804 -0.378,1.372 -0.71,1.892c-0.331,0.473 -0.615,0.615 -0.993,0.615c-0.331,0 -0.662,-0.142 -0.852,-0.615c-0.331,-0.52 -0.662,-1.088 -0.804,-1.892c-0.142,-0.568 -0.189,-1.135 -0.189,-1.798l0,-1.419c0,-0.568 0.047,-1.183 0.189,-1.703c0.142,-0.757 0.473,-1.372 0.804,-1.75c0.189,-0.473 0.52,-0.615 0.852,-0.615c0.378,0 0.662,0.142 0.993,0.615c0.331,0.378 0.52,0.993 0.71,1.75Z" id="path328" style="fill:#216121;" />
<rect x="217.6" y="18.932" width="3.643" height="9.84" id="rect330" style="fill:none;" />
</g>
<g id="g338">
<path d="M221.148,25.461c-0.047,0.284 -0.142,0.473 -0.189,0.757c-0.189,0.757 -0.331,1.183 -0.52,1.703c-0.331,0.378 -0.615,0.473 -0.993,0.473c-0.331,0 -0.52,-0.095 -0.852,-0.473c-0.331,-0.52 -0.473,-0.946 -0.662,-1.703c-0.142,-0.662 -0.284,-1.325 -0.331,-2.082l0,-0.662c0.047,-0.662 0.189,-1.325 0.331,-2.034c0.189,-0.71 0.331,-1.183 0.662,-1.703c0.331,-0.331 0.52,-0.662 0.852,-0.662c0.378,0 0.662,0.331 0.993,0.662c0.189,0.52 0.331,0.993 0.52,1.703c0.047,0.237 0.142,0.52 0.189,0.757l0,3.264Z" id="path334" style="fill:#2c672b;" />
<rect x="217.6" y="19.027" width="3.643" height="9.415" id="rect336" style="fill:none;" />
</g>
<g id="g344">
<path d="M221.101,23.758c0,0.804 0,1.656 -0.142,2.318c-0.189,0.662 -0.331,1.183 -0.662,1.514c-0.189,0.473 -0.52,0.662 -0.852,0.662c-0.331,0 -0.52,-0.189 -0.852,-0.662c-0.331,-0.331 -0.473,-0.852 -0.662,-1.514c0,-0.662 -0.142,-1.514 -0.142,-2.318c0,-0.804 0.142,-1.514 0.142,-2.129c0.189,-0.71 0.331,-1.23 0.662,-1.75c0.331,-0.331 0.52,-0.473 0.852,-0.473c0.331,0 0.662,0.142 0.852,0.473c0.331,0.52 0.473,1.041 0.662,1.75c0.142,0.615 0.142,1.325 0.142,2.129Z" id="path340" style="fill:#376e34;" />
<rect x="217.789" y="19.405" width="3.359" height="8.894" id="rect342" style="fill:none;" />
</g>
<g id="g350">
<path d="M221.148,23.758c0,0.804 -0.142,1.467 -0.331,2.129c0,0.662 -0.331,1.135 -0.473,1.514c-0.331,0.52 -0.52,0.662 -0.852,0.662c-0.189,0 -0.52,-0.142 -0.899,-0.662c-0.095,-0.378 -0.284,-0.852 -0.426,-1.514c-0.189,-0.662 -0.189,-1.325 -0.189,-2.129c0,-0.662 0,-1.372 0.189,-2.034c0.142,-0.662 0.331,-1.183 0.426,-1.514c0.378,-0.473 0.71,-0.662 0.899,-0.662c0.331,0 0.52,0.189 0.852,0.662c0.142,0.331 0.473,0.852 0.473,1.514c0.189,0.662 0.331,1.372 0.331,2.034Z" id="path346" style="fill:#43753d;" />
<rect x="217.979" y="19.547" width="3.217" height="8.61" id="rect348" style="fill:none;" />
</g>
<g id="g356">
<path d="M221.007,23.805c0,0.757 0,1.325 -0.189,1.94c-0.142,0.71 -0.331,1.23 -0.473,1.514c-0.331,0.378 -0.52,0.52 -0.852,0.52c-0.189,0 -0.52,-0.142 -0.662,-0.52c-0.331,-0.284 -0.473,-0.804 -0.662,-1.514c-0.189,-0.615 -0.189,-1.183 -0.189,-1.94c0,-0.71 0,-1.372 0.189,-1.892c0.142,-0.615 0.331,-1.135 0.662,-1.514c0.142,-0.284 0.473,-0.473 0.662,-0.473c0.331,0 0.52,0.189 0.852,0.473c0.142,0.378 0.331,0.899 0.473,1.514c0.189,0.52 0.189,1.183 0.189,1.892Z" id="path352" style="fill:#4e7b47;" />
<rect x="217.979" y="19.926" width="3.075" height="7.948" id="rect354" style="fill:none;" />
</g>
<g id="g362">
<path d="M220.817,23.805c0,0.615 0,1.325 -0.142,1.798c0,0.615 -0.189,1.183 -0.568,1.467c-0.095,0.331 -0.284,0.52 -0.615,0.52c-0.189,0 -0.52,-0.189 -0.71,-0.52c-0.189,-0.284 -0.284,-0.852 -0.473,-1.467c-0.142,-0.473 -0.142,-1.183 -0.142,-1.798c0,-0.71 0,-1.183 0.142,-1.892c0.189,-0.473 0.284,-0.946 0.473,-1.372c0.189,-0.284 0.52,-0.426 0.71,-0.426c0.331,0 0.52,0.142 0.615,0.426c0.378,0.426 0.568,0.899 0.568,1.372c0.142,0.71 0.142,1.183 0.142,1.892Z" id="path358" style="fill:#598250;" />
<rect x="218.168" y="20.115" width="2.697" height="7.522" id="rect360" style="fill:none;" />
</g>
<g id="g368">
<path d="M220.817,23.758c0,0.662 0,1.325 -0.142,1.845c-0.189,0.473 -0.331,0.946 -0.568,1.183c-0.095,0.284 -0.284,0.473 -0.615,0.473c-0.189,0 -0.52,-0.189 -0.71,-0.473c-0.189,-0.237 -0.284,-0.71 -0.473,-1.183c0,-0.52 -0.142,-1.183 -0.142,-1.845c0,-0.662 0.142,-1.135 0.142,-1.703c0.189,-0.426 0.284,-0.993 0.473,-1.325c0.189,-0.189 0.52,-0.331 0.71,-0.331c0.331,0 0.52,0.142 0.615,0.331c0.237,0.331 0.378,0.899 0.568,1.325c0.142,0.568 0.142,1.041 0.142,1.703Z" id="path364" style="fill:#64885a;" />
<rect x="218.168" y="20.352" width="2.697" height="6.954" id="rect366" style="fill:none;" />
</g>
<g id="g374">
<path d="M220.675,23.758c0,0.662 0,1.135 -0.189,1.703c0,0.426 -0.189,0.757 -0.378,1.088c-0.284,0.426 -0.473,0.52 -0.615,0.52c-0.189,0 -0.331,-0.095 -0.568,-0.52c-0.331,-0.331 -0.331,-0.662 -0.426,-1.088c-0.189,-0.568 -0.189,-1.041 -0.189,-1.703c0,-0.52 0.047,-0.946 0.189,-1.514c0.189,-0.52 0.095,-0.946 0.426,-1.183c0.237,-0.331 0.378,-0.52 0.568,-0.52c0.142,0 0.331,0.189 0.615,0.52c0.189,0.237 0.378,0.662 0.378,1.183c0.189,0.52 0.189,0.993 0.189,1.514Z" id="path370" style="fill:#6f8f63;" />
<rect x="218.31" y="20.541" width="2.413" height="6.576" id="rect372" style="fill:none;" />
</g>
<g id="g380">
<path d="M220.675,23.758c0,0.662 -0.189,0.993 -0.189,1.467c-0.189,0.473 -0.378,0.852 -0.378,1.183c-0.284,0.142 -0.473,0.331 -0.615,0.331c-0.189,0 -0.331,-0.189 -0.568,-0.331c-0.142,-0.331 -0.331,-0.71 -0.426,-1.183c0,-0.473 -0.189,-0.804 -0.189,-1.467c0,-0.52 0.189,-1.041 0.189,-1.514c0.095,-0.331 0.284,-0.662 0.426,-0.993c0.237,-0.331 0.378,-0.331 0.568,-0.331c0.142,0 0.331,0 0.615,0.331c0,0.331 0.189,0.662 0.378,0.993c0,0.473 0.189,0.993 0.189,1.514Z" id="path376" style="fill:#7a966c;" />
<rect x="218.31" y="20.919" width="2.413" height="5.866" id="rect378" style="fill:none;" />
</g>
<g id="g386">
<path d="M220.439,22.386l0,2.839c-0.142,0.331 -0.331,0.615 -0.426,0.993c-0.189,0.189 -0.378,0.331 -0.52,0.331c-0.189,0 -0.378,-0.142 -0.568,-0.331c-0.142,-0.378 -0.331,-0.662 -0.331,-0.993c-0.095,-0.473 -0.095,-0.993 -0.095,-1.467c0,-0.52 0,-0.852 0.095,-1.372c0,-0.331 0.189,-0.71 0.331,-0.993c0.189,-0.142 0.378,-0.331 0.568,-0.331c0.142,0 0.331,0.189 0.52,0.331c0.095,0.284 0.284,0.662 0.426,0.993Z" id="path382" style="fill:#859c76;" />
<rect x="218.499" y="21.061" width="2.034" height="5.535" id="rect384" style="fill:none;" />
</g>
<g id="g392">
<path d="M220.439,23.805c0,0.473 0,0.993 -0.142,1.325c-0.189,0.331 -0.189,0.615 -0.284,0.757c-0.189,0.378 -0.378,0.378 -0.52,0.378c-0.237,0 -0.378,0 -0.568,-0.378c0,-0.142 -0.142,-0.426 -0.331,-0.757l0,-2.507c0.189,-0.331 0.331,-0.71 0.331,-0.993c0.189,-0.189 0.331,-0.331 0.568,-0.331c0.142,0 0.331,0.142 0.52,0.331c0.095,0.284 0.095,0.662 0.284,0.993c0.189,0.331 0.142,0.804 0.142,1.183Z" id="path388" style="fill:#90a37f;" />
<rect x="218.594" y="21.298" width="1.94" height="5.062" id="rect390" style="fill:none;" />
</g>
<g id="g398">
<path d="M220.297,23.805c0,0.473 0,0.757 -0.189,1.088c0,0.378 -0.095,0.71 -0.095,0.852c-0.189,0.142 -0.378,0.331 -0.52,0.331c-0.237,0 -0.237,-0.189 -0.378,-0.331c-0.189,-0.142 -0.331,-0.473 -0.331,-0.852c-0.189,-0.331 -0.189,-0.615 -0.189,-1.088c0,-0.426 0,-0.71 0.189,-1.041c0,-0.331 0.142,-0.662 0.331,-0.852c0.237,-0.189 0.142,-0.284 0.378,-0.284c0.142,0 0.331,0.095 0.52,0.284c0,0.142 0.095,0.52 0.095,0.852c0.189,0.331 0.189,0.615 0.189,1.041Z" id="path394" style="fill:#9baa88;" />
<rect x="218.546" y="21.629" width="1.798" height="4.494" id="rect396" style="fill:none;" />
</g>
<g id="g404">
<path d="M220.297,23.758c0,0.52 -0.189,0.662 -0.189,0.993c0,0.331 -0.095,0.71 -0.284,0.852c0,0.142 -0.189,0.142 -0.378,0.142c-0.189,0 -0.142,0 -0.331,-0.142c-0.189,-0.189 -0.189,-0.52 -0.331,-0.852l0,-1.987c0.142,-0.378 0.142,-0.52 0.331,-0.71c0.142,-0.142 0.142,-0.142 0.331,-0.142c0.189,0 0.378,0 0.378,0.142c0.189,0.189 0.284,0.331 0.284,0.71c0,0.331 0.189,0.615 0.189,0.993Z" id="path400" style="fill:#a6b092;" />
<rect x="218.783" y="21.913" width="1.561" height="3.879" id="rect402" style="fill:none;" />
</g>
<g id="g410">
<path d="M220.108,22.954l0,1.798c-0.095,0.142 -0.095,0.331 -0.284,0.662c-0.189,0 -0.189,0.189 -0.378,0.189c-0.189,0 -0.189,-0.189 -0.331,-0.189c0,-0.331 -0.189,-0.52 -0.189,-0.662c-0.142,-0.331 -0.142,-0.662 -0.142,-0.993c0,-0.378 0,-0.52 0.142,-0.804c0,-0.237 0.189,-0.568 0.189,-0.71c0.142,0 0.142,-0.189 0.331,-0.189c0.189,0 0.189,0.189 0.378,0.189c0.189,0.142 0.189,0.473 0.284,0.71Z" id="path406" style="fill:#b1b79b;" />
<rect x="218.783" y="22.055" width="1.372" height="3.643" id="rect408" style="fill:none;" />
</g>
<g id="g416">
<path d="M220.108,23.758c0,0.331 -0.095,0.615 -0.095,0.804c0,0.142 -0.189,0.331 -0.189,0.52c-0.237,0.142 -0.237,0.142 -0.378,0.142c0,0 -0.189,0 -0.189,-0.142c-0.142,-0.189 -0.142,-0.331 -0.331,-0.52l0,-1.467c0.189,-0.378 0.189,-0.378 0.331,-0.52c0,-0.189 0.189,-0.331 0.189,-0.331c0.142,0 0.142,0.142 0.378,0.331c0,0.142 0.189,0.142 0.189,0.52c0,0.142 0.095,0.473 0.095,0.662Z" id="path412" style="fill:#bcbda5;" />
<rect x="218.925" y="22.197" width="1.23" height="3.075" id="rect414" style="fill:none;" />
</g>
<g id="g422">
<path d="M220.013,23.805c0,0.331 0,0.473 -0.189,0.615l0,0.52c-0.237,0.189 -0.237,0.189 -0.378,0.189c0,0 -0.189,0 -0.189,-0.189c-0.142,-0.142 -0.142,-0.378 -0.142,-0.52c-0.189,-0.142 -0.189,-0.284 -0.189,-0.615c0,-0.189 0,-0.378 0.189,-0.568c0,-0.142 0,-0.284 0.142,-0.473c0,-0.142 0.189,-0.142 0.189,-0.142c0.142,0 0.142,0 0.378,0.142l0,0.473c0.189,0.189 0.189,0.378 0.189,0.568Z" id="path418" style="fill:#c8c4ae;" />
<rect x="218.925" y="22.575" width="1.135" height="2.602" id="rect420" style="fill:none;" />
</g>
<g id="g428">
<path d="M219.776,23.237l0,1.041c0,0.142 0,0.284 -0.189,0.473l-0.331,0c0,-0.189 0,-0.331 -0.142,-0.473l0,-1.041c0.142,-0.142 0.142,-0.142 0.142,-0.284l0.189,-0.189c0.142,0 0.142,0.189 0.142,0.189c0.189,0.142 0.189,0.142 0.189,0.284Z" id="path424" style="fill:#d3cbb7;" />
<rect x="219.114" y="22.764" width="0.71" height="2.034" id="rect426" style="fill:none;" />
</g>
<g id="g434">
<path d="M219.824,23.379l0,0.899c-0.189,0 -0.189,0.142 -0.189,0.142c0,0.142 0,0.142 -0.142,0.142l-0.189,-0.142l0,-1.325l0.331,0c0,0.142 0,0.142 0.189,0.284Z" id="path430" style="fill:#ded1c1;" />
<rect x="219.303" y="23.048" width="0.568" height="1.561" id="rect432" style="fill:none;" />
</g>
<g id="g440">
<path d="M219.635,23.379l0,0.899l-0.142,0c-0.189,0 -0.189,-0.142 -0.189,-0.142l0,-0.568c0,-0.189 0,-0.189 0.189,-0.189l0,-0.142l0.142,0.142Z" id="path436" style="fill:#e9d8ca;" />
<rect x="219.256" y="23.237" width="0.426" height="1.088" id="rect438" style="fill:none;" />
</g>
<g id="g446">
<rect x="219.493" y="23.569" width="0.142" height="0.52" id="path442" style="fill:#f4ded4;" />
<rect x="219.493" y="23.569" width="0.189" height="0.568" id="rect444" style="fill:none;" />
</g>
<g id="g449">
<rect x="217.6" y="18.601" width="3.737" height="10.503" id="Drawing_42_0" style="fill:none;stroke:#000;stroke-width:0.8px;" />
</g>
</g>
<g id="DrawingGroup_8">
<g id="g456">
<path d="M66.826,43.155c0,0.378 -0.189,0.615 -0.237,1.088c0.237,0.993 -0.095,1.135 -0.284,1.467c0.189,1.088 -0.331,1.419 -0.804,1.798l0,0.615c-0.899,1.419 -2.649,2.271 -3.501,2.555c0.852,0.189 2.602,0.946 3.501,2.413l0,0.615c0.473,0.473 0.993,0.662 0.804,1.75c0.189,0.378 0.52,0.662 0.284,1.467c0.189,0.615 0.662,1.135 0,1.892c0.237,0.52 0.237,1.277 -0.095,1.845c0.095,0.757 -0.189,1.041 -0.378,1.23c0,0.189 0.047,1.325 -0.757,1.94c0.284,1.467 -0.757,1.892 -1.656,1.277c-0.473,0.473 -0.899,0.662 -1.703,-0.047c-0.426,0.237 -1.088,0.047 -1.609,-0.473c-0.662,0.142 -1.183,-0.142 -1.514,-0.615c-0.899,0.095 -1.419,-0.804 -1.609,-1.088c-0.568,-0.047 -0.946,-0.378 -1.23,-1.325c-0.852,-0.284 -0.899,-0.757 -1.135,-1.467c-1.183,1.987 -2.649,3.737 -6.481,3.737l-0.473,0.331c-1.467,2.318 -6.008,4.305 -9.651,1.135c-1.135,-0.237 -1.987,-0.568 -2.886,-0.852c-3.643,-0.473 -5.393,-3.643 -5.63,-4.494c-0.899,-1.135 -1.892,-2.413 -2.413,-4.116c-1.656,-1.656 -2.271,-3.406 -2.271,-5.157l0,-0.142c0,-1.75 0.615,-3.548 2.271,-5.157c0.52,-1.703 1.514,-2.98 2.413,-4.258c0.237,-0.757 1.987,-3.832 5.63,-4.305c0.899,-0.331 1.75,-0.662 2.886,-0.946c3.643,-3.217 8.184,-1.135 9.651,1.183l0.473,0.331c3.832,-0.095 5.299,1.75 6.481,3.69c0.237,-0.568 0.284,-1.23 1.135,-1.419c0.284,-0.993 0.662,-1.23 1.23,-1.372c0.189,-0.331 0.71,-1.23 1.609,-1.088c0.331,-0.473 0.852,-0.852 1.514,-0.615c0.52,-0.568 1.183,-0.852 1.609,-0.568c0.804,-0.52 1.23,-0.331 1.703,0c0.899,-0.52 1.94,-0.142 1.656,1.277c0.804,0.52 0.757,1.845 0.757,1.987c0.189,0.095 0.473,0.473 0.378,1.325c0.331,0.52 0.331,1.135 0.095,1.798c0.189,0.284 0.237,0.52 0.237,0.757Z" id="path452" style="fill:#fff;" />
<rect x="25.052" y="34.166" width="41.916" height="32.833" id="rect454" style="fill:none;" />
</g>
<g id="g459">
<path d="M66.826,43.155c0,0.378 -0.189,0.615 -0.237,1.088c0.237,0.993 -0.095,1.135 -0.284,1.467c0.189,1.088 -0.331,1.419 -0.804,1.798l0,0.615c-0.899,1.419 -2.649,2.271 -3.501,2.555c0.852,0.189 2.602,0.946 3.501,2.413l0,0.615c0.473,0.473 0.993,0.662 0.804,1.75c0.189,0.378 0.52,0.662 0.284,1.467c0.189,0.615 0.662,1.135 0,1.892c0.237,0.52 0.237,1.277 -0.095,1.845c0.095,0.757 -0.189,1.041 -0.378,1.23c0,0.189 0.047,1.325 -0.757,1.94c0.284,1.467 -0.757,1.892 -1.656,1.277c-0.473,0.473 -0.899,0.662 -1.703,-0.047c-0.426,0.237 -1.088,0.047 -1.609,-0.473c-0.662,0.142 -1.183,-0.142 -1.514,-0.615c-0.899,0.095 -1.419,-0.804 -1.609,-1.088c-0.568,-0.047 -0.946,-0.378 -1.23,-1.325c-0.852,-0.284 -0.899,-0.757 -1.135,-1.467c-1.183,1.987 -2.649,3.737 -6.481,3.737l-0.473,0.331c-1.467,2.318 -6.008,4.305 -9.651,1.135c-1.135,-0.237 -1.987,-0.568 -2.886,-0.852c-3.643,-0.473 -5.393,-3.643 -5.63,-4.494c-0.899,-1.135 -1.892,-2.413 -2.413,-4.116c-1.656,-1.656 -2.271,-3.406 -2.271,-5.157l0,-0.142c0,-1.75 0.615,-3.548 2.271,-5.157c0.52,-1.703 1.514,-2.98 2.413,-4.258c0.237,-0.757 1.987,-3.832 5.63,-4.305c0.899,-0.331 1.75,-0.662 2.886,-0.946c3.643,-3.217 8.184,-1.135 9.651,1.183l0.473,0.331c3.832,-0.095 5.299,1.75 6.481,3.69c0.237,-0.568 0.284,-1.23 1.135,-1.419c0.284,-0.993 0.662,-1.23 1.23,-1.372c0.189,-0.331 0.71,-1.23 1.609,-1.088c0.331,-0.473 0.852,-0.852 1.514,-0.615c0.52,-0.568 1.183,-0.852 1.609,-0.568c0.804,-0.52 1.23,-0.331 1.703,0c0.899,-0.52 1.94,-0.142 1.656,1.277c0.804,0.52 0.757,1.845 0.757,1.987c0.189,0.095 0.473,0.473 0.378,1.325c0.331,0.52 0.331,1.135 0.095,1.798c0.189,0.284 0.237,0.52 0.237,0.757Z" id="Drawing_44_0" style="fill:none;stroke:#fff;stroke-width:0.33px;" />
</g>
<g id="g465">
<path d="M57.837,47.554c-2.602,-0.615 -2.744,-3.879 -2.602,-5.157c0.047,0.189 0.189,0.473 0.473,0.473c0.189,-0.284 0,-1.419 0.473,-2.176c0.047,0.331 0.047,0.426 0.284,0.615c0.284,-0.804 0.473,-1.514 0.804,-1.94c0,0.284 0,0.473 0.237,0.662c0.331,-0.52 0.662,-1.277 1.183,-1.75c0,0.331 0,0.662 0.142,0.804c0.237,-0.52 0.71,-1.183 1.23,-1.514c-0.095,0.473 0,0.568 0,0.852c0.473,-0.52 0.852,-1.135 1.419,-1.419c-0.142,0.331 -0.237,0.71 0,0.899c0.378,-0.095 0.615,-0.757 1.325,-1.088c-0.047,0.331 -0.047,0.615 0,0.757c0.804,-0.142 1.135,-0.426 1.609,-0.757l0,1.94l0.473,-0.473c0.237,0.804 -0.142,1.561 -0.189,2.176c0.189,0.237 0.426,0 0.71,-0.426c-0.142,0.662 -0.284,1.277 -0.52,1.75c0.237,0.331 0.662,-0.047 0.852,-0.331c-0.189,0.993 -0.473,1.419 -0.662,1.798c0.189,0.426 0.473,0 0.804,-0.189c-0.331,0.804 -0.757,1.277 -1.135,1.609c0.142,0.142 0.378,0.331 0.852,0.142c-0.331,0.473 -0.71,0.852 -1.183,1.277c0.284,0.284 0.473,0.189 0.852,0.189l-1.325,1.277c0,0 0.189,0.142 0.473,0.284c-1.277,1.277 -4.447,3.217 -5.724,0.52c1.94,-2.413 3.312,-5.157 4.258,-8.326c-2.034,4.116 -3.643,6.339 -5.109,7.522Z" id="path461" style="fill:#00723e;" />
<rect x="55.188" y="36.815" width="10.787" height="12.963" id="rect463" style="fill:none;" />
</g>
<g id="g468">
<path d="M62.946,40.032c-2.034,4.116 -3.643,6.339 -5.109,7.522c-2.602,-0.615 -2.744,-3.879 -2.602,-5.157c0.047,0.189 0.189,0.473 0.473,0.473c0.189,-0.284 0,-1.419 0.473,-2.176c0.047,0.331 0.047,0.426 0.284,0.615c0.284,-0.804 0.473,-1.514 0.804,-1.94c0,0.284 0,0.473 0.237,0.662c0.331,-0.52 0.662,-1.277 1.183,-1.75c0,0.331 0,0.662 0.142,0.804c0.237,-0.52 0.71,-1.183 1.23,-1.514c-0.095,0.473 0,0.568 0,0.852c0.473,-0.52 0.852,-1.135 1.419,-1.419c-0.142,0.331 -0.237,0.71 0,0.899c0.378,-0.095 0.615,-0.757 1.325,-1.088c-0.047,0.331 -0.047,0.615 0,0.757c0.804,-0.142 1.135,-0.426 1.609,-0.757l0,1.94l0.473,-0.473c0.237,0.804 -0.142,1.561 -0.189,2.176c0.189,0.237 0.426,0 0.71,-0.426c-0.142,0.662 -0.284,1.277 -0.52,1.75c0.237,0.331 0.662,-0.047 0.852,-0.331c-0.189,0.993 -0.473,1.419 -0.662,1.798c0.189,0.426 0.473,0 0.804,-0.189c-0.331,0.804 -0.757,1.277 -1.135,1.609c0.142,0.142 0.378,0.331 0.852,0.142c-0.331,0.473 -0.71,0.852 -1.183,1.277c0.284,0.284 0.473,0.189 0.852,0.189l-1.325,1.277c0,0 0.189,0.142 0.473,0.284c-1.277,1.277 -4.447,3.217 -5.724,0.52c1.94,-2.413 3.312,-5.157 4.258,-8.326Z" id="Drawing_46_0" style="fill:none;stroke:#fff;stroke-width:0.33px;" />
</g>
<g id="g474">
<path d="M57.837,53.657c1.467,1.135 3.075,3.454 5.109,7.475c-0.946,-3.17 -2.318,-5.866 -4.258,-8.137c1.277,-2.791 4.447,-0.946 5.724,0.378c-0.284,0 -0.473,0.142 -0.473,0.284c0.473,0.426 0.804,0.804 1.325,1.277c-0.378,0 -0.568,-0.142 -0.852,0.142c0.473,0.378 0.852,0.852 1.183,1.419c-0.473,-0.378 -0.71,-0.095 -0.852,0c0.378,0.378 0.804,0.71 1.135,1.609c-0.331,-0.237 -0.615,-0.426 -0.804,-0.237c0.189,0.473 0.473,0.899 0.662,1.892c-0.189,-0.189 -0.615,-0.804 -0.852,-0.473c0.237,0.615 0.378,1.23 0.52,1.845c-0.284,-0.378 -0.52,-0.473 -0.71,-0.378c0.047,0.615 0.426,1.419 0.189,2.224l-0.473,-0.568l0,1.94c-0.473,-0.331 -0.804,-0.568 -1.609,-0.804c-0.047,0.142 -0.047,0.615 0,0.852c-0.71,-0.378 -0.946,-0.993 -1.325,-1.183c-0.237,0.189 -0.142,0.568 0,0.946c-0.568,-0.237 -0.946,-0.852 -1.419,-1.325c0,0.142 -0.095,0.378 0,0.852c-0.52,-0.473 -0.993,-0.946 -1.23,-1.514c-0.142,0.095 -0.142,0.426 -0.142,0.804c-0.52,-0.568 -0.852,-1.277 -1.183,-1.987c-0.237,0.378 -0.237,0.615 -0.237,0.852c-0.331,-0.473 -0.52,-1.183 -0.804,-1.94c-0.237,0.095 -0.237,0.284 -0.284,0.615c-0.473,-0.852 -0.284,-1.845 -0.473,-2.176c-0.284,0.095 -0.426,0.331 -0.473,0.473c-0.142,-1.135 0,-4.636 2.602,-5.157Z" id="path470" style="fill:#00723e;" />
<rect x="55.188" y="51.481" width="10.787" height="12.963" id="rect472" style="fill:none;" />
</g>
<g id="g477">
<path d="M62.946,61.132c-0.946,-3.17 -2.318,-5.866 -4.258,-8.137c1.277,-2.791 4.447,-0.946 5.724,0.378c-0.284,0 -0.473,0.142 -0.473,0.284c0.473,0.426 0.804,0.804 1.325,1.277c-0.378,0 -0.568,-0.142 -0.852,0.142c0.473,0.378 0.852,0.852 1.183,1.419c-0.473,-0.378 -0.71,-0.095 -0.852,0c0.378,0.378 0.804,0.71 1.135,1.609c-0.331,-0.237 -0.615,-0.426 -0.804,-0.237c0.189,0.473 0.473,0.899 0.662,1.892c-0.189,-0.189 -0.615,-0.804 -0.852,-0.473c0.237,0.615 0.378,1.23 0.52,1.845c-0.284,-0.378 -0.52,-0.473 -0.71,-0.378c0.047,0.615 0.426,1.419 0.189,2.224l-0.473,-0.568l0,1.94c-0.473,-0.331 -0.804,-0.568 -1.609,-0.804c-0.047,0.142 -0.047,0.615 0,0.852c-0.71,-0.378 -0.946,-0.993 -1.325,-1.183c-0.237,0.189 -0.142,0.568 0,0.946c-0.568,-0.237 -0.946,-0.852 -1.419,-1.325c0,0.142 -0.095,0.378 0,0.852c-0.52,-0.473 -0.993,-0.946 -1.23,-1.514c-0.142,0.095 -0.142,0.426 -0.142,0.804c-0.52,-0.568 -0.852,-1.277 -1.183,-1.987c-0.237,0.378 -0.237,0.615 -0.237,0.852c-0.331,-0.473 -0.52,-1.183 -0.804,-1.94c-0.237,0.095 -0.237,0.284 -0.284,0.615c-0.473,-0.852 -0.284,-1.845 -0.473,-2.176c-0.284,0.095 -0.426,0.331 -0.473,0.473c-0.142,-1.135 0,-4.636 2.602,-5.157c1.467,1.135 3.075,3.454 5.109,7.475Z" id="Drawing_48_0" style="fill:none;stroke:#fff;stroke-width:0.33px;" />
</g>
<g id="g483">
<path d="M36.595,55.36c-2.46,0 -4.4,-2.082 -4.4,-4.636c0,-2.697 1.94,-4.826 4.258,-4.826l0.142,0c2.46,0 4.4,2.129 4.4,4.826c0,2.507 -1.94,4.636 -4.4,4.636Z" id="path479" style="fill:#00723e;" />
<rect x="32.195" y="45.851" width="8.894" height="9.556" id="rect481" style="fill:none;" />
</g>
<g id="g486">
<path d="M36.595,55.36c-2.46,0 -4.4,-2.082 -4.4,-4.636c0,-2.697 1.94,-4.826 4.258,-4.826l0.142,0c2.46,0 4.4,2.129 4.4,4.826c0,2.507 -1.94,4.636 -4.4,4.636Z" id="Drawing_50_0" style="fill:none;stroke:#fff;stroke-width:0.33px;" />
</g>
<g id="g492">
<path d="M42.603,48.69c-2.271,-1.514 -3.217,-4.4 -1.798,-6.292c1.183,-1.94 4.211,-2.318 6.529,-0.852c2.176,1.561 3.17,4.352 1.798,6.434c-1.325,1.94 -4.258,2.318 -6.529,0.71Z" id="path488" style="fill:#00723e;" />
<rect x="40.096" y="40.647" width="9.746" height="9.131" id="rect490" style="fill:none;" />
</g>
<g id="g495">
<path d="M49.132,47.98c-1.325,1.94 -4.258,2.318 -6.529,0.71c-2.271,-1.514 -3.217,-4.4 -1.798,-6.292c1.183,-1.94 4.211,-2.318 6.529,-0.852c2.176,1.561 3.17,4.352 1.798,6.434Z" id="Drawing_52_0" style="fill:none;stroke:#fff;stroke-width:0.33px;" />
</g>
<g id="g501">
<path d="M49.321,53.184c1.372,1.94 0.378,4.873 -1.798,6.434c-2.318,1.467 -5.346,1.183 -6.529,-0.852c-1.325,-1.94 -0.473,-4.731 1.798,-6.292c2.271,-1.561 5.251,-1.23 6.529,0.71Z" id="path497" style="fill:#00723e;" />
<rect x="40.333" y="51.434" width="9.698" height="9.178" id="rect499" style="fill:none;" />
</g>
<g id="g504">
<path d="M49.321,53.184c1.372,1.94 0.378,4.873 -1.798,6.434c-2.318,1.467 -5.346,1.183 -6.529,-0.852c-1.325,-1.94 -0.473,-4.731 1.798,-6.292c2.271,-1.561 5.251,-1.23 6.529,0.71Z" id="Drawing_54_0" style="fill:none;stroke:#fff;stroke-width:0.33px;" />
</g>
<g id="g510">
<path d="M47.098,38.045c0.473,2.176 -8.894,0.662 -8.184,-0.993c1.561,-1.845 6.056,-2.507 8.184,0.993Z" id="path506" style="fill:#00723e;" />
<rect x="38.866" y="35.538" width="8.326" height="3.69" id="rect508" style="fill:none;" />
</g>
<g id="g513">
<path d="M47.098,38.045c0.473,2.176 -8.894,0.662 -8.184,-0.993c1.561,-1.845 6.056,-2.507 8.184,0.993Z" id="Drawing_56_0" style="fill:none;stroke:#fff;stroke-width:0.33px;" />
</g>
<g id="g519">
<path d="M47.145,62.646c-2.129,3.548 -6.623,2.791 -8.184,1.041c-0.71,-1.798 8.658,-3.217 8.184,-1.041Z" id="path515" style="fill:#00723e;" />
<rect x="38.913" y="61.511" width="8.326" height="3.737" id="rect517" style="fill:none;" />
</g>
<g id="g522">
<path d="M47.145,62.646c-2.129,3.548 -6.623,2.791 -8.184,1.041c-0.71,-1.798 8.658,-3.217 8.184,-1.041Z" id="Drawing_58_0" style="fill:none;stroke:#fff;stroke-width:0.33px;" />
</g>
<g id="g528">
<path d="M54.147,55.313c0.568,3.69 -1.609,6.765 -5.582,6.623c-1.467,-0.189 5.346,-7.901 5.582,-6.623Z" id="path524" style="fill:#00723e;" />
<rect x="48.328" y="55.171" width="5.961" height="6.86" id="rect526" style="fill:none;" />
</g>
<g id="g531">
<path d="M54.147,55.313c0.568,3.69 -1.609,6.765 -5.582,6.623c-1.467,-0.189 5.346,-7.901 5.582,-6.623Z" id="Drawing_60_0" style="fill:none;stroke:#fff;stroke-width:0.33px;" />
</g>
<g id="g537">
<path d="M54.241,45.283c-0.237,1.325 -7.049,-6.529 -5.582,-6.529c3.974,-0.189 6.15,2.839 5.582,6.529Z" id="path533" style="fill:#00723e;" />
<rect x="48.422" y="38.707" width="5.961" height="6.813" id="rect535" style="fill:none;" />
</g>
<g id="g540">
<path d="M54.241,45.283c-0.237,1.325 -7.049,-6.529 -5.582,-6.529c3.974,-0.189 6.15,2.839 5.582,6.529Z" id="Drawing_62_0" style="fill:none;stroke:#fff;stroke-width:0.33px;" />
</g>
<g id="g546">
<path d="M55.093,50.629c0,1.892 -1.467,4.258 -2.886,4.258c-1.041,0 -2.129,-1.703 -2.129,-4.258c0,-2.602 1.277,-4.352 2.413,-4.352c0.993,0 2.744,2.082 2.602,4.352Z" id="path542" style="fill:#00723e;" />
<rect x="50.078" y="46.23" width="5.109" height="8.705" id="rect544" style="fill:none;" />
</g>
<g id="g549">
<path d="M55.093,50.629c0,1.892 -1.467,4.258 -2.886,4.258c-1.041,0 -2.129,-1.703 -2.129,-4.258c0,-2.602 1.277,-4.352 2.413,-4.352c0.993,0 2.744,2.082 2.602,4.352Z" id="Drawing_64_0" style="fill:none;stroke:#fff;stroke-width:0.33px;" />
</g>
<g id="g555">
<path d="M30.823,50.724c0.047,1.94 -0.662,4.447 -1.467,4.447c-0.852,0 -2.98,-2.271 -2.98,-4.589c-0.095,-2.413 1.987,-4.684 2.555,-4.684c1.135,0 1.892,2.886 1.892,4.826Z" id="path551" style="fill:#00723e;" />
<rect x="26.376" y="45.851" width="4.542" height="9.367" id="rect553" style="fill:none;" />
</g>
<g id="g558">
<path d="M30.823,50.724c0.047,1.94 -0.662,4.447 -1.467,4.447c-0.852,0 -2.98,-2.271 -2.98,-4.589c-0.095,-2.413 1.987,-4.684 2.555,-4.684c1.135,0 1.892,2.886 1.892,4.826Z" id="Drawing_66_0" style="fill:none;stroke:#fff;stroke-width:0.33px;" />
</g>
<g id="g564">
<path d="M30.918,44.337c-0.71,-0.993 -0.378,-3.548 2.318,-5.441c2.224,-1.277 4.589,-1.135 5.109,-0.284c0.946,1.419 -0.237,3.312 -2.129,4.92c-1.467,1.467 -4.352,1.94 -5.299,0.804Z" id="path560" style="fill:#00723e;" />
<rect x="30.54" y="37.951" width="8.184" height="7.096" id="rect562" style="fill:none;" />
</g>
<g id="g567">
<path d="M36.217,43.533c-1.467,1.467 -4.352,1.94 -5.299,0.804c-0.71,-0.993 -0.378,-3.548 2.318,-5.441c2.224,-1.277 4.589,-1.135 5.109,-0.284c0.946,1.419 -0.237,3.312 -2.129,4.92Z" id="Drawing_68_0" style="fill:none;stroke:#fff;stroke-width:0.33px;" />
</g>
<g id="g573">
<path d="M36.879,57.395c1.798,1.656 2.98,3.501 2.129,4.826c-0.993,0.71 -4.021,1.325 -6.008,-0.142c-2.791,-2.034 -2.839,-4.826 -2.129,-5.819c1.088,-1.135 4.258,-0.237 6.008,1.135Z" id="path569" style="fill:#00723e;" />
<rect x="30.492" y="55.739" width="8.894" height="7.333" id="rect571" style="fill:none;" />
</g>
<g id="g576">
<path d="M36.879,57.395c1.798,1.656 2.98,3.501 2.129,4.826c-0.993,0.71 -4.021,1.325 -6.008,-0.142c-2.791,-2.034 -2.839,-4.826 -2.129,-5.819c1.088,-1.135 4.258,-0.237 6.008,1.135Z" id="Drawing_70_0" style="fill:none;stroke:#fff;stroke-width:0.33px;" />
</g>
</g>
<g id="Drawing_71">
<rect x="22.166" y="16.709" width="112.076" height="11.543" id="rect579" style="fill:none;" />
<g id="g583">
<g id="text581" transform="matrix(7.522167,0,0,7.522167,86.548676,23.521223)"></g>
<text x="22.166" y="23.521" font-size="12" style="font-family:'Helvetica-Bold', 'Helvetica';font-weight:700;font-size:7.522px;fill:#fff;">Raspberry Pi Pico</text>
</g>
</g>
<g id="DrawingGroup_9">
<g id="DrawingGroup_10">
<g id="g590">
<rect x="99.469" y="54.461" width="9.793" height="2.224" id="path586" style="fill:#868686;" />
<rect x="99.469" y="54.461" width="9.84" height="2.271" id="rect588" style="fill:none;" />
</g>
<g id="g593">
<rect x="99.469" y="54.461" width="9.793" height="2.224" id="Drawing_73_0" style="fill:none;stroke:#000;stroke-width:0.19px;" />
</g>
<g id="g599">
<rect x="99.469" y="48.075" width="9.793" height="2.224" id="path595" style="fill:#868686;" />
<rect x="99.469" y="48.027" width="9.84" height="2.318" id="rect597" style="fill:none;" />
</g>
<g id="g602">
<rect x="99.469" y="48.075" width="9.793" height="2.224" id="Drawing_75_0" style="fill:none;stroke:#000;stroke-width:0.24px;" />
</g>
<g id="g608">
<rect x="99.469" y="51.103" width="10.124" height="2.224" id="path604" style="fill:#868686;" />
<rect x="99.469" y="51.055" width="10.171" height="2.318" id="rect606" style="fill:none;" />
</g>
<g id="g611">
<rect x="99.469" y="51.103" width="10.124" height="2.224" id="Drawing_77_0" style="fill:none;stroke:#000;stroke-width:0.19px;" />
</g>
<g id="g617">
<rect x="99.469" y="44.668" width="10.171" height="2.224" id="path613" style="fill:#868686;" />
<rect x="99.469" y="44.668" width="10.219" height="2.271" id="rect615" style="fill:none;" />
</g>
<g id="g620">
<rect x="99.469" y="44.668" width="10.171" height="2.224" id="Drawing_79_0" style="fill:none;stroke:#000;stroke-width:0.19px;" />
</g>
<g id="g626">
<rect x="99.469" y="38.282" width="10.171" height="2.224" id="path622" style="fill:#868686;" />
<rect x="99.469" y="38.282" width="10.219" height="2.271" id="rect624" style="fill:none;" />
</g>
<g id="g629">
<rect x="99.469" y="38.282" width="10.171" height="2.224" id="Drawing_81_0" style="fill:none;stroke:#000;stroke-width:0.24px;" />
</g>
<g id="g635">
<rect x="99.469" y="41.309" width="9.793" height="2.224" id="path631" style="fill:#868686;" />
<rect x="99.469" y="41.262" width="9.84" height="2.318" id="rect633" style="fill:none;" />
</g>
<g id="g638">
<rect x="99.469" y="41.309" width="9.793" height="2.224" id="Drawing_83_0" style="fill:none;stroke:#000;stroke-width:0.19px;" />
</g>
<g id="g644">
<rect x="99.469" y="61.132" width="9.793" height="2.224" id="path640" style="fill:#868686;" />
<rect x="99.469" y="61.132" width="9.84" height="2.271" id="rect642" style="fill:none;" />
</g>
<g id="g647">
<rect x="99.469" y="61.132" width="9.793" height="2.224" id="Drawing_85_0" style="fill:none;stroke:#000;stroke-width:0.19px;" />
</g>
<g id="g653">
<rect x="99.469" y="57.726" width="10.124" height="2.224" id="path649" style="fill:#868686;" />
<rect x="99.469" y="57.726" width="10.171" height="2.271" id="rect651" style="fill:none;" />
</g>
<g id="g656">
<rect x="99.469" y="57.726" width="10.124" height="2.224" id="Drawing_87_0" style="fill:none;stroke:#000;stroke-width:0.19px;" />
</g>
</g>
<g id="DrawingGroup_11">
<g id="g663">
<rect x="127.618" y="44.952" width="9.793" height="2.224" id="path659" style="fill:#868686;" />
<rect x="127.618" y="44.952" width="9.84" height="2.271" id="rect661" style="fill:none;" />
</g>
<g id="g666">
<rect x="127.618" y="44.952" width="9.793" height="2.224" id="Drawing_89_0" style="fill:none;stroke:#000;stroke-width:0.19px;" />
</g>
<g id="g672">
<rect x="127.618" y="51.339" width="9.793" height="2.224" id="path668" style="fill:#868686;" />
<rect x="127.618" y="51.339" width="9.84" height="2.271" id="rect670" style="fill:none;" />
</g>
<g id="g675">
<rect x="127.618" y="51.339" width="9.793" height="2.224" id="Drawing_91_0" style="fill:none;stroke:#000;stroke-width:0.24px;" />
</g>
<g id="g681">
<rect x="127.287" y="48.311" width="10.124" height="2.224" id="path677" style="fill:#868686;" />
<rect x="127.24" y="48.311" width="10.219" height="2.271" id="rect679" style="fill:none;" />
</g>
<g id="g684">
<rect x="127.287" y="48.311" width="10.124" height="2.224" id="Drawing_93_0" style="fill:none;stroke:#000;stroke-width:0.19px;" />
</g>
<g id="g690">
<rect x="127.24" y="54.745" width="10.171" height="2.224" id="path686" style="fill:#868686;" />
<rect x="127.24" y="54.745" width="10.219" height="2.271" id="rect688" style="fill:none;" />
</g>
<g id="g693">
<rect x="127.24" y="54.745" width="10.171" height="2.224" id="Drawing_95_0" style="fill:none;stroke:#000;stroke-width:0.19px;" />
</g>
<g id="g699">
<rect x="127.24" y="61.132" width="10.171" height="2.224" id="path695" style="fill:#868686;" />
<rect x="127.24" y="61.132" width="10.219" height="2.271" id="rect697" style="fill:none;" />
</g>
<g id="g702">
<rect x="127.24" y="61.132" width="10.171" height="2.224" id="Drawing_97_0" style="fill:none;stroke:#000;stroke-width:0.24px;" />
</g>
<g id="g708">
<rect x="127.618" y="58.104" width="9.793" height="2.224" id="path704" style="fill:#868686;" />
<rect x="127.618" y="58.104" width="9.84" height="2.271" id="rect706" style="fill:none;" />
</g>
<g id="g711">
<rect x="127.618" y="58.104" width="9.793" height="2.224" id="Drawing_99_0" style="fill:none;stroke:#000;stroke-width:0.19px;" />
</g>
<g id="g717">
<rect x="127.618" y="38.282" width="9.793" height="2.224" id="path713" style="fill:#868686;" />
<rect x="127.618" y="38.282" width="9.84" height="2.271" id="rect715" style="fill:none;" />
</g>
<g id="g720">
<rect x="127.618" y="38.282" width="9.793" height="2.224" id="Drawing_101_0" style="fill:none;stroke:#000;stroke-width:0.19px;" />
</g>
<g id="g726">
<rect x="127.287" y="41.688" width="10.124" height="2.224" id="path722" style="fill:#868686;" />
<rect x="127.24" y="41.688" width="10.219" height="2.271" id="rect724" style="fill:none;" />
</g>
<g id="g729">
<rect x="127.287" y="41.688" width="10.124" height="2.224" id="Drawing_103_0" style="fill:none;stroke:#000;stroke-width:0.19px;" />
</g>
</g>
<g id="DrawingGroup_12">
<g id="g736">
<rect x="113.047" y="30.523" width="2.129" height="10.266" id="path732" style="fill:#868686;" />
<rect x="113.047" y="30.523" width="2.224" height="10.313" id="rect734" style="fill:none;" />
</g>
<g id="g739">
<rect x="113.047" y="30.523" width="2.129" height="10.266" id="Drawing_105_0" style="fill:none;stroke:#000;stroke-width:0.19px;" />
</g>
<g id="g745">
<rect x="119.15" y="30.523" width="2.129" height="10.266" id="path741" style="fill:#868686;" />
<rect x="119.15" y="30.523" width="2.176" height="10.313" id="rect743" style="fill:none;" />
</g>
<g id="g748">
<rect x="119.15" y="30.523" width="2.129" height="10.266" id="Drawing_107_0" style="fill:none;stroke:#000;stroke-width:0.24px;" />
</g>
<g id="g754">
<rect x="116.264" y="30.523" width="2.129" height="10.55" id="path750" style="fill:#868686;" />
<rect x="116.264" y="30.523" width="2.176" height="10.597" id="rect752" style="fill:none;" />
</g>
<g id="g757">
<rect x="116.264" y="30.523" width="2.129" height="10.55" id="Drawing_109_0" style="fill:none;stroke:#000;stroke-width:0.19px;" />
</g>
<g id="g763">
<rect x="122.461" y="30.523" width="2.129" height="10.645" id="path759" style="fill:#868686;" />
<rect x="122.461" y="30.523" width="2.224" height="10.692" id="rect761" style="fill:none;" />
</g>
<g id="g766">
<rect x="122.461" y="30.523" width="2.129" height="10.645" id="Drawing_111_0" style="fill:none;stroke:#000;stroke-width:0.19px;" />
</g>
<g id="g772">
<rect x="128.564" y="30.523" width="2.129" height="10.645" id="path768" style="fill:#868686;" />
<rect x="128.564" y="30.523" width="2.176" height="10.692" id="rect770" style="fill:none;" />
</g>
<g id="g775">
<rect x="128.564" y="30.523" width="2.129" height="10.645" id="Drawing_113_0" style="fill:none;stroke:#000;stroke-width:0.24px;" />
</g>
<g id="g781">
<rect x="125.631" y="30.523" width="2.129" height="10.266" id="path777" style="fill:#868686;" />
<rect x="125.631" y="30.523" width="2.176" height="10.313" id="rect779" style="fill:none;" />
</g>
<g id="g784">
<rect x="125.631" y="30.523" width="2.129" height="10.266" id="Drawing_115_0" style="fill:none;stroke:#000;stroke-width:0.19px;" />
</g>
<g id="g790">
<rect x="106.66" y="30.523" width="2.129" height="10.266" id="path786" style="fill:#868686;" />
<rect x="106.66" y="30.523" width="2.224" height="10.313" id="rect788" style="fill:none;" />
</g>
<g id="g793">
<rect x="106.66" y="30.523" width="2.129" height="10.266" id="Drawing_117_0" style="fill:none;stroke:#000;stroke-width:0.19px;" />
</g>
<g id="g799">
<rect x="109.924" y="30.523" width="2.129" height="10.55" id="path795" style="fill:#868686;" />
<rect x="109.924" y="30.523" width="2.224" height="10.597" id="rect797" style="fill:none;" />
</g>
<g id="g802">
<rect x="109.924" y="30.523" width="2.129" height="10.55" id="Drawing_119_0" style="fill:none;stroke:#000;stroke-width:0.19px;" />
</g>
</g>
<g id="DrawingGroup_13">
<g id="g809">
<rect x="122.225" y="59.997" width="2.129" height="10.266" id="path805" style="fill:#868686;" />
<rect x="122.225" y="59.997" width="2.176" height="10.313" id="rect807" style="fill:none;" />
</g>
<g id="g812">
<rect x="122.225" y="59.997" width="2.129" height="10.266" id="Drawing_121_0" style="fill:none;stroke:#000;stroke-width:0.19px;" />
</g>
<g id="g818">
<rect x="116.122" y="59.997" width="2.129" height="10.266" id="path814" style="fill:#868686;" />
<rect x="116.122" y="59.997" width="2.176" height="10.313" id="rect816" style="fill:none;" />
</g>
<g id="g821">
<rect x="116.122" y="59.997" width="2.129" height="10.266" id="Drawing_123_0" style="fill:none;stroke:#000;stroke-width:0.24px;" />
</g>
<g id="g827">
<rect x="119.008" y="59.665" width="2.129" height="10.55" id="path823" style="fill:#868686;" />
<rect x="119.008" y="59.618" width="2.176" height="10.645" id="rect825" style="fill:none;" />
</g>
<g id="g830">
<rect x="119.008" y="59.665" width="2.129" height="10.55" id="Drawing_125_0" style="fill:none;stroke:#000;stroke-width:0.19px;" />
</g>
<g id="g836">
<rect x="112.858" y="59.618" width="2.129" height="10.645" id="path832" style="fill:#868686;" />
<rect x="112.858" y="59.618" width="2.176" height="10.692" id="rect834" style="fill:none;" />
</g>
<g id="g839">
<rect x="112.858" y="59.618" width="2.129" height="10.645" id="Drawing_127_0" style="fill:none;stroke:#000;stroke-width:0.19px;" />
</g>
<g id="g845">
<rect x="106.755" y="59.618" width="2.129" height="10.645" id="path841" style="fill:#868686;" />
<rect x="106.755" y="59.618" width="2.176" height="10.692" id="rect843" style="fill:none;" />
</g>
<g id="g848">
<rect x="106.755" y="59.618" width="2.129" height="10.645" id="Drawing_129_0" style="fill:none;stroke:#000;stroke-width:0.24px;" />
</g>
<g id="g854">
<rect x="109.641" y="59.997" width="2.129" height="10.266" id="path850" style="fill:#868686;" />
<rect x="109.641" y="59.997" width="2.176" height="10.313" id="rect852" style="fill:none;" />
</g>
<g id="g857">
<rect x="109.641" y="59.997" width="2.129" height="10.266" id="Drawing_131_0" style="fill:none;stroke:#000;stroke-width:0.19px;" />
</g>
<g id="g863">
<rect x="128.612" y="59.997" width="2.129" height="10.266" id="path859" style="fill:#868686;" />
<rect x="128.612" y="59.997" width="2.176" height="10.313" id="rect861" style="fill:none;" />
</g>
<g id="g866">
<rect x="128.612" y="59.997" width="2.129" height="10.266" id="Drawing_133_0" style="fill:none;stroke:#000;stroke-width:0.19px;" />
</g>
<g id="g872">
<rect x="125.347" y="59.665" width="2.129" height="10.55" id="path868" style="fill:#868686;" />
<rect x="125.347" y="59.618" width="2.224" height="10.645" id="rect870" style="fill:none;" />
</g>
<g id="g875">
<rect x="125.347" y="59.665" width="2.129" height="10.55" id="Drawing_135_0" style="fill:none;stroke:#000;stroke-width:0.19px;" />
</g>
</g>
<g id="Drawing_136">
<rect x="103.254" y="34.781" width="30.893" height="31.508" id="path878" style="fill:#7e7e7e;" />
<rect x="103.254" y="34.781" width="30.94" height="31.555" id="rect880" style="fill:none;" />
</g>
<g id="g898">
<rect x="103.254" y="34.781" width="30.893" height="31.508" id="Drawing_137_0" style="fill:none;stroke:#000;stroke-width:0.95px;" />
</g>
</g>
<g id="DrawingGroup_14">
<g id="DrawingGroup_15">
<g id="DrawingGroup_16">
<g id="g916">
<path d="M18.807,77.406c0,4.684 -3.785,8.468 -8.516,8.468c-4.684,0 -8.516,-3.785 -8.516,-8.468c0,-4.826 3.832,-8.658 8.516,-8.658c4.731,0 8.516,3.832 8.516,8.658Z" id="path912" style="fill:#f2d592;" />
<rect x="1.776" y="68.749" width="17.079" height="17.173" id="rect914" style="fill:none;" />
</g>
<g id="g919">
<path d="M18.807,77.406c0,4.684 -3.785,8.468 -8.516,8.468c-4.684,0 -8.516,-3.785 -8.516,-8.468c0,-4.826 3.832,-8.658 8.516,-8.658c4.731,0 8.516,3.832 8.516,8.658Z" id="Drawing_140_0" style="fill:none;stroke:#000;stroke-width:0.33px;" />
</g>
</g>
<g id="DrawingGroup_17">
<g id="g926">
<path d="M15.164,77.406c0,2.649 -2.176,4.636 -4.778,4.636c-2.649,0 -4.636,-1.987 -4.636,-4.636c0,-2.649 1.987,-4.873 4.636,-4.873c2.602,0 4.778,2.224 4.778,4.873Z" id="path922" style="fill:#fff;" />
<rect x="5.75" y="72.534" width="9.462" height="9.556" id="rect924" style="fill:none;" />
</g>
<g id="g929">
<path d="M15.022,77.501c0,2.602 -2.129,4.542 -4.731,4.542c-2.602,0 -4.542,-1.94 -4.542,-4.542c0,-2.602 1.94,-4.826 4.542,-4.826c2.602,0 4.731,2.224 4.731,4.826Z" id="Drawing_142_0" style="fill:none;stroke:#000;stroke-width:0.33px;" />
</g>
</g>
</g>
</g>
<g id="DrawingGroup_18">
<g id="DrawingGroup_19">
<g id="DrawingGroup_20">
<g id="g938">
<path d="M240.876,23.663c0,4.684 -3.785,8.468 -8.516,8.468c-4.684,0 -8.516,-3.785 -8.516,-8.468c0,-4.826 3.832,-8.658 8.516,-8.658c4.731,0 8.516,3.832 8.516,8.658Z" id="path934" style="fill:#f2d592;" />
<rect x="223.845" y="14.958" width="17.126" height="17.221" id="rect936" style="fill:none;" />
</g>
<g id="g941">
<path d="M240.876,23.663c0,4.684 -3.785,8.468 -8.516,8.468c-4.684,0 -8.516,-3.785 -8.516,-8.468c0,-4.826 3.832,-8.658 8.516,-8.658c4.731,0 8.516,3.832 8.516,8.658Z" id="Drawing_144_0" style="fill:none;stroke:#000;stroke-width:0.33px;" />
</g>
</g>
<g id="DrawingGroup_21">
<g id="g948">
<path d="M237.234,23.663c0,2.649 -2.176,4.636 -4.778,4.636c-2.649,0 -4.636,-1.987 -4.636,-4.636c0,-2.649 1.987,-4.873 4.636,-4.873c2.602,0 4.778,2.224 4.778,4.873Z" id="path944" style="fill:#fff;" />
<rect x="227.819" y="18.79" width="9.462" height="9.556" id="rect946" style="fill:none;" />
</g>
<g id="g951">
<path d="M237.092,23.758c0,2.602 -2.129,4.542 -4.731,4.542c-2.602,0 -4.542,-1.94 -4.542,-4.542c0,-2.602 1.94,-4.826 4.542,-4.826c2.602,0 4.731,2.224 4.731,4.826Z" id="Drawing_146_0" style="fill:none;stroke:#000;stroke-width:0.33px;" />
</g>
</g>
</g>
</g>
<g id="DrawingGroup_22">
<g id="DrawingGroup_23">
<g id="DrawingGroup_24">
<g id="g960">
<path d="M240.876,77.406c0,4.684 -3.785,8.468 -8.516,8.468c-4.684,0 -8.516,-3.785 -8.516,-8.468c0,-4.826 3.832,-8.658 8.516,-8.658c4.731,0 8.516,3.832 8.516,8.658Z" id="path956" style="fill:#f2d592;" />
<rect x="223.845" y="68.749" width="17.126" height="17.173" id="rect958" style="fill:none;" />
</g>
<g id="g963">
<path d="M240.876,77.406c0,4.684 -3.785,8.468 -8.516,8.468c-4.684,0 -8.516,-3.785 -8.516,-8.468c0,-4.826 3.832,-8.658 8.516,-8.658c4.731,0 8.516,3.832 8.516,8.658Z" id="Drawing_148_0" style="fill:none;stroke:#000;stroke-width:0.33px;" />
</g>
</g>
<g id="DrawingGroup_25">
<g id="g970">
<path d="M237.234,77.406c0,2.649 -2.176,4.636 -4.778,4.636c-2.649,0 -4.636,-1.987 -4.636,-4.636c0,-2.649 1.987,-4.873 4.636,-4.873c2.602,0 4.778,2.224 4.778,4.873Z" id="path966" style="fill:#fff;" />
<rect x="227.819" y="72.534" width="9.462" height="9.556" id="rect968" style="fill:none;" />
</g>
<g id="g973">
<path d="M237.092,77.501c0,2.602 -2.129,4.542 -4.731,4.542c-2.602,0 -4.542,-1.94 -4.542,-4.542c0,-2.602 1.94,-4.826 4.542,-4.826c2.602,0 4.731,2.224 4.731,4.826Z" id="Drawing_150_0" style="fill:none;stroke:#000;stroke-width:0.33px;" />
</g>
</g>
</g>
</g>
<g id="DrawingGroup_47">
<g id="DrawingGroup_48">
<g id="g1363">
<rect x="0.829" y="48.217" width="3.454" height="5.251" id="path1359" style="fill:#fff;" />
<rect x="0.829" y="48.217" width="3.548" height="5.346" id="rect1361" style="fill:none;" />
</g>
<g id="g1369">
<path d="M0.829,46.797l10.408,0c0.52,0 0.993,0 0.993,0.946l0,5.724c0,0.568 -0.473,1.041 -0.993,1.041l-10.408,0c0.095,-0.142 0,-0.757 0,-1.277c0,-0.426 2.318,-0.237 2.365,-2.365c-0.047,-2.176 -2.365,-1.703 -2.365,-2.176l0,-1.892Z" id="path1365" style="fill:#ffeba2;" />
<rect x="0.782" y="46.75" width="11.496" height="7.806" id="rect1367" style="fill:none;" />
</g>
<g id="g1375">
<path d="M5.797,50.724c0,-0.473 0.095,-0.852 0.331,-1.23c0.237,-0.426 0.568,-0.71 0.993,-0.946c0.378,-0.237 0.804,-0.331 1.277,-0.331c0.473,0 0.899,0.095 1.325,0.331c0.378,0.237 0.71,0.52 0.946,0.946c0.237,0.378 0.331,0.757 0.331,1.23c0,0.473 -0.095,0.852 -0.331,1.277c-0.237,0.378 -0.568,0.662 -0.946,0.899c-0.426,0.237 -0.852,0.331 -1.325,0.331c-0.473,0 -0.899,-0.095 -1.277,-0.331c-0.426,-0.237 -0.757,-0.52 -0.993,-0.899c-0.237,-0.426 -0.331,-0.804 -0.331,-1.277Z" id="path1371" style="fill:#fff;" />
<rect x="5.797" y="48.217" width="5.299" height="5.109" id="rect1373" style="fill:none;" />
</g>
</g>
<g id="DrawingGroup_49">
<g id="g1382">
<rect x="0.829" y="36.058" width="3.454" height="5.251" id="path1378" style="fill:#fff;" />
<rect x="0.829" y="36.058" width="3.548" height="5.346" id="rect1380" style="fill:none;" />
</g>
<g id="g1388">
<path d="M0.829,34.639l7.948,0c2.46,0 3.454,1.892 3.454,3.785c0,2.413 -1.467,3.832 -3.454,3.832c-3.832,0 -4.116,0.095 -7.948,0.095c0.095,-0.142 0,-0.757 0,-1.277c0,-0.426 2.318,-0.237 2.365,-2.365c-0.047,-2.176 -2.365,-1.703 -2.365,-2.176l0,-1.892Z" id="path1384" style="fill:#ffeba2;" />
<rect x="0.782" y="34.639" width="11.496" height="7.806" id="rect1386" style="fill:none;" />
</g>
<g id="g1394">
<path d="M5.797,38.471c0,-0.473 0.095,-0.852 0.331,-1.23c0.237,-0.426 0.568,-0.71 0.993,-0.946c0.378,-0.237 0.804,-0.331 1.277,-0.331c0.473,0 0.899,0.095 1.325,0.331c0.378,0.237 0.71,0.52 0.946,0.946c0.237,0.378 0.331,0.757 0.331,1.23c0,0.473 -0.095,0.852 -0.331,1.277c-0.237,0.378 -0.568,0.662 -0.946,0.899c-0.426,0.237 -0.852,0.331 -1.325,0.331c-0.473,0 -0.899,-0.095 -1.277,-0.331c-0.426,-0.237 -0.757,-0.52 -0.993,-0.899c-0.237,-0.426 -0.331,-0.804 -0.331,-1.277Z" id="path1390" style="fill:#fff;" />
<rect x="5.797" y="35.964" width="5.299" height="5.109" id="rect1392" style="fill:none;" />
</g>
</g>
<g id="DrawingGroup_50">
<g id="g1401">
<rect x="0.829" y="60.517" width="3.454" height="5.204" id="path1397" style="fill:#fff;" />
<rect x="0.829" y="60.517" width="3.548" height="5.299" id="rect1399" style="fill:none;" />
</g>
<g id="g1407">
<path d="M0.829,59.05l7.948,0c2.46,0 3.454,1.892 3.454,3.785c0,2.413 -1.467,3.832 -3.454,3.832c-3.832,0 -4.116,0.095 -7.948,0.095c0.095,-0.142 0,-0.757 0,-1.277c0,-0.426 2.318,-0.237 2.365,-2.365c-0.047,-2.176 -2.365,-1.703 -2.365,-2.176l0,-1.892Z" id="path1403" style="fill:#ffeba2;" />
<rect x="0.782" y="59.05" width="11.496" height="7.806" id="rect1405" style="fill:none;" />
</g>
<g id="g1413">
<path d="M5.797,62.93c0,-0.473 0.095,-0.852 0.331,-1.277c0.237,-0.378 0.568,-0.662 0.993,-0.899c0.378,-0.237 0.804,-0.331 1.277,-0.331c0.473,0 0.899,0.095 1.325,0.331c0.378,0.237 0.71,0.52 0.946,0.899c0.237,0.426 0.331,0.804 0.331,1.277c0,0.426 -0.095,0.804 -0.331,1.23c-0.237,0.378 -0.568,0.662 -0.946,0.899c-0.426,0.237 -0.852,0.331 -1.325,0.331c-0.473,0 -0.899,-0.095 -1.277,-0.331c-0.426,-0.237 -0.757,-0.52 -0.993,-0.899c-0.237,-0.426 -0.331,-0.804 -0.331,-1.23Z" id="path1409" style="fill:#fff;" />
<rect x="5.797" y="60.422" width="5.299" height="5.062" id="rect1411" style="fill:none;" />
</g>
</g>
</g>
<g id="DrawingGroup_51">
<g id="g1421">
<path d="M29.546,83.036c-0.804,0 -1.467,-0.189 -2.129,-0.568c-0.662,-0.378 -1.183,-0.899 -1.561,-1.561c-0.378,-0.662 -0.568,-1.325 -0.568,-2.129c0,-0.804 0.189,-1.467 0.568,-2.129c0.378,-0.662 0.899,-1.183 1.561,-1.561c0.662,-0.378 1.325,-0.568 2.129,-0.568c0.804,0 1.467,0.189 2.129,0.568c0.662,0.378 1.183,0.899 1.561,1.561c0.378,0.662 0.568,1.325 0.568,2.129c0,0.804 -0.189,1.467 -0.568,2.129c-0.378,0.662 -0.899,1.183 -1.561,1.561c-0.662,0.378 -1.325,0.568 -2.129,0.568Z" id="path1417" style="fill:#630;" />
<rect x="25.288" y="74.521" width="8.563" height="8.563" id="rect1419" style="fill:none;" />
</g>
<g id="g1427">
<path d="M29.593,81.049c-0.426,0 -0.804,-0.095 -1.135,-0.331c-0.378,-0.189 -0.662,-0.473 -0.852,-0.804c-0.237,-0.378 -0.331,-0.757 -0.331,-1.183c0,-0.426 0.095,-0.804 0.331,-1.135c0.189,-0.378 0.473,-0.662 0.852,-0.852c0.331,-0.237 0.71,-0.331 1.135,-0.331c0.426,0 0.804,0.095 1.183,0.331c0.331,0.189 0.615,0.473 0.804,0.852c0.237,0.331 0.331,0.71 0.331,1.135c0,0.426 -0.095,0.804 -0.331,1.183c-0.189,0.331 -0.473,0.615 -0.804,0.804c-0.378,0.237 -0.757,0.331 -1.183,0.331Z" id="path1423" style="fill:#f90;" />
<rect x="27.275" y="76.413" width="4.684" height="4.684" id="rect1425" style="fill:none;" />
</g>
</g>
<g id="DrawingGroup_52">
<g id="g1434">
<path d="M206.009,27.306c-0.804,0 -1.467,-0.189 -2.129,-0.568c-0.662,-0.378 -1.183,-0.899 -1.561,-1.561c-0.378,-0.662 -0.568,-1.325 -0.568,-2.129c0,-0.804 0.189,-1.467 0.568,-2.129c0.378,-0.662 0.899,-1.183 1.561,-1.561c0.662,-0.378 1.325,-0.568 2.129,-0.568c0.804,0 1.467,0.189 2.129,0.568c0.662,0.378 1.183,0.899 1.561,1.561c0.378,0.662 0.568,1.325 0.568,2.129c0,0.804 -0.189,1.467 -0.568,2.129c-0.378,0.662 -0.899,1.183 -1.561,1.561c-0.662,0.378 -1.325,0.568 -2.129,0.568Z" id="path1430" style="fill:#630;" />
<rect x="201.752" y="18.79" width="8.563" height="8.563" id="rect1432" style="fill:none;" />
</g>
<g id="g1440">
<path d="M206.057,25.319c-0.426,0 -0.804,-0.095 -1.135,-0.331c-0.378,-0.189 -0.662,-0.473 -0.852,-0.804c-0.237,-0.378 -0.331,-0.757 -0.331,-1.183c0,-0.426 0.095,-0.804 0.331,-1.135c0.189,-0.378 0.473,-0.662 0.852,-0.852c0.331,-0.237 0.71,-0.331 1.135,-0.331c0.426,0 0.804,0.095 1.183,0.331c0.331,0.189 0.615,0.473 0.804,0.852c0.237,0.331 0.331,0.71 0.331,1.135c0,0.426 -0.095,0.804 -0.331,1.183c-0.189,0.331 -0.473,0.615 -0.804,0.804c-0.378,0.237 -0.757,0.331 -1.183,0.331Z" id="path1436" style="fill:#f90;" />
<rect x="203.739" y="20.683" width="4.684" height="4.684" id="rect1438" style="fill:none;" />
</g>
</g>
<g id="DrawingGroup_53">
<g id="g1474">
<rect x="172.893" y="27.684" width="24.128" height="2.839" id="path1470" style="fill:#ddd;" />
<rect x="172.893" y="27.684" width="24.175" height="2.886" id="rect1472" style="fill:none;" />
</g>
<g id="g1480">
<rect x="172.893" y="37.809" width="24.128" height="2.839" id="path1476" style="fill:#ddd;" />
<rect x="172.893" y="37.809" width="24.175" height="2.886" id="rect1478" style="fill:none;" />
</g>
<g id="g1486">
<rect x="175.258" y="26.265" width="19.87" height="16.085" id="path1482" />
<rect x="175.258" y="26.265" width="19.917" height="16.132" id="rect1484" style="fill:none;" />
</g>
<g id="g1494">
<path d="M185.477,28.631c4.305,0 7.569,2.46 7.569,5.677c0,3.217 -3.264,5.677 -7.569,5.677c-4.305,0 -7.569,-2.46 -7.569,-5.677c0,-3.217 3.264,-5.677 7.569,-5.677Z" id="path1488" style="fill:#ddd;" />
<rect x="177.908" y="28.631" width="15.234" height="11.402" id="rect1490" style="fill:none;" />
<rect x="177.908" y="28.631" width="15.186" height="11.402" id="rect1492" style="fill:none;" />
</g>
<g id="g1502">
<path d="M175.258,37.572l4.258,4.778l-4.258,0l0,-4.778Z" id="path1496" style="fill:#ddd;" />
<rect x="175.258" y="37.572" width="4.305" height="4.826" id="rect1498" style="fill:none;" />
<rect x="175.258" y="37.572" width="4.305" height="4.778" id="rect1500" style="fill:none;" />
</g>
<g id="g1510">
<path d="M175.258,31.043l4.258,-4.778l-4.258,0l0,4.778Z" id="path1504" style="fill:#ddd;" />
<rect x="175.258" y="26.265" width="4.305" height="4.826" id="rect1506" style="fill:none;" />
<rect x="175.211" y="26.312" width="4.352" height="4.826" id="rect1508" style="fill:none;" />
</g>
<g id="g1518">
<path d="M195.128,31.043l-4.258,-4.778l4.258,0l0,4.778Z" id="path1512" style="fill:#ddd;" />
<rect x="190.871" y="26.265" width="4.305" height="4.826" id="rect1514" style="fill:none;" />
<rect x="190.823" y="26.312" width="4.352" height="4.826" id="rect1516" style="fill:none;" />
</g>
<g id="g1526">
<path d="M195.128,37.572l-4.258,4.778l4.258,0l0,-4.778Z" id="path1520" style="fill:#ddd;" />
<rect x="190.871" y="37.572" width="4.305" height="4.826" id="rect1522" style="fill:none;" />
<rect x="190.871" y="37.572" width="4.305" height="4.778" id="rect1524" style="fill:none;" />
</g>
</g>
<g id="DrawingGroup_54">
<g id="g1555">
<rect x="216.938" y="32.321" width="30.514" height="36.333" id="path1551" style="fill:#cfcfcf;" />
<rect x="216.938" y="32.273" width="30.562" height="36.428" id="rect1553" style="fill:none;" />
</g>
<g id="g1558">
<rect x="216.938" y="32.321" width="30.514" height="36.333" id="Drawing_238_0" style="fill:none;stroke:#000;stroke-width:0.95px;" />
</g>
</g>
</g>
<circle cx="235.887" cy="94.198" r="3.478" id="connector0pin-0" style="fill:none;stroke:#ffbf00;stroke-width:1.67px;stroke-linejoin:miter;" />
<circle cx="223.893" cy="94.198" r="3.478" id="connector1pin-1" style="fill:none;stroke:#ffbf00;stroke-width:1.67px;stroke-linejoin:miter;" />
<circle cx="211.899" cy="94.198" r="3.478" id="connector2pin-3" style="fill:none;stroke:#ffbf00;stroke-width:1.67px;stroke-linejoin:miter;" />
<circle cx="199.904" cy="94.198" r="3.478" id="connector3pin-7" style="fill:none;stroke:#ffbf00;stroke-width:1.67px;stroke-linejoin:miter;" />
<circle cx="187.91" cy="94.198" r="3.478" id="connector4pin-4" style="fill:none;stroke:#ffbf00;stroke-width:1.67px;stroke-linejoin:miter;" />
<circle cx="175.916" cy="94.198" r="3.478" id="connector5pin-1" style="fill:none;stroke:#ffbf00;stroke-width:1.67px;stroke-linejoin:miter;" />
<circle cx="163.921" cy="94.198" r="3.478" id="connector6pin-1" style="fill:none;stroke:#ffbf00;stroke-width:1.67px;stroke-linejoin:miter;" />
<circle cx="151.927" cy="94.198" r="3.478" id="connector7pin-3" style="fill:none;stroke:#ffbf00;stroke-width:1.67px;stroke-linejoin:miter;" />
<circle cx="139.931" cy="94.198" r="3.478" id="connector8pin-0" style="fill:none;stroke:#ffbf00;stroke-width:1.67px;stroke-linejoin:miter;" />
<circle cx="127.938" cy="94.198" r="3.478" id="connector9pin-3" style="fill:none;stroke:#ffbf00;stroke-width:1.67px;stroke-linejoin:miter;" />
<circle cx="115.944" cy="94.198" r="3.478" id="connector10pin-2" style="fill:none;stroke:#ffbf00;stroke-width:1.67px;stroke-linejoin:miter;" />
<circle cx="103.95" cy="94.198" r="3.48" id="connector11pin-1" style="fill:none;stroke:#ffbf00;stroke-width:1.67px;stroke-linejoin:miter;" />
<circle cx="91.956" cy="94.198" r="3.478" id="connector12pin-7" style="fill:none;stroke:#ffbf00;stroke-width:1.67px;stroke-linejoin:miter;" />
<circle cx="79.961" cy="94.198" r="3.478" id="connector13pin-5" style="fill:none;stroke:#ffbf00;stroke-width:1.67px;stroke-linejoin:miter;" />
<circle cx="67.965" cy="94.198" r="3.478" id="connector14pin-6" style="fill:none;stroke:#ffbf00;stroke-width:1.67px;stroke-linejoin:miter;" />
<circle cx="55.973" cy="94.198" r="3.478" id="connector15pin-5" style="fill:none;stroke:#ffbf00;stroke-width:1.67px;stroke-linejoin:miter;" />
<circle cx="43.978" cy="94.198" r="3.48" id="connector16pin-4" style="fill:none;stroke:#ffbf00;stroke-width:1.67px;stroke-linejoin:miter;" />
<circle cx="31.984" cy="94.198" r="3.478" id="connector17pin-2" style="fill:none;stroke:#ffbf00;stroke-width:1.67px;stroke-linejoin:miter;" />
<circle cx="19.991" cy="94.198" r="3.478" id="connector18pin-2" style="fill:none;stroke:#ffbf00;stroke-width:1.67px;stroke-linejoin:miter;" />
<circle cx="7.995" cy="94.198" r="3.478" id="connector19pin-1" style="fill:none;stroke:#ffbf00;stroke-width:1.67px;stroke-linejoin:miter;" />
<g>
<circle cx="7.995" cy="6.19" r="3.478" id="connector20pin-7" style="fill:none;stroke:#ffbf00;stroke-width:1.67px;stroke-linejoin:miter;" />
<circle cx="19.991" cy="6.19" r="3.478" id="connector21pin-2" style="fill:none;stroke:#ffbf00;stroke-width:1.67px;stroke-linejoin:miter;" />
<circle cx="31.984" cy="6.19" r="3.478" id="connector22pin-4" style="fill:none;stroke:#ffbf00;stroke-width:1.67px;stroke-linejoin:miter;" />
<circle cx="43.978" cy="6.19" r="3.48" id="connector23pin-1" style="fill:none;stroke:#ffbf00;stroke-width:1.67px;stroke-linejoin:miter;" />
<circle cx="55.973" cy="6.19" r="3.478" id="connector24pin-6" style="fill:none;stroke:#ffbf00;stroke-width:1.67px;stroke-linejoin:miter;" />
<circle cx="67.965" cy="6.19" r="3.478" id="connector25pin-5" style="fill:none;stroke:#ffbf00;stroke-width:1.67px;stroke-linejoin:miter;" />
<circle cx="79.961" cy="6.19" r="3.478" id="connector26pin-7" style="fill:none;stroke:#ffbf00;stroke-width:1.67px;stroke-linejoin:miter;" />
<circle cx="91.956" cy="6.19" r="3.478" id="connector27pin-8" style="fill:none;stroke:#ffbf00;stroke-width:1.67px;stroke-linejoin:miter;" />
<circle cx="103.95" cy="6.19" r="3.48" id="connector28pin-5" style="fill:none;stroke:#ffbf00;stroke-width:1.67px;stroke-linejoin:miter;" />
<circle cx="115.944" cy="6.19" r="3.478" id="connector29pin-9" style="fill:none;stroke:#ffbf00;stroke-width:1.67px;stroke-linejoin:miter;" />
<circle cx="127.938" cy="6.19" r="3.478" id="connector30pin-2" style="fill:none;stroke:#ffbf00;stroke-width:1.67px;stroke-linejoin:miter;" />
<circle cx="139.931" cy="6.19" r="3.478" id="connector31pin-7" style="fill:none;stroke:#ffbf00;stroke-width:1.67px;stroke-linejoin:miter;" />
<circle cx="151.927" cy="6.19" r="3.478" id="connector32pin-3" style="fill:none;stroke:#ffbf00;stroke-width:1.67px;stroke-linejoin:miter;" />
<circle cx="163.921" cy="6.19" r="3.478" id="connector33pin-6" style="fill:none;stroke:#ffbf00;stroke-width:1.67px;stroke-linejoin:miter;" />
<circle cx="175.916" cy="6.19" r="3.478" id="connector34pin-4" style="fill:none;stroke:#ffbf00;stroke-width:1.67px;stroke-linejoin:miter;" />
<circle cx="187.91" cy="6.19" r="3.478" id="connector35pin-7" style="fill:none;stroke:#ffbf00;stroke-width:1.67px;stroke-linejoin:miter;" />
<circle cx="199.904" cy="6.19" r="3.478" id="connector36pin-9" style="fill:none;stroke:#ffbf00;stroke-width:1.67px;stroke-linejoin:miter;" />
<circle cx="211.899" cy="6.19" r="3.478" id="connector37pin-7" style="fill:none;stroke:#ffbf00;stroke-width:1.67px;stroke-linejoin:miter;" />
<circle cx="223.893" cy="6.19" r="3.478" id="connector38pin-2" style="fill:none;stroke:#ffbf00;stroke-width:1.67px;stroke-linejoin:miter;" />
<circle cx="235.887" cy="6.19" r="3.478" id="connector39pin-2" style="fill:none;stroke:#ffbf00;stroke-width:1.67px;stroke-linejoin:miter;" />
</g>
</g>
</g>
<text x="164.5" y="251.0" font-size="14" text-anchor="middle" font-family="Arial, sans-serif" font-weight="bold" fill="#E0E0E0">Raspberry Pi Pico</text>
<circle cx="276.0" cy="136.5" r="4.5" fill="#00FF00" stroke="#E0E0E0" stroke-width="0.5" opacity="0.95" />
<text x="276.0" y="138.0" font-size="4.5" text-anchor="middle" font-family="Arial, sans-serif" font-weight="bold" fill="#000000">1</text>
<circle cx="264.0" cy="136.5" r="4.5" fill="#00FF00" stroke="#E0E0E0" stroke-width="0.5" opacity="0.95" />
<text x="264.0" y="138.0" font-size="4.5" text-anchor="middle" font-family="Arial, sans-serif" font-weight="bold" fill="#000000">2</text>
<circle cx="252.0" cy="136.5" r="4.5" fill="#D3D3D3" stroke="#E0E0E0" stroke-width="0.5" opacity="0.95" />
<text x="252.0" y="138.0" font-size="4.5" text-anchor="middle" font-family="Arial, sans-serif" font-weight="bold" fill="#000000">3</text>
<circle cx="240.0" cy="136.5" r="4.5" fill="#00FF00" stroke="#E0E0E0" stroke-width="0.5" opacity="0.95" />
<text x="240.0" y="138.0" font-size="4.5" text-anchor="middle" font-family="Arial, sans-serif" font-weight="bold" fill="#000000">4</text>
<circle cx="228.0" cy="136.5" r="4.5" fill="#00FF00" stroke="#E0E0E0" stroke-width="0.5" opacity="0.95" />
<text x="228.0" y="138.0" font-size="4.5" text-anchor="middle" font-family="Arial, sans-serif" font-weight="bold" fill="#000000">5</text>
<circle cx="216.0" cy="136.5" r="4.5" fill="#00FF00" stroke="#E0E0E0" stroke-width="0.5" opacity="0.95" />
<text x="216.0" y="138.0" font-size="4.5" text-anchor="middle" font-family="Arial, sans-serif" font-weight="bold" fill="#000000">6</text>
<circle cx="204.0" cy="136.5" r="4.5" fill="#00FF00" stroke="#E0E0E0" stroke-width="0.5" opacity="0.95" />
<text x="204.0" y="138.0" font-size="4.5" text-anchor="middle" font-family="Arial, sans-serif" font-weight="bold" fill="#000000">7</text>
<circle cx="192.0" cy="136.5" r="4.5" fill="#D3D3D3" stroke="#E0E0E0" stroke-width="0.5" opacity="0.95" />
<text x="192.0" y="138.0" font-size="4.5" text-anchor="middle" font-family="Arial, sans-serif" font-weight="bold" fill="#000000">8</text>
<circle cx="180.0" cy="136.5" r="4.5" fill="#00FF00" stroke="#E0E0E0" stroke-width="0.5" opacity="0.95" />
<text x="180.0" y="138.0" font-size="4.5" text-anchor="middle" font-family="Arial, sans-serif" font-weight="bold" fill="#000000">9</text>
<circle cx="168.0" cy="136.5" r="4.5" fill="#00FF00" stroke="#E0E0E0" stroke-width="0.5" opacity="0.95" />
<text x="168.0" y="138.0" font-size="4.5" text-anchor="middle" font-family="Arial, sans-serif" font-weight="bold" fill="#000000">10</text>
<circle cx="156.0" cy="136.5" r="4.5" fill="#00FF00" stroke="#E0E0E0" stroke-width="0.5" opacity="0.95" />
<text x="156.0" y="138.0" font-size="4.5" text-anchor="middle" font-family="Arial, sans-serif" font-weight="bold" fill="#000000">11</text>
<circle cx="144.0" cy="136.5" r="4.5" fill="#00FF00" stroke="#E0E0E0" stroke-width="0.5" opacity="0.95" />
<text x="144.0" y="138.0" font-size="4.5" text-anchor="middle" font-family="Arial, sans-serif" font-weight="bold" fill="#000000">12</text>
<circle cx="132.0" cy="136.5" r="4.5" fill="#D3D3D3" stroke="#E0E0E0" stroke-width="0.5" opacity="0.95" />
<text x="132.0" y="138.0" font-size="4.5" text-anchor="middle" font-family="Arial, sans-serif" font-weight="bold" fill="#000000">13</text>
<circle cx="120.0" cy="136.5" r="4.5" fill="#00FF00" stroke="#E0E0E0" stroke-width="0.5" opacity="0.95" />
<text x="120.0" y="138.0" font-size="4.5" text-anchor="middle" font-family="Arial, sans-serif" font-weight="bold" fill="#000000">14</text>
<circle cx="108.0" cy="136.5" r="4.5" fill="#00FF00" stroke="#E0E0E0" stroke-width="0.5" opacity="0.95" />
<text x="108.0" y="138.0" font-size="4.5" text-anchor="middle" font-family="Arial, sans-serif" font-weight="bold" fill="#000000">15</text>
<circle cx="96.0" cy="136.5" r="4.5" fill="#00FF00" stroke="#E0E0E0" stroke-width="0.5" opacity="0.95" />
<text x="96.0" y="138.0" font-size="4.5" text-anchor="middle" font-family="Arial, sans-serif" font-weight="bold" fill="#000000">16</text>
<circle cx="84.0" cy="136.5" r="4.5" fill="#00FF00" stroke="#E0E0E0" stroke-width="0.5" opacity="0.95" />
<text x="84.0" y="138.0" font-size="4.5" text-anchor="middle" font-family="Arial, sans-serif" font-weight="bold" fill="#000000">17</text>
<circle cx="72.0" cy="136.5" r="4.5" fill="#D3D3D3" stroke="#E0E0E0" stroke-width="0.5" opacity="0.95" />
<text x="72.0" y="138.0" font-size="4.5" text-anchor="middle" font-family="Arial, sans-serif" font-weight="bold" fill="#000000">18</text>
<circle cx="60.0" cy="136.5" r="4.5" fill="#00FF00" stroke="#E0E0E0" stroke-width="0.5" opacity="0.95" />
<text x="60.0" y="138.0" font-size="4.5" text-anchor="middle" font-family="Arial, sans-serif" font-weight="bold" fill="#000000">19</text>
<circle cx="48.0" cy="136.5" r="4.5" fill="#00FF00" stroke="#E0E0E0" stroke-width="0.5" opacity="0.95" />
<text x="48.0" y="138.0" font-size="4.5" text-anchor="middle" font-family="Arial, sans-serif" font-weight="bold" fill="#000000">20</text>
<circle cx="48.0" cy="224.0" r="4.5" fill="#00FF00" stroke="#E0E0E0" stroke-width="0.5" opacity="0.95" />
<text x="48.0" y="225.5" font-size="4.5" text-anchor="middle" font-family="Arial, sans-serif" font-weight="bold" fill="#000000">21</text>
<circle cx="60.0" cy="224.0" r="4.5" fill="#00FF00" stroke="#E0E0E0" stroke-width="0.5" opacity="0.95" />
<text x="60.0" y="225.5" font-size="4.5" text-anchor="middle" font-family="Arial, sans-serif" font-weight="bold" fill="#000000">22</text>
<circle cx="72.0" cy="224.0" r="4.5" fill="#D3D3D3" stroke="#E0E0E0" stroke-width="0.5" opacity="0.95" />
<text x="72.0" y="225.5" font-size="4.5" text-anchor="middle" font-family="Arial, sans-serif" font-weight="bold" fill="#000000">23</text>
<circle cx="84.0" cy="224.0" r="4.5" fill="#00FF00" stroke="#E0E0E0" stroke-width="0.5" opacity="0.95" />
<text x="84.0" y="225.5" font-size="4.5" text-anchor="middle" font-family="Arial, sans-serif" font-weight="bold" fill="#000000">24</text>
<circle cx="96.0" cy="224.0" r="4.5" fill="#00FF00" stroke="#E0E0E0" stroke-width="0.5" opacity="0.95" />
<text x="96.0" y="225.5" font-size="4.5" text-anchor="middle" font-family="Arial, sans-serif" font-weight="bold" fill="#000000">25</text>
<circle cx="108.0" cy="224.0" r="4.5" fill="#00FF00" stroke="#E0E0E0" stroke-width="0.5" opacity="0.95" />
<text x="108.0" y="225.5" font-size="4.5" text-anchor="middle" font-family="Arial, sans-serif" font-weight="bold" fill="#000000">26</text>
<circle cx="120.0" cy="224.0" r="4.5" fill="#00FF00" stroke="#E0E0E0" stroke-width="0.5" opacity="0.95" />
<text x="120.0" y="225.5" font-size="4.5" text-anchor="middle" font-family="Arial, sans-serif" font-weight="bold" fill="#000000">27</text>
<circle cx="132.0" cy="224.0" r="4.5" fill="#D3D3D3" stroke="#E0E0E0" stroke-width="0.5" opacity="0.95" />
<text x="132.0" y="225.5" font-size="4.5" text-anchor="middle" font-family="Arial, sans-serif" font-weight="bold" fill="#000000">28</text>
<circle cx="144.0" cy="224.0" r="4.5" fill="#00FF00" stroke="#E0E0E0" stroke-width="0.5" opacity="0.95" />
<text x="144.0" y="225.5" font-size="4.5" text-anchor="middle" font-family="Arial, sans-serif" font-weight="bold" fill="#000000">29</text>
<circle cx="156.0" cy="224.0" r="4.5" fill="#00FF00" stroke="#E0E0E0" stroke-width="0.5" opacity="0.95" />
<text x="156.0" y="225.5" font-size="4.5" text-anchor="middle" font-family="Arial, sans-serif" font-weight="bold" fill="#000000">30</text>
<circle cx="168.0" cy="224.0" r="4.5" fill="#00FF00" stroke="#E0E0E0" stroke-width="0.5" opacity="0.95" />
<text x="168.0" y="225.5" font-size="4.5" text-anchor="middle" font-family="Arial, sans-serif" font-weight="bold" fill="#000000">31</text>
<circle cx="180.0" cy="224.0" r="4.5" fill="#00FF00" stroke="#E0E0E0" stroke-width="0.5" opacity="0.95" />
<text x="180.0" y="225.5" font-size="4.5" text-anchor="middle" font-family="Arial, sans-serif" font-weight="bold" fill="#000000">32</text>
<circle cx="192.0" cy="224.0" r="4.5" fill="#D3D3D3" stroke="#E0E0E0" stroke-width="0.5" opacity="0.95" />
<text x="192.0" y="225.5" font-size="4.5" text-anchor="middle" font-family="Arial, sans-serif" font-weight="bold" fill="#000000">33</text>
<circle cx="204.0" cy="224.0" r="4.5" fill="#00FF00" stroke="#E0E0E0" stroke-width="0.5" opacity="0.95" />
<text x="204.0" y="225.5" font-size="4.5" text-anchor="middle" font-family="Arial, sans-serif" font-weight="bold" fill="#000000">34</text>
<circle cx="216.0" cy="224.0" r="4.5" fill="#00FF00" stroke="#E0E0E0" stroke-width="0.5" opacity="0.95" />
<text x="216.0" y="225.5" font-size="4.5" text-anchor="middle" font-family="Arial, sans-serif" font-weight="bold" fill="#000000">35</text>
<circle cx="228.0" cy="224.0" r="4.5" fill="#FFA500" stroke="#E0E0E0" stroke-width="0.5" opacity="0.95" />
<text x="228.0" y="225.5" font-size="4.5" text-anchor="middle" font-family="Arial, sans-serif" font-weight="bold" fill="#000000">36</text>
<circle cx="240.0" cy="224.0" r="4.5" fill="#FFA500" stroke="#E0E0E0" stroke-width="0.5" opacity="0.95" />
<text x="240.0" y="225.5" font-size="4.5" text-anchor="middle" font-family="Arial, sans-serif" font-weight="bold" fill="#000000">37</text>
<circle cx="252.0" cy="224.0" r="4.5" fill="#D3D3D3" stroke="#E0E0E0" stroke-width="0.5" opacity="0.95" />
<text x="252.0" y="225.5" font-size="4.5" text-anchor="middle" font-family="Arial, sans-serif" font-weight="bold" fill="#000000">38</text>
<circle cx="264.0" cy="224.0" r="4.5" fill="#FF0000" stroke="#E0E0E0" stroke-width="0.5" opacity="0.95" />
<text x="264.0" y="225.5" font-size="4.5" text-anchor="middle" font-family="Arial, sans-serif" font-weight="bold" fill="#000000">39</text>
<circle cx="276.0" cy="224.0" r="4.5" fill="#FF0000" stroke="#E0E0E0" stroke-width="0.5" opacity="0.95" />
<text x="276.0" y="225.5" font-size="4.5" text-anchor="middle" font-family="Arial, sans-serif" font-weight="bold" fill="#000000">40</text>
<path d="M 252.00,136.50 C 276.30,151.70 365.10,162.20 440.00,156.50" stroke="#2C2C2C" stroke-width="4.5" fill="none" stroke-linecap="round" stroke-linejoin="round" opacity="1.0" />
<path d="M 252.00,136.50 C 276.30,151.70 365.10,162.20 440.00,156.50" stroke="#E0E0E0" stroke-width="3.0" fill="none" stroke-linecap="round" stroke-linejoin="round" opacity="0.8" />
<circle cx="252.0" cy="136.5" r="4.0" fill="white" />
<circle cx="252.0" cy="136.5" r="3.0" fill="#E0E0E0" />
<path d="M 276.00,136.50 C 290.70,121.30 359.50,140.80 371.51,141.65" stroke="white" stroke-width="4.5" fill="none" stroke-linecap="round" stroke-linejoin="round" opacity="1.0" />
<path d="M 276.00,136.50 C 290.70,121.30 359.50,140.80 371.51,141.65" stroke="#4A90E2" stroke-width="3.0" fill="none" stroke-linecap="round" stroke-linejoin="round" opacity="0.8" />
<g transform="translate(371.5107972612332, 141.6504539675656) rotate(4.050208427760393)">
<rect x="-10.0" y="-3.0" width="20.0" height="6.0" fill="white" stroke="#4A90E2" stroke-width="2" />
<path d="M-18.0,0 L-10.0,0" stroke="#4A90E2" stroke-width="2" />
<path d="M10.0,0 L18.0,0" stroke="#4A90E2" stroke-width="2" />
<text x="0" y="-8.0" font-size="10" text-anchor="middle" font-family="Arial, sans-serif" fill="#E0E0E0" font-weight="bold">220</text>
</g>
<path d="M 371.51,141.65 Q 440.00,146.50 457.00,146.50" stroke="white" stroke-width="4.5" fill="none" stroke-linecap="round" stroke-linejoin="round" opacity="1.0" />
<path d="M 371.51,141.65 Q 440.00,146.50 457.00,146.50" stroke="#4A90E2" stroke-width="3.0" fill="none" stroke-linecap="round" stroke-linejoin="round" opacity="0.8" />
<circle cx="276.0" cy="136.5" r="4.0" fill="white" />
<circle cx="276.0" cy="136.5" r="3.0" fill="#4A90E2" />
<text x="475.0" y="131.5" font-size="12.0" text-anchor="middle" font-family="Arial, sans-serif" font-weight="bold" fill="#E0E0E0">Status LED</text>
<rect x="450.0" y="136.5" width="50.0" height="40.0" rx="5" ry="5" fill="#E74C3C" stroke="#E0E0E0" stroke-width="2" opacity="0.9" />
<path d="M 440.00,156.50 L 457.00,156.50" stroke="#2C2C2C" stroke-width="4.5" fill="none" stroke-linecap="round" stroke-linejoin="round" opacity="1.0" />
<path d="M 440.00,156.50 L 457.00,156.50" stroke="#E0E0E0" stroke-width="3.0" fill="none" stroke-linecap="round" stroke-linejoin="round" opacity="0.8" />
<path d="M 440.00,146.50 L 457.00,146.50" stroke="white" stroke-width="4.5" fill="none" stroke-linecap="round" stroke-linejoin="round" opacity="1.0" />
<path d="M 440.00,146.50 L 457.00,146.50" stroke="#4A90E2" stroke-width="3.0" fill="none" stroke-linecap="round" stroke-linejoin="round" opacity="0.8" />
<circle cx="455.0" cy="146.5" r="4.0" fill="white" opacity="0.8" />
<circle cx="455.0" cy="146.5" r="3.0" fill="#FFD700" stroke="#E0E0E0" stroke-width="1" opacity="1.0" />
<rect x="461.0" y="141.5" width="12.5" height="10" rx="2" ry="2" fill="#FFFFFF" opacity="0.8" />
<text x="465.0" y="149.0" font-size="7" text-anchor="start" font-family="Arial, sans-serif" fill="#000000">+</text>
<circle cx="455.0" cy="156.5" r="4.0" fill="white" opacity="0.8" />
<circle cx="455.0" cy="156.5" r="3.0" fill="#FFD700" stroke="#E0E0E0" stroke-width="1" opacity="1.0" />
<rect x="461.0" y="151.5" width="12.5" height="10" rx="2" ry="2" fill="#FFFFFF" opacity="0.8" />
<text x="465.0" y="159.0" font-size="7" text-anchor="start" font-family="Arial, sans-serif" fill="#000000">-</text>
</svg>